<?xml version="1.0" encoding="utf-8"?>
<!-- Generator: Adobe Illustrator 25.0.0, SVG Export Plug-In . SVG Version: 6.00 Build 0)  -->
<svg version="1.1" id="Capa_1" xmlns="http://www.w3.org/2000/svg" xmlns:xlink="http://www.w3.org/1999/xlink" x="0px" y="0px"
	 viewBox="0 0 74.9 74.9" style="enable-background:new 0 0 74.9 74.9;" xml:space="preserve">
<style type="text/css">
	.st0{fill:#003D7C;}
	.st1{fill-rule:evenodd;clip-rule:evenodd;fill:#7DBA47;}
	.st2{fill-rule:evenodd;clip-rule:evenodd;fill:#80BA27;}
	.st3{fill:#97C23F;}
	.st4{fill:#33A7DF;}
	.st5{fill:#0665AE;}
	.st6{fill:#459F3E;}
	.st7{fill:#808184;}
	.st8{fill:#98C93C;}
	.st9{fill:#32A9E0;}
	.st10{fill:#0065B0;}
	.st11{fill:#44A03F;}
	.st12{fill:#808285;}
	.st13{fill:none;}
</style>
<g>
	<g>
		<path class="st0" d="M39,2.4c-1.3,0-2.7-0.1-4.1,0c-9,0.3-17,3.9-23.1,9.7C5.4,18,1.2,26.1,0.2,34.8c-0.6,5.5,0.3,11.5,2.5,17.3
			c3.8,4.4,9,6.5,14.2,6.3c-5.5-6.2-8.6-14.5-8-23.4C10,18.7,23.1,6.1,39,4.9c1.4,0,2.8,0,4.2,0c1.5,0.1,3.1,0.4,4.7,0.7
			c-0.7-0.1-1.3-0.1-2-0.3c-2.4-0.1-4.6,0-6.9,0.4C26.2,8,15.9,18.9,15.1,32.5c-0.6,8.6,2.7,16.5,8.2,22.3l1.8,1.7
			c2-1,3.9-2.3,5.5-3.9l-2.1-1.8c-4.7-5.1-7.3-12-6.8-19.4C22.4,20.6,29.5,11.8,39,8.5c3.2-1.1,6.8-1.5,10.3-1.4
			c0.8,0.1,1.5,0.1,2.4,0.3l0.1-1.4C47.9,3.9,43.7,2.8,39,2.4z"/>
		<path class="st0" d="M39,10c-6.9,3.7-12,10.8-12.5,19.3c-0.4,6.6,2.1,13,6.3,17.5l1.1,1.1c0.8-1.8,1.4-4.4,1.5-6.1
			c-2.7-3.4-3.7-7.5-3.8-10.7c-0.3-6.8,2.7-13,7.3-17c3.4-3,7.6-4.9,12.4-5.5l0.1-1.1h-0.1C46.9,7.2,42.7,8.2,39,10z"/>
	</g>
	<path class="st1" d="M59.2,23.4l-1.3,4.2L54.1,0l-0.3,2.1l-2.7,18.6l-1.1-1l-0.4,3.1L49,22l-1,0.8l-1.3-3.4l-0.1-0.7L45,20.3
		c0,4.1-1.4,11.7-4.4,17.9l0.4-0.3c0,0,0,0,0.1-0.1c2.3-3.8,4.1-8.5,5.5-13.9l0.1,0.8l1.8,9.7c0.8,0,1.8-0.1,2.8,0l2.4-23.9V9.9
		L55,34.4v0.4c1.5,0.4,3,1,4.5,1.8l1-10.6l13.7-2.7L59.2,23.4z"/>
	<g>
		<path class="st2" d="M61.6,40.7c-2.5-2.4-5.2-3.8-7.7-4.4c-0.4-0.1-0.8-0.3-1.3-0.3c-2-0.4-3.9-0.3-5.8,0
			c-3.9,0.6-6.6,2.3-5.6,2.3c0.8,0,1.8,0.3,2.7,0.6c1,0.3,2.1,0.6,3,1.1c1.1,0.6,2.3,1.1,3.2,2c1.4,1,2.7,2.4,3.8,3.8
			c0.3,0.4,0.6,0.8,0.8,1.3c1.5,2.5,2.7,5.6,3.1,8.6c0.4,3.1,0,6.2-1,9.2c-0.7,1.8-1.7,3.7-3,5.2c0,0.1-0.1,0.1-0.1,0.1h0.1
			c5.5-3,11.8-7.3,12.8-15.1C67.2,49.3,65.2,44.1,61.6,40.7z"/>
		<path class="st2" d="M46.8,45.1c-3.7-3.2-7.6-4.2-6.9-3.4c0.6,0.6,1.1,1.4,1.6,2.3c1.3,2,2,4.2,2.3,6.5c0.3,2.3,0.1,4.6-0.4,6.9
			c-0.6,3.1-2,5.9-3.8,8.3c-1.8,2.4-4.1,4.2-6.8,5.6c-0.1,0-0.3,0.1-0.4,0.1c-1.8,0.8-3.8,1.4-6.1,1.7c2.1,0.6,4.2,1.1,6.5,1.5
			c4.5,0.6,9.3,0.1,13.4-3.1c0.3-0.3,0.6-0.4,0.7-0.7c4.1-3.5,6.1-8.3,5.9-13.1c0-3.9-1.4-7.2-3.1-9.6
			C48.8,46.9,47.8,45.9,46.8,45.1z"/>
		<path class="st2" d="M34.4,63.7c2.8-3,4.1-6.1,4.7-9c1.1-6.8-2.3-13-2.3-11.5c-0.1,1-0.3,2-0.6,2.8c-0.6,2.3-1.7,4.4-3.1,6.1
			c-0.1,0.3-0.3,0.4-0.4,0.6c-1.3,1.5-2.8,3-4.7,4.2c-2.7,1.5-5.6,2.7-8.6,3.1c-3.1,0.3-6.2,0-9.2-1c-2-0.7-3.8-1.7-5.5-3.1
			c3,5.5,7.3,12,15.2,12.8c4.9,0.6,9.4-0.8,12.7-3.5C33.4,64.7,33.8,64.2,34.4,63.7z"/>
	</g>
</g>
<g>
	<g>
		<g>
			<path class="st3" d="M-31.1,159.5v4.7c16.3-1.7,29.2-14.7,31-31h-4.7C-6.5,147-17.4,157.9-31.1,159.5z"/>
			<path class="st4" d="M-4.8,125.9h4.7c-1.7-16.3-14.7-29.2-31-31v4.7C-17.4,101.2-6.5,112.1-4.8,125.9z"/>
			<path class="st5" d="M-38.5,99.6v-4.7c-16.3,1.7-29.2,14.7-31,31h4.7C-63.1,112.1-52.2,101.2-38.5,99.6z"/>
			<path class="st6" d="M-64.8,133.3h-4.7c1.7,16.3,14.7,29.2,31,31v-4.7C-52.2,157.9-63.1,147-64.8,133.3z"/>
		</g>
	</g>
	<g>
		<path class="st7" d="M-23.4,147.2c-4.2,3.6-9.9,3.5-15.9,1c-3.5-1.5-5.1-4.2-12-6.3c-3.8-1.2-4.9,0.4-7.4,1
			c4.7,8.3,13.6,14,23.9,14c8.9,0,16.9-4.3,21.9-10.9C-14.4,145.2-19.4,143.8-23.4,147.2z"/>
		<g>
			<path class="st7" d="M-7.7,125.4c-0.6-0.2-1.1-0.3-1.9-0.4c-1.1-0.2-2.3-0.4-3.3-0.4c-0.6,0-1.7,0-2.2-0.3
				c-0.5-0.3-1.7,0.2-2-0.4c-0.3-0.6-0.8,0-2.5-1c-0.7-0.4-3.6-2.8-4.1-3.4c-0.5-0.6-1-2.1-1-2.1s-0.6-0.5-0.7-1
				c-0.1-0.5-1.8-2.7-2.2-3.4c-0.4-0.7-1.3-1-1.7-1.4c-0.4-0.4-1.1-0.3-1.5-0.3c-0.4,0-0.9,0.1-1.5,0.4c-0.6,0.3-1.4,1.1-1.8,1.6
				c-0.4,0.5-0.8,0.8-1.3,1.2c-0.5,0.4-1.5,1.6-1.7,2c-0.2,0.4-0.8,1.5-1.2,2.2c-0.4,0.7-1.1,1.6-1.1,2.2s-1,1.7-1.3,2.2
				c-0.3,0.5-2.6,5.8-3,6.1c-0.4,0.3-1.5,2.9-2.8,3.4c-1.3,0.5-2.8,0.7-3.5,0.7c-0.7,0-2-2.2-2.1-2.5c-0.1-0.3-1.2-0.7-1.5-1.5
				c-0.3-0.8-1.1-0.7-1.1-0.7s-0.1-0.8-0.7-1.3c-0.6-0.5-1.3,0-2.5,1.1c-1.2,1.1-2.5,2.7-3.8,5.7c0,0.1,0,0.2-0.1,0.5
				c0.4,1.9,0.9,3.8,1.7,5.6c3.1-0.8,7.2-0.6,11,0.8c3.6,1.3,7.8,3.6,12.8,4.7c3.7,0.8,7.3,0.9,10.3,0c2.3-0.7,4-1.8,6.5-2.7
				c3.4-1.3,6.4-0.5,8.4,0.6c2.4-4.1,3.8-8.8,3.8-13.9C-7.4,128-7.5,126.7-7.7,125.4z M-21.8,133.1
				C-21.8,133.1-21.8,133.1-21.8,133.1c0,1-0.2,1.9-0.5,2.8c0.2,0.1,0.3,0.2,0.4,0.4c1.3,1.3,1.2,3.5-0.2,4.9l-2.2-2.2
				c-0.7,0.7-1.5,1.2-2.3,1.7c0,0.2,0,0.4,0,0.5c0,1.9-1.6,3.4-3.6,3.4v-3.1c0,0,0,0,0,0c-1,0-1.9-0.2-2.8-0.5
				c-0.1,0.1-0.2,0.3-0.3,0.4c-1.3,1.3-3.5,1.2-4.9-0.2l2.2-2.2c-0.7-0.7-1.2-1.5-1.7-2.3c-0.2,0-0.3,0-0.5,0
				c-1.9,0-3.4-1.6-3.4-3.6h3.1c0-1,0.2-1.9,0.5-2.8c-0.1-0.1-0.3-0.2-0.4-0.3c-1.3-1.3-1.2-3.5,0.2-4.9l2.2,2.2
				c0.7-0.7,1.5-1.2,2.3-1.6c0-0.2,0-0.4,0-0.5c0-1.9,1.6-3.4,3.6-3.4v3.1c1,0,1.9,0.2,2.8,0.5c0.1-0.2,0.2-0.3,0.4-0.4
				c1.3-1.3,3.5-1.2,4.9,0.2l-2.2,2.2c0.7,0.7,1.2,1.5,1.6,2.3c0.2,0,0.4-0.1,0.6-0.1c1.9,0,3.4,1.6,3.4,3.6H-21.8z"/>
			<polygon class="st7" points="-27.3,126.4 -30.3,126.4 -33.8,133.5 -30.3,133.5 -33.2,139.8 -26.5,131.5 -30.3,131.5 			"/>
		</g>
		<circle class="st7" cx="-48.2" cy="114" r="3.8"/>
	</g>
</g>
<g>
	<g>
		<g>
			<path class="st3" d="M64.8,160.6v4.7c16.3-1.7,29.2-14.7,31-31h-4.7C89.4,148,78.5,158.9,64.8,160.6z"/>
			<path class="st4" d="M91.1,126.9h4.7c-1.7-16.3-14.7-29.2-31-31v4.7C78.5,102.3,89.4,113.2,91.1,126.9z"/>
			<path class="st5" d="M57.4,100.6v-4.7c-16.3,1.7-29.2,14.7-31,31h4.7C32.8,113.2,43.7,102.3,57.4,100.6z"/>
			<path class="st6" d="M31.1,134.3h-4.7c1.7,16.3,14.7,29.2,31,31v-4.7C43.7,158.9,32.8,148,31.1,134.3z"/>
		</g>
	</g>
	<path class="st7" d="M64,138.2l2.5,11.5h14.8v-11.5H64z M70.2,147.9H67v-3.2h3.2V147.9z M70.2,143.1H67v-3.2h3.2V143.1z
		 M74.9,147.9h-3.2v-3.2h3.2V147.9z M74.9,143.1h-3.2v-3.2h3.2V143.1z M79.6,147.9h-3.2v-3.2h3.2V147.9z M79.6,143.1h-3.2v-3.2h3.2
		V143.1z"/>
	<polygon class="st7" points="61.7,113.6 62.4,113.6 62.4,111.4 65.5,113.4 65.5,115 67.2,113.9 65.9,113.1 65.9,113.1 61.9,110.5 
		61.9,109.7 65.7,109.7 65.6,110.3 67.2,109.3 65.7,108.4 65.7,109.2 61.4,109.2 61.4,110.8 61.7,111 	"/>
	<polygon class="st7" points="69.7,107.7 73.6,107.7 73.6,108.5 69.9,111 68.2,109.9 65.6,111.6 65.5,111.6 65.6,111.7 68.2,113.3 
		70.8,111.7 70.9,111.6 70.8,111.5 70.3,111.2 73,109.5 73,111.7 73.6,111.7 73.6,109.1 74.1,108.8 74.1,107.3 70.5,107.3 
		70.5,107.2 65.9,107.2 68.2,108.6 	"/>
	<polygon class="st7" points="67.2,118.8 65.4,117.7 65.3,120.1 	"/>
	<polygon class="st7" points="69.3,109.3 70.7,110.2 70.7,108.4 	"/>
	<polygon class="st7" points="65.4,116.3 65.4,116.3 65.4,116.4 68.2,118.2 70.9,116.4 71.1,116.3 70.9,116.3 68.2,114.6 	"/>
	<polygon class="st7" points="69.2,124.2 71.2,125.6 71.1,122.8 	"/>
	<polygon class="st7" points="68.2,124.9 65.7,126.7 68.2,128.5 70.7,126.7 	"/>
	<polygon class="st7" points="69.3,113.9 70.9,114.9 70.8,113 	"/>
	<polygon class="st7" points="65.4,121.5 68.2,123.5 71.1,121.5 71.2,121.4 71.1,121.3 68.2,119.5 65.3,121.4 	"/>
	<polygon class="st7" points="71,120 71,117.7 69.2,118.8 	"/>
	<polygon class="st7" points="71.4,133 69.1,134.8 71.5,136.8 	"/>
	<polygon class="st7" points="68.2,135.5 65.7,137.6 70.7,137.6 	"/>
	<polygon class="st7" points="68.2,134.1 71,131.8 68.2,129.9 65.5,131.8 	"/>
	<polygon class="st7" points="71.2,127.7 69.2,129.2 71.3,130.7 	"/>
	<polygon class="st7" points="65.2,123.6 65.1,123.7 65.2,123.8 65.1,125.7 67.3,124.2 65.2,122.7 	"/>
	<polygon class="st7" points="65,130.9 67.3,129.2 65.1,127.6 	"/>
	<polygon class="st7" points="64.8,136.9 67.3,134.8 64.9,132.8 	"/>
	<path class="st7" d="M52.9,140.4h2.7l-6,6.3l2.6-4.8h-2.4l2.6-4.5l2.5,0L52.9,140.4z M64.9,149.6H40.4l3.1-15.4H44l0,0l4.4-4l0,4
		H50l0,0l4.4-4l0,4H56l0,0l4.4-4l0,4h0.5L64.9,149.6z M59.6,142c0-3.3-3.1-5.9-6.9-5.9c-3.8,0-6.9,2.6-6.9,5.9
		c0,3.3,3.1,5.9,6.9,5.9C56.5,147.9,59.6,145.3,59.6,142z"/>
</g>
<g>
	<g>
		<g>
			<path class="st3" d="M160.6,166.5v4.7c16.3-1.7,29.2-14.7,31-31h-4.7C185.2,154,174.3,164.9,160.6,166.5z"/>
			<path class="st4" d="M186.9,132.8h4.7c-1.7-16.3-14.7-29.2-31-31v4.7C174.3,108.2,185.2,119.1,186.9,132.8z"/>
			<path class="st5" d="M153.2,106.6v-4.7c-16.3,1.7-29.2,14.7-31,31h4.7C128.6,119.1,139.5,108.2,153.2,106.6z"/>
			<path class="st6" d="M126.9,140.3h-4.7c1.7,16.3,14.7,29.2,31,31v-4.7C139.5,164.9,128.6,154,126.9,140.3z"/>
		</g>
	</g>
	<path class="st7" d="M173.2,142.7c2.6,2.6,2.4,6.9-0.4,9.7l-4.3-4.3c-1.3,1.3-2.9,2.4-4.6,3.3c0.1,0.3,0.1,0.7,0.1,1.1
		c0,3.7-3.2,6.6-7.1,6.6V153c0,0,0,0-0.1,0c-1.9,0-3.8-0.3-5.5-0.9c-0.2,0.3-0.4,0.5-0.7,0.8c-2.6,2.6-6.9,2.4-9.7-0.4l4.3-4.3
		c-1.3-1.3-2.4-2.9-3.3-4.6c-0.3,0.1-0.7,0.1-1,0.1c-3.7,0-6.6-3.2-6.6-7.1h6.1c0-1.9,0.3-3.8,1-5.5c-0.3-0.2-0.6-0.4-0.8-0.7
		c-2.6-2.6-2.4-6.9,0.4-9.7l4.3,4.3c1.3-1.3,2.9-2.4,4.6-3.2c-0.1-0.4-0.1-0.7-0.1-1.1c0-3.7,3.2-6.6,7.1-6.6v6.1
		c1.9,0,3.8,0.3,5.5,1c0.2-0.3,0.4-0.6,0.7-0.9c2.6-2.6,6.9-2.4,9.7,0.4l-4.3,4.3c1.3,1.3,2.4,2.9,3.2,4.6c0.4-0.1,0.7-0.1,1.1-0.1
		c3.7,0,6.6,3.2,6.6,7.1h-6.1c0,0,0,0,0,0c0,1.9-0.3,3.8-0.9,5.5C172.7,142.3,173,142.5,173.2,142.7z M156.7,123.4l-7,13.9h6.9
		l-5.7,12.4l13.3-16.4h-7.6l6-9.9L156.7,123.4z"/>
</g>
<g>
	<g>
		<g>
			<path class="st3" d="M259.5,172.1v5c17.6-1.9,31.6-15.9,33.4-33.4h-5C286.1,158.5,274.3,170.3,259.5,172.1z"/>
			<path class="st4" d="M287.9,135.7h5c-1.9-17.6-15.9-31.6-33.4-33.4v5C274.3,109.1,286.1,120.9,287.9,135.7z"/>
			<path class="st5" d="M251.5,107.3v-5c-17.6,1.9-31.6,15.9-33.4,33.4h5C225,120.9,236.7,109.1,251.5,107.3z"/>
			<path class="st6" d="M223.1,143.7h-5c1.9,17.6,15.9,31.6,33.4,33.4v-5C236.7,170.3,225,158.5,223.1,143.7z"/>
		</g>
	</g>
	<g>
		<polygon class="st7" points="252,138.5 254.3,138.3 254.3,135.6 252,135.9 		"/>
		<polygon class="st7" points="252.1,132.6 254.3,132.4 254.3,129.6 252.1,129.9 		"/>
		<polygon class="st7" points="252,144.4 254.3,144.3 254.3,141.6 252,141.7 		"/>
		<polygon class="st7" points="252,150.1 254.3,150 254.3,147.4 252,147.5 		"/>
		<polygon class="st7" points="254.3,126.4 254.3,123.8 252.1,124.1 252.1,126.8 		"/>
		<polygon class="st7" points="249.7,124.5 247.5,124.9 247.5,127.5 249.7,127.2 		"/>
		<polygon class="st7" points="249.7,144.5 249.7,141.9 247.5,142 247.4,144.6 		"/>
		<polygon class="st7" points="247.4,147.6 247.4,150.2 249.7,150.1 249.7,147.5 		"/>
		<polygon class="st7" points="249.7,130.3 247.5,130.6 247.5,133.2 249.7,132.9 		"/>
		<polygon class="st7" points="249.7,136.1 247.5,136.3 247.5,139 249.7,138.8 		"/>
		<polygon class="st7" points="243.5,147.7 243.5,150.3 245.7,150.2 245.7,147.7 		"/>
		<polygon class="st7" points="245.8,144.7 245.8,142.2 244.9,142.2 243.5,142.2 243.5,144.8 		"/>
		<polygon class="st7" points="241.7,142.3 239.5,142.5 239.5,144.9 241.7,144.8 		"/>
		<polygon class="st7" points="239.4,147.9 239.4,150.4 241.7,150.3 241.7,147.8 		"/>
		<path class="st7" d="M270.6,152.5l0.1-29.8l-13.7-5.5l-15,4.5l-0.1,16l-5.6,0.6v14.3l-4,0v4.1h42.4v-4.2H270.6z M243.6,139.4
			l0.1-16.3l12.3-3.6v33.3h-18V140L243.6,139.4z M268.2,150.2l-9.1-0.2v-3l9.1,0.2V150.2z M268.2,144.7l-9.1-0.6v-3l9.1,0.6V144.7z
			 M268.2,139.4l-9.1-1.3v-3l9.1,1.3V139.4z M268.2,134l-9.1-1.7v-3l9.1,1.7V134z M268.2,128.7l-9.1-2.3v-3l9.1,2.3V128.7z"/>
	</g>
</g>
<g>
	<g>
		<path class="st3" d="M550,44.4v5c17.6-1.9,31.6-15.9,33.4-33.4h-5C576.6,30.8,564.8,42.6,550,44.4z"/>
		<path class="st4" d="M578.4,8h5c-1.9-17.6-15.9-31.6-33.4-33.4v5C564.8-18.6,576.6-6.8,578.4,8z"/>
		<path class="st5" d="M542-20.4v-5C524.4-23.6,510.4-9.6,508.6,8h5C515.4-6.8,527.2-18.6,542-20.4z"/>
		<path class="st6" d="M513.6,16h-5c1.9,17.6,15.9,31.6,33.4,33.4v-5C527.2,42.6,515.4,30.8,513.6,16z"/>
	</g>
	<g>
		<path class="st7" d="M567-3.7l8.8,17.3c0,0-2.8,1.4-3.4,1.7c-0.7,0.3-1.2-0.6-1.2-0.6s-7.7-14.8-8-15.4s0.2-1.2,0.7-1.4
			C564.5-2.4,567-3.7,567-3.7z"/>
		<path class="st7" d="M563.7,22.2c0,0,4.3-4.2,5.2-5.3s0.8-2,0.2-2.9c-0.6-0.8-7.1-13.1-7.1-13.1s-2.3,1.8-5.1-0.4
			c-2.4-1.9-5.6-3.9-9.2-2.3C544-0.1,537,4.8,535,6.7c-2.1,2-0.6,5.3,3.3,3.3c4.3-2.3,6.4-3.4,7.6-4s2-1.2,3.5,0.1
			c0.6,0.6,3.8,3.7,6.9,7.1C559.9,17.5,563.7,22.2,563.7,22.2z"/>
		<path class="st7" d="M564.5,23.2c0,0,1.4,4.9-5,3.9c0,0,0.4,4.7-5.1,3c0,0,0.1,4.4-4.9,3.4l0.7-1.3c0,0,1.2,0.5,2.1-0.2
			c0.8-0.6,1.1-2.7,0.1-3.8c-2-2.3-3.5-3.9-4-4.5c-0.8-0.9,0.1-2,1.1-1c1,1.1,4.9,5.3,5.3,5.9c0.5,0.5,2.2,0.8,3.1-0.3
			c0.9-1.1,0.3-2.7-0.4-3.5s-3.5-4-4.3-4.9c-0.8-0.9,0.1-1.8,1-1c0.9,0.8,4.4,4.8,5.3,5.8s2.2,1.3,3.3,0.6c0.5-0.3,0.8-1.3,0.8-1.3
			L564.5,23.2z"/>
		<path class="st7" d="M543.8-2.6c-0.6-0.4-2.4-0.9-3.6-0.4s-3.6,1.9-4.9,2.5c-1.2,0.6-2.2,0.8-3.3,0.2c-1-0.6-1.4-1-1.8-1.3
			c-0.3-0.3-1.6-0.3-1.9,0.6s-5.3,14-5.6,14.9c-0.2,0.8-0.2,1.5,0.3,2s3.3,3.7,3.7,4.2c0.8,0.8,1.8-0.2,1.1-1
			c-0.5-0.6-2.7-3-3.2-3.4c-0.5-0.4-0.7-1.2-0.4-1.8s4.7-12.3,4.9-13s0.4-0.9,0.9-0.6s1.7,1.4,3.1,1.4c1.3,0,4.3-1.7,5.3-2.3
			c1-0.5,2.1-1.1,2.9-1.1c1,0,1.5,0.4,1.9,0.4C544.2-1.2,544.5-2.1,543.8-2.6z"/>
		<path class="st7" d="M523-4.1l-6.9,18.2c0,0,3.1,1.1,3.6,1.2c0.5,0.1,0.9-0.1,0.9-0.5c0.1-0.5,6.1-15.9,6.2-16.4s-0.2-1-0.7-1.3
			C525.7-3.1,523-4.1,523-4.1z"/>
		<path class="st7" d="M533.7,27.4L533.7,27.4c-0.9-0.9-0.8-2.3,0-3.1l3.5-3.2c0.9-0.8,2.2-0.8,3.1,0.1l0.1,0.1
			c0.8,0.9,0.8,2.2-0.1,3.1l-3.5,3.2C535.9,28.3,534.5,28.3,533.7,27.4z"/>
		<path class="st7" d="M537.9,31.5L537.9,31.5c-0.9-0.9-0.8-2.3,0-3.1l4.6-4.3c0.9-0.8,2.2-0.8,3.1,0.1l0.1,0.1
			c0.8,0.9,0.8,2.2-0.1,3.1l-4.6,4.3C540,32.4,538.7,32.4,537.9,31.5z"/>
		<path class="st7" d="M543.3,34.4L543.3,34.4c-0.9-0.9-0.8-2.3,0-3.1l2.3-2.1c0.9-0.8,2.2-0.8,3.1,0.1l0.1,0.1
			c0.8,0.9,0.8,2.2-0.1,3.1l-2.3,2.1C545.4,35.3,544.1,35.3,543.3,34.4z"/>
		<path class="st7" d="M528.7,24.5L528.7,24.5c-0.9-0.9-0.8-2.3,0-3.1l0.9-0.8c0.9-0.8,2.2-0.8,3.1,0.1l0.1,0.1
			c0.8,0.9,0.8,2.2-0.1,3.1l-0.9,0.8C530.9,25.5,529.5,25.4,528.7,24.5z"/>
	</g>
</g>
<g>
	<g>
		<path class="st3" d="M661.9,31.3v5c17.4-1.8,31.2-15.7,33.1-33.1h-5C688.2,17.9,676.6,29.5,661.9,31.3z"/>
		<path class="st4" d="M690-4.7h5c-1.8-17.4-15.7-31.2-33.1-33.1v5C676.6-30.9,688.2-19.3,690-4.7z"/>
		<path class="st5" d="M654-32.7v-5c-17.4,1.8-31.2,15.7-33.1,33.1h5C627.7-19.3,639.3-30.9,654-32.7z"/>
		<path class="st6" d="M625.9,3.3h-5c1.8,17.4,15.7,31.2,33.1,33.1v-5C639.3,29.5,627.7,17.9,625.9,3.3z"/>
	</g>
	<path class="st7" d="M629.5,1.8c0-1.1,3.2-4.2,7.8-1.4c5,3.1,4.4,5.2,9.5,5.2c4.3,0.1,3.7-8.3,3.3-11c-0.4-2.6-1.1-14.5-1-16.4
		s0.6-3.5,2.3-3.4c1.9,0.1,1.8,2.9,1.8,2.9s0.6,5.8,0.8,7.7s1.8,10.3,3.1,10.4c1.3,0.1,3.2-5.9,4.5-11.7c1.3-5.8,3-11.6,5.3-11.1
		c2,0.4-0.3,7.4-0.8,10s-3.6,13-1.9,13.6s4.1-5.9,6-10.6s3.2-7.9,4.8-7.5c1.5,0.4,0.4,5.8-1.2,9.4c-1.5,3.6-4.3,10.3-4.6,11.4
		c-0.5,1.8,0.4,3.8,1.6,2.5s4.6-5.2,7.2-8.1s4.3-3.8,5.4-2.9c0.5,0.4,0.6,2.1-0.6,3.6c-1.2,1.4-3.4,4.1-4.6,5.5
		c-2.3,2.6-3.6,4.7-4.4,6.7s-4.5,9.7-4.5,9.7s-1-6.2-1.1-6.9c-0.1-0.7-0.1-3.7-0.1-5.5s-1.3-2-1.9-2c-0.6,0-1.1,2.1-1.1,4.7
		s0.1,2.9-0.2,2.9s-1.8-6.3-1.9-7c-0.1-0.7-1-3.4-2.3-3s-1.2,1.5-0.8,2.6s0.9,3.8,1.3,4.8c0.4,1,0.7,2.1,0.3,2.2
		c-0.4,0.2-1.7-2.1-2.2-3.4c-0.5-1.3-1.6-3.1-2-4c-0.4-0.9-1.2-1.5-2-1.2c-0.8,0.4-0.4,2-0.1,2.4c0.4,0.4,3.1,5.9,3.5,6.7
		c0.4,0.8-0.4,1.3-1.2,0.6S654,6.6,653,5.5c-0.8-0.9-1.9-0.6-2.2,0.2s-0.2,1.6,0.7,2.3c1,0.7,2.5,2.9,4.6,4.9
		c2.1,1.9,2.1,4.3,0.4,4.5c-1.4,0.1-3.6-0.3-5,1.1c-1.6,1.6-0.4,2.3,0.7,2.1s2.8-0.4,4.3,0.2c1.5,0.5,4.3,2.6,6.6,2.6
		s3.1-0.5,3.1-0.5s-2.2,5.4-10,4.2c-7.2-1.1-11.6-7.3-13.6-9.9s-4.3-6.4-6.2-9.8c-1.8-3.3-3.6-3.9-4.6-3.9S629.5,2.5,629.5,1.8z"/>
</g>
<g>
	<g>
		<path class="st3" d="M783.2,45v5c17.6-1.9,31.6-15.9,33.4-33.4h-5C809.8,31.4,798,43.2,783.2,45z"/>
		<path class="st4" d="M811.6,8.6h5c-1.9-17.6-15.9-31.6-33.4-33.4v5C798-17.9,809.8-6.2,811.6,8.6z"/>
		<path class="st5" d="M775.2-19.7v-5c-17.6,1.9-31.6,15.9-33.4,33.4h5C748.6-6.2,760.4-17.9,775.2-19.7z"/>
		<path class="st6" d="M746.8,16.6h-5c1.9,17.6,15.9,31.6,33.4,33.4v-5C760.4,43.2,748.6,31.4,746.8,16.6z"/>
	</g>
	<g>
		<path class="st7" d="M788.3-9.5c0-0.2-3.3-1.6-4.4-2c-1.1-0.3-3.5-0.7-4.7-0.7c-9.4,0-17,7.6-17,17c0,9.4,7.6,17,17,17
			c9.4,0,17-7.6,17-17C796.2-1.2,793-6.5,788.3-9.5z M763.6,4.8c0-1,0.1-2,0.3-3c0.6,0.7,1.7,1.8,2.9,2.7l0.7,0.5
			c1.3,0.9,1.6,1.1,1.5,1.4c-0.1,0.3-0.6,3.2-0.4,3.8c0.4,1.1,1.8,2.5,2.6,3.2c0.1,0.1,0.3,0.5,0.4,1.2c0.1,0.9-0.2,2.3-1,3.2
			C766.5,15.1,763.6,10.3,763.6,4.8z M776.2,20.1c0.5-1.6,2.6-2.9,4.2-3c2-0.2,3.6-1.3,4.4-3.2c0.2-0.6,0.2-1.3-0.1-2
			c-0.5-1-1.6-1.9-2.4-2.1c-0.8-0.3-2-1-2.3-1.3c-0.4-0.4-1.8-2.1-2.2-2.9c-0.5-1-1.6-1.8-2.5-1.8c-0.6,0-2.5-0.1-3-0.3
			c-0.5-0.2-2.4-1.9-2.6-2.2c0-0.1,0-0.5,0-0.8c0.1-0.7,0.2-1.6-0.2-2.2c-0.1-0.2-0.2-0.6-0.1-1c0.1-0.2,0.2-0.4,0.5-0.5
			c0.2-0.1,1,0.8,1.2,1.1c0.5,0.6,0.9,1.1,1.4,1.1c0.7,0,1-0.6,1.6-1.7c0.5-0.9,1.1-2,1.9-2.6c0.4-0.3,1.2-0.5,2.1-0.7
			c1.1-0.2,2.3-0.5,3.4-1.1c1.3-0.7,1.9-2.1,2.2-3c1,0.3,2,0.8,3,1.3c-0.1,0.8-0.1,2.1,0.9,2.9c0.5,0.4,1,1.4,1,2.3
			c0,0.5-0.1,0.8-0.1,0.8l-0.1,0.1c-0.8,0.8-3,3-2.6,5.6c0.5,2.6,2.7,4.1,4.5,4.3c0.1,0,0.4,0.1,0.5,0.2c0.2,0.3,0,1.1-0.1,1.4
			c-0.1,0.6-0.9,2.1-1.6,3.2c-0.7,1.3-1.1,2-1.3,2.5c-0.3,1-0.3,2.2,0.1,3c-2.5,1.7-5.6,2.8-8.8,2.8
			C778.2,20.4,777.2,20.3,776.2,20.1z"/>
		<g>
			<path class="st7" d="M776.3,30.4c-0.4,0-0.7-0.3-0.7-0.7c0-2.4-1.7-4.1-2.4-4.4c-1-0.4-3.7-1.7-4.7-2.4c-0.7-0.5-1.5-1.4-2.3-2.3
				c-0.5-0.6-1-1.2-1.5-1.7c-0.5-0.5-1.1-0.5-1.2-0.3c-0.1,0.1,0,0.4,0.2,0.6c0.3,0.4,2.5,3,3.8,4.5c0.2,0.2,0.3,0.3,0.5,0.5
				c0.2,0.3,0.2,0.7-0.1,1c-0.3,0.2-0.7,0.2-1-0.1c0,0-0.2-0.2-0.4-0.5c-1.5-1.7-2.9-2.6-4.2-3.5c-0.5-0.3-1-0.7-1.4-1
				c-1.8-1.4-3.1-4.3-3.3-5c0-0.3-0.5-1-0.8-1.2c-0.3,0.7-0.1,3.5,0.9,5.4c1.4,2.8,2.9,4.6,4.2,5.5c0.4,0.3,1,0.6,1.5,1
				c2.2,1.5,3.8,2.5,4.4,3c0.3,0.3,0.3,0.7,0,1c-0.3,0.3-0.7,0.3-1,0c-0.5-0.5-2.6-1.8-4.1-2.9c-0.6-0.4-1.1-0.7-1.5-1
				c-1.5-1-3.1-3.1-4.7-6c-1-1.8-1.6-5.1-0.9-6.6c0.2-0.6,0.6-0.8,0.9-0.8c0.2-0.1,0.6-0.1,1.1,0.2c0.7,0.5,1.4,1.5,1.5,2.2
				c0.1,0.5,1.3,3,2.7,4.1c0.2,0.1,0.4,0.3,0.6,0.4c-0.3-0.8,0-1.4,0.4-1.8c0.7-0.6,2.1-0.6,3.1,0.4c0.5,0.5,1.1,1.2,1.6,1.7
				c0.7,0.9,1.4,1.7,2,2c1,0.6,3.5,1.9,4.5,2.3c1.1,0.5,3.2,2.6,3.2,5.7C777,30.1,776.7,30.4,776.3,30.4z"/>
			<path class="st7" d="M776.3,37.4h-8.2c-1.1,0-2-0.9-2-2v-2c0-1.1,0.9-2,2-2h8.2c1.1,0,2,0.9,2,2v2
				C778.3,36.5,777.4,37.4,776.3,37.4z M768.1,32.8c-0.3,0-0.6,0.3-0.6,0.6v2c0,0.3,0.3,0.6,0.6,0.6h8.2c0.3,0,0.6-0.3,0.6-0.6v-2
				c0-0.3-0.3-0.6-0.6-0.6H768.1z"/>
			<g>
				<path class="st7" d="M782.1,30.4c0.4,0,0.7-0.3,0.7-0.7c0-2.4,1.7-4.1,2.4-4.4c1-0.4,3.7-1.7,4.7-2.4c0.7-0.5,1.5-1.4,2.3-2.3
					c0.5-0.6,1-1.2,1.5-1.7c0.5-0.5,1.1-0.5,1.2-0.3c0.1,0.1,0,0.4-0.2,0.6c-0.3,0.4-2.5,3-3.8,4.5c-0.2,0.2-0.3,0.3-0.5,0.5
					c-0.2,0.3-0.2,0.7,0.1,1c0.3,0.2,0.7,0.2,1-0.1c0,0,0.2-0.2,0.4-0.5c1.5-1.7,2.9-2.6,4.2-3.5c0.5-0.3,1-0.7,1.4-1
					c1.8-1.4,3.1-4.3,3.3-5c0-0.3,0.5-1,0.8-1.2c0.3,0.7,0.1,3.5-0.9,5.4c-1.4,2.8-2.9,4.6-4.2,5.5c-0.4,0.3-1,0.6-1.5,1
					c-2.2,1.5-3.8,2.5-4.4,3c-0.3,0.3-0.3,0.7,0,1c0.3,0.3,0.7,0.3,1,0c0.5-0.5,2.6-1.8,4.1-2.9c0.6-0.4,1.1-0.7,1.5-1
					c1.5-1,3.1-3.1,4.7-6c1-1.8,1.6-5.1,0.9-6.6c-0.2-0.6-0.6-0.8-0.9-0.8c-0.2-0.1-0.6-0.1-1.1,0.2c-0.7,0.5-1.4,1.5-1.5,2.2
					c-0.1,0.5-1.3,3-2.7,4.1c-0.2,0.1-0.4,0.3-0.6,0.4c0.3-0.8,0-1.4-0.4-1.8c-0.7-0.6-2.1-0.6-3.1,0.4c-0.5,0.5-1.1,1.2-1.6,1.7
					c-0.7,0.9-1.4,1.7-2,2c-1,0.6-3.5,1.9-4.5,2.3c-1.1,0.5-3.2,2.6-3.2,5.7C781.4,30.1,781.7,30.4,782.1,30.4z"/>
				<path class="st7" d="M780,35.4v-2c0-1.1,0.9-2,2-2h8.2c1.1,0,2,0.9,2,2v2c0,1.1-0.9,2-2,2h-8.2C781,37.4,780,36.5,780,35.4z
					 M782.1,32.8c-0.3,0-0.6,0.3-0.6,0.6v2c0,0.3,0.3,0.6,0.6,0.6h8.2c0.3,0,0.6-0.3,0.6-0.6v-2c0-0.3-0.3-0.6-0.6-0.6H782.1z"/>
			</g>
		</g>
	</g>
</g>
<g>
	<g>
		<path class="st8" d="M904.8,37.9v5C922.4,41,936.4,27,938.3,9.5h-5C931.4,24.3,919.6,36,904.8,37.9z"/>
		<path class="st9" d="M933.2,1.5h5c-1.9-17.6-15.9-31.6-33.4-33.4v5C919.6-25.1,931.4-13.3,933.2,1.5z"/>
		<path class="st10" d="M896.8-26.9v-5c-17.6,1.9-31.6,15.9-33.4,33.4h5C870.3-13.3,882-25.1,896.8-26.9z"/>
		<path class="st11" d="M868.4,9.5h-5c1.9,17.6,15.9,31.6,33.4,33.4v-5C882,36,870.3,24.3,868.4,9.5z"/>
	</g>
	<g>
		<path class="st12" d="M920.4,25.2h-35.3c-1.6,0-3-1.3-3-3V-4.3c0-1.6,1.3-3,3-3h35.3c1.6,0,3,1.3,3,3v26.6
			C923.4,23.9,922.1,25.2,920.4,25.2z M885.2-5.4c-0.6,0-1.1,0.5-1.1,1.1v26.6c0,0.6,0.5,1.1,1.1,1.1h35.3c0.6,0,1.1-0.5,1.1-1.1
			V-4.3c0-0.6-0.5-1.1-1.1-1.1H885.2z"/>
		<path class="st12" d="M885.2,24.3h35.3c1.1,0,2-0.9,2-2v-4.7l-0.1,2.4c-6.3-14.6-9.5-21.2-14.2-18.8c-4.7,2.4-8.5,16.1-11.4,15.4
			c-2.9-0.6-3.3-4.9-6.4-5.8c-2.9-0.8-7.1,9-7.1,9l-0.2-2.4v4.8C883.1,23.4,884,24.3,885.2,24.3z"/>
		<circle class="st12" cx="893.4" cy="3.2" r="3.2"/>
		<path class="st13" d="M880.3-5.3l-2.1,0.5c-0.6,0.1-0.9,0.7-0.8,1.3l2.8,11.5V-4.3C880.2-4.7,880.2-5,880.3-5.3z"/>
		<path class="st13" d="M913.8-12.3c-0.1-0.6-0.7-0.9-1.3-0.8l-15.6,3.8h17.6L913.8-12.3z"/>
		<path class="st12" d="M885.2-7.3c-1.1,0-2,0.6-2.5,1.5l6.1-1.5H885.2z"/>
		<g>
			<path class="st12" d="M877.4-3.4c-0.1-0.6,0.2-1.2,0.8-1.3l2.1-0.5c0.2-0.8,0.5-1.6,1-2.2l-3.6,0.9c-1.6,0.4-2.6,2-2.2,3.6
				l4.6,19v-8L877.4-3.4z"/>
			<path class="st12" d="M912.5-13.1c0.6-0.1,1.2,0.2,1.3,0.8l0.7,3h1.9l-0.8-3.4c-0.4-1.6-2-2.6-3.6-2.2L889-9.3h8L912.5-13.1z"/>
		</g>
	</g>
</g>
<g>
	<path class="st12" d="M1031.1,4.2h-19.5c-0.6,0-1.2-0.5-1.2-1.2s0.5-1.2,1.2-1.2h19.5c0.6,0,1.2,0.5,1.2,1.2S1031.8,4.2,1031.1,4.2
		z"/>
	<path class="st12" d="M1031.1,10.6h-19.5c-0.6,0-1.2-0.5-1.2-1.2c0-0.6,0.5-1.2,1.2-1.2h19.5c0.6,0,1.2,0.5,1.2,1.2
		C1032.3,10.1,1031.8,10.6,1031.1,10.6z"/>
	<g>
		<path class="st8" d="M1026.5,47.2v5c17.6-1.9,31.6-15.9,33.4-33.4h-5C1053,33.7,1041.3,45.4,1026.5,47.2z"/>
		<path class="st9" d="M1054.9,10.9h5c-1.9-17.6-15.9-31.6-33.4-33.4v5C1041.3-15.7,1053-4,1054.9,10.9z"/>
		<path class="st10" d="M1018.5-17.5v-5c-17.6,1.9-31.6,15.9-33.4,33.4h5C991.9-4,1003.7-15.7,1018.5-17.5z"/>
		<path class="st11" d="M990.1,18.9h-5c1.9,17.6,15.9,31.6,33.4,33.4v-5C1003.7,45.4,991.9,33.7,990.1,18.9z"/>
	</g>
	<path class="st12" d="M1036.3,20.9l-0.7,0.9l0,12.9h-28.7V-5l28.7,0l0,14.2l0.1-0.2c0.1-0.2,0.3-0.3,0.5-0.3c0,0,0-0.1,0-0.1
		c0-0.2,0.1-0.4,0.2-0.6l0.9-1c0,0,0,0,0,0l0-13.8l-32.2,0v43.1h32.2l0-14c-0.1-0.1-0.2-0.1-0.3-0.2
		C1036.6,21.9,1036.3,21.4,1036.3,20.9z"/>
	<path class="st12" d="M1031.1,14.7h-19.5c-0.6,0-1.2,0.5-1.2,1.2c0,0.6,0.5,1.2,1.2,1.2h17.8L1031.1,14.7
		C1031.2,14.7,1031.2,14.7,1031.1,14.7z"/>
	<path class="st12" d="M1011.6,21c-0.6,0-1.2,0.5-1.2,1.2c0,0.6,0.5,1.2,1.2,1.2h12.7l1.8-2.3H1011.6z"/>
	<path class="st12" d="M1011.4,27.4c-0.5,0-0.9,0.5-0.9,1.2c0,0.6,0.4,1.2,0.9,1.2h10.3l0.5-2.3H1011.4z"/>
	<g>
		<path class="st12" d="M1023.2,26l-1.2,5.6c-0.1,0.5,0.4,0.8,0.8,0.6l5.2-2.4L1023.2,26z"/>
		<path class="st12" d="M1044.2,13.3c-0.5-0.4-1.1-0.3-1.5,0.2l-0.7,0.8l-5.7-4.7l-12.6,15.7l4.9,4l11.6-14.4l0.8,0.7l-3.7,4.6
			c-0.4,0.5-0.3,1.1,0.2,1.5c0.5,0.4,1.1,0.3,1.5-0.2l5.4-6.7C1044.7,14.3,1044.7,13.6,1044.2,13.3z"/>
		<path class="st12" d="M1042.8,11.6c1.1-1.4,0.9-3.4-0.5-4.5c-1.4-1.1-3.4-0.9-4.5,0.5l-0.9,1l4.9,4L1042.8,11.6z"/>
	</g>
</g>
</svg>
