<?xml version="1.0" encoding="utf-8"?>
<!-- Generator: Adobe Illustrator 25.0.0, SVG Export Plug-In . SVG Version: 6.00 Build 0)  -->
<svg version="1.1" id="Capa_1" xmlns="http://www.w3.org/2000/svg" xmlns:xlink="http://www.w3.org/1999/xlink" x="0px" y="0px"
	 viewBox="0 0 74.9 74.9" style="enable-background:new 0 0 74.9 74.9;" xml:space="preserve">
<style type="text/css">
	.st0{fill:#003D7C;}
	.st1{fill-rule:evenodd;clip-rule:evenodd;fill:#7DBA47;}
	.st2{fill-rule:evenodd;clip-rule:evenodd;fill:#80BA27;}
	.st3{fill:#97C23F;}
	.st4{fill:#33A7DF;}
	.st5{fill:#0665AE;}
	.st6{fill:#459F3E;}
	.st7{fill:#808184;}
	.st8{fill:#98C93C;}
	.st9{fill:#32A9E0;}
	.st10{fill:#0065B0;}
	.st11{fill:#44A03F;}
	.st12{fill:#808285;}
	.st13{fill:none;}
	.st14{fill:#808285;stroke:#FFFFFF;stroke-width:0.2;stroke-miterlimit:10;}
	.st15{fill:#FFFFFF;}
	.st16{fill:none;stroke:#808285;stroke-width:1.5;stroke-miterlimit:10;}
	.st17{fill:none;stroke:#808285;stroke-width:0.8;stroke-miterlimit:10;}
	.st18{fill:none;stroke:#808285;stroke-width:0.8;stroke-linecap:round;stroke-linejoin:round;stroke-miterlimit:10;}
	.st19{fill:#FFFFFF;stroke:#808285;stroke-width:0.8;stroke-miterlimit:10;}
</style>
<g>
	<g>
		<path class="st0" d="M-140.1,106.8c-1.3,0-2.7-0.1-4.1,0c-9,0.3-17,3.9-23.1,9.7c-6.5,5.9-10.7,13.9-11.7,22.7
			c-0.6,5.5,0.3,11.5,2.5,17.3c3.8,4.4,9,6.5,14.2,6.3c-5.5-6.2-8.6-14.5-8-23.4c1.1-16.3,14.2-29,30.1-30.1c1.4,0,2.8,0,4.2,0
			c1.5,0.1,3.1,0.4,4.7,0.7c-0.7-0.1-1.3-0.1-2-0.3c-2.4-0.1-4.6,0-6.9,0.4c-12.8,2.3-23.1,13.1-23.9,26.8
			c-0.6,8.6,2.7,16.5,8.2,22.3l1.8,1.7c2-1,3.9-2.3,5.5-3.9l-2.1-1.8c-4.7-5.1-7.3-12-6.8-19.4c0.7-10.7,7.7-19.4,17.3-22.8
			c3.2-1.1,6.8-1.5,10.3-1.4c0.8,0.1,1.5,0.1,2.4,0.3l0.1-1.4C-131.2,108.4-135.5,107.2-140.1,106.8z"/>
		<path class="st0" d="M-140.1,114.4c-6.9,3.7-12,10.8-12.5,19.3c-0.4,6.6,2.1,13,6.3,17.5l1.1,1.1c0.8-1.8,1.4-4.4,1.5-6.1
			c-2.7-3.4-3.7-7.5-3.8-10.7c-0.3-6.8,2.7-13,7.3-17c3.4-3,7.6-4.9,12.4-5.5l0.1-1.1h-0.1C-132.2,111.6-136.5,112.6-140.1,114.4z"
			/>
	</g>
	<path class="st1" d="M-120,127.8l-1.3,4.2l-3.8-27.6l-0.3,2.1l-2.7,18.6l-1.1-1l-0.4,3.1l-0.6-0.8l-1,0.8l-1.3-3.4l-0.1-0.7
		l-1.7,1.6c0,4.1-1.4,11.7-4.4,17.9l0.4-0.3c0,0,0,0,0.1-0.1c2.3-3.8,4.1-8.5,5.5-13.9l0.1,0.8l1.8,9.7c0.8,0,1.8-0.1,2.8,0
		l2.4-23.9v-0.6l1.1,24.5v0.4c1.5,0.4,3,1,4.5,1.8l1-10.6l13.7-2.7L-120,127.8z"/>
	<g>
		<path class="st2" d="M-117.6,145.1c-2.5-2.4-5.2-3.8-7.7-4.4c-0.4-0.1-0.8-0.3-1.3-0.3c-2-0.4-3.9-0.3-5.8,0
			c-3.9,0.6-6.6,2.3-5.6,2.3c0.8,0,1.8,0.3,2.7,0.6c1,0.3,2.1,0.6,3,1.1c1.1,0.6,2.3,1.1,3.2,2c1.4,1,2.7,2.4,3.8,3.8
			c0.3,0.4,0.6,0.8,0.8,1.3c1.5,2.5,2.7,5.6,3.1,8.6c0.4,3.1,0,6.2-1,9.2c-0.7,1.8-1.7,3.7-3,5.2c0,0.1-0.1,0.1-0.1,0.1h0.1
			c5.5-3,11.8-7.3,12.8-15.1C-112,153.7-113.9,148.5-117.6,145.1z"/>
		<path class="st2" d="M-132.4,149.5c-3.7-3.2-7.6-4.2-6.9-3.4c0.6,0.6,1.1,1.4,1.6,2.3c1.3,2,2,4.2,2.3,6.5
			c0.3,2.3,0.1,4.6-0.4,6.9c-0.6,3.1-2,5.9-3.8,8.3c-1.8,2.4-4.1,4.2-6.8,5.6c-0.1,0-0.3,0.1-0.4,0.1c-1.8,0.8-3.8,1.4-6.1,1.7
			c2.1,0.6,4.2,1.1,6.5,1.5c4.5,0.6,9.3,0.1,13.4-3.1c0.3-0.3,0.6-0.4,0.7-0.7c4.1-3.5,6.1-8.3,5.9-13.1c0-3.9-1.4-7.2-3.1-9.6
			C-130.4,151.3-131.4,150.3-132.4,149.5z"/>
		<path class="st2" d="M-144.8,168.1c2.8-3,4.1-6.1,4.7-9c1.1-6.8-2.3-13-2.3-11.5c-0.1,1-0.3,2-0.6,2.8c-0.6,2.3-1.7,4.4-3.1,6.1
			c-0.1,0.3-0.3,0.4-0.4,0.6c-1.3,1.5-2.8,3-4.7,4.2c-2.7,1.5-5.6,2.7-8.6,3.1c-3.1,0.3-6.2,0-9.2-1c-2-0.7-3.8-1.7-5.5-3.1
			c3,5.5,7.3,12,15.2,12.8c4.9,0.6,9.4-0.8,12.7-3.5C-145.8,169.1-145.3,168.6-144.8,168.1z"/>
	</g>
</g>
<g>
	<g>
		<g>
			<path class="st3" d="M-58.7,174.2v5c17.6-1.9,31.6-15.9,33.4-33.4h-5C-32.1,160.7-43.9,172.4-58.7,174.2z"/>
			<path class="st4" d="M-30.3,137.8h5c-1.9-17.6-15.9-31.6-33.4-33.4v5C-43.9,111.3-32.1,123-30.3,137.8z"/>
			<path class="st5" d="M-66.7,109.5v-5c-17.6,1.9-31.6,15.9-33.4,33.4h5C-93.3,123-81.5,111.3-66.7,109.5z"/>
			<path class="st6" d="M-95.1,145.8h-5c1.9,17.6,15.9,31.6,33.4,33.4v-5C-81.5,172.4-93.3,160.7-95.1,145.8z"/>
		</g>
	</g>
	<g>
		<path class="st7" d="M-50.4,160.9c-4.6,3.9-10.7,3.8-17.2,1.1c-3.8-1.6-5.5-4.6-12.9-6.9c-4.1-1.3-5.3,0.5-8,1.1
			c5.1,9,14.7,15.1,25.8,15.1c9.7,0,18.2-4.6,23.6-11.8C-40.7,158.7-46.1,157.2-50.4,160.9z"/>
		<g>
			<path class="st7" d="M-33.4,137.3c-0.6-0.2-1.2-0.3-2.1-0.5c-1.2-0.2-2.5-0.4-3.6-0.5c-0.7,0-1.8,0-2.4-0.3
				c-0.5-0.3-1.8,0.2-2.2-0.5c-0.3-0.6-0.8,0-2.7-1.1c-0.8-0.4-3.9-3.1-4.5-3.7c-0.5-0.6-1.1-2.3-1.1-2.3s-0.6-0.5-0.8-1.1
				c-0.1-0.5-1.9-2.9-2.4-3.7c-0.4-0.8-1.4-1.1-1.8-1.5c-0.4-0.4-1.2-0.3-1.6-0.3c-0.4,0-1,0.1-1.6,0.4c-0.6,0.3-1.5,1.2-1.9,1.7
				c-0.4,0.5-0.9,0.9-1.4,1.3c-0.5,0.4-1.6,1.7-1.8,2.2c-0.2,0.4-0.9,1.6-1.3,2.4c-0.4,0.8-1.2,1.7-1.2,2.4c0,0.6-1.1,1.8-1.4,2.4
				c-0.3,0.5-2.8,6.3-3.2,6.6c-0.4,0.3-1.6,3.1-3,3.6c-1.4,0.5-3,0.8-3.8,0.8s-2.2-2.4-2.3-2.7c-0.1-0.3-1.3-0.8-1.6-1.6
				c-0.3-0.9-1.2-0.8-1.2-0.8s-0.1-0.9-0.8-1.4c-0.6-0.5-1.4,0-2.7,1.2c-1.3,1.2-2.7,2.9-4.1,6.1c0,0.1,0,0.3-0.1,0.6
				c0.4,2.1,1,4.1,1.8,6c3.4-0.8,7.8-0.6,11.9,0.8c3.9,1.4,8.5,3.9,13.8,5c4,0.9,7.9,1,11.2,0c2.5-0.7,4.3-1.9,7-2.9
				c3.7-1.4,7-0.5,9.1,0.6c2.6-4.4,4.1-9.5,4.1-15C-33.1,140.2-33.2,138.7-33.4,137.3z M-48.7,145.6
				C-48.7,145.7-48.7,145.7-48.7,145.6c0,1.1-0.2,2.1-0.5,3c0.2,0.1,0.3,0.2,0.5,0.4c1.4,1.4,1.3,3.8-0.2,5.3l-2.4-2.4
				c-0.7,0.7-1.6,1.3-2.5,1.8c0,0.2,0.1,0.4,0.1,0.6c0,2-1.8,3.6-3.9,3.6v-3.3c0,0,0,0,0,0c-1.1,0-2.1-0.2-3-0.5
				c-0.1,0.2-0.2,0.3-0.4,0.4c-1.4,1.4-3.8,1.3-5.3-0.2l2.4-2.4c-0.7-0.7-1.3-1.6-1.8-2.5c-0.2,0-0.4,0-0.6,0c-2,0-3.6-1.8-3.6-3.9
				h3.3c0-1.1,0.2-2.1,0.5-3c-0.2-0.1-0.3-0.2-0.4-0.4c-1.4-1.4-1.3-3.8,0.2-5.3l2.4,2.4c0.7-0.7,1.6-1.3,2.5-1.8
				c0-0.2-0.1-0.4-0.1-0.6c0-2,1.8-3.6,3.9-3.6v3.4c1.1,0,2.1,0.2,3,0.5c0.1-0.2,0.2-0.3,0.4-0.5c1.4-1.4,3.8-1.3,5.3,0.2l-2.4,2.4
				c0.7,0.7,1.3,1.6,1.8,2.5c0.2,0,0.4-0.1,0.6-0.1c2,0,3.6,1.8,3.6,3.9H-48.7z"/>
			<polygon class="st7" points="-54.6,138.5 -57.8,138.4 -61.6,146.1 -57.8,146.1 -61,152.9 -53.7,143.9 -57.9,143.9 			"/>
		</g>
		<circle class="st7" cx="-77.2" cy="125.1" r="4.1"/>
	</g>
</g>
<g>
	<g>
		<g>
			<path class="st3" d="M44.6,174.2v5c17.6-1.9,31.6-15.9,33.4-33.4h-5C71.2,160.7,59.4,172.4,44.6,174.2z"/>
			<path class="st4" d="M73,137.8h5c-1.9-17.6-15.9-31.6-33.4-33.4v5C59.4,111.3,71.2,123,73,137.8z"/>
			<path class="st5" d="M36.6,109.5v-5C19,106.3,5,120.3,3.2,137.8h5C10,123,21.8,111.3,36.6,109.5z"/>
			<path class="st6" d="M8.2,145.8h-5C5,163.4,19,177.4,36.6,179.3v-5C21.8,172.4,10,160.7,8.2,145.8z"/>
		</g>
	</g>
	<path class="st7" d="M43.7,150.1l2.7,12.4h16v-12.4H43.7z M50.4,160.5H47V157h3.5V160.5z M50.4,155.4H47v-3.5h3.5V155.4z
		 M55.5,160.5H52V157h3.5V160.5z M55.5,155.4H52v-3.5h3.5V155.4z M60.6,160.5h-3.5V157h3.5V160.5z M60.6,155.4h-3.5v-3.5h3.5V155.4z
		"/>
	<polygon class="st7" points="41.3,123.4 42,123.4 42,121.1 45.4,123.3 45.4,125 47.2,123.9 45.8,123 45.8,122.9 41.5,120.1 
		41.5,119.3 45.6,119.3 45.5,119.9 47.2,118.8 45.6,117.8 45.6,118.8 41,118.8 41,120.4 41.3,120.6 	"/>
	<polygon class="st7" points="49.9,117.2 54.1,117.2 54.1,118 50.1,120.6 48.3,119.5 45.5,121.3 45.4,121.3 45.5,121.4 48.3,123.2 
		51.1,121.4 51.2,121.3 51.1,121.2 50.6,120.9 53.4,119.1 53.4,121.4 54.2,121.4 54.2,118.6 54.7,118.3 54.7,116.6 50.7,116.6 
		50.8,116.6 45.9,116.6 48.3,118.1 	"/>
	<polygon class="st7" points="47.2,129.1 45.3,127.9 45.2,130.5 	"/>
	<polygon class="st7" points="49.4,118.8 51,119.8 51,117.9 	"/>
	<polygon class="st7" points="45.3,126.4 45.3,126.5 45.3,126.5 48.3,128.4 51.2,126.5 51.4,126.5 51.2,126.4 48.3,124.6 	"/>
	<polygon class="st7" points="49.3,134.9 51.5,136.5 51.4,133.4 	"/>
	<polygon class="st7" points="48.3,135.7 45.6,137.6 48.3,139.6 51,137.6 	"/>
	<polygon class="st7" points="49.4,123.9 51.2,124.9 51.1,122.8 	"/>
	<polygon class="st7" points="45.3,132 48.3,134.2 51.4,132 51.5,131.9 51.4,131.8 48.3,129.8 45.2,131.9 	"/>
	<polygon class="st7" points="51.3,130.4 51.3,127.9 49.4,129.1 	"/>
	<polygon class="st7" points="51.7,144.4 49.3,146.4 51.8,148.5 	"/>
	<polygon class="st7" points="48.3,147.2 45.6,149.4 51,149.4 	"/>
	<polygon class="st7" points="48.3,145.6 51.3,143.2 48.3,141.1 45.4,143.2 	"/>
	<polygon class="st7" points="51.6,138.7 49.3,140.3 51.7,142 	"/>
	<polygon class="st7" points="45.1,134.3 45,134.4 45.1,134.5 45,136.6 47.3,134.9 45.1,133.3 	"/>
	<polygon class="st7" points="44.8,142.1 47.3,140.3 44.9,138.6 	"/>
	<polygon class="st7" points="44.6,148.7 47.4,146.4 44.7,144.2 	"/>
	<path class="st7" d="M31.8,152.4h2.9l-6.4,6.8l2.8-5.1h-2.6l2.8-4.9l2.7,0L31.8,152.4z M44.7,162.4H18.3l3.4-16.6h0.5l0,0l4.7-4.3
		l0,4.3h1.8l0,0l4.7-4.3l0,4.3h1.8l0,0l4.7-4.3l0,4.3h0.5L44.7,162.4z M39,154.2c0-3.5-3.3-6.4-7.5-6.4c-4.1,0-7.5,2.9-7.5,6.4
		c0,3.5,3.3,6.4,7.5,6.4C35.6,160.6,39,157.7,39,154.2z"/>
</g>
<g>
	<g>
		<g>
			<path class="st3" d="M147.9,174.2v5c17.6-1.9,31.6-15.9,33.4-33.4h-5C174.4,160.7,162.7,172.4,147.9,174.2z"/>
			<path class="st4" d="M176.3,137.8h5c-1.9-17.6-15.9-31.6-33.4-33.4v5C162.7,111.3,174.4,123,176.3,137.8z"/>
			<path class="st5" d="M139.9,109.5v-5c-17.6,1.9-31.6,15.9-33.4,33.4h5C113.3,123,125.1,111.3,139.9,109.5z"/>
			<path class="st6" d="M111.5,145.8h-5c1.9,17.6,15.9,31.6,33.4,33.4v-5C125.1,172.4,113.3,160.7,111.5,145.8z"/>
		</g>
	</g>
	<path class="st7" d="M161.5,148.5c2.8,2.8,2.6,7.5-0.4,10.5l-4.7-4.7c-1.4,1.4-3.1,2.6-4.9,3.5c0.1,0.4,0.1,0.8,0.1,1.1
		c0,4-3.5,7.2-7.7,7.2v-6.6c0,0,0,0-0.1,0c-2.1,0-4.1-0.4-5.9-1c-0.2,0.3-0.5,0.6-0.7,0.9c-2.8,2.8-7.5,2.6-10.5-0.4l4.6-4.6
		c-1.4-1.4-2.6-3.1-3.5-5c-0.4,0.1-0.7,0.1-1.1,0.1c-4,0-7.2-3.5-7.2-7.7h6.6c0-2.1,0.4-4.1,1-6c-0.3-0.2-0.6-0.5-0.9-0.7
		c-2.8-2.8-2.6-7.5,0.4-10.5l4.7,4.7c1.4-1.4,3.1-2.6,5-3.5c-0.1-0.4-0.1-0.8-0.1-1.2c0-4,3.5-7.2,7.7-7.2v6.6c2.1,0,4.1,0.4,6,1
		c0.2-0.3,0.5-0.6,0.8-0.9c2.8-2.8,7.5-2.6,10.5,0.4l-4.7,4.7c1.4,1.4,2.6,3.1,3.5,4.9c0.4-0.1,0.8-0.1,1.2-0.1c4,0,7.2,3.5,7.2,7.7
		h-6.6c0,0,0,0,0,0.1c0,2.1-0.4,4.1-1,5.9C160.9,148,161.2,148.3,161.5,148.5z M143.6,127.6l-7.5,15h7.4l-6.2,13.4l14.3-17.7h-8.3
		l6.5-10.7L143.6,127.6z"/>
</g>
<g>
	<g>
		<g>
			<path class="st3" d="M259.5,174.2v5c17.6-1.9,31.6-15.9,33.4-33.4h-5C286.1,160.7,274.3,172.4,259.5,174.2z"/>
			<path class="st4" d="M287.9,137.8h5c-1.9-17.6-15.9-31.6-33.4-33.4v5C274.3,111.3,286.1,123,287.9,137.8z"/>
			<path class="st5" d="M251.5,109.5v-5c-17.6,1.9-31.6,15.9-33.4,33.4h5C225,123,236.7,111.3,251.5,109.5z"/>
			<path class="st6" d="M223.1,145.8h-5c1.9,17.6,15.9,31.6,33.4,33.4v-5C236.7,172.4,225,160.7,223.1,145.8z"/>
		</g>
	</g>
	<g>
		<polygon class="st7" points="252,140.7 254.3,140.5 254.3,137.8 252,138 		"/>
		<polygon class="st7" points="252.1,134.8 254.3,134.5 254.3,131.8 252.1,132.1 		"/>
		<polygon class="st7" points="252,146.6 254.3,146.5 254.3,143.8 252,143.9 		"/>
		<polygon class="st7" points="252,152.2 254.3,152.2 254.3,149.6 252,149.6 		"/>
		<polygon class="st7" points="254.3,128.6 254.3,125.9 252.1,126.3 252.1,128.9 		"/>
		<polygon class="st7" points="249.7,126.7 247.5,127.1 247.5,129.7 249.7,129.3 		"/>
		<polygon class="st7" points="249.7,146.7 249.7,144 247.5,144.2 247.4,146.8 		"/>
		<polygon class="st7" points="247.4,149.8 247.4,152.3 249.7,152.3 249.7,149.7 		"/>
		<polygon class="st7" points="249.7,132.4 247.5,132.8 247.5,135.4 249.7,135.1 		"/>
		<polygon class="st7" points="249.7,138.3 247.5,138.5 247.5,141.1 249.7,140.9 		"/>
		<polygon class="st7" points="243.5,149.9 243.5,152.4 245.7,152.4 245.7,149.8 		"/>
		<polygon class="st7" points="245.8,146.8 245.8,144.3 244.9,144.3 243.5,144.4 243.5,146.9 		"/>
		<polygon class="st7" points="241.7,144.5 239.5,144.6 239.5,147.1 241.7,147 		"/>
		<polygon class="st7" points="239.4,150 239.4,152.5 241.7,152.5 241.7,150 		"/>
		<path class="st7" d="M270.6,154.7l0.1-29.8l-13.7-5.5l-15,4.5l-0.1,16l-5.6,0.6v14.3l-4,0v4.1h42.4v-4.2H270.6z M243.6,141.5
			l0.1-16.3l12.3-3.6v33.3h-18v-12.7L243.6,141.5z M268.2,152.3l-9.1-0.2v-3l9.1,0.2V152.3z M268.2,146.9l-9.1-0.6v-3l9.1,0.6V146.9
			z M268.2,141.6l-9.1-1.3v-3l9.1,1.3V141.6z M268.2,136.2l-9.1-1.7v-3l9.1,1.7V136.2z M268.2,130.8l-9.1-2.3v-3l9.1,2.3V130.8z"/>
	</g>
</g>
<g>
	<g>
		<path class="st3" d="M359.8,174.2v5c17.6-1.9,31.6-15.9,33.4-33.4h-5C386.3,160.7,374.6,172.4,359.8,174.2z"/>
		<path class="st4" d="M388.2,137.8h5c-1.9-17.6-15.9-31.6-33.4-33.4v5C374.6,111.3,386.3,123,388.2,137.8z"/>
		<path class="st5" d="M351.8,109.5v-5c-17.6,1.9-31.6,15.9-33.4,33.4h5C325.2,123,337,111.3,351.8,109.5z"/>
		<path class="st6" d="M323.4,145.8h-5c1.9,17.6,15.9,31.6,33.4,33.4v-5C337,172.4,325.2,160.7,323.4,145.8z"/>
	</g>
	<g>
		<path class="st7" d="M376.8,126.1l8.8,17.3c0,0-2.8,1.4-3.4,1.7c-0.7,0.3-1.2-0.6-1.2-0.6s-7.7-14.8-8-15.4
			c-0.2-0.6,0.2-1.2,0.7-1.4C374.3,127.4,376.8,126.1,376.8,126.1z"/>
		<path class="st7" d="M373.4,152c0,0,4.3-4.2,5.2-5.3c0.8-1.1,0.8-2,0.2-2.9c-0.6-0.8-7.1-13.1-7.1-13.1s-2.3,1.8-5.1-0.4
			c-2.4-1.9-5.6-3.9-9.2-2.3c-3.7,1.7-10.7,6.6-12.8,8.6c-2.1,2-0.6,5.3,3.3,3.3c4.3-2.3,6.4-3.4,7.6-4c1.2-0.6,2-1.2,3.5,0.1
			c0.6,0.6,3.8,3.7,6.9,7.1C369.7,147.3,373.4,152,373.4,152z"/>
		<path class="st7" d="M374.3,153c0,0,1.4,4.9-5,3.9c0,0,0.4,4.7-5.1,3c0,0,0.1,4.4-4.9,3.4l0.7-1.3c0,0,1.2,0.5,2.1-0.2
			c0.8-0.6,1.1-2.7,0.1-3.8c-2-2.3-3.5-3.9-4-4.5c-0.8-0.9,0.1-2,1.1-1c1,1.1,4.9,5.3,5.3,5.9c0.5,0.5,2.2,0.8,3.1-0.3
			c0.9-1.1,0.3-2.7-0.4-3.5c-0.6-0.8-3.5-4-4.3-4.9c-0.8-0.9,0.1-1.8,1-1c0.9,0.8,4.4,4.8,5.3,5.8c0.9,1,2.2,1.3,3.3,0.6
			c0.5-0.3,0.8-1.3,0.8-1.3L374.3,153z"/>
		<path class="st7" d="M353.6,127.3c-0.6-0.4-2.4-0.9-3.6-0.4c-1.3,0.5-3.6,1.9-4.9,2.5c-1.2,0.6-2.2,0.8-3.3,0.2
			c-1-0.6-1.4-1-1.8-1.3c-0.3-0.3-1.6-0.3-1.9,0.6c-0.3,0.9-5.3,14-5.6,14.9c-0.2,0.8-0.2,1.5,0.3,2c0.5,0.5,3.3,3.7,3.7,4.2
			c0.8,0.8,1.8-0.2,1.1-1c-0.5-0.6-2.7-3-3.2-3.4c-0.5-0.4-0.7-1.2-0.4-1.8c0.2-0.6,4.7-12.3,4.9-13c0.2-0.7,0.4-0.9,0.9-0.6
			s1.7,1.4,3.1,1.4s4.3-1.7,5.3-2.3c1-0.5,2.1-1.1,2.9-1.1c1,0,1.5,0.4,1.9,0.4C354,128.7,354.3,127.7,353.6,127.3z"/>
		<path class="st7" d="M332.8,125.8L326,144c0,0,3.1,1.1,3.6,1.2c0.5,0.1,0.9-0.1,0.9-0.5s6.1-15.9,6.2-16.4c0.1-0.5-0.2-1-0.7-1.3
			C335.5,126.7,332.8,125.8,332.8,125.8z"/>
		<path class="st7" d="M343.5,157.3L343.5,157.3c-0.9-0.9-0.8-2.3,0-3.1l3.5-3.2c0.9-0.8,2.2-0.8,3.1,0.1l0.1,0.1
			c0.8,0.9,0.8,2.2-0.1,3.1l-3.5,3.2C345.7,158.2,344.3,158.1,343.5,157.3z"/>
		<path class="st7" d="M347.6,161.4L347.6,161.4c-0.9-0.9-0.8-2.3,0-3.1l4.6-4.3c0.9-0.8,2.2-0.8,3.1,0.1l0.1,0.1
			c0.8,0.9,0.8,2.2-0.1,3.1l-4.6,4.3C349.8,162.3,348.4,162.2,347.6,161.4z"/>
		<path class="st7" d="M353,164.2L353,164.2c-0.9-0.9-0.8-2.3,0-3.1l2.3-2.1c0.9-0.8,2.2-0.8,3.1,0.1l0.1,0.1
			c0.8,0.9,0.8,2.2-0.1,3.1l-2.3,2.1C355.2,165.2,353.8,165.1,353,164.2z"/>
		<path class="st7" d="M338.5,154.4L338.5,154.4c-0.9-0.9-0.8-2.3,0-3.1l0.9-0.8c0.9-0.8,2.2-0.8,3.1,0.1l0.1,0.1
			c0.8,0.9,0.8,2.2-0.1,3.1l-0.9,0.8C340.7,155.3,339.3,155.3,338.5,154.4z"/>
	</g>
</g>
<g>
	<g>
		<path class="st3" d="M448.5,173.9v5c17.4-1.8,31.2-15.7,33.1-33.1h-5C474.8,160.4,463.1,172.1,448.5,173.9z"/>
		<path class="st4" d="M476.6,137.9h5c-1.8-17.4-15.7-31.2-33.1-33.1v5C463.1,111.6,474.8,123.2,476.6,137.9z"/>
		<path class="st5" d="M440.6,109.8v-5c-17.4,1.8-31.2,15.7-33.1,33.1h5C414.3,123.2,425.9,111.6,440.6,109.8z"/>
		<path class="st6" d="M412.5,145.8h-5c1.8,17.4,15.7,31.2,33.1,33.1v-5C425.9,172.1,414.3,160.4,412.5,145.8z"/>
	</g>
	<path class="st7" d="M416.1,144.3c0-1.1,3.2-4.2,7.8-1.4c5,3.1,4.4,5.2,9.5,5.2c4.3,0.1,3.7-8.3,3.3-11c-0.4-2.6-1.1-14.5-1-16.4
		c0.1-1.9,0.6-3.5,2.3-3.4c1.9,0.1,1.8,2.9,1.8,2.9s0.6,5.8,0.8,7.7c0.2,1.9,1.8,10.3,3.1,10.4c1.3,0.1,3.2-5.9,4.5-11.7
		c1.3-5.8,3-11.6,5.3-11.1c2,0.4-0.3,7.4-0.8,10c-0.5,2.6-3.6,13-1.9,13.6c1.7,0.6,4.1-5.9,6-10.6c1.9-4.6,3.2-7.9,4.8-7.5
		s0.4,5.8-1.2,9.4s-4.3,10.3-4.6,11.4c-0.5,1.8,0.4,3.8,1.6,2.5c1.2-1.3,4.6-5.2,7.2-8.1c2.6-3,4.3-3.8,5.4-2.9
		c0.5,0.4,0.6,2.1-0.6,3.6c-1.2,1.4-3.4,4.1-4.6,5.5c-2.3,2.6-3.6,4.7-4.4,6.7c-0.8,2-4.5,9.7-4.5,9.7s-1-6.2-1.1-6.9
		c-0.1-0.7-0.1-3.7-0.1-5.5c0-1.9-1.3-2-1.9-2c-0.6,0-1.1,2.1-1.1,4.7c0,2.6,0.1,2.9-0.2,2.9c-0.3,0-1.8-6.3-1.9-7
		c-0.1-0.7-1-3.4-2.3-3c-1.3,0.4-1.2,1.5-0.8,2.6s0.9,3.8,1.3,4.8c0.4,1,0.7,2.1,0.3,2.2s-1.7-2.1-2.2-3.4c-0.5-1.3-1.6-3.1-2-4
		c-0.4-0.9-1.2-1.5-2-1.2c-0.8,0.4-0.4,2-0.1,2.4s3.1,5.9,3.5,6.7c0.4,0.8-0.4,1.3-1.2,0.6c-0.8-0.7-3.6-3.8-4.6-4.9
		c-0.8-0.9-1.9-0.6-2.2,0.2c-0.4,0.8-0.2,1.6,0.7,2.3c1,0.7,2.5,2.9,4.6,4.9c2.1,1.9,2.1,4.3,0.4,4.5c-1.4,0.1-3.6-0.3-5,1.1
		c-1.6,1.6-0.4,2.3,0.7,2.1c1.2-0.2,2.8-0.4,4.3,0.2c1.5,0.5,4.3,2.6,6.6,2.6c2.3,0,3.1-0.5,3.1-0.5s-2.2,5.4-10,4.2
		c-7.2-1.1-11.6-7.3-13.6-9.9s-4.3-6.4-6.2-9.8c-1.8-3.3-3.6-3.9-4.6-3.9C417.6,145.7,416.1,145,416.1,144.3z"/>
</g>
<g>
	<g>
		<path class="st3" d="M555.8,174.2v5c17.6-1.9,31.6-15.9,33.4-33.4h-5C582.3,160.7,570.6,172.4,555.8,174.2z"/>
		<path class="st4" d="M584.2,137.8h5c-1.9-17.6-15.9-31.6-33.4-33.4v5C570.6,111.3,582.3,123,584.2,137.8z"/>
		<path class="st5" d="M547.8,109.5v-5c-17.6,1.9-31.6,15.9-33.4,33.4h5C521.2,123,533,111.3,547.8,109.5z"/>
		<path class="st6" d="M519.4,145.8h-5c1.9,17.6,15.9,31.6,33.4,33.4v-5C533,172.4,521.2,160.7,519.4,145.8z"/>
	</g>
	<g>
		<path class="st7" d="M560.9,119.7c0-0.2-3.3-1.6-4.4-2c-1.1-0.3-3.5-0.7-4.7-0.7c-9.4,0-17,7.6-17,17c0,9.4,7.6,17,17,17
			c9.4,0,17-7.6,17-17C568.7,128,565.6,122.7,560.9,119.7z M536.2,134c0-1,0.1-2,0.3-3c0.6,0.7,1.7,1.8,2.9,2.7l0.7,0.5
			c1.3,0.9,1.6,1.1,1.5,1.4c-0.1,0.3-0.6,3.2-0.4,3.8c0.4,1.1,1.8,2.5,2.6,3.2c0.1,0.1,0.3,0.5,0.4,1.2c0.1,0.9-0.2,2.3-1,3.2
			C539,144.3,536.2,139.5,536.2,134z M548.8,149.3c0.5-1.6,2.6-2.9,4.2-3c2-0.2,3.6-1.3,4.4-3.2c0.2-0.6,0.2-1.3-0.1-2
			c-0.5-1-1.6-1.9-2.4-2.1c-0.8-0.3-2-1-2.3-1.3c-0.4-0.4-1.8-2.1-2.2-2.9c-0.5-1-1.6-1.8-2.5-1.8c-0.6,0-2.5-0.1-3-0.3
			c-0.5-0.2-2.4-1.9-2.6-2.2c0-0.1,0-0.5,0-0.8c0.1-0.7,0.2-1.6-0.2-2.2c-0.1-0.2-0.2-0.6-0.1-1c0.1-0.2,0.2-0.4,0.5-0.5
			c0.2-0.1,1,0.8,1.2,1.1c0.5,0.6,0.9,1.1,1.4,1.1c0.7,0,1-0.6,1.6-1.7c0.5-0.9,1.1-2,1.9-2.6c0.4-0.3,1.2-0.5,2.1-0.7
			c1.1-0.2,2.3-0.5,3.4-1.1c1.3-0.7,1.9-2.1,2.2-3c1,0.3,2,0.8,3,1.3c-0.1,0.8-0.1,2.1,0.9,2.9c0.5,0.4,1,1.4,1,2.3
			c0,0.5-0.1,0.8-0.1,0.8l-0.1,0.1c-0.8,0.8-3,3-2.6,5.6c0.5,2.6,2.7,4.1,4.5,4.3c0.1,0,0.4,0.1,0.5,0.2c0.2,0.3,0,1.1-0.1,1.4
			c-0.1,0.6-0.9,2.1-1.6,3.2c-0.7,1.3-1.1,2-1.3,2.5c-0.3,1-0.3,2.2,0.1,3c-2.5,1.7-5.6,2.8-8.8,2.8
			C550.7,149.6,549.8,149.5,548.8,149.3z"/>
		<g>
			<path class="st7" d="M548.8,159.6c-0.4,0-0.7-0.3-0.7-0.7c0-2.4-1.7-4.1-2.4-4.4c-1-0.4-3.7-1.7-4.7-2.4
				c-0.7-0.5-1.5-1.4-2.3-2.3c-0.5-0.6-1-1.2-1.5-1.7c-0.5-0.5-1.1-0.5-1.2-0.3c-0.1,0.1,0,0.4,0.2,0.6c0.3,0.4,2.5,3,3.8,4.5
				c0.2,0.2,0.3,0.3,0.5,0.5c0.2,0.3,0.2,0.7-0.1,1c-0.3,0.2-0.7,0.2-1-0.1c0,0-0.2-0.2-0.4-0.5c-1.5-1.7-2.9-2.6-4.2-3.5
				c-0.5-0.3-1-0.7-1.4-1c-1.8-1.4-3.1-4.3-3.3-5c0-0.3-0.5-1-0.8-1.2c-0.3,0.7-0.1,3.5,0.9,5.4c1.4,2.8,2.9,4.6,4.2,5.5
				c0.4,0.3,1,0.6,1.5,1c2.2,1.5,3.8,2.5,4.4,3c0.3,0.3,0.3,0.7,0,1c-0.3,0.3-0.7,0.3-1,0c-0.5-0.5-2.6-1.8-4.1-2.9
				c-0.6-0.4-1.1-0.7-1.5-1c-1.5-1-3.1-3.1-4.7-6c-1-1.8-1.6-5.1-0.9-6.6c0.2-0.6,0.6-0.8,0.9-0.8c0.2-0.1,0.6-0.1,1.1,0.2
				c0.7,0.5,1.4,1.5,1.5,2.2c0.1,0.5,1.3,3,2.7,4.1c0.2,0.1,0.4,0.3,0.6,0.4c-0.3-0.8,0-1.4,0.4-1.8c0.7-0.6,2.1-0.6,3.1,0.4
				c0.5,0.5,1.1,1.2,1.6,1.7c0.7,0.9,1.4,1.7,2,2c1,0.6,3.5,1.9,4.5,2.3c1.1,0.5,3.2,2.6,3.2,5.7
				C549.6,159.3,549.2,159.6,548.8,159.6z"/>
			<path class="st7" d="M548.9,166.7h-8.2c-1.1,0-2-0.9-2-2v-2c0-1.1,0.9-2,2-2h8.2c1.1,0,2,0.9,2,2v2
				C550.9,165.7,550,166.7,548.9,166.7z M540.6,162c-0.3,0-0.6,0.3-0.6,0.6v2c0,0.3,0.3,0.6,0.6,0.6h8.2c0.3,0,0.6-0.3,0.6-0.6v-2
				c0-0.3-0.3-0.6-0.6-0.6H540.6z"/>
			<g>
				<path class="st7" d="M554.7,159.6c0.4,0,0.7-0.3,0.7-0.7c0-2.4,1.7-4.1,2.4-4.4c1-0.4,3.7-1.7,4.7-2.4c0.7-0.5,1.5-1.4,2.3-2.3
					c0.5-0.6,1-1.2,1.5-1.7c0.5-0.5,1.1-0.5,1.2-0.3c0.1,0.1,0,0.4-0.2,0.6c-0.3,0.4-2.5,3-3.8,4.5c-0.2,0.2-0.3,0.3-0.5,0.5
					c-0.2,0.3-0.2,0.7,0.1,1c0.3,0.2,0.7,0.2,1-0.1c0,0,0.2-0.2,0.4-0.5c1.5-1.7,2.9-2.6,4.2-3.5c0.5-0.3,1-0.7,1.4-1
					c1.8-1.4,3.1-4.3,3.3-5c0-0.3,0.5-1,0.8-1.2c0.3,0.7,0.1,3.5-0.9,5.4c-1.4,2.8-2.9,4.6-4.2,5.5c-0.4,0.3-1,0.6-1.5,1
					c-2.2,1.5-3.8,2.5-4.4,3c-0.3,0.3-0.3,0.7,0,1c0.3,0.3,0.7,0.3,1,0c0.5-0.5,2.6-1.8,4.1-2.9c0.6-0.4,1.1-0.7,1.5-1
					c1.5-1,3.1-3.1,4.7-6c1-1.8,1.6-5.1,0.9-6.6c-0.2-0.6-0.6-0.8-0.9-0.8c-0.2-0.1-0.6-0.1-1.1,0.2c-0.7,0.5-1.4,1.5-1.5,2.2
					c-0.1,0.5-1.3,3-2.7,4.1c-0.2,0.1-0.4,0.3-0.6,0.4c0.3-0.8,0-1.4-0.4-1.8c-0.7-0.6-2.1-0.6-3.1,0.4c-0.5,0.5-1.1,1.2-1.6,1.7
					c-0.7,0.9-1.4,1.7-2,2c-1,0.6-3.5,1.9-4.5,2.3c-1.1,0.5-3.2,2.6-3.2,5.7C554,159.3,554.3,159.6,554.7,159.6z"/>
				<path class="st7" d="M552.6,164.6v-2c0-1.1,0.9-2,2-2h8.2c1.1,0,2,0.9,2,2v2c0,1.1-0.9,2-2,2h-8.2
					C553.5,166.7,552.6,165.7,552.6,164.6z M554.7,162c-0.3,0-0.6,0.3-0.6,0.6v2c0,0.3,0.3,0.6,0.6,0.6h8.2c0.3,0,0.6-0.3,0.6-0.6
					v-2c0-0.3-0.3-0.6-0.6-0.6H554.7z"/>
			</g>
		</g>
	</g>
</g>
<g>
	<g>
		<path class="st8" d="M663.4,174.2v5c17.6-1.9,31.6-15.9,33.4-33.4h-5C690,160.7,678.2,172.4,663.4,174.2z"/>
		<path class="st9" d="M691.8,137.8h5c-1.9-17.6-15.9-31.6-33.4-33.4v5C678.2,111.3,690,123,691.8,137.8z"/>
		<path class="st10" d="M655.4,109.5v-5c-17.6,1.9-31.6,15.9-33.4,33.4h5C628.8,123,640.6,111.3,655.4,109.5z"/>
		<path class="st11" d="M627,145.8h-5c1.9,17.6,15.9,31.6,33.4,33.4v-5C640.6,172.4,628.8,160.7,627,145.8z"/>
	</g>
	<g>
		<path class="st12" d="M679,161.6h-35.3c-1.6,0-3-1.3-3-3V132c0-1.6,1.3-3,3-3H679c1.6,0,3,1.3,3,3v26.6
			C682,160.3,680.6,161.6,679,161.6z M643.7,131c-0.6,0-1.1,0.5-1.1,1.1v26.6c0,0.6,0.5,1.1,1.1,1.1H679c0.6,0,1.1-0.5,1.1-1.1V132
			c0-0.6-0.5-1.1-1.1-1.1H643.7z"/>
		<path class="st12" d="M643.7,160.6H679c1.1,0,2-0.9,2-2v-4.7l-0.1,2.4c-6.3-14.6-9.5-21.2-14.2-18.8c-4.7,2.4-8.5,16.1-11.4,15.4
			c-2.9-0.6-3.3-4.9-6.4-5.8c-2.9-0.8-7.1,9-7.1,9l-0.2-2.4v4.8C641.7,159.7,642.6,160.6,643.7,160.6z"/>
		<circle class="st12" cx="652" cy="139.5" r="3.2"/>
		<path class="st13" d="M638.9,131.1l-2.1,0.5c-0.6,0.1-0.9,0.7-0.8,1.3l2.8,11.5V132C638.8,131.7,638.8,131.4,638.9,131.1z"/>
		<path class="st13" d="M672.4,124.1c-0.1-0.6-0.7-0.9-1.3-0.8l-15.6,3.8h17.6L672.4,124.1z"/>
		<path class="st12" d="M643.7,129.1c-1.1,0-2,0.6-2.5,1.5l6.1-1.5H643.7z"/>
		<g>
			<path class="st12" d="M636,132.9c-0.1-0.6,0.2-1.2,0.8-1.3l2.1-0.5c0.2-0.8,0.5-1.6,1-2.2l-3.6,0.9c-1.6,0.4-2.6,2-2.2,3.6
				l4.6,19v-8L636,132.9z"/>
			<path class="st12" d="M671.1,123.3c0.6-0.1,1.2,0.2,1.3,0.8l0.7,3h1.9l-0.8-3.4c-0.4-1.6-2-2.6-3.6-2.2l-23.1,5.6h8L671.1,123.3z
				"/>
		</g>
	</g>
</g>
<g>
	<path class="st12" d="M753.1,131.2h-19.5c-0.6,0-1.2-0.5-1.2-1.2s0.5-1.2,1.2-1.2h19.5c0.6,0,1.2,0.5,1.2,1.2
		S753.7,131.2,753.1,131.2z"/>
	<path class="st12" d="M753.1,137.6h-19.5c-0.6,0-1.2-0.5-1.2-1.2s0.5-1.2,1.2-1.2h19.5c0.6,0,1.2,0.5,1.2,1.2
		S753.7,137.6,753.1,137.6z"/>
	<g>
		<path class="st8" d="M748.4,174.2v5c17.6-1.9,31.6-15.9,33.4-33.4h-5C775,160.7,763.2,172.4,748.4,174.2z"/>
		<path class="st9" d="M776.8,137.8h5c-1.9-17.6-15.9-31.6-33.4-33.4v5C763.2,111.3,775,123,776.8,137.8z"/>
		<path class="st10" d="M740.4,109.5v-5c-17.6,1.9-31.6,15.9-33.4,33.4h5C713.8,123,725.6,111.3,740.4,109.5z"/>
		<path class="st11" d="M712,145.8h-5c1.9,17.6,15.9,31.6,33.4,33.4v-5C725.6,172.4,713.8,160.7,712,145.8z"/>
	</g>
	<path class="st12" d="M758.2,147.9l-0.7,0.9l0,12.9h-28.7V122l28.7,0l0,14.2l0.1-0.2c0.1-0.2,0.3-0.3,0.5-0.3c0,0,0-0.1,0-0.1
		c0-0.2,0.1-0.4,0.2-0.6l0.9-1c0,0,0,0,0,0l0-13.8l-32.2,0v43.1h32.2l0-14c-0.1-0.1-0.2-0.1-0.3-0.2
		C758.5,148.9,758.3,148.4,758.2,147.9z"/>
	<path class="st12" d="M753.1,141.6h-19.5c-0.6,0-1.2,0.5-1.2,1.2c0,0.6,0.5,1.2,1.2,1.2h17.8L753.1,141.6
		C753.1,141.7,753.1,141.6,753.1,141.6z"/>
	<path class="st12" d="M733.5,148c-0.6,0-1.2,0.5-1.2,1.2c0,0.6,0.5,1.2,1.2,1.2h12.7l1.8-2.3H733.5z"/>
	<path class="st12" d="M733.3,154.4c-0.5,0-0.9,0.5-0.9,1.2c0,0.6,0.4,1.2,0.9,1.2h10.3l0.5-2.3H733.3z"/>
	<g>
		<path class="st12" d="M745.1,153l-1.2,5.6c-0.1,0.5,0.4,0.8,0.8,0.6l5.2-2.4L745.1,153z"/>
		<path class="st12" d="M766.1,140.2c-0.5-0.4-1.1-0.3-1.5,0.2l-0.7,0.8l-5.7-4.7l-12.6,15.7l4.9,4l11.6-14.4l0.8,0.7l-3.7,4.6
			c-0.4,0.5-0.3,1.1,0.2,1.5c0.5,0.4,1.1,0.3,1.5-0.2l5.4-6.7C766.7,141.3,766.6,140.6,766.1,140.2z"/>
		<path class="st12" d="M764.8,138.6c1.1-1.4,0.9-3.4-0.5-4.5c-1.4-1.1-3.4-0.9-4.5,0.5l-0.9,1l4.9,4L764.8,138.6z"/>
	</g>
</g>
<g>
	<g>
		<g>
			<path class="st8" d="M-209.8-222v3.6c12.5-1.3,22.5-11.3,23.8-23.8h-3.6C-190.9-231.6-199.3-223.2-209.8-222z"/>
			<path class="st9" d="M-189.6-247.8h3.6c-1.3-12.5-11.3-22.5-23.8-23.8v3.6C-199.3-266.7-190.9-258.4-189.6-247.8z"/>
			<path class="st10" d="M-215.5-268v-3.6c-12.5,1.3-22.5,11.3-23.8,23.8h3.6C-234.4-258.4-226-266.7-215.5-268z"/>
			<path class="st11" d="M-235.7-242.1h-3.6c1.3,12.5,11.3,22.5,23.8,23.8v-3.6C-226-223.2-234.4-231.6-235.7-242.1z"/>
		</g>
	</g>
	<g>
		<g>
			
				<rect x="-199.2" y="-240.9" transform="matrix(0.4209 -0.9071 0.9071 0.4209 101.7493 -317.9073)" class="st14" width="2.2" height="4.5"/>
			
				<rect x="-198.6" y="-246.6" transform="matrix(0.9999 -1.171795e-02 1.171795e-02 0.9999 2.8634 -2.3175)" class="st14" width="4.5" height="2.2"/>
			
				<rect x="-200.4" y="-253.8" transform="matrix(0.8261 -0.5635 0.5635 0.8261 107.9014 -155.6085)" class="st14" width="4.5" height="2.2"/>
		</g>
		<path class="st14" d="M-200.8-245.4c0-1.4-1.1-2.6-2.5-2.6v-6.5c0-1.1-0.6-2.2-1.6-2.7c-1-0.6-2.2-0.6-3.2,0l-9,5h-7.6
			c-3.6,0-6.5,2.9-6.5,6.5v0.5c0,3.5,2.8,6.3,6.2,6.5l-2.4,8.3h7.4l2.4-8.3h0.5l9,5.1c0.5,0.3,1,0.4,1.6,0.4c0.5,0,1.1-0.1,1.6-0.4
			c1-0.6,1.6-1.6,1.6-2.7v-6.4C-201.9-242.8-200.8-244-200.8-245.4z M-221.4-232.3h-3.4l1.8-6.3h3.4L-221.4-232.3z M-212.7-238.4
			l-3.8-2.2v0h0l0,0l0,0h-8.1c-2.5,0-4.6-2.1-4.6-4.6v-0.5c0-2.5,2.1-4.6,4.6-4.6h8.1l0,0l0,0h0v0l3.8-2.1V-238.4z M-205.2-236.3
			c0,0.5-0.2,0.9-0.6,1.1c-0.4,0.2-0.9,0.2-1.3,0l-3.7-2.1v-16.2l3.7-2.1c0.4-0.2,0.9-0.2,1.3,0c0.4,0.2,0.6,0.6,0.6,1.1V-236.3z"/>
	</g>
</g>
<g>
	<g>
		<path class="st12" d="M-139.9-231.3h-22.9V-262h16.6v6.3h6.3V-231.3z M-161.6-232.5h20.5v-22h-6.3v-6.3h-14.2V-232.5z"/>
		<path class="st12" d="M-139.9-254.5h-7.5v-7.5h1.2l6.3,6.3V-254.5z M-146.2-255.7h4.6l-4.6-4.6V-255.7z"/>
		<path class="st12" d="M-144.3-250.3h-13.9c-0.5,0-0.8-0.4-0.8-0.8c0-0.5,0.4-0.8,0.8-0.8h13.9c0.5,0,0.8,0.4,0.8,0.8
			C-143.5-250.6-143.9-250.3-144.3-250.3z"/>
		<path class="st12" d="M-144.3-246.5h-13.9c-0.5,0-0.8-0.4-0.8-0.8c0-0.5,0.4-0.8,0.8-0.8h13.9c0.5,0,0.8,0.4,0.8,0.8
			C-143.5-246.8-143.9-246.5-144.3-246.5z"/>
		<path class="st12" d="M-154.4-242.5h-3.8c-0.5,0-0.8-0.4-0.8-0.8s0.4-0.8,0.8-0.8h3.8c0.5,0,0.8,0.4,0.8,0.8
			S-154-242.5-154.4-242.5z"/>
		<path class="st12" d="M-153.4-238.7h-4.8c-0.5,0-0.8-0.4-0.8-0.8c0-0.5,0.4-0.8,0.8-0.8h4.8c0.5,0,0.8,0.4,0.8,0.8
			C-152.6-239-152.9-238.7-153.4-238.7z"/>
		<path class="st12" d="M-144.3-242.5h-7.6c-0.5,0-0.8-0.4-0.8-0.8s0.4-0.8,0.8-0.8h7.6c0.5,0,0.8,0.4,0.8,0.8
			S-143.9-242.5-144.3-242.5z"/>
		<path class="st12" d="M-144.3-238.7h-6.5c-0.5,0-0.8-0.4-0.8-0.8c0-0.5,0.4-0.8,0.8-0.8h6.5c0.5,0,0.8,0.4,0.8,0.8
			C-143.5-239-143.9-238.7-144.3-238.7z"/>
	</g>
	<g>
		<g>
			<circle class="st15" cx="-140.5" cy="-241.7" r="7.4"/>
			<path class="st12" d="M-140.5-233.6c-4.5,0-8.1-3.7-8.1-8.1s3.7-8.1,8.1-8.1c4.5,0,8.1,3.7,8.1,8.1S-136-233.6-140.5-233.6z
				 M-140.5-248.6c-3.8,0-6.9,3.1-6.9,6.9s3.1,6.9,6.9,6.9c3.8,0,6.9-3.1,6.9-6.9S-136.7-248.6-140.5-248.6z"/>
		</g>
		<g>
			<path class="st12" d="M-138.6-246.5l-4.4,1.2l1.2,1.2l-2.8,2.8c-0.2,0.2-0.2,0.7,0,0.9s0.7,0.2,0.9,0l2.8-2.8l1.2,1.2
				L-138.6-246.5z"/>
			<path class="st12" d="M-141.8-236.8l4.4-1.2l-1.2-1.2l2.8-2.8c0.2-0.2,0.2-0.7,0-0.9s-0.7-0.2-0.9,0l-2.8,2.8l-1.2-1.2
				L-141.8-236.8z"/>
		</g>
	</g>
	<g>
		<path class="st8" d="M-147.7-223.6v3.6c12.5-1.3,22.5-11.3,23.8-23.8h-3.6C-128.8-233.3-137.1-224.9-147.7-223.6z"/>
		<path class="st9" d="M-127.5-249.5h3.6c-1.3-12.5-11.3-22.5-23.8-23.8v3.6C-137.1-268.4-128.8-260-127.5-249.5z"/>
		<path class="st10" d="M-153.4-269.7v-3.6c-12.5,1.3-22.5,11.3-23.8,23.8h3.6C-172.3-260-163.9-268.4-153.4-269.7z"/>
		<path class="st11" d="M-173.6-243.8h-3.6c1.3,12.5,11.3,22.5,23.8,23.8v-3.6C-163.9-224.9-172.3-233.3-173.6-243.8z"/>
	</g>
</g>
<g>
	<g>
		<path class="st8" d="M-61.7-250.2v3.6c12.5-1.3,22.5-11.3,23.8-23.8h-3.6C-42.8-259.9-51.1-251.5-61.7-250.2z"/>
		<path class="st9" d="M-41.5-276.1h3.6c-1.3-12.5-11.3-22.5-23.8-23.8v3.6C-51.1-295-42.8-286.7-41.5-276.1z"/>
		<path class="st10" d="M-67.4-296.3v-3.6c-12.5,1.3-22.5,11.3-23.8,23.8h3.6C-86.3-286.7-77.9-295-67.4-296.3z"/>
		<path class="st11" d="M-87.6-270.4h-3.6c1.3,12.5,11.3,22.5,23.8,23.8v-3.6C-77.9-251.5-86.3-259.9-87.6-270.4z"/>
	</g>
	<g>
		<g>
			<polygon class="st15" points="-78.8,-283.6 -81.6,-283.6 -81.6,-262 -64.6,-263.2 -64.6,-282.4 			"/>
			<path class="st12" d="M-82.2-261.4v-22.9l3.5,0l14.8,1.3v20.3L-82.2-261.4z M-81-283v20.3l15.8-1v-18l-13.7-1.2H-81z"/>
		</g>
		<g>
			<path class="st15" d="M-64.6-282.3c0,0-2.1-4.7-14.3-3v20.4c0,0,8.8-0.9,14.3,1.5V-282.3z"/>
			<path class="st12" d="M-63.9-262.4l-0.9-0.4c-5.2-2.3-13.9-1.5-13.9-1.4l-0.7,0.1v-21.7l0.5-0.1c12.5-1.7,14.8,3.2,14.9,3.4
				l0.1,0.1V-262.4z M-74.8-265.7c2.8,0,6.6,0.3,9.6,1.4v-17.9c-0.4-0.6-3-3.9-13-2.6v19.2C-77.5-265.6-76.3-265.7-74.8-265.7z"/>
		</g>
		<g>
			<polygon class="st15" points="-50.2,-283.6 -47.4,-283.6 -47.4,-262 -64.5,-263.2 -64.5,-282.4 			"/>
			<path class="st12" d="M-46.8-261.4l-18.3-1.2v-20.3l14.9-1.3h3.4V-261.4z M-63.8-263.8l15.8,1V-283h-2.1l-13.7,1.2V-263.8z"/>
		</g>
		<g>
			<path class="st15" d="M-64.5-282.3c0,0,2.1-4.7,14.3-3v20.4c0,0-8.8-0.9-14.3,1.5V-282.3z"/>
			<path class="st12" d="M-65.1-262.4v-20l0.1-0.1c0.1-0.2,2.4-5.1,14.9-3.4l0.5,0.1v21.7l-0.7-0.1c-0.1,0-8.7-0.9-13.9,1.4
				L-65.1-262.4z M-63.8-282.1v17.9c4.6-1.7,10.9-1.4,13-1.3v-19.2C-60.9-286-63.4-282.8-63.8-282.1z"/>
		</g>
	</g>
</g>
<g>
	<g>
		<path class="st8" d="M26.9-241.2v3.6c12.5-1.3,22.5-11.3,23.8-23.8h-3.6C45.8-250.9,37.4-242.5,26.9-241.2z"/>
		<path class="st9" d="M47.1-267.1h3.6c-1.3-12.5-11.3-22.5-23.8-23.8v3.6C37.4-286,45.8-277.7,47.1-267.1z"/>
		<path class="st10" d="M21.2-287.3v-3.6c-12.5,1.3-22.5,11.3-23.8,23.8H1C2.3-277.7,10.7-286,21.2-287.3z"/>
		<path class="st11" d="M1-261.4h-3.6c1.3,12.5,11.3,22.5,23.8,23.8v-3.6C10.7-242.5,2.3-250.9,1-261.4z"/>
	</g>
	<g>
		<path class="st16" d="M34.1-268.1c0,0,2.2-3.5,0.5-9c-1.7-5.7-9.1-5.9-10.6-5.9h0.1c-1.5,0-8.9,0.3-10.6,5.9c-1.7,5.5,0.5,9,0.5,9
			"/>
		<path class="st12" d="M15.6-262.7l-3.3,0.3c-0.2,0-0.4-0.1-0.4-0.3l-0.6-6.5c0-0.2,0.1-0.4,0.3-0.4L15-270c0.2,0,0.4,0.1,0.4,0.3
			l0.6,6.5C16-262.9,15.8-262.7,15.6-262.7z"/>
		<path class="st12" d="M32.5-262.7l3.3,0.3c0.2,0,0.4-0.1,0.4-0.3l0.6-6.5c0-0.2-0.1-0.4-0.3-0.4l-3.3-0.3c-0.2,0-0.4,0.1-0.4,0.3
			l-0.6,6.5C32.2-262.9,32.3-262.7,32.5-262.7z"/>
		<path class="st12" d="M33.5-269.9c0,0-0.1-4.9-0.2-5.9c-0.1-1-0.9-2.1-2.7-2.3c0,0-1-2.3-6.3-2.4c-2.6,0-5.6,0.8-7.5,2.5
			c-2,1.8-2.7,4.5-2.3,8.1c0,0,2.2,2.1,7.3,0.8c4.8-1.2,7.8-4.2,7.8-4.2s1.1,2.5,2.4,4.3L33.5-269.9z"/>
		<path class="st17" d="M15-269.5c0,0,0.4,14.2,9.3,14.2c8.4,0,8.9-14.7,8.9-14.7"/>
		<path class="st18" d="M27.7-259.5c2.3,0.1,3.6,0,4.6-0.5c2.2-1,1.9-3.1,1.9-3.1"/>
		<path class="st12" d="M27.5-258.7H26c-0.2,0-0.4-0.2-0.4-0.4v-0.9c0-0.2,0.2-0.4,0.4-0.4h1.5c0.2,0,0.4,0.2,0.4,0.4v0.9
			C27.9-258.9,27.7-258.7,27.5-258.7z"/>
		<path class="st12" d="M17.3-254.2c-6-0.4-8.8,3.4-8.8,3.4c0,0,0.1,0.1,0.1,0.1c3.3,3.3,7.6,5.5,12.4,6.2c0.1,0,0.2,0,0.2,0
			L17.3-254.2z"/>
		<path class="st12" d="M39.6-250.8c-3.3-3.9-8.8-3.5-8.8-3.5l-3.8,9.8c0,0,0,0,0,0C32-245.2,36.3-247.5,39.6-250.8z"/>
		<path class="st12" d="M20.8-252.1c0,0,0.1,0.6,0.2,0.7s1.3,2,1.3,2l1.6,0.8l1.7-0.6c0,0,1.4-2.2,1.5-2.4c0.1-0.1,0.1-0.7,0.1-0.9
			S24.4-253.5,20.8-252.1z"/>
		<path class="st19" d="M16.3-254.2c0,0,1.8-2.5,2.5-2.4s3,2.9,5,3.8c0,0-3.1-0.3-6.7,4L16.3-254.2z"/>
		<path class="st19" d="M31.9-254.3c0,0-1.8-2.6-2.5-2.5s-3,3-5,3.9c0,0,3.1-0.3,6.7,4.1L31.9-254.3z"/>
	</g>
</g>
<g>
	<g>
		<g>
			<path class="st8" d="M-180.9-92.1v3.6c12.5-1.3,22.5-11.3,23.8-23.8h-3.6C-162-101.7-170.4-93.3-180.9-92.1z"/>
			<path class="st9" d="M-160.7-117.9h3.6c-1.3-12.5-11.3-22.5-23.8-23.8v3.6C-170.4-136.8-162-128.5-160.7-117.9z"/>
			<path class="st10" d="M-186.6-138.1v-3.6c-12.5,1.3-22.5,11.3-23.8,23.8h3.6C-205.5-128.5-197.1-136.8-186.6-138.1z"/>
			<path class="st11" d="M-206.8-112.2h-3.6c1.3,12.5,11.3,22.5,23.8,23.8v-3.6C-197.1-93.3-205.5-101.7-206.8-112.2z"/>
		</g>
	</g>
	<g>
		<path class="st12" d="M-172.6-102.4h-22.4c-1.6,0-3.1-0.8-3.9-2.2s-0.8-3.1,0-4.5l11.2-19.4c0.8-1.4,2.3-2.2,3.9-2.2
			s3.1,0.8,3.9,2.2l11.2,19.4c0.8,1.4,0.8,3.1,0,4.5C-169.5-103.2-170.9-102.4-172.6-102.4z M-183.8-128.2c-0.7,0-1.4,0.4-1.7,1
			l-11.2,19.4c-0.4,0.6-0.4,1.4,0,2c0.4,0.6,1,1,1.7,1h22.4c0.7,0,1.4-0.4,1.7-1c0.4-0.6,0.4-1.4,0-2l-11.2-19.4
			C-182.4-127.8-183-128.2-183.8-128.2z"/>
		<polygon class="st12" points="-182.2,-111.9 -185.3,-111.9 -185.6,-123.5 -181.9,-123.5 		"/>
		<circle class="st12" cx="-183.8" cy="-108.3" r="2.1"/>
	</g>
</g>
<g>
	<g>
		<path class="st8" d="M115.5-253.1v3.6c12.5-1.3,22.5-11.3,23.8-23.8h-3.6C134.4-262.8,126-254.4,115.5-253.1z"/>
		<path class="st9" d="M135.7-279h3.6c-1.3-12.5-11.3-22.5-23.8-23.8v3.6C126-297.9,134.4-289.5,135.7-279z"/>
		<path class="st10" d="M109.8-299.2v-3.6C97.3-301.4,87.3-291.5,86-279h3.6C90.9-289.5,99.2-297.9,109.8-299.2z"/>
		<path class="st11" d="M89.6-273.3H86c1.3,12.5,11.3,22.5,23.8,23.8v-3.6C99.2-254.4,90.9-262.8,89.6-273.3z"/>
	</g>
	<g>
		<path class="st12" d="M116.5-267.2h-1.9c0-2,1-3.8,2.1-5.5c1-1.8,2.1-3.6,2.1-5.6c0-3.8-3.2-5.6-6.2-5.6c-2.9,0-6,2-6,5.6
			c0,2,1.1,3.8,2.1,5.6c1,1.7,2.1,3.6,2.1,5.5h-1.9c0-1.4-0.9-3-1.8-4.6c-1.1-1.9-2.3-4.1-2.3-6.6c0-4.9,4.1-7.5,7.9-7.5
			c4,0,8,2.6,8,7.5c0,2.5-1.2,4.7-2.3,6.6C117.3-270.1,116.5-268.6,116.5-267.2z"/>
		<path class="st12" d="M115.3-264.8h-5.4c-0.4,0-0.7-0.3-0.7-0.7c0-0.4,0.3-0.7,0.7-0.7h5.4c0.4,0,0.7,0.3,0.7,0.7
			C116-265.1,115.7-264.8,115.3-264.8z"/>
		<path class="st12" d="M115.3-262.5h-5.4c-0.4,0-0.7-0.3-0.7-0.7c0-0.4,0.3-0.7,0.7-0.7h5.4c0.4,0,0.7,0.3,0.7,0.7
			C116-262.8,115.7-262.5,115.3-262.5z"/>
		<path class="st12" d="M110-261.6h5.2l-1.3,1.2c-0.2,0.2-0.4,0.3-0.6,0.3h-1.3c-0.2,0-0.5-0.1-0.7-0.3L110-261.6z"/>
		<g>
			
				<rect x="100.1" y="-273.5" transform="matrix(0.9071 -0.4209 0.4209 0.9071 124.1709 17.6041)" class="st12" width="3.8" height="1.9"/>
			
				<rect x="99.7" y="-280.2" transform="matrix(1.205621e-02 -0.9999 0.9999 1.205621e-02 377.7852 -174.281)" class="st12" width="1.9" height="3.8"/>
			
				<rect x="101.3" y="-286.2" transform="matrix(0.5631 -0.8264 0.8264 0.5631 279.6584 -39.7046)" class="st12" width="1.9" height="3.8"/>
			
				<rect x="105.8" y="-290.2" transform="matrix(0.8748 -0.4844 0.4844 0.8748 153.0141 15.612)" class="st12" width="1.9" height="3.8"/>
			
				<rect x="122.3" y="-274.4" transform="matrix(0.4209 -0.9071 0.9071 0.4209 318.5973 -46.0053)" class="st12" width="1.9" height="3.8"/>
			
				<rect x="122.7" y="-279.3" transform="matrix(0.9999 -1.171795e-02 1.171795e-02 0.9999 3.2699 1.4403)" class="st12" width="3.8" height="1.9"/>
			
				<rect x="121.1" y="-285.3" transform="matrix(0.8261 -0.5635 0.5635 0.8261 181.596 19.8478)" class="st12" width="3.8" height="1.9"/>
			
				<rect x="116.6" y="-289.3" transform="matrix(0.4843 -0.8749 0.8749 0.4843 313.353 -44.9829)" class="st12" width="3.8" height="1.9"/>
			
				<rect x="110.8" y="-290.6" transform="matrix(1.562309e-02 -0.9999 0.9999 1.562309e-02 400.5045 -172.4235)" class="st12" width="3.8" height="1.9"/>
		</g>
	</g>
</g>
<g>
	<path class="st15" d="M49.3,12.1l-0.1,1.1c-0.7-0.1-1.2-0.1-1.9-0.2c-2.8-0.1-5.7,0.2-8.3,1.1c-7.7,2.7-13.4,9.7-13.9,18.4
		c-0.5,6,1.7,11.6,5.4,15.6l1.7,1.5c-1.2,1.4-2.8,2.4-4.4,3.2l-1.5-1.4c-4.4-4.6-7-11-6.6-17.9c0.7-11,8.9-19.7,19.3-21.5
		c1.8-0.3,3.6-0.5,5.6-0.3c0.6,0.1,1,0.1,1.6,0.2c-1.2-0.2-2.5-0.5-3.7-0.6c-1.1,0-2.3,0-3.4,0c-12.8,0.9-23.3,11.1-24.2,24.2
		c-0.5,7.1,2,13.8,6.5,18.8c-4.2,0.1-8.4-1.6-11.4-5.1c-1.8-4.6-2.5-9.5-2-13.9c0.8-7,4.2-13.5,9.4-18.2c4.9-4.6,11.3-7.6,18.6-7.8
		c1.1-0.1,2.3,0,3.3,0C42.8,9.6,46.2,10.5,49.3,12.1z M39,15.4c-5.6,2.9-9.6,8.7-10.1,15.5c-0.3,5.3,1.7,10.4,5.1,14l0.9,0.9
		c0.7-1.5,1.1-3.5,1.2-4.9c-2.2-2.7-2.9-6-3.1-8.6c-0.2-5.4,2.1-10.4,5.9-13.7c2.7-2.4,6.1-4,10-4.4l0.1-0.9H49
		C45.4,13.1,42,13.9,39,15.4z M55.2,26.1l-1,3.4L51.2,7.3L50.9,9l-2.2,15l-0.9-0.8l-0.3,2.5L47.1,25l-0.8,0.7l-1-2.7l-0.1-0.6
		l-1.4,1.2c0,3.3-1.1,9.4-3.5,14.4l0.3-0.2c0,0,0,0,0.1-0.1c1.8-3.1,3.3-6.8,4.4-11.2l0.1,0.7l1.5,7.8c0.7,0,1.5-0.1,2.3,0l1.9-19.3
		v-0.5L51.8,35v0.3c1.2,0.3,2.4,0.8,3.6,1.5l0.8-8.5l11-2.1L55.2,26.1z M57.2,40.1c-2-1.9-4.2-3.1-6.2-3.5c-0.3-0.1-0.7-0.2-1-0.2
		c-1.6-0.3-3.2-0.2-4.6,0c-3.2,0.5-5.3,1.8-4.5,1.8c0.7,0,1.5,0.2,2.2,0.5c0.8,0.2,1.7,0.5,2.4,0.9c0.9,0.5,1.8,0.9,2.6,1.6
		c1.1,0.8,2.2,1.9,3.1,3.1c0.2,0.3,0.5,0.7,0.7,1c1.2,2,2.2,4.5,2.5,6.9c0.3,2.5,0,5-0.8,7.4c-0.6,1.5-1.4,2.9-2.4,4.2
		c0,0.1-0.1,0.1-0.1,0.1h0.1c4.4-2.4,9.5-5.9,10.3-12.1C61.7,47,60.1,42.8,57.2,40.1z M45.3,43.6c-2.9-2.6-6.1-3.4-5.6-2.7
		c0.5,0.5,0.9,1.1,1.2,1.8c1,1.6,1.6,3.4,1.8,5.2c0.2,1.8,0.1,3.7-0.3,5.6c-0.5,2.5-1.6,4.8-3.1,6.7c-1.5,1.9-3.3,3.4-5.4,4.5
		c-0.1,0-0.2,0.1-0.3,0.1c-1.5,0.7-3.1,1.1-4.9,1.4c1.7,0.5,3.4,0.9,5.2,1.2c3.6,0.5,7.5,0.1,10.8-2.5c0.2-0.2,0.5-0.3,0.6-0.6
		c3.3-2.8,4.9-6.7,4.8-10.5c0-3.2-1.1-5.8-2.5-7.7C46.8,45,46.1,44.3,45.3,43.6z M35.3,58.5c2.3-2.4,3.3-4.9,3.7-7.3
		c0.9-5.4-1.8-10.4-1.8-9.3c-0.1,0.8-0.2,1.6-0.5,2.3c-0.5,1.8-1.4,3.5-2.5,4.9c-0.1,0.2-0.2,0.3-0.3,0.5c-1,1.2-2.3,2.4-3.7,3.4
		c-2.2,1.2-4.5,2.2-6.9,2.5c-2.5,0.2-5,0-7.4-0.8c-1.6-0.6-3.1-1.4-4.4-2.5c2.4,4.4,5.9,9.6,12.2,10.3c4,0.5,7.6-0.7,10.2-2.8
		C34.5,59.3,34.8,59,35.3,58.5z"/>
</g>
</svg>
