<?xml version="1.0" encoding="utf-8"?>
<!-- Generator: Adobe Illustrator 25.0.0, SVG Export Plug-In . SVG Version: 6.00 Build 0)  -->
<svg version="1.1" id="Capa_1" xmlns="http://www.w3.org/2000/svg" xmlns:xlink="http://www.w3.org/1999/xlink" x="0px" y="0px"
	 viewBox="0 0 53.3 53.3" style="enable-background:new 0 0 53.3 53.3;" xml:space="preserve">
<style type="text/css">
	.st0{fill:#003D7C;}
	.st1{fill-rule:evenodd;clip-rule:evenodd;fill:#7DBA47;}
	.st2{fill-rule:evenodd;clip-rule:evenodd;fill:#80BA27;}
	.st3{fill:#97C23F;}
	.st4{fill:#33A7DF;}
	.st5{fill:#0665AE;}
	.st6{fill:#459F3E;}
	.st7{fill:#808184;}
	.st8{fill:#98C93C;}
	.st9{fill:#32A9E0;}
	.st10{fill:#0065B0;}
	.st11{fill:#44A03F;}
	.st12{fill:#808285;}
	.st13{fill:none;}
	.st14{fill:#808285;stroke:#FFFFFF;stroke-width:0.2;stroke-miterlimit:10;}
	.st15{fill:#FFFFFF;}
	.st16{fill:none;stroke:#808285;stroke-width:1.5;stroke-miterlimit:10;}
	.st17{fill:none;stroke:#808285;stroke-width:0.8;stroke-miterlimit:10;}
	.st18{fill:none;stroke:#808285;stroke-width:0.8;stroke-linecap:round;stroke-linejoin:round;stroke-miterlimit:10;}
	.st19{fill:#FFFFFF;stroke:#808285;stroke-width:0.8;stroke-miterlimit:10;}
</style>
<g>
	<g>
		<path class="st0" d="M70.3,248.5c-1.3,0-2.7-0.1-4.1,0c-9,0.3-17,3.9-23.1,9.7c-6.5,5.9-10.7,13.9-11.7,22.7
			c-0.6,5.5,0.3,11.5,2.5,17.3c3.8,4.4,9,6.5,14.2,6.3c-5.5-6.2-8.6-14.5-8-23.4c1.1-16.3,14.2-29,30.1-30.1c1.4,0,2.8,0,4.2,0
			c1.5,0.1,3.1,0.4,4.7,0.7c-0.7-0.1-1.3-0.1-2-0.3c-2.4-0.1-4.6,0-6.9,0.4c-12.8,2.3-23.1,13.1-23.9,26.8
			c-0.6,8.6,2.7,16.5,8.2,22.3l1.8,1.7c2-1,3.9-2.3,5.5-3.9l-2.1-1.8c-4.7-5.1-7.3-12-6.8-19.4c0.7-10.7,7.7-19.4,17.3-22.8
			c3.2-1.1,6.8-1.5,10.3-1.4c0.8,0.1,1.5,0.1,2.4,0.3l0.1-1.4C79.1,250.1,74.9,249,70.3,248.5z"/>
		<path class="st0" d="M70.3,256.1c-6.9,3.7-12,10.8-12.5,19.3c-0.4,6.6,2.1,13,6.3,17.5l1.1,1.1c0.8-1.8,1.4-4.4,1.5-6.1
			c-2.7-3.4-3.7-7.5-3.8-10.7c-0.3-6.8,2.7-13,7.3-17c3.4-3,7.6-4.9,12.4-5.5l0.1-1.1h-0.1C78.1,253.3,73.9,254.3,70.3,256.1z"/>
	</g>
	<path class="st1" d="M90.4,269.5l-1.3,4.2l-3.8-27.6l-0.3,2.1l-2.7,18.6l-1.1-1l-0.4,3.1l-0.6-0.8l-1,0.8l-1.3-3.4l-0.1-0.7
		l-1.7,1.6c0,4.1-1.4,11.7-4.4,17.9l0.4-0.3c0,0,0,0,0.1-0.1c2.3-3.8,4.1-8.5,5.5-13.9l0.1,0.8l1.8,9.7c0.8,0,1.8-0.1,2.8,0
		l2.4-23.9V256l1.1,24.5v0.4c1.5,0.4,3,1,4.5,1.8l1-10.6l13.7-2.7L90.4,269.5z"/>
	<g>
		<path class="st2" d="M92.8,286.8c-2.5-2.4-5.2-3.8-7.7-4.4c-0.4-0.1-0.8-0.3-1.3-0.3c-2-0.4-3.9-0.3-5.8,0
			c-3.9,0.6-6.6,2.3-5.6,2.3c0.8,0,1.8,0.3,2.7,0.6c1,0.3,2.1,0.6,3,1.1c1.1,0.6,2.3,1.1,3.2,2c1.4,1,2.7,2.4,3.8,3.8
			c0.3,0.4,0.6,0.8,0.8,1.3c1.5,2.5,2.7,5.6,3.1,8.6c0.4,3.1,0,6.2-1,9.2c-0.7,1.8-1.7,3.7-3,5.2c0,0.1-0.1,0.1-0.1,0.1H85
			c5.5-3,11.8-7.3,12.8-15.1C98.4,295.4,96.5,290.2,92.8,286.8z"/>
		<path class="st2" d="M78,291.2c-3.7-3.2-7.6-4.2-6.9-3.4c0.6,0.6,1.1,1.4,1.6,2.3c1.3,2,2,4.2,2.3,6.5c0.3,2.3,0.1,4.6-0.4,6.9
			c-0.6,3.1-2,5.9-3.8,8.3c-1.8,2.4-4.1,4.2-6.8,5.6c-0.1,0-0.3,0.1-0.4,0.1c-1.8,0.8-3.8,1.4-6.1,1.7c2.1,0.6,4.2,1.1,6.5,1.5
			c4.5,0.6,9.3,0.1,13.4-3.1c0.3-0.3,0.6-0.4,0.7-0.7c4.1-3.5,6.1-8.3,5.9-13.1c0-3.9-1.4-7.2-3.1-9.6C80,293,79,292.1,78,291.2z"/>
		<path class="st2" d="M65.6,309.8c2.8-3,4.1-6.1,4.7-9c1.1-6.8-2.3-13-2.3-11.5c-0.1,1-0.3,2-0.6,2.8c-0.6,2.3-1.7,4.4-3.1,6.1
			c-0.1,0.3-0.3,0.4-0.4,0.6c-1.3,1.5-2.8,3-4.7,4.2c-2.7,1.5-5.6,2.7-8.6,3.1c-3.1,0.3-6.2,0-9.2-1c-2-0.7-3.8-1.7-5.5-3.1
			c3,5.5,7.3,12,15.2,12.8c4.9,0.6,9.4-0.8,12.7-3.5C64.6,310.8,65,310.4,65.6,309.8z"/>
	</g>
</g>
<g>
	<g>
		<g>
			<path class="st3" d="M151.7,316v5c17.6-1.9,31.6-15.9,33.4-33.4h-5C178.3,302.4,166.5,314.1,151.7,316z"/>
			<path class="st4" d="M180.1,279.6h5c-1.9-17.6-15.9-31.6-33.4-33.4v5C166.5,253,178.3,264.8,180.1,279.6z"/>
			<path class="st5" d="M143.7,251.2v-5c-17.6,1.9-31.6,15.9-33.4,33.4h5C117.1,264.8,128.9,253,143.7,251.2z"/>
			<path class="st6" d="M115.3,287.6h-5c1.9,17.6,15.9,31.6,33.4,33.4v-5C128.9,314.1,117.1,302.4,115.3,287.6z"/>
		</g>
	</g>
	<g>
		<path class="st7" d="M160,302.6c-4.6,3.9-10.7,3.8-17.2,1.1c-3.8-1.6-5.5-4.6-12.9-6.9c-4.1-1.3-5.3,0.5-8,1.1
			c5.1,9,14.7,15.1,25.8,15.1c9.7,0,18.2-4.6,23.6-11.8C169.7,300.4,164.3,298.9,160,302.6z"/>
		<g>
			<path class="st7" d="M177,279c-0.6-0.2-1.2-0.3-2.1-0.5c-1.2-0.2-2.5-0.4-3.6-0.5c-0.7,0-1.8,0-2.4-0.3c-0.5-0.3-1.8,0.2-2.2-0.5
				s-0.8,0-2.7-1.1c-0.8-0.4-3.9-3.1-4.5-3.7c-0.5-0.6-1.1-2.3-1.1-2.3s-0.6-0.5-0.8-1.1c-0.1-0.5-1.9-2.9-2.4-3.7
				c-0.4-0.8-1.4-1.1-1.8-1.5c-0.4-0.4-1.2-0.3-1.6-0.3s-1,0.1-1.6,0.4c-0.6,0.3-1.5,1.2-1.9,1.7c-0.4,0.5-0.9,0.9-1.4,1.3
				c-0.5,0.4-1.6,1.7-1.8,2.2c-0.2,0.4-0.9,1.6-1.3,2.4c-0.4,0.8-1.2,1.7-1.2,2.4s-1.1,1.8-1.4,2.4c-0.3,0.5-2.8,6.3-3.2,6.6
				c-0.4,0.3-1.6,3.1-3,3.6c-1.4,0.5-3,0.8-3.8,0.8s-2.2-2.4-2.3-2.7c-0.1-0.3-1.3-0.8-1.6-1.6c-0.3-0.9-1.2-0.8-1.2-0.8
				s-0.1-0.9-0.8-1.4c-0.6-0.5-1.4,0-2.7,1.2c-1.3,1.2-2.7,2.9-4.1,6.1c0,0.1,0,0.3-0.1,0.6c0.4,2.1,1,4.1,1.8,6
				c3.4-0.8,7.8-0.6,11.9,0.8c3.9,1.4,8.5,3.9,13.8,5c4,0.9,7.9,1,11.2,0c2.5-0.7,4.3-1.9,7-2.9c3.7-1.4,7-0.5,9.1,0.6
				c2.6-4.4,4.1-9.5,4.1-15C177.3,281.9,177.2,280.5,177,279z M161.7,287.4C161.7,287.4,161.7,287.4,161.7,287.4
				c0,1.1-0.2,2.1-0.5,3c0.2,0.1,0.3,0.2,0.5,0.4c1.4,1.4,1.3,3.8-0.2,5.3l-2.4-2.4c-0.7,0.7-1.6,1.3-2.5,1.8c0,0.2,0.1,0.4,0.1,0.6
				c0,2-1.8,3.6-3.9,3.6v-3.3c0,0,0,0,0,0c-1.1,0-2.1-0.2-3-0.5c-0.1,0.2-0.2,0.3-0.4,0.4c-1.4,1.4-3.8,1.3-5.3-0.2l2.4-2.4
				c-0.7-0.7-1.3-1.6-1.8-2.5c-0.2,0-0.4,0-0.6,0c-2,0-3.6-1.8-3.6-3.9h3.3c0-1.1,0.2-2.1,0.5-3c-0.2-0.1-0.3-0.2-0.4-0.4
				c-1.4-1.4-1.3-3.8,0.2-5.3l2.4,2.4c0.7-0.7,1.6-1.3,2.5-1.8c0-0.2-0.1-0.4-0.1-0.6c0-2,1.8-3.6,3.9-3.6v3.4c1.1,0,2.1,0.2,3,0.5
				c0.1-0.2,0.2-0.3,0.4-0.5c1.4-1.4,3.8-1.3,5.3,0.2l-2.4,2.4c0.7,0.7,1.3,1.6,1.8,2.5c0.2,0,0.4-0.1,0.6-0.1c2,0,3.6,1.8,3.6,3.9
				H161.7z"/>
			<polygon class="st7" points="155.8,280.2 152.6,280.2 148.8,287.8 152.5,287.8 149.4,294.6 156.7,285.6 152.5,285.6 			"/>
		</g>
		<circle class="st7" cx="133.2" cy="266.8" r="4.1"/>
	</g>
</g>
<g>
	<g>
		<g>
			<path class="st3" d="M255,316v5c17.6-1.9,31.6-15.9,33.4-33.4h-5C281.5,302.4,269.8,314.1,255,316z"/>
			<path class="st4" d="M283.4,279.6h5c-1.9-17.6-15.9-31.6-33.4-33.4v5C269.8,253,281.5,264.8,283.4,279.6z"/>
			<path class="st5" d="M247,251.2v-5c-17.6,1.9-31.6,15.9-33.4,33.4h5C220.4,264.8,232.2,253,247,251.2z"/>
			<path class="st6" d="M218.6,287.6h-5c1.9,17.6,15.9,31.6,33.4,33.4v-5C232.2,314.1,220.4,302.4,218.6,287.6z"/>
		</g>
	</g>
	<path class="st7" d="M254.1,291.8l2.7,12.4h16v-12.4H254.1z M260.8,302.3h-3.5v-3.5h3.5V302.3z M260.8,297.1h-3.5v-3.5h3.5V297.1z
		 M265.9,302.3h-3.5v-3.5h3.5V302.3z M265.9,297.1h-3.5v-3.5h3.5V297.1z M271,302.3h-3.5v-3.5h3.5V302.3z M271,297.1h-3.5v-3.5h3.5
		V297.1z"/>
	<polygon class="st7" points="251.7,265.2 252.4,265.2 252.4,262.8 255.8,265 255.7,266.7 257.6,265.6 256.2,264.7 256.2,264.6 
		251.9,261.8 251.9,261 255.9,261 255.9,261.6 257.6,260.6 256,259.6 256,260.5 251.3,260.5 251.3,262.1 251.7,262.4 	"/>
	<polygon class="st7" points="260.3,258.9 264.5,258.9 264.5,259.7 260.5,262.3 258.7,261.3 255.9,263 255.8,263.1 255.9,263.1 
		258.7,264.9 261.5,263.2 261.6,263.1 261.5,263 260.9,262.6 263.8,260.8 263.8,263.1 264.5,263.1 264.5,260.3 265,260 265,258.4 
		261.1,258.4 261.2,258.3 256.2,258.3 258.7,259.9 	"/>
	<polygon class="st7" points="257.6,270.9 255.7,269.6 255.6,272.2 	"/>
	<polygon class="st7" points="259.8,260.6 261.4,261.6 261.4,259.6 	"/>
	<polygon class="st7" points="255.7,268.1 255.6,268.2 255.7,268.2 258.7,270.2 261.6,268.3 261.8,268.2 261.6,268.1 258.7,266.3 	
		"/>
	<polygon class="st7" points="259.7,276.6 261.9,278.2 261.8,275.1 	"/>
	<polygon class="st7" points="258.7,277.4 256,279.3 258.7,281.3 261.4,279.3 	"/>
	<polygon class="st7" points="259.8,265.6 261.6,266.7 261.5,264.5 	"/>
	<polygon class="st7" points="255.7,273.7 258.7,275.9 261.8,273.7 261.9,273.6 261.8,273.5 258.7,271.6 255.5,273.6 	"/>
	<polygon class="st7" points="261.7,272.1 261.6,269.7 259.8,270.9 	"/>
	<polygon class="st7" points="262.1,286.1 259.7,288.1 262.2,290.2 	"/>
	<polygon class="st7" points="258.7,288.9 256,291.1 261.4,291.1 	"/>
	<polygon class="st7" points="258.7,287.3 261.7,284.9 258.7,282.8 255.7,284.9 	"/>
	<polygon class="st7" points="261.9,280.4 259.7,282 262,283.7 	"/>
	<polygon class="st7" points="255.4,276.1 255.4,276.1 255.4,276.2 255.4,278.3 257.7,276.6 255.5,275 	"/>
	<polygon class="st7" points="255.2,283.9 257.7,282 255.3,280.3 	"/>
	<polygon class="st7" points="255,290.4 257.8,288.1 255.1,286 	"/>
	<path class="st7" d="M242.2,294.1h2.9l-6.4,6.8l2.8-5.1h-2.6l2.8-4.9l2.7,0L242.2,294.1z M255.1,304.1h-26.4l3.4-16.6h0.5l0,0
		l4.7-4.3l0,4.3h1.8l0,0l4.7-4.3l0,4.3h1.8l0,0l4.7-4.3l0,4.3h0.5L255.1,304.1z M249.4,295.9c0-3.5-3.3-6.4-7.5-6.4
		c-4.1,0-7.5,2.9-7.5,6.4c0,3.5,3.3,6.4,7.5,6.4C246,302.3,249.4,299.4,249.4,295.9z"/>
</g>
<g>
	<g>
		<g>
			<path class="st3" d="M358.2,316v5c17.6-1.9,31.6-15.9,33.4-33.4h-5C384.8,302.4,373,314.1,358.2,316z"/>
			<path class="st4" d="M386.6,279.6h5c-1.9-17.6-15.9-31.6-33.4-33.4v5C373,253,384.8,264.8,386.6,279.6z"/>
			<path class="st5" d="M350.2,251.2v-5c-17.6,1.9-31.6,15.9-33.4,33.4h5C323.7,264.8,335.4,253,350.2,251.2z"/>
			<path class="st6" d="M321.9,287.6h-5c1.9,17.6,15.9,31.6,33.4,33.4v-5C335.4,314.1,323.7,302.4,321.9,287.6z"/>
		</g>
	</g>
	<path class="st7" d="M371.9,290.3c2.8,2.8,2.6,7.5-0.4,10.5l-4.7-4.7c-1.4,1.4-3.1,2.6-4.9,3.5c0.1,0.4,0.1,0.8,0.1,1.1
		c0,4-3.5,7.2-7.7,7.2v-6.6c0,0,0,0-0.1,0c-2.1,0-4.1-0.4-5.9-1c-0.2,0.3-0.5,0.6-0.7,0.9c-2.8,2.8-7.5,2.6-10.5-0.4l4.6-4.6
		c-1.4-1.4-2.6-3.1-3.5-5c-0.4,0.1-0.7,0.1-1.1,0.1c-4,0-7.2-3.5-7.2-7.7h6.6c0-2.1,0.4-4.1,1-6c-0.3-0.2-0.6-0.5-0.9-0.7
		c-2.8-2.8-2.6-7.5,0.4-10.5l4.7,4.7c1.4-1.4,3.1-2.6,5-3.5c-0.1-0.4-0.1-0.8-0.1-1.2c0-4,3.5-7.2,7.7-7.2v6.6c2.1,0,4.1,0.4,6,1
		c0.2-0.3,0.5-0.6,0.8-0.9c2.8-2.8,7.5-2.6,10.5,0.4l-4.7,4.7c1.4,1.4,2.6,3.1,3.5,4.9c0.4-0.1,0.8-0.1,1.2-0.1c4,0,7.2,3.5,7.2,7.7
		H372c0,0,0,0,0,0.1c0,2.1-0.4,4.1-1,5.9C371.3,289.7,371.6,290,371.9,290.3z M354,269.4l-7.5,15h7.4l-6.2,13.4l14.3-17.7h-8.3
		l6.5-10.7L354,269.4z"/>
</g>
<g>
	<g>
		<g>
			<path class="st3" d="M469.9,316v5c17.6-1.9,31.6-15.9,33.4-33.4h-5C496.5,302.4,484.7,314.1,469.9,316z"/>
			<path class="st4" d="M498.3,279.6h5c-1.9-17.6-15.9-31.6-33.4-33.4v5C484.7,253,496.5,264.8,498.3,279.6z"/>
			<path class="st5" d="M461.9,251.2v-5c-17.6,1.9-31.6,15.9-33.4,33.4h5C435.3,264.8,447.1,253,461.9,251.2z"/>
			<path class="st6" d="M433.5,287.6h-5c1.9,17.6,15.9,31.6,33.4,33.4v-5C447.1,314.1,435.3,302.4,433.5,287.6z"/>
		</g>
	</g>
	<g>
		<polygon class="st7" points="462.4,282.4 464.7,282.2 464.7,279.5 462.4,279.7 		"/>
		<polygon class="st7" points="462.4,276.5 464.7,276.2 464.7,273.5 462.4,273.8 		"/>
		<polygon class="st7" points="462.4,288.3 464.7,288.2 464.7,285.5 462.4,285.6 		"/>
		<polygon class="st7" points="462.4,293.9 464.6,293.9 464.6,291.3 462.4,291.4 		"/>
		<polygon class="st7" points="464.7,270.3 464.7,267.6 462.5,268 462.4,270.7 		"/>
		<polygon class="st7" points="460.1,268.4 457.9,268.8 457.9,271.4 460.1,271.1 		"/>
		<polygon class="st7" points="460.1,288.4 460.1,285.8 457.8,285.9 457.8,288.5 		"/>
		<polygon class="st7" points="457.8,291.5 457.8,294.1 460.1,294 460.1,291.4 		"/>
		<polygon class="st7" points="460.1,274.2 457.9,274.5 457.9,277.1 460.1,276.8 		"/>
		<polygon class="st7" points="460.1,280 457.8,280.2 457.8,282.8 460.1,282.6 		"/>
		<polygon class="st7" points="453.9,291.6 453.8,294.2 456.1,294.1 456.1,291.5 		"/>
		<polygon class="st7" points="456.1,288.6 456.1,286 455.3,286 453.9,286.1 453.9,288.6 		"/>
		<polygon class="st7" points="452.1,286.2 449.9,286.4 449.8,288.8 452.1,288.7 		"/>
		<polygon class="st7" points="449.8,291.7 449.8,294.3 452.1,294.2 452.1,291.7 		"/>
		<path class="st7" d="M480.9,296.4l0.1-29.8l-13.7-5.5l-15,4.5l-0.1,16l-5.6,0.6v14.3l-4,0v4.1H485v-4.2H480.9z M454,283.3
			l0.1-16.3l12.3-3.6v33.3h-18v-12.7L454,283.3z M478.6,294l-9.1-0.2v-3l9.1,0.2V294z M478.6,288.6l-9.1-0.6v-3l9.1,0.6V288.6z
			 M478.6,283.3l-9.1-1.3v-3l9.1,1.3V283.3z M478.6,277.9l-9.1-1.7v-3l9.1,1.7V277.9z M478.6,272.5l-9.1-2.3v-3l9.1,2.3V272.5z"/>
	</g>
</g>
<g>
	<g>
		<path class="st3" d="M570.2,316v5c17.6-1.9,31.6-15.9,33.4-33.4h-5C596.7,302.4,585,314.1,570.2,316z"/>
		<path class="st4" d="M598.5,279.6h5c-1.9-17.6-15.9-31.6-33.4-33.4v5C585,253,596.7,264.8,598.5,279.6z"/>
		<path class="st5" d="M562.2,251.2v-5c-17.6,1.9-31.6,15.9-33.4,33.4h5C535.6,264.8,547.4,253,562.2,251.2z"/>
		<path class="st6" d="M533.8,287.6h-5c1.9,17.6,15.9,31.6,33.4,33.4v-5C547.4,314.1,535.6,302.4,533.8,287.6z"/>
	</g>
	<g>
		<path class="st7" d="M587.2,267.8l8.8,17.3c0,0-2.8,1.4-3.4,1.7c-0.7,0.3-1.2-0.6-1.2-0.6s-7.7-14.8-8-15.4s0.2-1.2,0.7-1.4
			C584.7,269.2,587.2,267.8,587.2,267.8z"/>
		<path class="st7" d="M583.8,293.7c0,0,4.3-4.2,5.2-5.3c0.8-1.1,0.8-2,0.2-2.9c-0.6-0.8-7.1-13.1-7.1-13.1s-2.3,1.8-5.1-0.4
			c-2.4-1.9-5.6-3.9-9.2-2.3c-3.7,1.7-10.7,6.6-12.8,8.6c-2.1,2-0.6,5.3,3.3,3.3c4.3-2.3,6.4-3.4,7.6-4s2-1.2,3.5,0.1
			c0.6,0.6,3.8,3.7,6.9,7.1C580.1,289.1,583.8,293.7,583.8,293.7z"/>
		<path class="st7" d="M584.7,294.7c0,0,1.4,4.9-5,3.9c0,0,0.4,4.7-5.1,3c0,0,0.1,4.4-4.9,3.4l0.7-1.3c0,0,1.2,0.5,2.1-0.2
			c0.8-0.6,1.1-2.7,0.1-3.8c-2-2.3-3.5-3.9-4-4.5c-0.8-0.9,0.1-2,1.1-1c1,1.1,4.9,5.3,5.3,5.9c0.5,0.5,2.2,0.8,3.1-0.3
			s0.3-2.7-0.4-3.5s-3.5-4-4.3-4.9c-0.8-0.9,0.1-1.8,1-1s4.4,4.8,5.3,5.8c0.9,1,2.2,1.3,3.3,0.6c0.5-0.3,0.8-1.3,0.8-1.3
			L584.7,294.7z"/>
		<path class="st7" d="M564,269c-0.6-0.4-2.4-0.9-3.6-0.4s-3.6,1.9-4.9,2.5c-1.2,0.6-2.2,0.8-3.3,0.2c-1-0.6-1.4-1-1.8-1.3
			c-0.3-0.3-1.6-0.3-1.9,0.6s-5.3,14-5.6,14.9c-0.2,0.8-0.2,1.5,0.3,2s3.3,3.7,3.7,4.2c0.8,0.8,1.8-0.2,1.1-1
			c-0.5-0.6-2.7-3-3.2-3.4c-0.5-0.4-0.7-1.2-0.4-1.8c0.2-0.6,4.7-12.3,4.9-13c0.2-0.7,0.4-0.9,0.9-0.6s1.7,1.4,3.1,1.4
			c1.3,0,4.3-1.7,5.3-2.3c1-0.5,2.1-1.1,2.9-1.1c1,0,1.5,0.4,1.9,0.4C564.4,270.4,564.6,269.5,564,269z"/>
		<path class="st7" d="M543.2,267.5l-6.9,18.2c0,0,3.1,1.1,3.6,1.2c0.5,0.1,0.9-0.1,0.9-0.5c0.1-0.5,6.1-15.9,6.2-16.4
			s-0.2-1-0.7-1.3C545.9,268.5,543.2,267.5,543.2,267.5z"/>
		<path class="st7" d="M553.9,299L553.9,299c-0.9-0.9-0.8-2.3,0-3.1l3.5-3.2c0.9-0.8,2.2-0.8,3.1,0.1l0.1,0.1
			c0.8,0.9,0.8,2.2-0.1,3.1l-3.5,3.2C556.1,299.9,554.7,299.9,553.9,299z"/>
		<path class="st7" d="M558,303.1L558,303.1c-0.9-0.9-0.8-2.3,0-3.1l4.6-4.3c0.9-0.8,2.2-0.8,3.1,0.1l0.1,0.1
			c0.8,0.9,0.8,2.2-0.1,3.1l-4.6,4.3C560.2,304,558.8,304,558,303.1z"/>
		<path class="st7" d="M563.4,306L563.4,306c-0.9-0.9-0.8-2.3,0-3.1l2.3-2.1c0.9-0.8,2.2-0.8,3.1,0.1l0.1,0.1
			c0.8,0.9,0.8,2.2-0.1,3.1l-2.3,2.1C565.6,306.9,564.2,306.8,563.4,306z"/>
		<path class="st7" d="M548.9,296.1L548.9,296.1c-0.9-0.9-0.8-2.3,0-3.1l0.9-0.8c0.9-0.8,2.2-0.8,3.1,0.1l0.1,0.1
			c0.8,0.9,0.8,2.2-0.1,3.1l-0.9,0.8C551,297,549.7,297,548.9,296.1z"/>
	</g>
</g>
<g>
	<g>
		<path class="st3" d="M658.9,315.6v5c17.4-1.8,31.2-15.7,33.1-33.1h-5C685.1,302.2,673.5,313.8,658.9,315.6z"/>
		<path class="st4" d="M686.9,279.6h5c-1.8-17.4-15.7-31.2-33.1-33.1v5C673.5,253.3,685.1,265,686.9,279.6z"/>
		<path class="st5" d="M650.9,251.5v-5c-17.4,1.8-31.2,15.7-33.1,33.1h5C624.7,265,636.3,253.3,650.9,251.5z"/>
		<path class="st6" d="M622.9,287.5h-5c1.8,17.4,15.7,31.2,33.1,33.1v-5C636.3,313.8,624.7,302.2,622.9,287.5z"/>
	</g>
	<path class="st7" d="M626.5,286.1c0-1.1,3.2-4.2,7.8-1.4c5,3.1,4.4,5.2,9.5,5.2c4.3,0.1,3.7-8.3,3.3-11c-0.4-2.6-1.1-14.5-1-16.4
		s0.6-3.5,2.3-3.4c1.9,0.1,1.8,2.9,1.8,2.9s0.6,5.8,0.8,7.7c0.2,1.9,1.8,10.3,3.1,10.4c1.3,0.1,3.2-5.9,4.5-11.7s3-11.6,5.3-11.1
		c2,0.4-0.3,7.4-0.8,10c-0.5,2.6-3.6,13-1.9,13.6c1.7,0.6,4.1-5.9,6-10.6c1.9-4.6,3.2-7.9,4.8-7.5c1.5,0.4,0.4,5.8-1.2,9.4
		c-1.5,3.6-4.3,10.3-4.6,11.4c-0.5,1.8,0.4,3.8,1.6,2.5c1.2-1.3,4.6-5.2,7.2-8.1c2.6-3,4.3-3.8,5.4-2.9c0.5,0.4,0.6,2.1-0.6,3.6
		c-1.2,1.4-3.4,4.1-4.6,5.5c-2.3,2.6-3.6,4.7-4.4,6.7c-0.8,2-4.5,9.7-4.5,9.7s-1-6.2-1.1-6.9s-0.1-3.7-0.1-5.5c0-1.9-1.3-2-1.9-2
		s-1.1,2.1-1.1,4.7s0.1,2.9-0.2,2.9s-1.8-6.3-1.9-7c-0.1-0.7-1-3.4-2.3-3c-1.3,0.4-1.2,1.5-0.8,2.6c0.4,1.1,0.9,3.8,1.3,4.8
		c0.4,1,0.7,2.1,0.3,2.2c-0.4,0.2-1.7-2.1-2.2-3.4c-0.5-1.3-1.6-3.1-2-4c-0.4-0.9-1.2-1.5-2-1.2c-0.8,0.4-0.4,2-0.1,2.4
		c0.4,0.4,3.1,5.9,3.5,6.7s-0.4,1.3-1.2,0.6c-0.8-0.7-3.6-3.8-4.6-4.9c-0.8-0.9-1.9-0.6-2.2,0.2c-0.4,0.8-0.2,1.6,0.7,2.3
		c1,0.7,2.5,2.9,4.6,4.9c2.1,1.9,2.1,4.3,0.4,4.5c-1.4,0.1-3.6-0.3-5,1.1c-1.6,1.6-0.4,2.3,0.7,2.1c1.2-0.2,2.8-0.4,4.3,0.2
		c1.5,0.5,4.3,2.6,6.6,2.6s3.1-0.5,3.1-0.5s-2.2,5.4-10,4.2c-7.2-1.1-11.6-7.3-13.6-9.9c-2.1-2.7-4.3-6.4-6.2-9.8
		c-1.8-3.3-3.6-3.9-4.6-3.9C628,287.4,626.5,286.8,626.5,286.1z"/>
</g>
<g>
	<g>
		<path class="st3" d="M766.1,316v5c17.6-1.9,31.6-15.9,33.4-33.4h-5C792.7,302.4,780.9,314.1,766.1,316z"/>
		<path class="st4" d="M794.5,279.6h5c-1.9-17.6-15.9-31.6-33.4-33.4v5C780.9,253,792.7,264.8,794.5,279.6z"/>
		<path class="st5" d="M758.1,251.2v-5c-17.6,1.9-31.6,15.9-33.4,33.4h5C731.6,264.8,743.3,253,758.1,251.2z"/>
		<path class="st6" d="M729.8,287.6h-5c1.9,17.6,15.9,31.6,33.4,33.4v-5C743.3,314.1,731.6,302.4,729.8,287.6z"/>
	</g>
	<g>
		<path class="st7" d="M771.2,261.4c0-0.2-3.3-1.6-4.4-2c-1.1-0.3-3.5-0.7-4.7-0.7c-9.4,0-17,7.6-17,17c0,9.4,7.6,17,17,17
			c9.4,0,17-7.6,17-17C779.1,269.7,776,264.4,771.2,261.4z M746.6,275.7c0-1,0.1-2,0.3-3c0.6,0.7,1.7,1.8,2.9,2.7l0.7,0.5
			c1.3,0.9,1.6,1.1,1.5,1.4c-0.1,0.3-0.6,3.2-0.4,3.8c0.4,1.1,1.8,2.5,2.6,3.2c0.1,0.1,0.3,0.5,0.4,1.2c0.1,0.9-0.2,2.3-1,3.2
			C749.4,286,746.6,281.2,746.6,275.7z M759.2,291c0.5-1.6,2.6-2.9,4.2-3c2-0.2,3.6-1.3,4.4-3.2c0.2-0.6,0.2-1.3-0.1-2
			c-0.5-1-1.6-1.9-2.4-2.1c-0.8-0.3-2-1-2.3-1.3c-0.4-0.4-1.8-2.1-2.2-2.9c-0.5-1-1.6-1.8-2.5-1.8c-0.6,0-2.5-0.1-3-0.3
			c-0.5-0.2-2.4-1.9-2.6-2.2c0-0.1,0-0.5,0-0.8c0.1-0.7,0.2-1.6-0.2-2.2c-0.1-0.2-0.2-0.6-0.1-1c0.1-0.2,0.2-0.4,0.5-0.5
			c0.2-0.1,1,0.8,1.2,1.1c0.5,0.6,0.9,1.1,1.4,1.1c0.7,0,1-0.6,1.6-1.7c0.5-0.9,1.1-2,1.9-2.6c0.4-0.3,1.2-0.5,2.1-0.7
			c1.1-0.2,2.3-0.5,3.4-1.1c1.3-0.7,1.9-2.1,2.2-3c1,0.3,2,0.8,3,1.3c-0.1,0.8-0.1,2.1,0.9,2.9c0.5,0.4,1,1.4,1,2.3
			c0,0.5-0.1,0.8-0.1,0.8l-0.1,0.1c-0.8,0.8-3,3-2.6,5.6c0.5,2.6,2.7,4.1,4.5,4.3c0.1,0,0.4,0.1,0.5,0.2c0.2,0.3,0,1.1-0.1,1.4
			c-0.1,0.6-0.9,2.1-1.6,3.2c-0.7,1.3-1.1,2-1.3,2.5c-0.3,1-0.3,2.2,0.1,3c-2.5,1.7-5.6,2.8-8.8,2.8
			C761.1,291.3,760.1,291.2,759.2,291z"/>
		<g>
			<path class="st7" d="M759.2,301.3c-0.4,0-0.7-0.3-0.7-0.7c0-2.4-1.7-4.1-2.4-4.4c-1-0.4-3.7-1.7-4.7-2.4
				c-0.7-0.5-1.5-1.4-2.3-2.3c-0.5-0.6-1-1.2-1.5-1.7c-0.5-0.5-1.1-0.5-1.2-0.3c-0.1,0.1,0,0.4,0.2,0.6c0.3,0.4,2.5,3,3.8,4.5
				c0.2,0.2,0.3,0.3,0.5,0.5c0.2,0.3,0.2,0.7-0.1,1c-0.3,0.2-0.7,0.2-1-0.1c0,0-0.2-0.2-0.4-0.5c-1.5-1.7-2.9-2.6-4.2-3.5
				c-0.5-0.3-1-0.7-1.4-1c-1.8-1.4-3.1-4.3-3.3-5c0-0.3-0.5-1-0.8-1.2c-0.3,0.7-0.1,3.5,0.9,5.4c1.4,2.8,2.9,4.6,4.2,5.5
				c0.4,0.3,1,0.6,1.5,1c2.2,1.5,3.8,2.5,4.4,3c0.3,0.3,0.3,0.7,0,1c-0.3,0.3-0.7,0.3-1,0c-0.5-0.5-2.6-1.8-4.1-2.9
				c-0.6-0.4-1.1-0.7-1.5-1c-1.5-1-3.1-3.1-4.7-6c-1-1.8-1.6-5.1-0.9-6.6c0.2-0.6,0.6-0.8,0.9-0.8c0.2-0.1,0.6-0.1,1.1,0.2
				c0.7,0.5,1.4,1.5,1.5,2.2c0.1,0.5,1.3,3,2.7,4.1c0.2,0.1,0.4,0.3,0.6,0.4c-0.3-0.8,0-1.4,0.4-1.8c0.7-0.6,2.1-0.6,3.1,0.4
				c0.5,0.5,1.1,1.2,1.6,1.7c0.7,0.9,1.4,1.7,2,2c1,0.6,3.5,1.9,4.5,2.3c1.1,0.5,3.2,2.6,3.2,5.7C759.9,301,759.6,301.3,759.2,301.3
				z"/>
			<path class="st7" d="M759.2,308.4H751c-1.1,0-2-0.9-2-2v-2c0-1.1,0.9-2,2-2h8.2c1.1,0,2,0.9,2,2v2
				C761.3,307.5,760.4,308.4,759.2,308.4z M751,303.7c-0.3,0-0.6,0.3-0.6,0.6v2c0,0.3,0.3,0.6,0.6,0.6h8.2c0.3,0,0.6-0.3,0.6-0.6v-2
				c0-0.3-0.3-0.6-0.6-0.6H751z"/>
			<g>
				<path class="st7" d="M765.1,301.3c0.4,0,0.7-0.3,0.7-0.7c0-2.4,1.7-4.1,2.4-4.4c1-0.4,3.7-1.7,4.7-2.4c0.7-0.5,1.5-1.4,2.3-2.3
					c0.5-0.6,1-1.2,1.5-1.7c0.5-0.5,1.1-0.5,1.2-0.3c0.1,0.1,0,0.4-0.2,0.6c-0.3,0.4-2.5,3-3.8,4.5c-0.2,0.2-0.3,0.3-0.5,0.5
					c-0.2,0.3-0.2,0.7,0.1,1c0.3,0.2,0.7,0.2,1-0.1c0,0,0.2-0.2,0.4-0.5c1.5-1.7,2.9-2.6,4.2-3.5c0.5-0.3,1-0.7,1.4-1
					c1.8-1.4,3.1-4.3,3.3-5c0-0.3,0.5-1,0.8-1.2c0.3,0.7,0.1,3.5-0.9,5.4c-1.4,2.8-2.9,4.6-4.2,5.5c-0.4,0.3-1,0.6-1.5,1
					c-2.2,1.5-3.8,2.5-4.4,3c-0.3,0.3-0.3,0.7,0,1c0.3,0.3,0.7,0.3,1,0c0.5-0.5,2.6-1.8,4.1-2.9c0.6-0.4,1.1-0.7,1.5-1
					c1.5-1,3.1-3.1,4.7-6c1-1.8,1.6-5.1,0.9-6.6c-0.2-0.6-0.6-0.8-0.9-0.8c-0.2-0.1-0.6-0.1-1.1,0.2c-0.7,0.5-1.4,1.5-1.5,2.2
					c-0.1,0.5-1.3,3-2.7,4.1c-0.2,0.1-0.4,0.3-0.6,0.4c0.3-0.8,0-1.4-0.4-1.8c-0.7-0.6-2.1-0.6-3.1,0.4c-0.5,0.5-1.1,1.2-1.6,1.7
					c-0.7,0.9-1.4,1.7-2,2c-1,0.6-3.5,1.9-4.5,2.3c-1.1,0.5-3.2,2.6-3.2,5.7C764.4,301,764.7,301.3,765.1,301.3z"/>
				<path class="st7" d="M763,306.3v-2c0-1.1,0.9-2,2-2h8.2c1.1,0,2,0.9,2,2v2c0,1.1-0.9,2-2,2H765C763.9,308.4,763,307.5,763,306.3
					z M765,303.7c-0.3,0-0.6,0.3-0.6,0.6v2c0,0.3,0.3,0.6,0.6,0.6h8.2c0.3,0,0.6-0.3,0.6-0.6v-2c0-0.3-0.3-0.6-0.6-0.6H765z"/>
			</g>
		</g>
	</g>
</g>
<g>
	<g>
		<path class="st8" d="M873.8,316v5c17.6-1.9,31.6-15.9,33.4-33.4h-5C900.4,302.4,888.6,314.1,873.8,316z"/>
		<path class="st9" d="M902.2,279.6h5c-1.9-17.6-15.9-31.6-33.4-33.4v5C888.6,253,900.4,264.8,902.2,279.6z"/>
		<path class="st10" d="M865.8,251.2v-5c-17.6,1.9-31.6,15.9-33.4,33.4h5C839.2,264.8,851,253,865.8,251.2z"/>
		<path class="st11" d="M837.4,287.6h-5c1.9,17.6,15.9,31.6,33.4,33.4v-5C851,314.1,839.2,302.4,837.4,287.6z"/>
	</g>
	<g>
		<path class="st12" d="M889.4,303.3h-35.3c-1.6,0-3-1.3-3-3v-26.6c0-1.6,1.3-3,3-3h35.3c1.6,0,3,1.3,3,3v26.6
			C892.4,302,891,303.3,889.4,303.3z M854.1,272.7c-0.6,0-1.1,0.5-1.1,1.1v26.6c0,0.6,0.5,1.1,1.1,1.1h35.3c0.6,0,1.1-0.5,1.1-1.1
			v-26.6c0-0.6-0.5-1.1-1.1-1.1H854.1z"/>
		<path class="st12" d="M854.1,302.4h35.3c1.1,0,2-0.9,2-2v-4.7l-0.1,2.4c-6.3-14.6-9.5-21.2-14.2-18.8c-4.7,2.4-8.5,16.1-11.4,15.4
			c-2.9-0.6-3.3-4.9-6.4-5.8c-2.9-0.8-7.1,9-7.1,9l-0.2-2.4v4.8C852.1,301.5,853,302.4,854.1,302.4z"/>
		<circle class="st12" cx="862.3" cy="281.3" r="3.2"/>
		<path class="st13" d="M849.2,272.8l-2.1,0.5c-0.6,0.1-0.9,0.7-0.8,1.3l2.8,11.5v-12.4C849.1,273.5,849.2,273.1,849.2,272.8z"/>
		<path class="st13" d="M882.8,265.8c-0.1-0.6-0.7-0.9-1.3-0.8l-15.6,3.8h17.6L882.8,265.8z"/>
		<path class="st12" d="M854.1,270.8c-1.1,0-2,0.6-2.5,1.5l6.1-1.5H854.1z"/>
		<g>
			<path class="st12" d="M846.4,274.7c-0.1-0.6,0.2-1.2,0.8-1.3l2.1-0.5c0.2-0.8,0.5-1.6,1-2.2l-3.6,0.9c-1.6,0.4-2.6,2-2.2,3.6
				l4.6,19v-8L846.4,274.7z"/>
			<path class="st12" d="M881.4,265c0.6-0.1,1.2,0.2,1.3,0.8l0.7,3h1.9l-0.8-3.4c-0.4-1.6-2-2.6-3.6-2.2l-23.1,5.6h8L881.4,265z"/>
		</g>
	</g>
</g>
<g>
	<path class="st12" d="M963.4,273h-19.5c-0.6,0-1.2-0.5-1.2-1.2s0.5-1.2,1.2-1.2h19.5c0.6,0,1.2,0.5,1.2,1.2S964.1,273,963.4,273z"
		/>
	<path class="st12" d="M963.4,279.3h-19.5c-0.6,0-1.2-0.5-1.2-1.2s0.5-1.2,1.2-1.2h19.5c0.6,0,1.2,0.5,1.2,1.2
		S964.1,279.3,963.4,279.3z"/>
	<g>
		<path class="st8" d="M958.8,316v5c17.6-1.9,31.6-15.9,33.4-33.4h-5C985.4,302.4,973.6,314.1,958.8,316z"/>
		<path class="st9" d="M987.2,279.6h5c-1.9-17.6-15.9-31.6-33.4-33.4v5C973.6,253,985.4,264.8,987.2,279.6z"/>
		<path class="st10" d="M950.8,251.2v-5c-17.6,1.9-31.6,15.9-33.4,33.4h5C924.2,264.8,936,253,950.8,251.2z"/>
		<path class="st11" d="M922.4,287.6h-5c1.9,17.6,15.9,31.6,33.4,33.4v-5C936,314.1,924.2,302.4,922.4,287.6z"/>
	</g>
	<path class="st12" d="M968.6,289.6l-0.7,0.9l0,12.9h-28.7v-39.7l28.7,0l0,14.2l0.1-0.2c0.1-0.2,0.3-0.3,0.5-0.3c0,0,0-0.1,0-0.1
		c0-0.2,0.1-0.4,0.2-0.6l0.9-1c0,0,0,0,0,0l0-13.8l-32.2,0v43.1h32.2l0-14c-0.1-0.1-0.2-0.1-0.3-0.2
		C968.9,290.6,968.7,290.1,968.6,289.6z"/>
	<path class="st12" d="M963.4,283.4h-19.5c-0.6,0-1.2,0.5-1.2,1.2c0,0.6,0.5,1.2,1.2,1.2h17.8L963.4,283.4
		C963.5,283.4,963.5,283.4,963.4,283.4z"/>
	<path class="st12" d="M943.9,289.7c-0.6,0-1.2,0.5-1.2,1.2c0,0.6,0.5,1.2,1.2,1.2h12.7l1.8-2.3H943.9z"/>
	<path class="st12" d="M943.7,296.1c-0.5,0-0.9,0.5-0.9,1.2c0,0.6,0.4,1.2,0.9,1.2H954l0.5-2.3H943.7z"/>
	<g>
		<path class="st12" d="M955.5,294.7l-1.2,5.6c-0.1,0.5,0.4,0.8,0.8,0.6l5.2-2.4L955.5,294.7z"/>
		<path class="st12" d="M976.5,282c-0.5-0.4-1.1-0.3-1.5,0.2l-0.7,0.8l-5.7-4.7L956,294l4.9,4l11.6-14.4l0.8,0.7l-3.7,4.6
			c-0.4,0.5-0.3,1.1,0.2,1.5c0.5,0.4,1.1,0.3,1.5-0.2l5.4-6.7C977,283,977,282.3,976.5,282z"/>
		<path class="st12" d="M975.1,280.3c1.1-1.4,0.9-3.4-0.5-4.5c-1.4-1.1-3.4-0.9-4.5,0.5l-0.9,1l4.9,4L975.1,280.3z"/>
	</g>
</g>
<g>
	<g>
		<g>
			<path class="st8" d="M0.6-80.2v3.6c12.5-1.3,22.5-11.3,23.8-23.8h-3.6C19.5-89.9,11.1-81.5,0.6-80.2z"/>
			<path class="st9" d="M20.8-106.1h3.6c-1.3-12.5-11.3-22.5-23.8-23.8v3.6C11.1-125,19.5-116.7,20.8-106.1z"/>
			<path class="st10" d="M-5.1-126.3v-3.6c-12.5,1.3-22.5,11.3-23.8,23.8h3.6C-24-116.7-15.6-125-5.1-126.3z"/>
			<path class="st11" d="M-25.3-100.4h-3.6C-27.6-87.9-17.6-78-5.1-76.6v-3.6C-15.6-81.5-24-89.9-25.3-100.4z"/>
		</g>
	</g>
	<g>
		<g>
			
				<rect x="11.1" y="-99.2" transform="matrix(0.4209 -0.9071 0.9071 0.4209 95.016 -45.0086)" class="st14" width="2.2" height="4.5"/>
			
				<rect x="11.8" y="-104.9" transform="matrix(0.9999 -1.171795e-02 1.171795e-02 0.9999 1.2171 0.1575)" class="st14" width="4.5" height="2.2"/>
			
				<rect x="9.9" y="-112.1" transform="matrix(0.8261 -0.5635 0.5635 0.8261 64.6221 -12.4286)" class="st14" width="4.5" height="2.2"/>
		</g>
		<path class="st14" d="M9.6-103.6c0-1.4-1.1-2.6-2.5-2.6v-6.5c0-1.1-0.6-2.2-1.6-2.7c-1-0.6-2.2-0.6-3.2,0l-9,5h-7.6
			c-3.6,0-6.5,2.9-6.5,6.5v0.5c0,3.5,2.8,6.3,6.2,6.5l-2.4,8.3h7.4l2.4-8.3h0.5l9,5.1c0.5,0.3,1,0.4,1.6,0.4c0.5,0,1.1-0.1,1.6-0.4
			c1-0.6,1.6-1.6,1.6-2.7v-6.4C8.5-101.1,9.6-102.2,9.6-103.6z M-11-90.6h-3.4l1.8-6.3h3.4L-11-90.6z M-2.3-96.7l-3.8-2.2v0h0l0,0
			l0,0h-8.1c-2.5,0-4.6-2.1-4.6-4.6v-0.5c0-2.5,2.1-4.6,4.6-4.6h8.1l0,0l0,0h0v0l3.8-2.1V-96.7z M5.2-94.6c0,0.5-0.2,0.9-0.6,1.1
			c-0.4,0.2-0.9,0.2-1.3,0l-3.7-2.1v-16.2l3.7-2.1c0.4-0.2,0.9-0.2,1.3,0c0.4,0.2,0.6,0.6,0.6,1.1V-94.6z"/>
	</g>
</g>
<g>
	<g>
		<path class="st12" d="M70.4-89.6H47.5v-30.7h16.6v6.3h6.3V-89.6z M48.8-90.8h20.5v-22h-6.3v-6.3H48.8V-90.8z"/>
		<path class="st12" d="M70.4-112.8h-7.5v-7.5h1.2l6.3,6.3V-112.8z M64.2-114h4.6l-4.6-4.6V-114z"/>
		<path class="st12" d="M66-108.5H52.1c-0.5,0-0.8-0.4-0.8-0.8c0-0.5,0.4-0.8,0.8-0.8H66c0.5,0,0.8,0.4,0.8,0.8
			C66.9-108.9,66.5-108.5,66-108.5z"/>
		<path class="st12" d="M66-104.7H52.1c-0.5,0-0.8-0.4-0.8-0.8c0-0.5,0.4-0.8,0.8-0.8H66c0.5,0,0.8,0.4,0.8,0.8
			C66.9-105.1,66.5-104.7,66-104.7z"/>
		<path class="st12" d="M55.9-100.7h-3.8c-0.5,0-0.8-0.4-0.8-0.8c0-0.5,0.4-0.8,0.8-0.8h3.8c0.5,0,0.8,0.4,0.8,0.8
			C56.8-101.1,56.4-100.7,55.9-100.7z"/>
		<path class="st12" d="M57-97h-4.8c-0.5,0-0.8-0.4-0.8-0.8c0-0.5,0.4-0.8,0.8-0.8H57c0.5,0,0.8,0.4,0.8,0.8
			C57.8-97.3,57.4-97,57-97z"/>
		<path class="st12" d="M66-100.7h-7.6c-0.5,0-0.8-0.4-0.8-0.8c0-0.5,0.4-0.8,0.8-0.8H66c0.5,0,0.8,0.4,0.8,0.8
			C66.9-101.1,66.5-100.7,66-100.7z"/>
		<path class="st12" d="M66-97h-6.5c-0.5,0-0.8-0.4-0.8-0.8c0-0.5,0.4-0.8,0.8-0.8H66c0.5,0,0.8,0.4,0.8,0.8
			C66.9-97.3,66.5-97,66-97z"/>
	</g>
	<g>
		<g>
			<circle class="st15" cx="69.9" cy="-100" r="7.4"/>
			<path class="st12" d="M69.9-91.8c-4.5,0-8.1-3.7-8.1-8.1c0-4.5,3.7-8.1,8.1-8.1c4.5,0,8.1,3.7,8.1,8.1
				C78-95.5,74.4-91.8,69.9-91.8z M69.9-106.9c-3.8,0-6.9,3.1-6.9,6.9c0,3.8,3.1,6.9,6.9,6.9s6.9-3.1,6.9-6.9
				C76.8-103.8,73.7-106.9,69.9-106.9z"/>
		</g>
		<g>
			<path class="st12" d="M71.8-104.8l-4.4,1.2l1.2,1.2l-2.8,2.8c-0.2,0.2-0.2,0.7,0,0.9s0.7,0.2,0.9,0l2.8-2.8l1.2,1.2L71.8-104.8z"
				/>
			<path class="st12" d="M68.6-95.1l4.4-1.2l-1.2-1.2l2.8-2.8c0.2-0.2,0.2-0.7,0-0.9s-0.7-0.2-0.9,0l-2.8,2.8l-1.2-1.2L68.6-95.1z"
				/>
		</g>
	</g>
	<g>
		<path class="st8" d="M62.7-81.9v3.6c12.5-1.3,22.5-11.3,23.8-23.8h-3.6C81.6-91.6,73.3-83.2,62.7-81.9z"/>
		<path class="st9" d="M82.9-107.8h3.6c-1.3-12.5-11.3-22.5-23.8-23.8v3.6C73.3-126.7,81.6-118.3,82.9-107.8z"/>
		<path class="st10" d="M57-128v-3.6c-12.5,1.3-22.5,11.3-23.8,23.8h3.6C38.1-118.3,46.5-126.7,57-128z"/>
		<path class="st11" d="M36.8-102.1h-3.6C34.6-89.6,44.5-79.6,57-78.3v-3.6C46.5-83.2,38.1-91.6,36.8-102.1z"/>
	</g>
</g>
<g>
	<g>
		<path class="st8" d="M148.7-108.5v3.6c12.5-1.3,22.5-11.3,23.8-23.8h-3.6C167.6-118.2,159.2-109.8,148.7-108.5z"/>
		<path class="st9" d="M168.9-134.4h3.6c-1.3-12.5-11.3-22.5-23.8-23.8v3.6C159.2-153.3,167.6-144.9,168.9-134.4z"/>
		<path class="st10" d="M143-154.6v-3.6c-12.5,1.3-22.5,11.3-23.8,23.8h3.6C124.1-144.9,132.5-153.3,143-154.6z"/>
		<path class="st11" d="M122.8-128.7h-3.6c1.3,12.5,11.3,22.5,23.8,23.8v-3.6C132.5-109.8,124.1-118.2,122.8-128.7z"/>
	</g>
	<g>
		<g>
			<polygon class="st15" points="131.6,-141.9 128.8,-141.9 128.8,-120.3 145.8,-121.4 145.8,-140.6 			"/>
			<path class="st12" d="M128.1-119.7v-22.9l3.5,0l14.8,1.3v20.3L128.1-119.7z M129.4-141.3v20.3l15.8-1v-18l-13.7-1.2H129.4z"/>
		</g>
		<g>
			<path class="st15" d="M145.8-140.6c0,0-2.1-4.7-14.3-3v20.4c0,0,8.8-0.9,14.3,1.5V-140.6z"/>
			<path class="st12" d="M146.4-120.7l-0.9-0.4c-5.2-2.3-13.9-1.5-13.9-1.4l-0.7,0.1v-21.7l0.5-0.1c12.5-1.7,14.8,3.2,14.9,3.4
				l0.1,0.1V-120.7z M135.6-123.9c2.8,0,6.6,0.3,9.6,1.4v-17.9c-0.4-0.6-3-3.9-13-2.6v19.2C132.9-123.9,134.1-123.9,135.6-123.9z"/>
		</g>
		<g>
			<polygon class="st15" points="160.2,-141.9 163,-141.9 163,-120.3 145.9,-121.4 145.9,-140.6 			"/>
			<path class="st12" d="M163.6-119.7l-18.3-1.2v-20.3l14.9-1.3h3.4V-119.7z M146.5-122l15.8,1v-20.3h-2.1l-13.7,1.2V-122z"/>
		</g>
		<g>
			<path class="st15" d="M145.9-140.6c0,0,2.1-4.7,14.3-3v20.4c0,0-8.8-0.9-14.3,1.5V-140.6z"/>
			<path class="st12" d="M145.3-120.7v-20l0.1-0.1c0.1-0.2,2.4-5.1,14.9-3.4l0.5,0.1v21.7l-0.7-0.1c-0.1,0-8.7-0.9-13.9,1.4
				L145.3-120.7z M146.5-140.4v17.9c4.6-1.7,10.9-1.4,13-1.3V-143C149.5-144.3,146.9-141,146.5-140.4z"/>
		</g>
	</g>
</g>
<g>
	<g>
		<path class="st8" d="M237.3-99.5v3.6c12.5-1.3,22.5-11.3,23.8-23.8h-3.6C256.2-109.2,247.8-100.8,237.3-99.5z"/>
		<path class="st9" d="M257.5-125.4h3.6c-1.3-12.5-11.3-22.5-23.8-23.8v3.6C247.8-144.3,256.2-135.9,257.5-125.4z"/>
		<path class="st10" d="M231.6-145.6v-3.6c-12.5,1.3-22.5,11.3-23.8,23.8h3.6C212.7-135.9,221.1-144.3,231.6-145.6z"/>
		<path class="st11" d="M211.4-119.7h-3.6c1.3,12.5,11.3,22.5,23.8,23.8v-3.6C221.1-100.8,212.7-109.2,211.4-119.7z"/>
	</g>
	<g>
		<path class="st16" d="M244.5-126.4c0,0,2.2-3.5,0.5-9c-1.7-5.7-9.1-5.9-10.6-5.9h0.1c-1.5,0-8.9,0.3-10.6,5.9
			c-1.7,5.5,0.5,9,0.5,9"/>
		<path class="st12" d="M226-121l-3.3,0.3c-0.2,0-0.4-0.1-0.4-0.3l-0.6-6.5c0-0.2,0.1-0.4,0.3-0.4l3.3-0.3c0.2,0,0.4,0.1,0.4,0.3
			l0.6,6.5C226.4-121.2,226.2-121,226-121z"/>
		<path class="st12" d="M242.9-121l3.3,0.3c0.2,0,0.4-0.1,0.4-0.3l0.6-6.5c0-0.2-0.1-0.4-0.3-0.4l-3.3-0.3c-0.2,0-0.4,0.1-0.4,0.3
			l-0.6,6.5C242.6-121.2,242.7-121,242.9-121z"/>
		<path class="st12" d="M243.9-128.1c0,0-0.1-4.9-0.2-5.9s-0.9-2.1-2.7-2.3c0,0-1-2.3-6.3-2.4c-2.6,0-5.6,0.8-7.5,2.5
			c-2,1.8-2.7,4.5-2.3,8.1c0,0,2.2,2.1,7.3,0.8c4.8-1.2,7.8-4.2,7.8-4.2s1.1,2.5,2.4,4.3L243.9-128.1z"/>
		<path class="st17" d="M225.3-127.8c0,0,0.4,14.2,9.3,14.2c8.4,0,8.9-14.7,8.9-14.7"/>
		<path class="st18" d="M238-117.7c2.3,0.1,3.6,0,4.6-0.5c2.2-1,1.9-3.1,1.9-3.1"/>
		<path class="st12" d="M237.9-116.9h-1.5c-0.2,0-0.4-0.2-0.4-0.4v-0.9c0-0.2,0.2-0.4,0.4-0.4h1.5c0.2,0,0.4,0.2,0.4,0.4v0.9
			C238.3-117.1,238.1-116.9,237.9-116.9z"/>
		<path class="st12" d="M227.6-112.5c-6-0.4-8.8,3.4-8.8,3.4c0,0,0.1,0.1,0.1,0.1c3.3,3.3,7.6,5.5,12.4,6.2c0.1,0,0.2,0,0.2,0
			L227.6-112.5z"/>
		<path class="st12" d="M250-109.1c-3.3-3.9-8.8-3.5-8.8-3.5l-3.8,9.8c0,0,0,0,0,0C242.4-103.5,246.7-105.8,250-109.1z"/>
		<path class="st12" d="M231.2-110.3c0,0,0.1,0.6,0.2,0.7c0.1,0.1,1.3,2,1.3,2l1.6,0.8l1.7-0.6c0,0,1.4-2.2,1.5-2.4s0.1-0.7,0.1-0.9
			S234.8-111.8,231.2-110.3z"/>
		<path class="st19" d="M226.7-112.5c0,0,1.8-2.5,2.5-2.4c0.8,0.1,3,2.9,5,3.8c0,0-3.1-0.3-6.7,4L226.7-112.5z"/>
		<path class="st19" d="M242.2-112.6c0,0-1.8-2.6-2.5-2.5c-0.8,0.1-3,3-5,3.9c0,0,3.1-0.3,6.7,4.1L242.2-112.6z"/>
	</g>
</g>
<g>
	<g>
		<g>
			<path class="st8" d="M403.3,49.7v3.6c12.5-1.3,22.5-11.3,23.8-23.8h-3.6C422.2,40,413.9,48.4,403.3,49.7z"/>
			<path class="st9" d="M423.5,23.8h3.6C425.8,11.3,415.8,1.3,403.3,0v3.6C413.9,4.9,422.2,13.2,423.5,23.8z"/>
			<path class="st10" d="M397.6,3.6V0c-12.5,1.3-22.5,11.3-23.8,23.8h3.6C378.7,13.2,387.1,4.9,397.6,3.6z"/>
			<path class="st11" d="M377.4,29.5h-3.6c1.3,12.5,11.3,22.5,23.8,23.8v-3.6C387.1,48.4,378.7,40,377.4,29.5z"/>
		</g>
	</g>
	<g>
		<path class="st12" d="M411.7,39.4h-22.4c-1.6,0-3.1-0.8-3.9-2.2s-0.8-3.1,0-4.5l11.2-19.4c0.8-1.4,2.3-2.2,3.9-2.2
			s3.1,0.8,3.9,2.2l11.2,19.4c0.8,1.4,0.8,3.1,0,4.5C414.7,38.5,413.3,39.4,411.7,39.4z M400.5,13.5c-0.7,0-1.4,0.4-1.7,1
			l-11.2,19.4c-0.4,0.6-0.4,1.4,0,2c0.4,0.6,1,1,1.7,1h22.4c0.7,0,1.4-0.4,1.7-1c0.4-0.6,0.4-1.4,0-2l-11.2-19.4
			C401.8,13.9,401.2,13.5,400.5,13.5z"/>
		<polygon class="st12" points="402,29.8 398.9,29.8 398.6,18.2 402.3,18.2 		"/>
		<circle class="st12" cx="400.5" cy="33.4" r="2.1"/>
	</g>
</g>
<g>
	<g>
		<path class="st8" d="M29.5,49.7v3.6C42,51.9,51.9,42,53.3,29.5h-3.6C48.4,40,40,48.4,29.5,49.7z"/>
		<path class="st9" d="M49.7,23.8h3.6C51.9,11.3,42,1.3,29.5,0v3.6C40,4.9,48.4,13.2,49.7,23.8z"/>
		<path class="st10" d="M23.8,3.6V0C11.3,1.3,1.3,11.3,0,23.8h3.6C4.9,13.2,13.2,4.9,23.8,3.6z"/>
		<path class="st11" d="M3.6,29.5H0C1.3,42,11.3,51.9,23.8,53.3v-3.6C13.2,48.4,4.9,40,3.6,29.5z"/>
	</g>
	<g>
		<path class="st12" d="M30.5,35.6h-1.9c0-2,1-3.8,2.1-5.5c1-1.8,2.1-3.6,2.1-5.6c0-3.8-3.2-5.6-6.2-5.6c-2.9,0-6,2-6,5.6
			c0,2,1.1,3.8,2.1,5.6c1,1.7,2.1,3.6,2.1,5.5h-1.9c0-1.4-0.9-3-1.8-4.6c-1.1-1.9-2.3-4.1-2.3-6.6c0-4.9,4.1-7.5,7.9-7.5
			c4,0,8,2.6,8,7.5c0,2.5-1.2,4.7-2.3,6.6C31.3,32.6,30.5,34.1,30.5,35.6z"/>
		<path class="st12" d="M29.3,38H24c-0.4,0-0.7-0.3-0.7-0.7c0-0.4,0.3-0.7,0.7-0.7h5.4c0.4,0,0.7,0.3,0.7,0.7
			C30,37.7,29.7,38,29.3,38z"/>
		<path class="st12" d="M29.3,40.3H24c-0.4,0-0.7-0.3-0.7-0.7c0-0.4,0.3-0.7,0.7-0.7h5.4c0.4,0,0.7,0.3,0.7,0.7
			C30,40,29.7,40.3,29.3,40.3z"/>
		<path class="st12" d="M24,41.2h5.2l-1.3,1.2c-0.2,0.2-0.4,0.3-0.6,0.3H26c-0.2,0-0.5-0.1-0.7-0.3L24,41.2z"/>
		<g>
			
				<rect x="14.1" y="29.3" transform="matrix(0.9071 -0.4209 0.4209 0.9071 -11.2326 9.5325)" class="st12" width="3.8" height="1.9"/>
			
				<rect x="13.8" y="22.6" transform="matrix(1.205621e-02 -0.9999 0.9999 1.205621e-02 -9.9065 38.8447)" class="st12" width="1.9" height="3.8"/>
			
				<rect x="15.3" y="16.5" transform="matrix(0.5631 -0.8264 0.8264 0.5631 -8.0993 21.5022)" class="st12" width="1.9" height="3.8"/>
			
				<rect x="19.8" y="12.6" transform="matrix(0.8748 -0.4844 0.4844 0.8748 -4.4083 11.8505)" class="st12" width="1.9" height="3.8"/>
			
				<rect x="36.3" y="28.3" transform="matrix(0.4209 -0.9071 0.9071 0.4209 -5.8253 51.3086)" class="st12" width="1.9" height="3.8"/>
			
				<rect x="36.7" y="23.5" transform="matrix(0.9999 -1.171795e-02 1.171795e-02 0.9999 -0.2837 0.4534)" class="st12" width="3.8" height="1.9"/>
			
				<rect x="35.1" y="17.5" transform="matrix(0.8261 -0.5635 0.5635 0.8261 -3.9465 24.0323)" class="st12" width="3.8" height="1.9"/>
			
				<rect x="30.6" y="13.5" transform="matrix(0.4843 -0.8749 0.8749 0.4843 4.1265 35.9132)" class="st12" width="3.8" height="1.9"/>
			
				<rect x="24.8" y="12.2" transform="matrix(1.562309e-02 -0.9999 0.9999 1.562309e-02 13.1345 39.6265)" class="st12" width="3.8" height="1.9"/>
		</g>
	</g>
</g>
</svg>
