<?xml version="1.0" encoding="utf-8"?>
<!-- Generator: Adobe Illustrator 25.0.0, SVG Export Plug-In . SVG Version: 6.00 Build 0)  -->
<svg version="1.1" id="Capa_1" xmlns="http://www.w3.org/2000/svg" xmlns:xlink="http://www.w3.org/1999/xlink" x="0px" y="0px"
	 viewBox="0 0 74.9 74.9" style="enable-background:new 0 0 74.9 74.9;" xml:space="preserve">
<style type="text/css">
	.st0{fill:#003D7C;}
	.st1{fill-rule:evenodd;clip-rule:evenodd;fill:#7DBA47;}
	.st2{fill-rule:evenodd;clip-rule:evenodd;fill:#80BA27;}
	.st3{fill:#97C23F;}
	.st4{fill:#33A7DF;}
	.st5{fill:#0665AE;}
	.st6{fill:#459F3E;}
	.st7{fill:#808184;}
	.st8{fill:#98C93C;}
	.st9{fill:#32A9E0;}
	.st10{fill:#0065B0;}
	.st11{fill:#44A03F;}
	.st12{fill:#808285;}
	.st13{fill:none;}
</style>
<g>
	<g>
		<path class="st0" d="M-140.1,81.4c-1.3,0-2.7-0.1-4.1,0c-9,0.3-17,3.9-23.1,9.7C-173.8,97-178,105-179,113.7
			c-0.6,5.5,0.3,11.5,2.5,17.3c3.8,4.4,9,6.5,14.2,6.3c-5.5-6.2-8.6-14.5-8-23.4c1.1-16.3,14.2-29,30.1-30.1c1.4,0,2.8,0,4.2,0
			c1.5,0.1,3.1,0.4,4.7,0.7c-0.7-0.1-1.3-0.1-2-0.3c-2.4-0.1-4.6,0-6.9,0.4c-12.8,2.3-23.1,13.1-23.9,26.8
			c-0.6,8.6,2.7,16.5,8.2,22.3l1.8,1.7c2-1,3.9-2.3,5.5-3.9l-2.1-1.8c-4.7-5.1-7.3-12-6.8-19.4c0.7-10.7,7.7-19.4,17.3-22.8
			c3.2-1.1,6.8-1.5,10.3-1.4c0.8,0.1,1.5,0.1,2.4,0.3l0.1-1.4C-131.2,82.9-135.5,81.8-140.1,81.4z"/>
		<path class="st0" d="M-140.1,89c-6.9,3.7-12,10.8-12.5,19.3c-0.4,6.6,2.1,13,6.3,17.5l1.1,1.1c0.8-1.8,1.4-4.4,1.5-6.1
			c-2.7-3.4-3.7-7.5-3.8-10.7c-0.3-6.8,2.7-13,7.3-17c3.4-3,7.6-4.9,12.4-5.5l0.1-1.1h-0.1C-132.2,86.1-136.5,87.1-140.1,89z"/>
	</g>
	<path class="st1" d="M-120,102.3l-1.3,4.2l-3.8-27.6l-0.3,2.1l-2.7,18.6l-1.1-1l-0.4,3.1l-0.6-0.8l-1,0.8l-1.3-3.4l-0.1-0.7
		l-1.7,1.6c0,4.1-1.4,11.7-4.4,17.9l0.4-0.3c0,0,0,0,0.1-0.1c2.3-3.8,4.1-8.5,5.5-13.9l0.1,0.8l1.8,9.7c0.8,0,1.8-0.1,2.8,0
		l2.4-23.9v-0.6l1.1,24.5v0.4c1.5,0.4,3,1,4.5,1.8l1-10.6l13.7-2.7L-120,102.3z"/>
	<g>
		<path class="st2" d="M-117.6,119.7c-2.5-2.4-5.2-3.8-7.7-4.4c-0.4-0.1-0.8-0.3-1.3-0.3c-2-0.4-3.9-0.3-5.8,0
			c-3.9,0.6-6.6,2.3-5.6,2.3c0.8,0,1.8,0.3,2.7,0.6c1,0.3,2.1,0.6,3,1.1c1.1,0.6,2.3,1.1,3.2,2c1.4,1,2.7,2.4,3.8,3.8
			c0.3,0.4,0.6,0.8,0.8,1.3c1.5,2.5,2.7,5.6,3.1,8.6c0.4,3.1,0,6.2-1,9.2c-0.7,1.8-1.7,3.7-3,5.2c0,0.1-0.1,0.1-0.1,0.1h0.1
			c5.5-3,11.8-7.3,12.8-15.1C-112,128.3-113.9,123-117.6,119.7z"/>
		<path class="st2" d="M-132.4,124c-3.7-3.2-7.6-4.2-6.9-3.4c0.6,0.6,1.1,1.4,1.6,2.3c1.3,2,2,4.2,2.3,6.5c0.3,2.3,0.1,4.6-0.4,6.9
			c-0.6,3.1-2,5.9-3.8,8.3c-1.8,2.4-4.1,4.2-6.8,5.6c-0.1,0-0.3,0.1-0.4,0.1c-1.8,0.8-3.8,1.4-6.1,1.7c2.1,0.6,4.2,1.1,6.5,1.5
			c4.5,0.6,9.3,0.1,13.4-3.1c0.3-0.3,0.6-0.4,0.7-0.7c4.1-3.5,6.1-8.3,5.9-13.1c0-3.9-1.4-7.2-3.1-9.6
			C-130.4,125.9-131.4,124.9-132.4,124z"/>
		<path class="st2" d="M-144.8,142.6c2.8-3,4.1-6.1,4.7-9c1.1-6.8-2.3-13-2.3-11.5c-0.1,1-0.3,2-0.6,2.8c-0.6,2.3-1.7,4.4-3.1,6.1
			c-0.1,0.3-0.3,0.4-0.4,0.6c-1.3,1.5-2.8,3-4.7,4.2c-2.7,1.5-5.6,2.7-8.6,3.1c-3.1,0.3-6.2,0-9.2-1c-2-0.7-3.8-1.7-5.5-3.1
			c3,5.5,7.3,12,15.2,12.8c4.9,0.6,9.4-0.8,12.7-3.5C-145.8,143.6-145.3,143.2-144.8,142.6z"/>
	</g>
</g>
<g>
	<g>
		<g>
			<path class="st3" d="M-58.7,147.4v5c17.6-1.9,31.6-15.9,33.4-33.4h-5C-32.1,133.8-43.9,145.6-58.7,147.4z"/>
			<path class="st4" d="M-30.3,111h5c-1.9-17.6-15.9-31.6-33.4-33.4v5C-43.9,84.4-32.1,96.2-30.3,111z"/>
			<path class="st5" d="M-66.7,82.6v-5c-17.6,1.9-31.6,15.9-33.4,33.4h5C-93.3,96.2-81.5,84.4-66.7,82.6z"/>
			<path class="st6" d="M-95.1,119h-5c1.9,17.6,15.9,31.6,33.4,33.4v-5C-81.5,145.6-93.3,133.8-95.1,119z"/>
		</g>
	</g>
	<g>
		<path class="st7" d="M-50.4,134c-4.6,3.9-10.7,3.8-17.2,1.1c-3.8-1.6-5.5-4.6-12.9-6.9c-4.1-1.3-5.3,0.5-8,1.1
			c5.1,9,14.7,15.1,25.8,15.1c9.7,0,18.2-4.6,23.6-11.8C-40.7,131.9-46.1,130.4-50.4,134z"/>
		<g>
			<path class="st7" d="M-33.4,110.5c-0.6-0.2-1.2-0.3-2.1-0.5c-1.2-0.2-2.5-0.4-3.6-0.5c-0.7,0-1.8,0-2.4-0.3
				c-0.5-0.3-1.8,0.2-2.2-0.5c-0.3-0.6-0.8,0-2.7-1.1c-0.8-0.4-3.9-3.1-4.5-3.7c-0.5-0.6-1.1-2.3-1.1-2.3s-0.6-0.5-0.8-1.1
				c-0.1-0.5-1.9-2.9-2.4-3.7c-0.4-0.8-1.4-1.1-1.8-1.5c-0.4-0.4-1.2-0.3-1.6-0.3c-0.4,0-1,0.1-1.6,0.4c-0.6,0.3-1.5,1.2-1.9,1.7
				c-0.4,0.5-0.9,0.9-1.4,1.3c-0.5,0.4-1.6,1.7-1.8,2.2c-0.2,0.4-0.9,1.6-1.3,2.4c-0.4,0.8-1.2,1.7-1.2,2.4s-1.1,1.8-1.4,2.4
				c-0.3,0.5-2.8,6.3-3.2,6.6c-0.4,0.3-1.6,3.1-3,3.6c-1.4,0.5-3,0.8-3.8,0.8s-2.2-2.4-2.3-2.7c-0.1-0.3-1.3-0.8-1.6-1.6
				c-0.3-0.9-1.2-0.8-1.2-0.8s-0.1-0.9-0.8-1.4c-0.6-0.5-1.4,0-2.7,1.2c-1.3,1.2-2.7,2.9-4.1,6.1c0,0.1,0,0.3-0.1,0.6
				c0.4,2.1,1,4.1,1.8,6c3.4-0.8,7.8-0.6,11.9,0.8c3.9,1.4,8.5,3.9,13.8,5c4,0.9,7.9,1,11.2,0c2.5-0.7,4.3-1.9,7-2.9
				c3.7-1.4,7-0.5,9.1,0.6c2.6-4.4,4.1-9.5,4.1-15C-33.1,113.3-33.2,111.9-33.4,110.5z M-48.7,118.8
				C-48.7,118.8-48.7,118.8-48.7,118.8c0,1.1-0.2,2.1-0.5,3c0.2,0.1,0.3,0.2,0.5,0.4c1.4,1.4,1.3,3.8-0.2,5.3l-2.4-2.4
				c-0.7,0.7-1.6,1.3-2.5,1.8c0,0.2,0.1,0.4,0.1,0.6c0,2-1.8,3.6-3.9,3.6v-3.3c0,0,0,0,0,0c-1.1,0-2.1-0.2-3-0.5
				c-0.1,0.2-0.2,0.3-0.4,0.4c-1.4,1.4-3.8,1.3-5.3-0.2l2.4-2.4c-0.7-0.7-1.3-1.6-1.8-2.5c-0.2,0-0.4,0-0.6,0c-2,0-3.6-1.8-3.6-3.9
				h3.3c0-1.1,0.2-2.1,0.5-3c-0.2-0.1-0.3-0.2-0.4-0.4c-1.4-1.4-1.3-3.8,0.2-5.3l2.4,2.4c0.7-0.7,1.6-1.3,2.5-1.8
				c0-0.2-0.1-0.4-0.1-0.6c0-2,1.8-3.6,3.9-3.6v3.4c1.1,0,2.1,0.2,3,0.5c0.1-0.2,0.2-0.3,0.4-0.5c1.4-1.4,3.8-1.3,5.3,0.2l-2.4,2.4
				c0.7,0.7,1.3,1.6,1.8,2.5c0.2,0,0.4-0.1,0.6-0.1c2,0,3.6,1.8,3.6,3.9H-48.7z"/>
			<polygon class="st7" points="-54.6,111.6 -57.8,111.6 -61.6,119.2 -57.8,119.2 -61,126 -53.7,117.1 -57.9,117.1 			"/>
		</g>
		<circle class="st7" cx="-77.2" cy="98.2" r="4.1"/>
	</g>
</g>
<g>
	<g>
		<g>
			<path class="st3" d="M44.6,168.5v5c17.6-1.9,31.6-15.9,33.4-33.4h-5C71.2,154.9,59.4,166.7,44.6,168.5z"/>
			<path class="st4" d="M73,132.1h5c-1.9-17.6-15.9-31.6-33.4-33.4v5C59.4,105.6,71.2,117.3,73,132.1z"/>
			<path class="st5" d="M36.6,103.8v-5C19,100.6,5,114.6,3.2,132.1h5C10,117.3,21.8,105.6,36.6,103.8z"/>
			<path class="st6" d="M8.2,140.1h-5C5,157.7,19,171.7,36.6,173.6v-5C21.8,166.7,10,154.9,8.2,140.1z"/>
		</g>
	</g>
	<path class="st7" d="M43.7,144.4l2.7,12.4h16v-12.4H43.7z M50.4,154.8H47v-3.5h3.5V154.8z M50.4,149.7H47v-3.5h3.5V149.7z
		 M55.5,154.8H52v-3.5h3.5V154.8z M55.5,149.7H52v-3.5h3.5V149.7z M60.6,154.8h-3.5v-3.5h3.5V154.8z M60.6,149.7h-3.5v-3.5h3.5
		V149.7z"/>
	<polygon class="st7" points="41.3,117.7 42,117.7 42,115.4 45.4,117.6 45.4,119.3 47.2,118.2 45.8,117.3 45.8,117.2 41.5,114.4 
		41.5,113.6 45.6,113.6 45.5,114.2 47.2,113.1 45.6,112.1 45.6,113.1 41,113.1 41,114.7 41.3,114.9 	"/>
	<polygon class="st7" points="49.9,111.5 54.1,111.5 54.1,112.3 50.1,114.9 48.3,113.8 45.5,115.6 45.4,115.6 45.5,115.7 
		48.3,117.5 51.1,115.7 51.2,115.6 51.1,115.5 50.6,115.2 53.4,113.4 53.4,115.7 54.2,115.7 54.2,112.9 54.7,112.6 54.7,110.9 
		50.7,110.9 50.8,110.9 45.9,110.9 48.3,112.4 	"/>
	<polygon class="st7" points="47.2,123.4 45.3,122.2 45.2,124.8 	"/>
	<polygon class="st7" points="49.4,113.1 51,114.1 51,112.2 	"/>
	<polygon class="st7" points="45.3,120.7 45.3,120.8 45.3,120.8 48.3,122.7 51.2,120.8 51.4,120.8 51.2,120.7 48.3,118.9 	"/>
	<polygon class="st7" points="49.3,129.2 51.5,130.8 51.4,127.7 	"/>
	<polygon class="st7" points="48.3,130 45.6,131.9 48.3,133.9 51,131.9 	"/>
	<polygon class="st7" points="49.4,118.2 51.2,119.2 51.1,117.1 	"/>
	<polygon class="st7" points="45.3,126.3 48.3,128.5 51.4,126.3 51.5,126.2 51.4,126.1 48.3,124.1 45.2,126.2 	"/>
	<polygon class="st7" points="51.3,124.7 51.3,122.2 49.4,123.4 	"/>
	<polygon class="st7" points="51.7,138.7 49.3,140.7 51.8,142.8 	"/>
	<polygon class="st7" points="48.3,141.5 45.6,143.7 51,143.7 	"/>
	<polygon class="st7" points="48.3,139.9 51.3,137.5 48.3,135.4 45.4,137.5 	"/>
	<polygon class="st7" points="51.6,133 49.3,134.6 51.7,136.3 	"/>
	<polygon class="st7" points="45.1,128.6 45,128.7 45.1,128.8 45,130.9 47.3,129.2 45.1,127.6 	"/>
	<polygon class="st7" points="44.8,136.4 47.3,134.6 44.9,132.9 	"/>
	<polygon class="st7" points="44.6,143 47.4,140.7 44.7,138.5 	"/>
	<path class="st7" d="M31.8,146.7h2.9l-6.4,6.8l2.8-5.1h-2.6l2.8-4.9l2.7,0L31.8,146.7z M44.7,156.7H18.3l3.4-16.6h0.5l0,0l4.7-4.3
		l0,4.3h1.8l0,0l4.7-4.3l0,4.3h1.8l0,0l4.7-4.3l0,4.3h0.5L44.7,156.7z M39,148.5c0-3.5-3.3-6.4-7.5-6.4c-4.1,0-7.5,2.9-7.5,6.4
		c0,3.5,3.3,6.4,7.5,6.4C35.6,154.9,39,152,39,148.5z"/>
</g>
<g>
	<g>
		<g>
			<path class="st3" d="M147.9,161v5c17.6-1.9,31.6-15.9,33.4-33.4h-5C174.4,147.5,162.7,159.2,147.9,161z"/>
			<path class="st4" d="M176.3,124.7h5c-1.9-17.6-15.9-31.6-33.4-33.4v5C162.7,98.1,174.4,109.8,176.3,124.7z"/>
			<path class="st5" d="M139.9,96.3v-5c-17.6,1.9-31.6,15.9-33.4,33.4h5C113.3,109.8,125.1,98.1,139.9,96.3z"/>
			<path class="st6" d="M111.5,132.7h-5c1.9,17.6,15.9,31.6,33.4,33.4v-5C125.1,159.2,113.3,147.5,111.5,132.7z"/>
		</g>
	</g>
	<path class="st7" d="M161.5,135.3c2.8,2.8,2.6,7.5-0.4,10.5l-4.7-4.7c-1.4,1.4-3.1,2.6-4.9,3.5c0.1,0.4,0.1,0.8,0.1,1.1
		c0,4-3.5,7.2-7.7,7.2v-6.6c0,0,0,0-0.1,0c-2.1,0-4.1-0.4-5.9-1c-0.2,0.3-0.5,0.6-0.7,0.9c-2.8,2.8-7.5,2.6-10.5-0.4l4.6-4.6
		c-1.4-1.4-2.6-3.1-3.5-5c-0.4,0.1-0.7,0.1-1.1,0.1c-4,0-7.2-3.5-7.2-7.7h6.6c0-2.1,0.4-4.1,1-6c-0.3-0.2-0.6-0.5-0.9-0.7
		c-2.8-2.8-2.6-7.5,0.4-10.5l4.7,4.7c1.4-1.4,3.1-2.6,5-3.5c-0.1-0.4-0.1-0.8-0.1-1.2c0-4,3.5-7.2,7.7-7.2v6.6c2.1,0,4.1,0.4,6,1
		c0.2-0.3,0.5-0.6,0.8-0.9c2.8-2.8,7.5-2.6,10.5,0.4l-4.7,4.7c1.4,1.4,2.6,3.1,3.5,4.9c0.4-0.1,0.8-0.1,1.2-0.1c4,0,7.2,3.5,7.2,7.7
		h-6.6c0,0,0,0,0,0.1c0,2.1-0.4,4.1-1,5.9C160.9,134.8,161.2,135.1,161.5,135.3z M143.6,114.4l-7.5,15h7.4l-6.2,13.4l14.3-17.7h-8.3
		l6.5-10.7L143.6,114.4z"/>
</g>
<g>
	<g>
		<g>
			<path class="st3" d="M259.5,172.1v5c17.6-1.9,31.6-15.9,33.4-33.4h-5C286.1,158.5,274.3,170.3,259.5,172.1z"/>
			<path class="st4" d="M287.9,135.7h5c-1.9-17.6-15.9-31.6-33.4-33.4v5C274.3,109.1,286.1,120.9,287.9,135.7z"/>
			<path class="st5" d="M251.5,107.3v-5c-17.6,1.9-31.6,15.9-33.4,33.4h5C225,120.9,236.7,109.1,251.5,107.3z"/>
			<path class="st6" d="M223.1,143.7h-5c1.9,17.6,15.9,31.6,33.4,33.4v-5C236.7,170.3,225,158.5,223.1,143.7z"/>
		</g>
	</g>
	<g>
		<polygon class="st7" points="252,138.5 254.3,138.3 254.3,135.6 252,135.9 		"/>
		<polygon class="st7" points="252.1,132.6 254.3,132.4 254.3,129.6 252.1,129.9 		"/>
		<polygon class="st7" points="252,144.4 254.3,144.3 254.3,141.6 252,141.7 		"/>
		<polygon class="st7" points="252,150.1 254.3,150 254.3,147.4 252,147.5 		"/>
		<polygon class="st7" points="254.3,126.4 254.3,123.8 252.1,124.1 252.1,126.8 		"/>
		<polygon class="st7" points="249.7,124.5 247.5,124.9 247.5,127.5 249.7,127.2 		"/>
		<polygon class="st7" points="249.7,144.5 249.7,141.9 247.5,142 247.4,144.6 		"/>
		<polygon class="st7" points="247.4,147.6 247.4,150.2 249.7,150.1 249.7,147.5 		"/>
		<polygon class="st7" points="249.7,130.3 247.5,130.6 247.5,133.2 249.7,132.9 		"/>
		<polygon class="st7" points="249.7,136.1 247.5,136.3 247.5,139 249.7,138.8 		"/>
		<polygon class="st7" points="243.5,147.7 243.5,150.3 245.7,150.2 245.7,147.7 		"/>
		<polygon class="st7" points="245.8,144.7 245.8,142.2 244.9,142.2 243.5,142.2 243.5,144.8 		"/>
		<polygon class="st7" points="241.7,142.3 239.5,142.5 239.5,144.9 241.7,144.8 		"/>
		<polygon class="st7" points="239.4,147.9 239.4,150.4 241.7,150.3 241.7,147.8 		"/>
		<path class="st7" d="M270.6,152.5l0.1-29.8l-13.7-5.5l-15,4.5l-0.1,16l-5.6,0.6v14.3l-4,0v4.1h42.4v-4.2H270.6z M243.6,139.4
			l0.1-16.3l12.3-3.6v33.3h-18V140L243.6,139.4z M268.2,150.2l-9.1-0.2v-3l9.1,0.2V150.2z M268.2,144.7l-9.1-0.6v-3l9.1,0.6V144.7z
			 M268.2,139.4l-9.1-1.3v-3l9.1,1.3V139.4z M268.2,134l-9.1-1.7v-3l9.1,1.7V134z M268.2,128.7l-9.1-2.3v-3l9.1,2.3V128.7z"/>
	</g>
</g>
<g>
	<g>
		<path class="st3" d="M359.8,178.6v5c17.6-1.9,31.6-15.9,33.4-33.4h-5C386.3,165,374.6,176.7,359.8,178.6z"/>
		<path class="st4" d="M388.2,142.2h5c-1.9-17.6-15.9-31.6-33.4-33.4v5C374.6,115.6,386.3,127.4,388.2,142.2z"/>
		<path class="st5" d="M351.8,113.8v-5c-17.6,1.9-31.6,15.9-33.4,33.4h5C325.2,127.4,337,115.6,351.8,113.8z"/>
		<path class="st6" d="M323.4,150.2h-5c1.9,17.6,15.9,31.6,33.4,33.4v-5C337,176.7,325.2,165,323.4,150.2z"/>
	</g>
	<g>
		<path class="st7" d="M376.8,130.4l8.8,17.3c0,0-2.8,1.4-3.4,1.7c-0.7,0.3-1.2-0.6-1.2-0.6s-7.7-14.8-8-15.4
			c-0.2-0.6,0.2-1.2,0.7-1.4C374.3,131.8,376.8,130.4,376.8,130.4z"/>
		<path class="st7" d="M373.4,156.3c0,0,4.3-4.2,5.2-5.3c0.8-1.1,0.8-2,0.2-2.9c-0.6-0.8-7.1-13.1-7.1-13.1s-2.3,1.8-5.1-0.4
			c-2.4-1.9-5.6-3.9-9.2-2.3c-3.7,1.7-10.7,6.6-12.8,8.6c-2.1,2-0.6,5.3,3.3,3.3c4.3-2.3,6.4-3.4,7.6-4s2-1.2,3.5,0.1
			c0.6,0.6,3.8,3.7,6.9,7.1C369.7,151.7,373.4,156.3,373.4,156.3z"/>
		<path class="st7" d="M374.3,157.3c0,0,1.4,4.9-5,3.9c0,0,0.4,4.7-5.1,3c0,0,0.1,4.4-4.9,3.4l0.7-1.3c0,0,1.2,0.5,2.1-0.2
			c0.8-0.6,1.1-2.7,0.1-3.8c-2-2.3-3.5-3.9-4-4.5c-0.8-0.9,0.1-2,1.1-1c1,1.1,4.9,5.3,5.3,5.9s2.2,0.8,3.1-0.3
			c0.9-1.1,0.3-2.7-0.4-3.5c-0.6-0.8-3.5-4-4.3-4.9c-0.8-0.9,0.1-1.8,1-1c0.9,0.8,4.4,4.8,5.3,5.8c0.9,1,2.2,1.3,3.3,0.6
			c0.5-0.3,0.8-1.3,0.8-1.3L374.3,157.3z"/>
		<path class="st7" d="M353.6,131.6c-0.6-0.4-2.4-0.9-3.6-0.4c-1.3,0.5-3.6,1.9-4.9,2.5c-1.2,0.6-2.2,0.8-3.3,0.2
			c-1-0.6-1.4-1-1.8-1.3c-0.3-0.3-1.6-0.3-1.9,0.6c-0.3,0.9-5.3,14-5.6,14.9c-0.2,0.8-0.2,1.5,0.3,2s3.3,3.7,3.7,4.2
			c0.8,0.8,1.8-0.2,1.1-1c-0.5-0.6-2.7-3-3.2-3.4c-0.5-0.4-0.7-1.2-0.4-1.8s4.7-12.3,4.9-13c0.2-0.7,0.4-0.9,0.9-0.6
			c0.5,0.3,1.7,1.4,3.1,1.4s4.3-1.7,5.3-2.3c1-0.5,2.1-1.1,2.9-1.1c1,0,1.5,0.4,1.9,0.4C354,133,354.3,132.1,353.6,131.6z"/>
		<path class="st7" d="M332.8,130.1l-6.9,18.2c0,0,3.1,1.1,3.6,1.2s0.9-0.1,0.9-0.5c0.1-0.5,6.1-15.9,6.2-16.4
			c0.1-0.5-0.2-1-0.7-1.3C335.5,131.1,332.8,130.1,332.8,130.1z"/>
		<path class="st7" d="M343.5,161.6L343.5,161.6c-0.9-0.9-0.8-2.3,0-3.1l3.5-3.2c0.9-0.8,2.2-0.8,3.1,0.1l0.1,0.1
			c0.8,0.9,0.8,2.2-0.1,3.1l-3.5,3.2C345.7,162.5,344.3,162.5,343.5,161.6z"/>
		<path class="st7" d="M347.6,165.7L347.6,165.7c-0.9-0.9-0.8-2.3,0-3.1l4.6-4.3c0.9-0.8,2.2-0.8,3.1,0.1l0.1,0.1
			c0.8,0.9,0.8,2.2-0.1,3.1l-4.6,4.3C349.8,166.6,348.4,166.6,347.6,165.7z"/>
		<path class="st7" d="M353,168.6L353,168.6c-0.9-0.9-0.8-2.3,0-3.1l2.3-2.1c0.9-0.8,2.2-0.8,3.1,0.1l0.1,0.1
			c0.8,0.9,0.8,2.2-0.1,3.1l-2.3,2.1C355.2,169.5,353.8,169.4,353,168.6z"/>
		<path class="st7" d="M338.5,158.7L338.5,158.7c-0.9-0.9-0.8-2.3,0-3.1l0.9-0.8c0.9-0.8,2.2-0.8,3.1,0.1l0.1,0.1
			c0.8,0.9,0.8,2.2-0.1,3.1l-0.9,0.8C340.7,159.6,339.3,159.6,338.5,158.7z"/>
	</g>
</g>
<g>
	<g>
		<path class="st3" d="M448.5,185.1v5c17.4-1.8,31.2-15.7,33.1-33.1h-5C474.8,171.7,463.1,183.3,448.5,185.1z"/>
		<path class="st4" d="M476.6,149.1h5c-1.8-17.4-15.7-31.2-33.1-33.1v5C463.1,122.8,474.8,134.5,476.6,149.1z"/>
		<path class="st5" d="M440.6,121v-5c-17.4,1.8-31.2,15.7-33.1,33.1h5C414.3,134.5,425.9,122.8,440.6,121z"/>
		<path class="st6" d="M412.5,157h-5c1.8,17.4,15.7,31.2,33.1,33.1v-5C425.9,183.3,414.3,171.7,412.5,157z"/>
	</g>
	<path class="st7" d="M416.1,155.6c0-1.1,3.2-4.2,7.8-1.4c5,3.1,4.4,5.2,9.5,5.2c4.3,0.1,3.7-8.3,3.3-11c-0.4-2.6-1.1-14.5-1-16.4
		c0.1-1.9,0.6-3.5,2.3-3.4c1.9,0.1,1.8,2.9,1.8,2.9s0.6,5.8,0.8,7.7c0.2,1.9,1.8,10.3,3.1,10.4c1.3,0.1,3.2-5.9,4.5-11.7
		s3-11.6,5.3-11.1c2,0.4-0.3,7.4-0.8,10c-0.5,2.6-3.6,13-1.9,13.6c1.7,0.6,4.1-5.9,6-10.6s3.2-7.9,4.8-7.5c1.5,0.4,0.4,5.8-1.2,9.4
		c-1.5,3.6-4.3,10.3-4.6,11.4c-0.5,1.8,0.4,3.8,1.6,2.5c1.2-1.3,4.6-5.2,7.2-8.1c2.6-3,4.3-3.8,5.4-2.9c0.5,0.4,0.6,2.1-0.6,3.6
		c-1.2,1.4-3.4,4.1-4.6,5.5c-2.3,2.6-3.6,4.7-4.4,6.7c-0.8,2-4.5,9.7-4.5,9.7s-1-6.2-1.1-6.9c-0.1-0.7-0.1-3.7-0.1-5.5s-1.3-2-1.9-2
		c-0.6,0-1.1,2.1-1.1,4.7s0.1,2.9-0.2,2.9c-0.3,0-1.8-6.3-1.9-7c-0.1-0.7-1-3.4-2.3-3s-1.2,1.5-0.8,2.6s0.9,3.8,1.3,4.8
		c0.4,1,0.7,2.1,0.3,2.2s-1.7-2.1-2.2-3.4c-0.5-1.3-1.6-3.1-2-4s-1.2-1.5-2-1.2c-0.8,0.4-0.4,2-0.1,2.4s3.1,5.9,3.5,6.7
		c0.4,0.8-0.4,1.3-1.2,0.6c-0.8-0.7-3.6-3.8-4.6-4.9c-0.8-0.9-1.9-0.6-2.2,0.2s-0.2,1.6,0.7,2.3s2.5,2.9,4.6,4.9
		c2.1,1.9,2.1,4.3,0.4,4.5c-1.4,0.1-3.6-0.3-5,1.1c-1.6,1.6-0.4,2.3,0.7,2.1c1.2-0.2,2.8-0.4,4.3,0.2c1.5,0.5,4.3,2.6,6.6,2.6
		c2.3,0,3.1-0.5,3.1-0.5s-2.2,5.4-10,4.2c-7.2-1.1-11.6-7.3-13.6-9.9c-2.1-2.7-4.3-6.4-6.2-9.8c-1.8-3.3-3.6-3.9-4.6-3.9
		C417.6,156.9,416.1,156.3,416.1,155.6z"/>
</g>
<g>
	<g>
		<path class="st3" d="M555.8,192.8v5c17.6-1.9,31.6-15.9,33.4-33.4h-5C582.3,179.2,570.6,191,555.8,192.8z"/>
		<path class="st4" d="M584.2,156.4h5c-1.9-17.6-15.9-31.6-33.4-33.4v5C570.6,129.8,582.3,141.6,584.2,156.4z"/>
		<path class="st5" d="M547.8,128v-5c-17.6,1.9-31.6,15.9-33.4,33.4h5C521.2,141.6,533,129.8,547.8,128z"/>
		<path class="st6" d="M519.4,164.4h-5c1.9,17.6,15.9,31.6,33.4,33.4v-5C533,191,521.2,179.2,519.4,164.4z"/>
	</g>
	<g>
		<path class="st7" d="M560.9,138.3c0-0.2-3.3-1.6-4.4-2c-1.1-0.3-3.5-0.7-4.7-0.7c-9.4,0-17,7.6-17,17c0,9.4,7.6,17,17,17
			c9.4,0,17-7.6,17-17C568.7,146.6,565.6,141.3,560.9,138.3z M536.2,152.6c0-1,0.1-2,0.3-3c0.6,0.7,1.7,1.8,2.9,2.7l0.7,0.5
			c1.3,0.9,1.6,1.1,1.5,1.4c-0.1,0.3-0.6,3.2-0.4,3.8c0.4,1.1,1.8,2.5,2.6,3.2c0.1,0.1,0.3,0.5,0.4,1.2c0.1,0.9-0.2,2.3-1,3.2
			C539,162.9,536.2,158,536.2,152.6z M548.8,167.8c0.5-1.6,2.6-2.9,4.2-3c2-0.2,3.6-1.3,4.4-3.2c0.2-0.6,0.2-1.3-0.1-2
			c-0.5-1-1.6-1.9-2.4-2.1c-0.8-0.3-2-1-2.3-1.3c-0.4-0.4-1.8-2.1-2.2-2.9c-0.5-1-1.6-1.8-2.5-1.8c-0.6,0-2.5-0.1-3-0.3
			c-0.5-0.2-2.4-1.9-2.6-2.2c0-0.1,0-0.5,0-0.8c0.1-0.7,0.2-1.6-0.2-2.2c-0.1-0.2-0.2-0.6-0.1-1c0.1-0.2,0.2-0.4,0.5-0.5
			c0.2-0.1,1,0.8,1.2,1.1c0.5,0.6,0.9,1.1,1.4,1.1c0.7,0,1-0.6,1.6-1.7c0.5-0.9,1.1-2,1.9-2.6c0.4-0.3,1.2-0.5,2.1-0.7
			c1.1-0.2,2.3-0.5,3.4-1.1c1.3-0.7,1.9-2.1,2.2-3c1,0.3,2,0.8,3,1.3c-0.1,0.8-0.1,2.1,0.9,2.9c0.5,0.4,1,1.4,1,2.3
			c0,0.5-0.1,0.8-0.1,0.8l-0.1,0.1c-0.8,0.8-3,3-2.6,5.6c0.5,2.6,2.7,4.1,4.5,4.3c0.1,0,0.4,0.1,0.5,0.2c0.2,0.3,0,1.1-0.1,1.4
			c-0.1,0.6-0.9,2.1-1.6,3.2c-0.7,1.3-1.1,2-1.3,2.5c-0.3,1-0.3,2.2,0.1,3c-2.5,1.7-5.6,2.8-8.8,2.8
			C550.7,168.1,549.8,168,548.8,167.8z"/>
		<g>
			<path class="st7" d="M548.8,178.2c-0.4,0-0.7-0.3-0.7-0.7c0-2.4-1.7-4.1-2.4-4.4c-1-0.4-3.7-1.7-4.7-2.4
				c-0.7-0.5-1.5-1.4-2.3-2.3c-0.5-0.6-1-1.2-1.5-1.7c-0.5-0.5-1.1-0.5-1.2-0.3c-0.1,0.1,0,0.4,0.2,0.6c0.3,0.4,2.5,3,3.8,4.5
				c0.2,0.2,0.3,0.3,0.5,0.5c0.2,0.3,0.2,0.7-0.1,1c-0.3,0.2-0.7,0.2-1-0.1c0,0-0.2-0.2-0.4-0.5c-1.5-1.7-2.9-2.6-4.2-3.5
				c-0.5-0.3-1-0.7-1.4-1c-1.8-1.4-3.1-4.3-3.3-5c0-0.3-0.5-1-0.8-1.2c-0.3,0.7-0.1,3.5,0.9,5.4c1.4,2.8,2.9,4.6,4.2,5.5
				c0.4,0.3,1,0.6,1.5,1c2.2,1.5,3.8,2.5,4.4,3c0.3,0.3,0.3,0.7,0,1c-0.3,0.3-0.7,0.3-1,0c-0.5-0.5-2.6-1.8-4.1-2.9
				c-0.6-0.4-1.1-0.7-1.5-1c-1.5-1-3.1-3.1-4.7-6c-1-1.8-1.6-5.1-0.9-6.6c0.2-0.6,0.6-0.8,0.9-0.8c0.2-0.1,0.6-0.1,1.1,0.2
				c0.7,0.5,1.4,1.5,1.5,2.2c0.1,0.5,1.3,3,2.7,4.1c0.2,0.1,0.4,0.3,0.6,0.4c-0.3-0.8,0-1.4,0.4-1.8c0.7-0.6,2.1-0.6,3.1,0.4
				c0.5,0.5,1.1,1.2,1.6,1.7c0.7,0.9,1.4,1.7,2,2c1,0.6,3.5,1.9,4.5,2.3c1.1,0.5,3.2,2.6,3.2,5.7
				C549.6,177.9,549.2,178.2,548.8,178.2z"/>
			<path class="st7" d="M548.9,185.2h-8.2c-1.1,0-2-0.9-2-2v-2c0-1.1,0.9-2,2-2h8.2c1.1,0,2,0.9,2,2v2
				C550.9,184.3,550,185.2,548.9,185.2z M540.6,180.6c-0.3,0-0.6,0.3-0.6,0.6v2c0,0.3,0.3,0.6,0.6,0.6h8.2c0.3,0,0.6-0.3,0.6-0.6v-2
				c0-0.3-0.3-0.6-0.6-0.6H540.6z"/>
			<g>
				<path class="st7" d="M554.7,178.2c0.4,0,0.7-0.3,0.7-0.7c0-2.4,1.7-4.1,2.4-4.4c1-0.4,3.7-1.7,4.7-2.4c0.7-0.5,1.5-1.4,2.3-2.3
					c0.5-0.6,1-1.2,1.5-1.7c0.5-0.5,1.1-0.5,1.2-0.3c0.1,0.1,0,0.4-0.2,0.6c-0.3,0.4-2.5,3-3.8,4.5c-0.2,0.2-0.3,0.3-0.5,0.5
					c-0.2,0.3-0.2,0.7,0.1,1c0.3,0.2,0.7,0.2,1-0.1c0,0,0.2-0.2,0.4-0.5c1.5-1.7,2.9-2.6,4.2-3.5c0.5-0.3,1-0.7,1.4-1
					c1.8-1.4,3.1-4.3,3.3-5c0-0.3,0.5-1,0.8-1.2c0.3,0.7,0.1,3.5-0.9,5.4c-1.4,2.8-2.9,4.6-4.2,5.5c-0.4,0.3-1,0.6-1.5,1
					c-2.2,1.5-3.8,2.5-4.4,3c-0.3,0.3-0.3,0.7,0,1c0.3,0.3,0.7,0.3,1,0c0.5-0.5,2.6-1.8,4.1-2.9c0.6-0.4,1.1-0.7,1.5-1
					c1.5-1,3.1-3.1,4.7-6c1-1.8,1.6-5.1,0.9-6.6c-0.2-0.6-0.6-0.8-0.9-0.8c-0.2-0.1-0.6-0.1-1.1,0.2c-0.7,0.5-1.4,1.5-1.5,2.2
					c-0.1,0.5-1.3,3-2.7,4.1c-0.2,0.1-0.4,0.3-0.6,0.4c0.3-0.8,0-1.4-0.4-1.8c-0.7-0.6-2.1-0.6-3.1,0.4c-0.5,0.5-1.1,1.2-1.6,1.7
					c-0.7,0.9-1.4,1.7-2,2c-1,0.6-3.5,1.9-4.5,2.3c-1.1,0.5-3.2,2.6-3.2,5.7C554,177.9,554.3,178.2,554.7,178.2z"/>
				<path class="st7" d="M552.6,183.2v-2c0-1.1,0.9-2,2-2h8.2c1.1,0,2,0.9,2,2v2c0,1.1-0.9,2-2,2h-8.2
					C553.5,185.2,552.6,184.3,552.6,183.2z M554.7,180.6c-0.3,0-0.6,0.3-0.6,0.6v2c0,0.3,0.3,0.6,0.6,0.6h8.2c0.3,0,0.6-0.3,0.6-0.6
					v-2c0-0.3-0.3-0.6-0.6-0.6H554.7z"/>
			</g>
		</g>
	</g>
</g>
<g>
	<g>
		<path class="st8" d="M41.4,69.8v5C59,73,73,59,74.9,41.4h-5C68,56.2,56.2,68,41.4,69.8z"/>
		<path class="st9" d="M69.8,33.4h5C73,15.9,59,1.9,41.4,0v5C56.2,6.9,68,18.6,69.8,33.4z"/>
		<path class="st10" d="M33.4,5V0C15.9,1.9,1.9,15.9,0,33.4h5C6.9,18.6,18.6,6.9,33.4,5z"/>
		<path class="st11" d="M5,41.4H0C1.9,59,15.9,73,33.4,74.9v-5C18.6,68,6.9,56.2,5,41.4z"/>
	</g>
	<g>
		<path class="st12" d="M57,57.2H21.8c-1.6,0-3-1.3-3-3V27.6c0-1.6,1.3-3,3-3H57c1.6,0,3,1.3,3,3v26.6C60,55.8,58.7,57.2,57,57.2z
			 M21.8,26.5c-0.6,0-1.1,0.5-1.1,1.1v26.6c0,0.6,0.5,1.1,1.1,1.1H57c0.6,0,1.1-0.5,1.1-1.1V27.6c0-0.6-0.5-1.1-1.1-1.1H21.8z"/>
		<path class="st12" d="M21.8,56.2H57c1.1,0,2-0.9,2-2v-4.7L59,51.9c-6.3-14.6-9.5-21.2-14.2-18.8c-4.7,2.4-8.5,16.1-11.4,15.4
			s-3.3-4.9-6.4-5.8c-2.9-0.8-7.1,9-7.1,9l-0.2-2.4v4.8C19.7,55.3,20.6,56.2,21.8,56.2z"/>
		<circle class="st12" cx="30" cy="35.1" r="3.2"/>
		<path class="st13" d="M16.9,26.7l-2.1,0.5c-0.6,0.1-0.9,0.7-0.8,1.3L16.8,40V27.6C16.8,27.3,16.8,27,16.9,26.7z"/>
		<path class="st13" d="M50.4,19.7c-0.1-0.6-0.7-0.9-1.3-0.8l-15.6,3.8h17.6L50.4,19.7z"/>
		<path class="st12" d="M21.8,24.7c-1.1,0-2,0.6-2.5,1.5l6.1-1.5H21.8z"/>
		<g>
			<path class="st12" d="M14,28.5c-0.1-0.6,0.2-1.2,0.8-1.3l2.1-0.5c0.2-0.8,0.5-1.6,1-2.2l-3.6,0.9c-1.6,0.4-2.6,2-2.2,3.6l4.6,19
				v-8L14,28.5z"/>
			<path class="st12" d="M49.1,18.9c0.6-0.1,1.2,0.2,1.3,0.8l0.7,3h1.9l-0.8-3.4c-0.4-1.6-2-2.6-3.6-2.2l-23.1,5.6h8L49.1,18.9z"/>
		</g>
	</g>
</g>
<g>
	<path class="st12" d="M460.6,7.2h-19.5c-0.6,0-1.2-0.5-1.2-1.2s0.5-1.2,1.2-1.2h19.5c0.6,0,1.2,0.5,1.2,1.2S461.2,7.2,460.6,7.2z"
		/>
	<path class="st12" d="M460.6,13.5h-19.5c-0.6,0-1.2-0.5-1.2-1.2c0-0.6,0.5-1.2,1.2-1.2h19.5c0.6,0,1.2,0.5,1.2,1.2
		C461.7,13,461.2,13.5,460.6,13.5z"/>
	<g>
		<path class="st8" d="M455.9,50.2v5c17.6-1.9,31.6-15.9,33.4-33.4h-5C482.5,36.6,470.7,48.4,455.9,50.2z"/>
		<path class="st9" d="M484.3,13.8h5c-1.9-17.6-15.9-31.6-33.4-33.4v5C470.7-12.8,482.5-1,484.3,13.8z"/>
		<path class="st10" d="M447.9-14.6v-5c-17.6,1.9-31.6,15.9-33.4,33.4h5C421.4-1,433.1-12.8,447.9-14.6z"/>
		<path class="st11" d="M419.5,21.8h-5c1.9,17.6,15.9,31.6,33.4,33.4v-5C433.1,48.4,421.4,36.6,419.5,21.8z"/>
	</g>
	<path class="st12" d="M465.8,23.8l-0.7,0.9l0,12.9h-28.7V-2.1l28.7,0l0,14.2l0.1-0.2c0.1-0.2,0.3-0.3,0.5-0.3c0,0,0-0.1,0-0.1
		c0-0.2,0.1-0.4,0.2-0.6l0.9-1c0,0,0,0,0,0l0-13.8l-32.2,0v43.1h32.2l0-14c-0.1-0.1-0.2-0.1-0.3-0.2C466,24.8,465.8,24.3,465.8,23.8
		z"/>
	<path class="st12" d="M460.6,17.6h-19.5c-0.6,0-1.2,0.5-1.2,1.2c0,0.6,0.5,1.2,1.2,1.2h17.8L460.6,17.6
		C460.6,17.6,460.6,17.6,460.6,17.6z"/>
	<path class="st12" d="M441.1,23.9c-0.6,0-1.2,0.5-1.2,1.2c0,0.6,0.5,1.2,1.2,1.2h12.7l1.8-2.3H441.1z"/>
	<path class="st12" d="M440.8,30.3c-0.5,0-0.9,0.5-0.9,1.2c0,0.6,0.4,1.2,0.9,1.2h10.3l0.5-2.3H440.8z"/>
	<g>
		<path class="st12" d="M452.7,29l-1.2,5.6c-0.1,0.5,0.4,0.8,0.8,0.6l5.2-2.4L452.7,29z"/>
		<path class="st12" d="M473.7,16.2c-0.5-0.4-1.1-0.3-1.5,0.2l-0.7,0.8l-5.7-4.7l-12.6,15.7l4.9,4l11.6-14.4l0.8,0.7l-3.7,4.6
			c-0.4,0.5-0.3,1.1,0.2,1.5c0.5,0.4,1.1,0.3,1.5-0.2l5.4-6.7C474.2,17.2,474.1,16.6,473.7,16.2z"/>
		<path class="st12" d="M472.3,14.5c1.1-1.4,0.9-3.4-0.5-4.5c-1.4-1.1-3.4-0.9-4.5,0.5l-0.9,1l4.9,4L472.3,14.5z"/>
	</g>
</g>
</svg>
