<?xml version="1.0" encoding="utf-8"?>
<!-- Generator: Adobe Illustrator 25.0.0, SVG Export Plug-In . SVG Version: 6.00 Build 0)  -->
<svg version="1.1" id="Capa_1" xmlns="http://www.w3.org/2000/svg" xmlns:xlink="http://www.w3.org/1999/xlink" x="0px" y="0px"
	 viewBox="0 0 147.1 43" style="enable-background:new 0 0 147.1 43;" xml:space="preserve">
<style type="text/css">
	.st0{fill:#FFFFFF;}
</style>
<g>
	<path class="st0" d="M122.9,23.6c0-0.1,0-0.2,0-0.2c0-0.1,0-0.1,0-0.2c0-0.4-0.1-0.7-0.4-0.9c-0.2-0.2-0.4-0.2-0.6-0.2
		c-0.1,0-0.3,0-0.4,0c-0.1,0-0.3,0-0.4,0h-0.6c-0.1,0-0.1,0-0.1,0.1c0,0.2,0,0.4,0,0.5c0,0.2,0,0.4,0,0.5h0v0.6v0.4
		c0,0.1,0,0.1,0.1,0.1c0.1,0,0.1,0,0.2,0c0.1,0,0.1,0,0.2,0h1c0.2,0,0.4-0.1,0.6-0.2C122.7,24,122.8,23.8,122.9,23.6z"/>
	<path class="st0" d="M90.6,22c-0.1,0-0.3,0-0.4,0c-0.1,0-0.3,0-0.4,0h-0.6c-0.1,0-0.1,0-0.1,0.1c0,0.2,0,0.4,0,0.5
		c0,0.2,0,0.4,0,0.5h0v0.6v0.4c0,0.1,0,0.1,0.1,0.1c0.1,0,0.1,0,0.2,0c0.1,0,0.1,0,0.2,0h1c0.2,0,0.4-0.1,0.6-0.2
		c0.2-0.2,0.3-0.3,0.3-0.5c0-0.1,0-0.2,0-0.2c0-0.1,0-0.1,0-0.2c0-0.4-0.1-0.7-0.4-0.9C91,22.1,90.8,22,90.6,22z"/>
	<path class="st0" d="M81.7,18.1c-0.1-0.2-0.2-0.4-0.4-0.5c-0.2-0.1-0.4-0.2-0.6-0.2h-2h-0.7c-0.1,0-0.1,0-0.1,0.1v0.1v1.6v0.2V21
		c0,0.1,0,0.2,0,0.2c0,0,0.1,0,0.2,0.1h0.1h0.9c0.3,0,0.6,0,1,0c0.2,0,0.5-0.1,0.8-0.2c0,0,0.1-0.1,0.2-0.2c0.2-0.1,0.3-0.3,0.5-0.5
		c0.1-0.2,0.2-0.4,0.3-0.7v-0.1c0.1-0.2,0.1-0.5,0-0.8C81.9,18.6,81.8,18.3,81.7,18.1z"/>
	<path class="st0" d="M128.3,25.4c0,0.1,0,0.1,0.1,0.2c0,0.1,0,0.1,0.1,0.2c0,0.1,0.1,0.1,0.1,0.2c0,0.1,0.1,0.1,0.1,0.2
		c0.1,0.1,0.1,0.2,0.2,0.3c0.1,0.1,0.1,0.2,0.2,0.2c0.1,0.1,0.2,0.2,0.2,0.2c0.1,0.1,0.3,0.2,0.4,0.2c0.1,0.1,0.3,0.1,0.4,0.2
		c0.1,0,0.2,0,0.2,0c0.1,0,0.2,0,0.2,0c0.2,0,0.4,0,0.6,0c0.2,0,0.4-0.1,0.6-0.1c0.3-0.1,0.6-0.3,0.8-0.5c0.1-0.1,0.2-0.2,0.3-0.4
		c0.1-0.1,0.2-0.3,0.2-0.4c0.2-0.3,0.2-0.7,0.2-1.1c0-0.3-0.1-0.7-0.2-1c-0.1-0.3-0.3-0.6-0.5-0.8c-0.1,0-0.1-0.1-0.2-0.1
		c-0.1-0.1-0.1-0.1-0.2-0.2c-0.2-0.1-0.4-0.2-0.5-0.3c-0.2-0.1-0.4-0.1-0.6-0.2c-0.1,0-0.3,0-0.4,0c-0.1,0-0.3,0-0.4,0
		c0,0-0.1,0-0.1,0c-0.1,0.1-0.3,0.1-0.4,0.2c-0.1,0.1-0.3,0.2-0.4,0.3c-0.5,0.3-0.8,0.8-0.9,1.4c-0.1,0.2-0.1,0.5-0.1,0.8
		c0,0.1,0,0.2,0,0.3C128.3,25.2,128.3,25.3,128.3,25.4z"/>
	<path class="st0" d="M57.7,22.1h-0.7h-0.8c-0.1,0-0.1,0-0.1,0.1v0.4c0,0.1,0,0.3,0,0.4c0,0.2,0,0.3,0,0.5c0,0.2,0,0.3,0,0.5v0.4
		c0,0.1,0,0.1,0.1,0.1h0.1h0.5c0.1,0,0.3,0,0.4,0c0.1,0,0.3,0,0.4,0c0.2,0,0.4-0.1,0.6-0.3c0.2-0.2,0.3-0.4,0.3-0.5
		c0-0.1,0-0.1,0-0.2c0-0.1,0-0.1,0-0.2c0-0.4-0.1-0.7-0.4-1C58.1,22.1,57.9,22.1,57.7,22.1z"/>
	<path class="st0" d="M41.1,17.7c-0.2-0.1-0.3-0.2-0.6-0.3h-0.3h-2.5c-0.1,0-0.2,0-0.2,0.1v1.8V21c0,0.1,0,0.2,0.1,0.2h1.6h0.4
		c0.1,0,0.3,0,0.5-0.1c0.2,0,0.4-0.1,0.6-0.2c0.2-0.1,0.3-0.2,0.5-0.4c0.1-0.1,0.2-0.3,0.2-0.4c0-0.1,0.1-0.3,0.1-0.4
		c0.1-0.5,0.1-1-0.1-1.5C41.4,18,41.3,17.8,41.1,17.7z"/>
	<path class="st0" d="M0,0v43h147.1V0H0z M125.9,24.5c0-0.2,0-0.4,0.1-0.6c0.1-0.3,0.1-0.5,0.2-0.7c0.1-0.2,0.2-0.5,0.3-0.7
		c0.1-0.1,0.1-0.2,0.2-0.3c0.1-0.1,0.1-0.2,0.2-0.3c0.2-0.3,0.5-0.6,0.8-0.8c0.2-0.2,0.5-0.4,0.8-0.6c0.1-0.1,0.2-0.1,0.3-0.1
		c0.1,0,0.2-0.1,0.3-0.1c0,0,0.1-0.1,0.2-0.1c0.1-0.1,0.3-0.1,0.4-0.1c0.1,0,0.3,0,0.4-0.1c0.1,0,0.2,0,0.3,0c0.1,0,0.2,0,0.3,0
		c0.2,0,0.4,0,0.5,0c0.2,0,0.4,0,0.5,0.1c0.1,0,0.1,0,0.2,0c0.1,0,0.1,0,0.2,0c0.4,0.1,0.7,0.3,1,0.5c0.1,0.1,0.2,0.1,0.3,0.2
		c0.1,0.1,0.2,0.1,0.3,0.2c0.3,0.2,0.5,0.4,0.7,0.6c0.1,0.1,0.2,0.2,0.2,0.4c0.2,0.2,0.3,0.5,0.4,0.7c0.1,0.2,0.2,0.3,0.2,0.5
		c0.1,0.2,0.1,0.3,0.2,0.5c0,0.1,0,0.2,0,0.2c0,0.1,0,0.2,0,0.3c0,0.1,0,0.2,0,0.3c0,0.1,0,0.2,0,0.3c0,0.3,0,0.6-0.1,0.8
		c-0.1,0.3-0.1,0.5-0.2,0.8c-0.1,0.2-0.2,0.4-0.2,0.6c-0.1,0.2-0.2,0.4-0.3,0.6c-0.2,0.3-0.4,0.5-0.6,0.7c-0.2,0.2-0.4,0.4-0.7,0.6
		c-0.4,0.3-0.8,0.5-1.2,0.6c-0.2,0-0.3,0.1-0.4,0.1c-0.1,0-0.3,0.1-0.4,0.1c-0.1,0-0.2,0-0.4,0h-0.3c-0.2,0-0.3,0-0.5,0
		c-0.2,0-0.3,0-0.4-0.1c-0.5-0.1-1-0.3-1.4-0.6c-0.1-0.1-0.3-0.2-0.4-0.3c-0.1-0.1-0.2-0.2-0.4-0.3c-0.3-0.2-0.5-0.5-0.7-0.7
		c-0.1-0.1-0.2-0.3-0.3-0.5c-0.1-0.1-0.1-0.2-0.1-0.3c0-0.1-0.1-0.2-0.1-0.3c0,0-0.1-0.1-0.1-0.1c0,0,0-0.1,0-0.1c0-0.1,0-0.1,0-0.1
		c-0.1-0.3-0.2-0.6-0.2-1C125.9,25,125.9,24.7,125.9,24.5z M64.8,18.9c0.3-0.6,0.6-1.2,1-1.9c0.1-0.1,0.2-0.2,0.2-0.2
		c0,0,0.1,0,0.3,0c0.1,0,0.3,0,0.4,0c0.1,0,0.3,0,0.5,0h0.4h0.1c0.1,0,0.2,0,0.2,0.1c0,0.1,0,0.1-0.1,0.2c0,0.1-0.1,0.1-0.1,0.1
		c0,0-0.1,0.1-0.1,0.1c-0.1,0.1-0.1,0.1-0.2,0.2c-0.1,0.1-0.1,0.1-0.2,0.2c-0.2,0.2-0.4,0.5-0.6,0.7c-0.2,0.2-0.4,0.4-0.6,0.7
		c-0.1,0.1-0.1,0.1-0.2,0.1h-0.4c-0.1,0-0.2,0-0.4,0c-0.1,0-0.1,0-0.1,0c0,0-0.1,0-0.1,0C64.8,19.1,64.7,19,64.8,18.9z M6.3,27.3
		c-0.3,0-0.5-0.2-0.5-0.5V8.4v0l0,0c0-0.1,0-0.1,0-0.2C5.9,8.1,6,8,6.1,7.9c0.1,0,0.1,0,0.2,0h0h18.4c0.3,0,0.5,0.2,0.5,0.5
		c0,0.3-0.2,0.5-0.5,0.5h-18v18C6.7,27.1,6.5,27.3,6.3,27.3z M22.2,26.9v0.9c0,0.2,0,0.4,0,0.7c0,0.2,0,0.4,0,0.7
		c0,0.2-0.1,0.3-0.3,0.3h-0.5c-0.2,0-0.3,0-0.5,0h-1.7c-0.3,0-0.6,0.1-0.9,0c-0.3,0-0.6,0-0.9,0h-1.8c-0.2,0-0.4,0.1-0.6,0
		c-0.2,0-0.4,0-0.6,0c-0.2,0-0.4,0-0.7,0h-0.7c-0.1,0-0.2,0-0.2,0h-0.3c-0.1,0-0.1,0-0.2-0.1c-0.1-0.1-0.1-0.2-0.2-0.3
		c-0.1-0.1-0.1-0.2-0.1-0.4V28c0-0.3,0-0.6,0-1c0-0.3,0-0.7,0-1c0-0.5,0-0.9,0-1.4c0-0.5,0-0.9,0-1.4v-2.9c0-0.3,0-0.6,0-0.9
		c0-0.3,0-0.6,0-0.9c0-0.2,0-0.3,0-0.5c0-0.2,0-0.4,0-0.6c0-0.2,0-0.3,0-0.6c0-0.2,0-0.4,0-0.6v-1.5c0-0.1,0.1-0.2,0.2-0.3
		c0.2-0.1,0.4-0.2,0.6-0.2c0.1,0,0.1,0,0.2,0c0.1,0.1,0.2,0.1,0.4,0.1s0.2,0,0.4,0h3.6h2.9h0.6c0.2,0,0.4,0,0.6,0h0.2
		c0.2,0,0.3,0.1,0.3,0.3v0.2v2.1c0,0.1,0,0.2,0,0.3c0,0.1-0.1,0.1-0.2,0.2c-0.2,0.1-0.3,0.2-0.5,0.2c-0.1,0-0.2,0-0.2,0
		c-0.1,0-0.2,0-0.2,0H19c-0.3,0-0.6,0-0.9,0c-0.3,0-0.6,0-0.9,0h-0.5h-0.3c-0.2,0-0.4,0.1-0.5,0.1c0,0.1-0.1,0.2,0,0.2
		c0,0.1,0,0.2,0,0.2v0.9c0,0.3,0,0.6-0.1,0.9c0,0.2,0,0.3,0,0.4c0,0,0,0,0.1,0.1c0,0,0,0,0.1,0c0.3,0,0.5,0,0.8,0c0.3,0,0.5,0,0.8,0
		h1c0.3,0,0.6,0,1,0c0.2,0,0.4,0,0.6,0c0.2,0,0.4,0,0.6,0c0.3,0,0.5,0.1,0.5,0.4c0,0.2,0,0.4,0,0.6c0,0.2,0,0.4,0,0.6
		c0,0.2-0.1,0.3-0.1,0.5v0.5V23c0,0.3-0.1,0.4-0.4,0.5h-1h-1.1c-0.4,0-0.8,0-1.2,0c-0.3,0-0.5,0-0.8,0H16c-0.1,0-0.1,0-0.1,0.1
		c0,0.2,0,0.4,0,0.6c0,0.2,0,0.4,0,0.6c0,0.1,0,0.3,0,0.4c0,0.1,0,0.3,0,0.5v0.4c0,0.1,0,0.1,0.1,0.1h1.9H19h2.2c0.1,0,0.2,0,0.4,0
		h0.4c0.2,0,0.4,0.1,0.4,0.3V26.9z M29.4,28.4v0.7v0.3c0,0.1-0.1,0.1-0.2,0.2c0,0-0.1,0-0.1,0c0,0-0.1,0-0.1,0c-0.2,0-0.4,0-0.6,0
		c-0.2,0-0.4,0-0.6,0c-0.2,0-0.3,0-0.5,0c-0.2,0-0.3,0-0.5,0c-0.1,0-0.2,0-0.3,0c-0.1,0-0.2,0-0.3,0h-0.4c-0.2,0-0.5,0-0.7,0
		c-0.2,0-0.4,0-0.7,0c-0.1,0-0.2,0-0.2,0c-0.1,0-0.2,0-0.2,0c-0.1,0-0.2,0-0.2-0.1c0-0.1,0-0.2,0-0.2v-0.5v-1.2v-0.2
		c0-0.2,0-0.4,0-0.6c0-0.2,0-0.4,0-0.6v-1.1v-1.1v-2.8v-0.5c0-0.1,0-0.2,0.1-0.2c0,0,0.1,0,0.1,0c0,0,0.1,0,0.1,0h1.4h0.2
		c0.1,0,0.1,0,0.2,0c0.1,0,0.1,0,0.1,0.1c0,0.2,0,0.3,0,0.4c0,0.1,0,0.3,0,0.4v2.5c0,0.3,0,0.7,0,1v1v1.6c0,0.1,0,0.2,0,0.2
		c0,0,0.1,0,0.3,0c0.3,0,0.7,0,1,0h1h0.8c0,0,0,0,0.1,0c0,0,0,0,0.1,0c0.1,0,0.1,0,0.1,0.1c0,0,0,0.1,0,0.2V28.4z M45.5,20.1
		c0,0.1,0,0.2,0,0.2c0,0.1,0,0.2,0,0.2c-0.1,0.2-0.2,0.4-0.2,0.6c-0.1,0.2-0.2,0.4-0.3,0.6c-0.1,0.2-0.2,0.3-0.3,0.5
		c-0.1,0.1-0.2,0.3-0.4,0.4c-0.2,0.2-0.5,0.4-0.7,0.6c-0.2,0.2-0.5,0.3-0.8,0.5c-0.4,0.2-0.8,0.3-1.2,0.3h-0.1
		c-0.2,0.1-0.5,0.1-0.7,0.1c-0.3,0-0.5,0-0.7,0c-0.3,0-0.7,0-1,0c-0.3,0-0.7,0-1,0h-0.1c0,0-0.1,0-0.1,0l0,0v0c0,0,0,0.1,0,0.1
		c0,0,0,0.1,0,0.1c0,0.2,0,0.5,0,0.7c0,0.2,0,0.5,0,0.7c0,0.2,0.1,0.3,0,0.5c0,0.2,0,0.3,0,0.5v0.5v0.4c0,0.1,0,0.3,0,0.4v0.5
		c0,0.2,0,0.3-0.1,0.5c0,0.1-0.1,0.2-0.3,0.2c-0.3,0-0.6,0-0.9,0c-0.3,0-0.6,0-0.9,0h-0.6c-0.2,0-0.4,0-0.5,0c-0.1,0-0.2,0-0.3-0.1
		c0,0-0.1,0-0.1-0.1c0-0.1,0.1-0.2,0-0.3c0-0.1,0-0.2,0-0.3V28v-2.4v-3.2c0-0.7,0-1.4,0-2.2c0-0.7,0-1.4,0-2.2v-1.2
		c0-0.2,0-0.4,0-0.6c0-0.2,0-0.4,0-0.6c0-0.2,0-0.4,0-0.6c0-0.2,0-0.4,0-0.6c0-0.2,0.1-0.3,0.3-0.3c0.1,0,0.2,0,0.3,0h0.3h2.6v-0.1
		h1.5c0.5,0,1,0,1.5,0c0.2,0,0.3,0,0.4,0c0.1,0,0.3,0,0.4,0c0.2,0.1,0.5,0.1,0.7,0.2c0.2,0,0.5,0.1,0.8,0.2c0.7,0.2,1.2,0.6,1.6,1.1
		c0.2,0.2,0.3,0.4,0.5,0.6c0.2,0.2,0.3,0.4,0.4,0.7c0,0.2,0.1,0.3,0.2,0.4c0.1,0.1,0.1,0.3,0.2,0.4c0.1,0.4,0.1,0.7,0.1,1.1
		C45.6,19.4,45.6,19.7,45.5,20.1z M52.7,27.9v0.5c0,0.1,0,0.3,0,0.4c0,0.1,0,0.3,0,0.4c0,0.1-0.1,0.2-0.2,0.2h-0.3
		c-0.1,0-0.2,0-0.3,0h-1.1c-0.2,0-0.4,0-0.6,0c-0.2,0-0.4,0-0.6,0h-1.1c-0.1,0-0.3,0-0.4,0c-0.1,0-0.3,0-0.4,0c-0.1,0-0.3,0-0.4,0
		h-0.4c-0.1,0-0.1,0-0.2,0h-0.2c0,0-0.1,0-0.1-0.1c0-0.1-0.1-0.1-0.1-0.2c0-0.1,0-0.1,0-0.2v-0.5c0-0.2,0-0.4,0-0.6
		c0-0.2,0-0.4,0-0.6c0-0.3,0-0.6,0-0.9c0-0.3,0-0.6,0-0.9v-1.8c0-0.2,0-0.4,0-0.5c0-0.2,0-0.4,0-0.6c0-0.1,0-0.2,0-0.3
		c0-0.1,0-0.2,0-0.4c0-0.1,0-0.2,0-0.3c0-0.1,0-0.2,0-0.4v-0.9c0-0.1,0-0.1,0.1-0.2c0.1-0.1,0.2-0.1,0.3-0.2c0,0,0.1,0,0.1,0
		c0.1,0,0.2,0.1,0.2,0c0.1,0,0.2,0,0.2,0h2.2h1.8h0.4c0.1,0,0.3,0,0.4,0h0.1c0.1,0,0.2,0.1,0.2,0.2v0.2v1.3c0,0.1,0,0.1,0,0.2
		c0,0.1,0,0.1-0.1,0.1c-0.1,0.1-0.2,0.1-0.3,0.1c-0.1,0-0.1,0-0.2,0c-0.1,0-0.1,0-0.2,0h-1.1c-0.2,0-0.4,0-0.5,0c-0.2,0-0.4,0-0.5,0
		h-0.3h-0.2c-0.1,0-0.2,0-0.3,0c0,0.1,0,0.1,0,0.1c0,0,0,0.1,0,0.1V23c0,0.2,0,0.4,0,0.6c0,0.1,0,0.2,0,0.3c0,0,0,0,0.1,0
		c0,0,0,0,0,0c0.2,0,0.3,0,0.5,0c0.2,0,0.3,0,0.5,0h0.6c0.2,0,0.4,0,0.6,0c0.1,0,0.3,0,0.4,0c0.1,0,0.3,0,0.4,0
		c0.2,0,0.3,0.1,0.3,0.2c0,0.1,0,0.2,0,0.3c0,0.1,0,0.2,0,0.3c0,0.1,0,0.2,0,0.3v0.3v0.1c0,0.2-0.1,0.3-0.3,0.3h-0.6h-0.7
		c-0.2,0-0.5,0-0.7,0c-0.2,0-0.3,0-0.5,0h-0.5c-0.1,0-0.1,0-0.1,0.1c0,0.1,0,0.2,0,0.4c0,0.1,0,0.2,0,0.4c0,0.1,0,0.2,0,0.3
		c0,0.1,0,0.2,0,0.3v0.2c0,0.1,0,0.1,0.1,0.1H50h0.7H52c0.1,0,0.2,0,0.2,0h0.2c0.1,0,0.2,0.1,0.2,0.2V27.9z M61,29.5
		c-0.1,0-0.1,0-0.3,0h-1.1h-1c-0.2,0-0.3-0.1-0.4-0.2c-0.2-0.3-0.5-0.5-0.7-0.8c-0.2-0.3-0.4-0.6-0.6-0.9c0-0.1-0.1-0.1-0.1-0.2
		c0-0.1-0.1-0.1-0.1-0.2c-0.1-0.2-0.2-0.5-0.3-0.8c0-0.1-0.1-0.1-0.1-0.1c0,0-0.1,0-0.1,0.1v1.2c0,0.2,0,0.4,0,0.6
		c0,0.2,0,0.4,0,0.6v0.5c0,0.1-0.1,0.2-0.2,0.2c0,0-0.1,0-0.1,0c0,0-0.1,0-0.1,0c-0.2,0-0.4,0-0.7,0c-0.2,0-0.5,0-0.7,0h-0.3
		c-0.1,0-0.2-0.1-0.2-0.2v-0.5c0-0.2,0-0.3,0-0.5c0-0.2,0-0.3,0-0.5c0-0.1,0-0.1,0-0.2c0,0,0-0.1,0-0.2v-1.8v-1v-1.9v-1.1v-1.4
		c0-0.2,0.1-0.3,0.2-0.3c0.1,0,0.3,0,0.4,0c0.1,0,0.3,0,0.4,0c0.1,0,0.3,0,0.4,0c0.1,0,0.3,0,0.4,0c0.1,0,0.3,0,0.4,0
		c0.1,0,0.2,0,0.4,0c0.3,0,0.5,0,0.8,0c0.3,0,0.6,0,0.8,0c0.1,0,0.1,0,0.2,0c0.1,0,0.1,0,0.2,0c0.1,0,0.2,0,0.4,0.1
		c0.3,0.1,0.5,0.2,0.7,0.3c0.1,0.1,0.2,0.1,0.3,0.2c0.1,0.1,0.2,0.2,0.3,0.3c0.1,0.1,0.2,0.3,0.3,0.4c0.1,0.1,0.2,0.3,0.2,0.5
		c0.1,0.4,0.2,0.7,0.2,1.1c0,0.3,0,0.7-0.1,1c-0.1,0.3-0.2,0.5-0.3,0.7c-0.1,0.2-0.3,0.5-0.4,0.7c-0.1,0.1-0.2,0.2-0.4,0.3
		c-0.1,0.1-0.3,0.2-0.4,0.3c-0.2,0.1-0.3,0.2-0.5,0.2c-0.1,0-0.1,0.1-0.1,0.1c0.2,0.4,0.4,0.8,0.6,1.1c0.1,0.1,0.2,0.3,0.3,0.4
		c0.1,0.1,0.2,0.3,0.3,0.4c0.1,0.1,0.2,0.1,0.2,0.2c0.1,0.1,0.1,0.1,0.2,0.2c0.1,0.1,0.2,0.2,0.2,0.2c0.1,0.1,0.2,0.2,0.2,0.3
		C61.2,29.4,61.1,29.5,61,29.5z M69.3,22.3c0,0.3,0,0.7,0,1v0.1v1.2v1.6c0,0.2,0,0.3,0,0.5c0,0.1,0,0.3-0.1,0.4
		c-0.1,0.4-0.3,0.8-0.6,1.2c-0.3,0.3-0.6,0.6-0.9,0.8c-0.2,0.1-0.4,0.2-0.6,0.3c-0.2,0.1-0.4,0.1-0.6,0.2c-0.1,0-0.1,0-0.2,0
		c-0.1,0-0.1,0-0.2,0c-0.2,0-0.3,0-0.5,0c-0.2,0-0.3,0-0.5,0c0,0,0,0-0.1,0c-0.2,0-0.3,0-0.4-0.1c-0.1,0-0.3-0.1-0.4-0.1
		c-0.2-0.1-0.3-0.1-0.5-0.2c-0.2-0.1-0.3-0.2-0.4-0.3c-0.2-0.2-0.4-0.4-0.6-0.6c-0.2-0.2-0.3-0.5-0.4-0.8c-0.1-0.1-0.1-0.2-0.1-0.4
		c0-0.1-0.1-0.2-0.1-0.4c0-0.2-0.1-0.5-0.1-0.7c0-0.3,0-0.7,0-1c0-0.3,0-0.7,0-1c0-0.1,0-0.3,0-0.4c0-0.1,0-0.3,0-0.4
		c0-0.1,0-0.2,0-0.3c0-0.1,0-0.2,0-0.3c0-0.1,0-0.2,0-0.3c0-0.1,0-0.2,0-0.3c0-0.2,0-0.3,0-0.4c0-0.1,0-0.3,0-0.4c0-0.2,0-0.3,0-0.4
		c0-0.1,0-0.3,0-0.4c0-0.1,0-0.2,0.1-0.2c0.1,0,0.1,0,0.1,0h0.5c0.2,0,0.3,0,0.5,0c0.2,0,0.3,0,0.5,0c0.1,0,0.1,0,0.2,0
		c0,0,0.1,0,0.1,0c0,0,0.1,0,0.1,0c0.2,0,0.2,0.1,0.2,0.2v1.3c0,0.2,0,0.5,0,0.7c0,0.2,0,0.5,0,0.7c0,0.3,0,0.6,0,0.9
		c0,0.3,0,0.6,0,0.9c0,0.2,0,0.4,0,0.5c0,0.2,0,0.4,0,0.5v0.1c0,0.2,0,0.3,0,0.5c0.1,0.1,0.1,0.3,0.2,0.4c0,0.1,0.1,0.1,0.2,0.2
		c0.1,0.1,0.3,0.2,0.4,0.2c0.1,0.1,0.2,0.1,0.4,0.1c0.1,0,0.2,0,0.3,0h0c0.1,0,0.3-0.1,0.4-0.1c0.1,0,0.3-0.1,0.4-0.2
		c0.1-0.1,0.1-0.1,0.1-0.2c0,0,0.1-0.1,0.2-0.2c0.1-0.1,0.2-0.2,0.2-0.4c0-0.1,0.1-0.3,0.1-0.4c0-0.3,0-0.6,0-0.9c0-0.3,0-0.6,0-0.9
		v-1.7c0-0.1,0-0.2,0-0.3c0-0.1,0-0.2,0-0.3c0,0,0-0.1,0-0.1c0-0.1,0-0.3,0-0.4c0-0.1,0-0.3,0-0.4v-0.7c0-0.1,0-0.1,0.1-0.2
		c0.1-0.1,0.1-0.1,0.1-0.1c0.1,0,0.2-0.1,0.2-0.1c0.1,0,0.2,0,0.3,0c0.1,0,0.2,0,0.3,0c0.1,0,0.1,0,0.2,0c0.1,0,0.1,0,0.2,0
		c0.1,0,0.2,0,0.4,0c0.1,0,0.2,0,0.4,0h0.1c0,0,0,0,0.1,0.1c0,0,0,0,0,0c0,0,0,0,0,0.1c0,0.1,0,0.3,0,0.4c0,0.2,0,0.3,0,0.4
		C69.3,21.5,69.3,21.9,69.3,22.3z M85.8,19.7c0,0.5-0.1,1-0.4,1.6c-0.2,0.4-0.4,0.8-0.6,1.1c-0.2,0.3-0.5,0.6-0.9,0.9
		c-0.3,0.2-0.6,0.5-1,0.6c-0.3,0.2-0.7,0.3-1.1,0.3c-0.3,0.1-0.6,0.1-0.9,0.1c-0.3,0-0.6,0-0.9,0c-0.3,0-0.7,0-1,0c-0.3,0-0.7,0-1,0
		c0,0-0.1,0-0.1,0c0,0,0,0-0.1,0c-0.1,0-0.1,0.1-0.1,0.2v1c0,0.3,0,0.7,0,1v1.1c0,0.1,0,0.2,0,0.4c0,0.1,0,0.3,0,0.4v0.5
		c0,0.2,0,0.3-0.1,0.5c0,0.1-0.1,0.2-0.2,0.2c-0.3,0-0.6,0-0.9,0c-0.3,0-0.6,0-0.9,0h-1.2c-0.1,0-0.2,0-0.2,0
		c-0.1,0-0.2-0.1-0.2-0.2V29c0,0,0-0.1,0-0.1c0-0.1,0-0.1,0-0.2v-1.5v-1.9v-2.6v-2c0-0.7,0-1.3,0-2v-1.3v-1.2v-0.4
		c0-0.2,0-0.3,0-0.5v-0.5c0,0,0-0.1,0-0.2c0-0.1,0-0.1,0-0.2c0-0.1,0.1-0.2,0.3-0.3c0,0,0.1,0,0.2,0c0.1,0,0.1,0,0.2,0h2.4h0.5v0h3
		c0.1,0,0.2,0,0.4,0c0.1,0,0.2,0,0.4,0.1c0.2,0,0.5,0.1,0.7,0.1c0.2,0,0.5,0.1,0.7,0.2c0.7,0.2,1.3,0.6,1.7,1.2
		c0.2,0.3,0.4,0.5,0.6,0.8c0.2,0.3,0.3,0.6,0.4,0.9c0.1,0.2,0.1,0.3,0.1,0.5c0,0.2,0.1,0.3,0.1,0.5c0,0.2,0.1,0.4,0.1,0.6V19.7z
		 M93.8,29.5c-0.1,0-0.1,0-0.1,0c0,0-0.1,0-0.1,0h-1.1c-0.2,0-0.3,0-0.5,0c-0.2,0-0.3,0-0.5,0c-0.2,0-0.3-0.1-0.4-0.2
		c-0.1-0.1-0.2-0.2-0.2-0.3c-0.1-0.1-0.1-0.2-0.2-0.3c-0.1-0.1-0.2-0.2-0.3-0.3c-0.1-0.1-0.2-0.2-0.2-0.3c-0.1-0.2-0.2-0.4-0.4-0.6
		c-0.1-0.2-0.2-0.4-0.3-0.6c-0.1-0.2-0.2-0.4-0.2-0.6c0-0.1-0.1-0.1-0.1-0.1l0,0v0.1c0,0.2,0,0.4,0,0.6v0.6c0,0.3,0,0.5,0,0.7
		c0,0.2,0,0.5,0,0.7v0.1c0,0.1,0,0.1-0.1,0.1c-0.1,0-0.1,0-0.1,0c0,0-0.1,0-0.1,0c-0.2,0-0.4,0-0.5,0c-0.2,0-0.3,0-0.5,0H87
		c-0.1,0-0.1,0-0.1,0c-0.1,0-0.1-0.1-0.2-0.2c0-0.1,0-0.1,0-0.2c0-0.1,0-0.2,0-0.2c0-0.2,0-0.4,0-0.5v-0.5c0-0.3,0-0.6,0-0.9
		c0-0.3,0-0.6,0-0.9c0-0.2,0-0.4,0-0.7c0-0.2,0-0.4,0-0.7h0v-1.9c0-0.2,0-0.4,0-0.6c0-0.2,0-0.4,0-0.5v-1.4c0-0.2,0.1-0.3,0.3-0.3
		h0.8h0.4c0.1,0,0.3,0,0.4,0c0.1,0,0.3,0,0.4,0c0.1,0,0.2,0,0.4,0c0.3,0,0.6,0,0.8,0c0.3,0,0.6,0,0.8,0h0.2c0.1,0,0.1,0,0.2,0
		c0.1,0,0.1,0,0.2,0c0.1,0,0.1,0,0.2,0c0.3,0.1,0.5,0.2,0.7,0.3c0.2,0.1,0.4,0.3,0.6,0.5c0.2,0.2,0.4,0.5,0.5,0.9
		c0.2,0.4,0.2,0.8,0.2,1.2c0,0.1,0,0.3,0,0.4c0,0.2,0,0.3-0.1,0.4c-0.1,0.5-0.3,1-0.7,1.4c-0.1,0.1-0.2,0.2-0.3,0.3
		c-0.1,0.1-0.3,0.2-0.4,0.3c-0.1,0-0.1,0.1-0.2,0.1c-0.1,0-0.2,0.1-0.2,0.1c-0.1,0-0.1,0-0.1,0.1c0,0,0,0.1,0,0.1
		c0.1,0.1,0.1,0.3,0.2,0.4c0.1,0.1,0.1,0.2,0.2,0.4c0.2,0.3,0.4,0.6,0.6,0.9c0.2,0.3,0.5,0.5,0.7,0.8c0.1,0.1,0.2,0.2,0.2,0.2
		c0.1,0.1,0.2,0.2,0.2,0.2C94,29.4,94,29.5,93.8,29.5z M97.2,20.9v0.8c0,0.1,0,0.2,0,0.3c0,0.1,0,0.2,0,0.3c0,0.1,0,0.3,0,0.4
		c0,0.1,0,0.3,0,0.4v0.6c0,0.1,0,0.2,0,0.2c0,0.1,0,0.2,0,0.2c0,0.1,0,0.2,0,0.2c0,0.1,0,0.2,0,0.2v0.4v0.7v0.5v0.9v0.4v1v0.7v0.1
		c0,0.1-0.1,0.2-0.2,0.2h-0.3c-0.1,0-0.2,0-0.3,0h-0.6c-0.2,0-0.4,0-0.6,0h-0.1c-0.1,0-0.1-0.1-0.1-0.1v-0.6c0-0.3,0-0.6,0-0.8v-0.8
		v-2.1h0v-1.4v-1c0-0.3,0-0.6,0-1c0-0.1,0-0.3,0-0.4c0-0.1,0-0.3,0-0.4v-0.3v-0.2c0-0.1,0-0.1,0-0.2c0-0.1,0.1-0.1,0.2-0.1
		c0.1,0,0.1,0,0.2,0c0.1,0,0.1,0,0.2,0h1.4h0.1c0.1,0,0.2,0.1,0.2,0.2V20.9z M109.6,29.3c0,0.1-0.1,0.2-0.2,0.2c-0.1,0-0.2,0-0.2,0
		H109h-0.5c-0.2,0-0.3,0-0.5,0c-0.2,0-0.3,0-0.5,0h-0.1c-0.1,0-0.2-0.1-0.2-0.1c0,0,0-0.1-0.1-0.2c0-0.1,0-0.1,0-0.2
		c0,0,0-0.1,0-0.2c0-0.2,0-0.3-0.1-0.5c0-0.2,0-0.3-0.1-0.5c0-0.1,0-0.2,0-0.4c0-0.1,0-0.2-0.1-0.4c0-0.1,0-0.2,0-0.4s0-0.2,0-0.4
		c0-0.1,0-0.2,0-0.3c0-0.1,0-0.2,0-0.3c0-0.2,0-0.3-0.1-0.5c0-0.2,0-0.3-0.1-0.5c0,0,0-0.1,0-0.1c0,0,0,0,0-0.1c0,0,0,0,0-0.1
		c0,0,0,0.1-0.1,0.1c-0.1,0.1-0.1,0.2-0.2,0.3c-0.1,0.3-0.3,0.5-0.4,0.8c-0.1,0.3-0.3,0.5-0.4,0.8c-0.1,0.2-0.2,0.4-0.3,0.6
		c-0.1,0.2-0.2,0.4-0.3,0.6c0,0.1,0,0.1-0.1,0.1c0,0,0,0.1-0.1,0.2c0,0.1-0.1,0.2-0.3,0.2c-0.1,0-0.2,0-0.3,0c-0.1,0-0.2,0-0.2,0
		c-0.2,0-0.3,0-0.5,0c-0.2,0-0.3,0-0.5,0c-0.1,0-0.2-0.1-0.2-0.2c-0.1-0.1-0.1-0.2-0.2-0.3c-0.1-0.1-0.1-0.2-0.2-0.3
		c-0.1-0.2-0.2-0.5-0.4-0.7c-0.1-0.2-0.2-0.5-0.3-0.7c-0.1-0.2-0.2-0.3-0.2-0.5c-0.1-0.2-0.1-0.3-0.2-0.5c0,0,0-0.1,0-0.1
		c0,0,0-0.1-0.1-0.1c0-0.1,0-0.1-0.1-0.2c0-0.1-0.1-0.1-0.1-0.2c0,0.1,0,0.1,0,0.2c0,0.1,0,0.1,0,0.2c0,0.2,0,0.3-0.1,0.5
		c0,0.2,0,0.3-0.1,0.5c0,0.2-0.1,0.4-0.1,0.6c0,0.2-0.1,0.4-0.1,0.6c0,0.3-0.1,0.6-0.1,0.9c0,0.1,0,0.1,0,0.2c0,0.1,0,0.1,0,0.2
		c0,0.1,0,0.3,0,0.4c0,0.1,0,0.3-0.1,0.4c0,0.1,0,0.1,0,0.2c-0.1,0.1-0.1,0.2-0.2,0.2h-0.2h-1.4c-0.1,0-0.1,0-0.2,0
		c-0.1,0-0.1,0-0.2,0c-0.1,0-0.2-0.1-0.2-0.2c0-0.1,0-0.2,0-0.3c0-0.1,0-0.2,0-0.3c0-0.2,0-0.4,0.1-0.6c0-0.2,0-0.4,0.1-0.5
		c0.1-0.4,0.1-0.7,0.1-1.1c0-0.4,0.1-0.7,0.2-1c0-0.2,0-0.3,0-0.5c0-0.2,0-0.3,0-0.5c0-0.2,0.1-0.4,0.1-0.6c0-0.2,0.1-0.4,0.1-0.6
		c0-0.1,0-0.3,0-0.4c0-0.1,0-0.3,0-0.4l0.1-0.9c0-0.1,0-0.3,0-0.4c0-0.1,0-0.3,0.1-0.4c0-0.1,0-0.2,0-0.3c0-0.1,0-0.2,0-0.3
		c0-0.1,0.1-0.1,0.1-0.1c0.2,0,0.3,0,0.5,0c0.2,0,0.3,0,0.5,0h0.2c0.1,0,0.2,0,0.2,0h0.2c0.1,0,0.2,0.1,0.3,0.2
		c0.1,0.2,0.2,0.4,0.3,0.6c0.1,0.2,0.2,0.4,0.3,0.6c0.1,0.2,0.2,0.4,0.3,0.6c0.1,0.2,0.2,0.4,0.3,0.6c0.1,0.3,0.2,0.5,0.4,0.8
		c0.1,0.3,0.2,0.5,0.4,0.8c0.1,0.2,0.2,0.4,0.3,0.6c0.1,0.2,0.2,0.4,0.3,0.6c0,0,0,0.1,0,0.1c0,0,0,0.1,0,0.1l0,0l0,0
		c0-0.1,0.1-0.1,0.1-0.2c0-0.1,0.1-0.1,0.1-0.2c0.1-0.2,0.2-0.4,0.3-0.5c0.1-0.2,0.2-0.4,0.3-0.5c0.1-0.3,0.3-0.7,0.4-1
		c0.2-0.3,0.3-0.7,0.5-1c0.1-0.2,0.2-0.3,0.2-0.5c0.1-0.2,0.2-0.3,0.2-0.5c0-0.1,0.1-0.2,0.1-0.3c0.1-0.1,0.1-0.2,0.1-0.3
		c0.1-0.1,0.1-0.2,0.1-0.3c0.1-0.2,0.2-0.3,0.3-0.3c0,0,0.1,0,0.1,0c0.1,0,0.2,0,0.4,0c0.1,0,0.2,0,0.3,0c0.1,0,0.1,0,0.2,0
		c0.1,0,0.1,0,0.2,0c0.1,0,0.1,0,0.2,0c0.1,0,0.1,0,0.2,0c0.1,0,0.2,0.1,0.2,0.2c0,0.1,0,0.2,0,0.2c0,0.2,0,0.4,0.1,0.5
		c0,0.2,0.1,0.4,0.1,0.5c0,0.2,0,0.3,0,0.5c0,0.2,0,0.3,0.1,0.5c0,0.2,0.1,0.4,0.1,0.6c0,0.2,0.1,0.4,0.1,0.6c0,0.2,0,0.3,0.1,0.4
		c0,0.1,0,0.3,0,0.4c0,0.2,0,0.3,0.1,0.4c0,0.1,0,0.3,0.1,0.4c0,0.1,0,0.2,0,0.2c0,0.1,0,0.2,0,0.2c0,0.2,0.1,0.4,0.1,0.6
		c0,0.2,0.1,0.4,0.1,0.6c0,0.2,0.1,0.4,0.1,0.6c0,0.2,0.1,0.4,0.1,0.6c0,0.1,0,0.3,0,0.4C109.6,29,109.6,29.1,109.6,29.3
		C109.7,29.3,109.7,29.3,109.6,29.3z M117,28.6v0.7c0,0.1-0.1,0.2-0.2,0.2h-0.6h-0.6c-0.2,0-0.4,0-0.6,0c-0.1,0-0.2,0-0.3,0
		c-0.1,0-0.2,0-0.3,0c-0.2,0-0.5,0-0.7,0c-0.2,0-0.5,0-0.7,0c-0.3,0-0.5,0-0.8,0c-0.3,0-0.5,0-0.8,0c-0.1,0-0.1,0-0.1,0
		c0,0-0.1,0-0.1,0c-0.1,0-0.1,0-0.1,0c0,0-0.1-0.1-0.1-0.1c-0.1-0.1-0.1-0.2-0.1-0.3v-0.3c0-0.1,0-0.2,0-0.3c0-0.4,0-0.8,0-1.2
		c0-0.4,0-0.8,0-1.2v-1.4v-2c0-0.1,0-0.2,0-0.3c0-0.1,0-0.2,0-0.4v-0.5v-0.5v-0.3c0-0.1,0-0.2,0-0.3c0-0.1,0-0.2,0.1-0.2
		c0.1-0.1,0.2-0.1,0.2-0.1c0.1,0,0.2,0,0.3,0c0.1,0,0.2,0,0.2,0c0.1,0,0.2,0,0.2,0h1.8h1.3h0.8h0.9h0.1c0.1,0,0.2,0.1,0.2,0.2v0.1
		v1.2v0.1c0,0.1,0,0.2-0.1,0.2c-0.1,0.1-0.2,0.1-0.3,0.1c-0.1,0-0.3,0-0.4,0c-0.1,0-0.3,0-0.4,0h-1.2h-1h-0.1c0,0-0.1,0-0.1,0
		c0,0-0.1,0-0.1,0v0.2c0,0.2,0,0.4,0,0.6v0.6v0.2c0,0.1,0,0.1,0.1,0.1c0.3,0,0.6,0,0.8,0c0.3,0,0.5,0,0.8,0c0.1,0,0.1,0,0.2,0
		c0.1,0,0.2,0,0.2,0c0.1,0,0.3,0,0.4,0c0.1,0,0.3,0,0.4,0h0.1c0.1,0,0.2,0,0.2,0.1c0,0,0,0.1,0.1,0.2c0,0.1,0,0.2,0,0.4
		c0,0.1,0,0.3,0,0.4c0,0.1,0,0.2,0,0.3c0,0.1,0,0.2,0,0.3v0.1c0,0.2-0.1,0.3-0.3,0.3c-0.1,0-0.3,0-0.4,0h-0.4h-1.1
		c-0.2,0-0.3,0-0.5,0c-0.2,0-0.3,0-0.5,0h-0.1c-0.1,0-0.1,0-0.1,0.1c0,0.1,0,0.1,0,0.2c0,0.1,0,0.1,0,0.2v0.8v0.3
		c0,0.1,0,0.1,0.1,0.1h1.1h2.2h0.4c0.1,0,0.2,0.1,0.2,0.2c0,0,0,0.1,0,0.1c0,0,0,0.1,0,0.1C117,28.1,117,28.3,117,28.6z M121.5,28.2
		c-0.1-0.2-0.2-0.4-0.4-0.6c-0.1-0.2-0.2-0.4-0.3-0.6c-0.1-0.2-0.2-0.4-0.2-0.6c0-0.1-0.1-0.1-0.1-0.1l0,0v0.1c0,0.2,0,0.4,0,0.6
		v0.6c0,0.3,0,0.5,0,0.7c0,0.2,0,0.5,0,0.7v0.1c0,0.1,0,0.1-0.1,0.1c-0.1,0-0.1,0-0.1,0c0,0-0.1,0-0.1,0c-0.2,0-0.4,0-0.5,0
		c-0.2,0-0.3,0-0.5,0h-0.5c-0.1,0-0.1,0-0.1,0c-0.1,0-0.1-0.1-0.2-0.2c0-0.1,0-0.1,0-0.2c0-0.1,0-0.2,0-0.2c0-0.2,0-0.4,0-0.5v-0.5
		c0-0.3,0-0.6,0-0.9c0-0.3,0-0.6,0-0.9c0-0.2,0-0.4,0-0.7c0-0.2,0-0.4,0-0.7h0v-1.9c0-0.2,0-0.4,0-0.6c0-0.2,0-0.4,0-0.5v-1.4
		c0-0.2,0.1-0.3,0.2-0.3h0.8h0.4c0.1,0,0.3,0,0.4,0c0.1,0,0.3,0,0.4,0c0.1,0,0.2,0,0.4,0c0.3,0,0.6,0,0.8,0c0.3,0,0.6,0,0.8,0h0.2
		c0.1,0,0.1,0,0.2,0c0.1,0,0.1,0,0.2,0c0.1,0,0.1,0,0.2,0c0.3,0.1,0.5,0.2,0.7,0.3c0.2,0.1,0.4,0.3,0.6,0.5c0.2,0.2,0.4,0.5,0.5,0.9
		c0.2,0.4,0.2,0.8,0.2,1.2c0,0.1,0,0.3,0,0.4c0,0.2,0,0.3-0.1,0.4c-0.1,0.5-0.3,1-0.7,1.4c-0.1,0.1-0.2,0.2-0.3,0.3
		c-0.1,0.1-0.3,0.2-0.4,0.3c-0.1,0-0.1,0.1-0.2,0.1c-0.1,0-0.2,0.1-0.2,0.1c-0.1,0-0.1,0-0.1,0.1c0,0,0,0.1,0,0.1
		c0.1,0.1,0.1,0.3,0.2,0.4c0.1,0.1,0.1,0.2,0.2,0.4c0.2,0.3,0.4,0.6,0.6,0.9c0.2,0.3,0.4,0.5,0.7,0.8c0.1,0.1,0.2,0.2,0.2,0.2
		c0.1,0.1,0.2,0.2,0.2,0.2c0.1,0.1,0.1,0.2-0.1,0.3c-0.1,0-0.1,0-0.1,0c0,0-0.1,0-0.1,0h-1.1c-0.2,0-0.3,0-0.5,0c-0.2,0-0.3,0-0.5,0
		c-0.2,0-0.3-0.1-0.4-0.2c-0.1-0.1-0.2-0.2-0.2-0.3c-0.1-0.1-0.1-0.2-0.2-0.3c-0.1-0.1-0.2-0.2-0.3-0.3
		C121.6,28.4,121.6,28.3,121.5,28.2z M141,35c-0.1,0-0.1,0-0.2,0h-18.4c-0.3,0-0.5-0.2-0.5-0.5c0-0.3,0.2-0.5,0.5-0.5h18v-18
		c0-0.3,0.2-0.5,0.5-0.5c0.3,0,0.5,0.2,0.5,0.5v18.4l0,0C141.3,34.8,141.2,35,141,35z"/>
</g>
</svg>
