<svg xmlns="http://www.w3.org/2000/svg" viewBox="0 0 121.93 60.29"><defs><style>.cls-1{fill:#80a6d8;}.cls-2{fill:#585858;}.cls-3{fill:#0877bc;}.cls-4,.cls-5{fill:none;}.cls-5{stroke:#bd1818;stroke-miterlimit:10;stroke-width:0.03px;}.cls-6{fill:#4ac0f0;}.cls-7{fill:#127abf;}.cls-8{fill:#fff;}</style></defs><g id="Capa_2" data-name="Capa 2"><g id="Capa_1-2" data-name="Capa 1"><rect class="cls-1" x="93.41" width="28.52" height="60.29"/><path class="cls-2" d="M60.94,48.26a.7.7,0,0,1-.1.38.82.82,0,0,1-.32.29,1.68,1.68,0,0,1-.56.19,3.92,3.92,0,0,1-.82.07H58.8a.69.69,0,0,0,0,.2,1.09,1.09,0,0,0,0,.18.62.62,0,0,0,.16.47.64.64,0,0,0,.51.17,2,2,0,0,0,.37,0l.29-.06.2-.07.1,0,0,0a.13.13,0,0,1,0,.06.25.25,0,0,1,0,.08s0,0,0,.08a.36.36,0,0,1,0,.09.18.18,0,0,1,0,.07.37.37,0,0,1-.13.07l-.24.07-.29,0h-.32a1.85,1.85,0,0,1-.5-.06.78.78,0,0,1-.36-.19.8.8,0,0,1-.22-.32,1.53,1.53,0,0,1-.07-.46,3.44,3.44,0,0,1,0-.43,2.42,2.42,0,0,1,.13-.46,2.58,2.58,0,0,1,.22-.44,2.35,2.35,0,0,1,.33-.37,1.63,1.63,0,0,1,.45-.25,1.4,1.4,0,0,1,.56-.1,1.24,1.24,0,0,1,.46.07,1,1,0,0,1,.31.16.6.6,0,0,1,.17.23A.62.62,0,0,1,60.94,48.26Zm-.54,0a.35.35,0,0,0-.13-.26A.65.65,0,0,0,59.9,48a.87.87,0,0,0-.37.07.9.9,0,0,0-.28.18,1.18,1.18,0,0,0-.22.28c-.05.11-.1.22-.14.33h.33a3,3,0,0,0,.56,0,1.08,1.08,0,0,0,.37-.11.44.44,0,0,0,.19-.16A.36.36,0,0,0,60.4,48.3Z"/><path class="cls-2" d="M63.68,47.83s0,.05,0,.09l0,.1,0,.08s0,0-.05,0l-.1,0L63.32,48a.75.75,0,0,0-.18-.07,1,1,0,0,0-.26,0,.66.66,0,0,0-.25,0,.54.54,0,0,0-.18.11.33.33,0,0,0-.11.15.37.37,0,0,0,0,.18.28.28,0,0,0,.08.2.71.71,0,0,0,.22.15,2.24,2.24,0,0,0,.27.13,1.28,1.28,0,0,1,.28.16.63.63,0,0,1,.21.22.56.56,0,0,1,.09.33,1,1,0,0,1-.34.73,1.27,1.27,0,0,1-.4.21,1.79,1.79,0,0,1-.53.07,1.27,1.27,0,0,1-.28,0l-.24-.05-.19-.08-.12-.08s0,0,0,0a.14.14,0,0,1,0-.06.13.13,0,0,1,0-.06.22.22,0,0,1,0-.08.64.64,0,0,0,0-.07l0-.06,0,0s0,0,0,0a.14.14,0,0,1,.09,0l.15.09.22.09a1,1,0,0,0,.32,0,1,1,0,0,0,.31,0,.7.7,0,0,0,.21-.11.45.45,0,0,0,.12-.16.48.48,0,0,0,0-.2.29.29,0,0,0-.08-.21.8.8,0,0,0-.21-.15l-.28-.14a1.17,1.17,0,0,1-.27-.15.63.63,0,0,1-.21-.22.58.58,0,0,1-.09-.33,1,1,0,0,1,.08-.38,1,1,0,0,1,.24-.31,1.18,1.18,0,0,1,.37-.2,1.41,1.41,0,0,1,.47-.07l.24,0,.21,0a.85.85,0,0,1,.17.06.26.26,0,0,1,.1.07A.1.1,0,0,1,63.68,47.83Z"/><path class="cls-2" d="M66.21,47.71v.06a.64.64,0,0,1,0,.07.19.19,0,0,1,0,.07l0,.06a.08.08,0,0,1,0,0l0,0H65.3L65,49.59l0,.15s0,.1,0,.13a.38.38,0,0,0,.07.24.35.35,0,0,0,.23.07h.15l.11,0,.08,0,.06,0,0,0a.08.08,0,0,1,0,.06s0,.06,0,.09,0,.07,0,.1l0,.08s0,.05,0,.06l-.07,0-.12,0-.14,0h-.15a1,1,0,0,1-.32,0,.48.48,0,0,1-.22-.12.46.46,0,0,1-.13-.2.78.78,0,0,1,0-.28s0-.06,0-.09a.28.28,0,0,1,0-.09l0-.1s0-.07,0-.09L64.77,48h-.4a.08.08,0,0,1-.06,0,.15.15,0,0,1,0-.08s0-.07,0-.1l0-.11a.41.41,0,0,1,0-.09.09.09,0,0,1,.07,0h.41l.14-.67,0,0,0,0,.08,0h.26l.08,0,0,0a.06.06,0,0,1,0,0l-.14.67h.74a.06.06,0,0,1,.06,0A.24.24,0,0,1,66.21,47.71Z"/><path class="cls-2" d="M68.82,50.49a.1.1,0,0,1-.07.07.47.47,0,0,1-.19,0h-.11l-.07,0,0,0s0,0,0,0l.1-.53a.61.61,0,0,1-.15.22,1.09,1.09,0,0,1-.26.21,1.29,1.29,0,0,1-.33.17,1.19,1.19,0,0,1-.37.06.92.92,0,0,1-.43-.08.87.87,0,0,1-.27-.23,1,1,0,0,1-.13-.33,1.5,1.5,0,0,1,0-.37,2.88,2.88,0,0,1,0-.39,4.35,4.35,0,0,1,.11-.46,3,3,0,0,1,.2-.45,2.19,2.19,0,0,1,.29-.39,1.41,1.41,0,0,1,.4-.27,1.19,1.19,0,0,1,.51-.11,1.07,1.07,0,0,1,.49.11,1.32,1.32,0,0,1,.36.31l.06-.28a.1.1,0,0,1,.08-.07.44.44,0,0,1,.19,0h.11l.06,0s0,0,0,0v0Zm-.1-2.08a1.11,1.11,0,0,0-.33-.32A.71.71,0,0,0,68,48a.62.62,0,0,0-.31.08,1,1,0,0,0-.25.21,2.2,2.2,0,0,0-.19.3,3.62,3.62,0,0,0-.13.35c0,.11-.05.23-.07.35a1.62,1.62,0,0,0,0,.3,1.55,1.55,0,0,0,0,.22,1.18,1.18,0,0,0,.07.2.38.38,0,0,0,.14.14.38.38,0,0,0,.22.06.81.81,0,0,0,.36-.1,1.15,1.15,0,0,0,.33-.26,1.87,1.87,0,0,0,.27-.4,2,2,0,0,0,.18-.5Zm-.24-1.35,0,0a.07.07,0,0,1-.06,0l-.07,0h-.22l0,0s0,0,0,0a.09.09,0,0,1,0-.06l.49-.72,0-.06.06,0,.1,0H69a.15.15,0,0,1,.08,0s0,0,0,0a.09.09,0,0,1,0,.06Z"/><path class="cls-2" d="M72.8,48.3a1.64,1.64,0,0,1,0,.22l0,.22-.37,1.75a.08.08,0,0,1,0,0l0,0-.09,0H72l-.08,0,0,0a.06.06,0,0,1,0,0l.36-1.74a.57.57,0,0,0,0-.18,1,1,0,0,0,0-.16.57.57,0,0,0-.08-.31.32.32,0,0,0-.28-.12.78.78,0,0,0-.35.1,1.15,1.15,0,0,0-.33.26,1.5,1.5,0,0,0-.28.4,1.68,1.68,0,0,0-.17.49l-.26,1.26,0,0,0,0-.09,0h-.26l-.07,0,0,0v0l.58-2.81a.05.05,0,0,1,0,0s0,0,0,0l.08,0h.22l.07,0a0,0,0,0,1,0,0s0,0,0,0l-.1.53a.86.86,0,0,1,.15-.22,1.88,1.88,0,0,1,.26-.22,1.77,1.77,0,0,1,.34-.16.94.94,0,0,1,.37-.07.9.9,0,0,1,.36.06.74.74,0,0,1,.24.17.7.7,0,0,1,.13.24A1.45,1.45,0,0,1,72.8,48.3Z"/><path class="cls-2" d="M75.93,50.49a.1.1,0,0,1-.07.07.47.47,0,0,1-.19,0h-.11l-.07,0,0,0v0l.11-.53a.61.61,0,0,1-.16.22,1.36,1.36,0,0,1-.25.22,1.53,1.53,0,0,1-.34.16,1.15,1.15,0,0,1-.37.06,1.06,1.06,0,0,1-.33,0,1,1,0,0,1-.23-.13.7.7,0,0,1-.16-.19,1,1,0,0,1-.09-.22,1.89,1.89,0,0,1,0-.23c0-.08,0-.15,0-.21a2.1,2.1,0,0,1,0-.41,2.54,2.54,0,0,1,.31-.89,1.42,1.42,0,0,1,.29-.39,1.22,1.22,0,0,1,.9-.37,1.09,1.09,0,0,1,.26,0l.22.08.18.12.16.15.32-1.59s0,0,0,0l0,0,.09,0h.25l.08,0,0,0s0,0,0,0Zm-.11-2.07a1.21,1.21,0,0,0-.32-.32.7.7,0,0,0-.4-.12.61.61,0,0,0-.3.08.82.82,0,0,0-.25.2,1.53,1.53,0,0,0-.19.3,3.42,3.42,0,0,0-.13.34c0,.12-.06.23-.08.35s0,.22,0,.31a.83.83,0,0,0,.1.46.4.4,0,0,0,.35.17.81.81,0,0,0,.35-.1,1.15,1.15,0,0,0,.33-.26,1.62,1.62,0,0,0,.28-.39,1.64,1.64,0,0,0,.17-.5Z"/><path class="cls-2" d="M79.47,50.49a.08.08,0,0,1-.07.07.47.47,0,0,1-.19,0H79.1l-.06,0,0,0s0,0,0,0l.11-.53a1.08,1.08,0,0,1-.15.22,1.33,1.33,0,0,1-.26.21,1.2,1.2,0,0,1-.34.17,1.15,1.15,0,0,1-.37.06.88.88,0,0,1-.42-.08.69.69,0,0,1-.27-.23.81.81,0,0,1-.14-.33,2.21,2.21,0,0,1,0-.37,1.91,1.91,0,0,1,0-.39,2.78,2.78,0,0,1,.11-.46,2.88,2.88,0,0,1,.19-.45,2.19,2.19,0,0,1,.29-.39,1.56,1.56,0,0,1,.4-.27,1.19,1.19,0,0,1,.51-.11,1.07,1.07,0,0,1,.49.11,1.36,1.36,0,0,1,.37.31l.06-.28a.08.08,0,0,1,.07-.07.44.44,0,0,1,.19,0H80l.07,0a0,0,0,0,1,0,0s0,0,0,0Zm-.1-2.08a1.21,1.21,0,0,0-.32-.32.77.77,0,0,0-.4-.11.65.65,0,0,0-.31.08,1.27,1.27,0,0,0-.25.21,1.49,1.49,0,0,0-.18.3,1.48,1.48,0,0,0-.13.35,2,2,0,0,0-.08.35c0,.11,0,.21,0,.3a1.5,1.5,0,0,0,0,.22.66.66,0,0,0,.06.2.47.47,0,0,0,.14.14.39.39,0,0,0,.23.06.81.81,0,0,0,.35-.1,1.15,1.15,0,0,0,.33-.26,1.91,1.91,0,0,0,.28-.4,2,2,0,0,0,.18-.5Z"/><path class="cls-2" d="M82.84,47.68a.11.11,0,0,1,0,0v.09a.29.29,0,0,1,0,.09.46.46,0,0,1,0,.09.21.21,0,0,1,0,.07.05.05,0,0,1,0,0h-.05s0,0-.07,0l-.08,0h-.12a.51.51,0,0,0-.25.09,1.29,1.29,0,0,0-.28.25,1.87,1.87,0,0,0-.25.39,1.44,1.44,0,0,0-.17.48l-.26,1.25,0,0,0,0-.08,0h-.26l-.08,0,0,0v0l.58-2.81a.05.05,0,0,1,0,0,0,0,0,0,1,0,0l.07,0h.23l.06,0a0,0,0,0,1,0,0s0,0,0,0l-.11.51a1.44,1.44,0,0,1,.18-.25,1,1,0,0,1,.22-.2,1.28,1.28,0,0,1,.25-.15.74.74,0,0,1,.25-.05h.11l.11,0,.08,0,.06,0A.14.14,0,0,1,82.84,47.68Z"/><path class="cls-3" d="M4.84,23.84a2.2,2.2,0,0,1-.06.5,1.69,1.69,0,0,1-.18.52,2,2,0,0,1-.32.47,2.13,2.13,0,0,1-.48.4,2.18,2.18,0,0,1-.66.27,3.25,3.25,0,0,1-.88.11h-.6L1.3,27.88a.35.35,0,0,1-.05.08.23.23,0,0,1-.11.05A.5.5,0,0,1,1,28H.4a.37.37,0,0,1-.17,0A.19.19,0,0,1,.14,28a.11.11,0,0,1,0-.08l1-5a.46.46,0,0,1,.18-.3.48.48,0,0,1,.32-.11H2.91l.41,0,.36.05a1.88,1.88,0,0,1,.49.16,1.22,1.22,0,0,1,.36.27,1,1,0,0,1,.23.37A1.53,1.53,0,0,1,4.84,23.84ZM3.62,24a.58.58,0,0,0-.11-.35.51.51,0,0,0-.31-.21.65.65,0,0,0-.21,0l-.25,0H2.22l-.38,1.89h.53A1.32,1.32,0,0,0,3.12,25a1.25,1.25,0,0,0,.23-.23,1.17,1.17,0,0,0,.15-.27,1.52,1.52,0,0,0,.09-.28A1.41,1.41,0,0,0,3.62,24Z"/><path class="cls-3" d="M9.31,25.35a3.52,3.52,0,0,1-.06.63,2.94,2.94,0,0,1-.19.64,2.4,2.4,0,0,1-.33.58,2.18,2.18,0,0,1-.48.48,2.15,2.15,0,0,1-.64.33,2.57,2.57,0,0,1-.82.12A2.94,2.94,0,0,1,6,28a1.49,1.49,0,0,1-.54-.3,1.23,1.23,0,0,1-.32-.48,1.88,1.88,0,0,1-.11-.65A3.55,3.55,0,0,1,5.11,26a3,3,0,0,1,.19-.63,2.46,2.46,0,0,1,.33-.59,2.18,2.18,0,0,1,.48-.48,2.56,2.56,0,0,1,.64-.32,2.62,2.62,0,0,1,.82-.12,2.52,2.52,0,0,1,.77.1,1.39,1.39,0,0,1,.54.29,1.25,1.25,0,0,1,.33.48A1.91,1.91,0,0,1,9.31,25.35Zm-1.15.07a1,1,0,0,0,0-.32A.55.55,0,0,0,8,24.86a.55.55,0,0,0-.22-.14.82.82,0,0,0-.33,0,.87.87,0,0,0-.4.08,1.34,1.34,0,0,0-.31.22,1.27,1.27,0,0,0-.24.33,2.2,2.2,0,0,0-.17.39,2.13,2.13,0,0,0-.1.42,2.93,2.93,0,0,0,0,.41,1.08,1.08,0,0,0,0,.32.55.55,0,0,0,.12.24.55.55,0,0,0,.22.14.82.82,0,0,0,.33.05.87.87,0,0,0,.4-.08A1,1,0,0,0,7.63,27a1.4,1.4,0,0,0,.24-.33A2.27,2.27,0,0,0,8,26.24a2.13,2.13,0,0,0,.1-.42A2.8,2.8,0,0,0,8.16,25.42Z"/><path class="cls-3" d="M13.23,24a.54.54,0,0,1,0,.11,1.41,1.41,0,0,1,0,.18c0,.07,0,.14,0,.21l-.06.2a.84.84,0,0,1-.07.16.12.12,0,0,1-.09.06l-.08,0-.09,0-.11,0h-.13a.62.62,0,0,0-.32.11,1.71,1.71,0,0,0-.33.29,2.25,2.25,0,0,0-.27.43,2.21,2.21,0,0,0-.18.51l-.35,1.71A.2.2,0,0,1,11,28l-.1.05a.48.48,0,0,1-.18,0h-.54a.35.35,0,0,1-.16,0A.12.12,0,0,1,10,28a.19.19,0,0,1,0-.08l.79-3.82a.12.12,0,0,1,0-.08.19.19,0,0,1,.09-.05l.15,0h.45l.14,0a.1.1,0,0,1,.06.05.19.19,0,0,1,0,.08l-.12.61a1.72,1.72,0,0,1,.24-.34,1.53,1.53,0,0,1,.3-.27,1.14,1.14,0,0,1,.32-.18,1,1,0,0,1,.33-.06h.14l.13,0,.1,0,.07,0A.1.1,0,0,1,13.23,24Z"/><path class="cls-3" d="M16.47,24.1a.45.45,0,0,1,0,.11.78.78,0,0,1,0,.14l0,.16-.06.14-.08.1a.12.12,0,0,1-.09,0h-.86l-.37,1.8s0,.09,0,.15,0,.1,0,.14a.3.3,0,0,0,.09.25.37.37,0,0,0,.26.08h.18l.13,0,.1,0,.07,0a.06.06,0,0,1,.06,0,.18.18,0,0,1,0,.11,1.41,1.41,0,0,1,0,.18,1.17,1.17,0,0,1-.05.2,1.89,1.89,0,0,1-.06.18.62.62,0,0,1-.08.12.31.31,0,0,1-.12.07l-.18.06-.24,0h-.24a1.65,1.65,0,0,1-.47-.05.78.78,0,0,1-.34-.17.66.66,0,0,1-.2-.29,1.16,1.16,0,0,1-.07-.44v-.11s0-.08,0-.13l0-.14,0-.13.38-1.86h-.48a.08.08,0,0,1-.08,0,.22.22,0,0,1,0-.14s0-.11,0-.19a1.06,1.06,0,0,1,0-.23.56.56,0,0,1,.09-.19.15.15,0,0,1,.14-.08h.47l.18-.86a.1.1,0,0,1,0-.07.17.17,0,0,1,.1-.06l.18,0h.53a.53.53,0,0,1,.17,0,.12.12,0,0,1,.08.06.15.15,0,0,1,0,.07l-.18.86h.85c.05,0,.09,0,.1,0A.26.26,0,0,1,16.47,24.1Z"/><path class="cls-3" d="M20.29,27.89c0,.06-.06.1-.14.13a1.79,1.79,0,0,1-.39,0h-.22l-.14,0a.1.1,0,0,1-.07-.05.19.19,0,0,1,0-.08l.12-.62a.88.88,0,0,1-.21.29,1.34,1.34,0,0,1-.34.28,2.56,2.56,0,0,1-.44.21,1.69,1.69,0,0,1-.5.08,1.32,1.32,0,0,1-.59-.12,1,1,0,0,1-.37-.33,1.19,1.19,0,0,1-.2-.46,2.44,2.44,0,0,1-.06-.55,4.27,4.27,0,0,1,.05-.59,4.85,4.85,0,0,1,.16-.63,3.11,3.11,0,0,1,.29-.61,2.35,2.35,0,0,1,.41-.53,1.87,1.87,0,0,1,.55-.36,1.76,1.76,0,0,1,.71-.13,1.38,1.38,0,0,1,.65.15,1.41,1.41,0,0,1,.49.43l.07-.34a.17.17,0,0,1,.14-.13,1.24,1.24,0,0,1,.39,0h.22l.14,0a.1.1,0,0,1,.07.05.11.11,0,0,1,0,.08Zm-.55-2.68a1.18,1.18,0,0,0-.34-.36.81.81,0,0,0-.44-.12.69.69,0,0,0-.34.09,1,1,0,0,0-.27.23,1.55,1.55,0,0,0-.21.33,3.12,3.12,0,0,0-.15.39,3.38,3.38,0,0,0-.09.41,2.77,2.77,0,0,0,0,.39,1.79,1.79,0,0,0,0,.24A.65.65,0,0,0,18,27a.4.4,0,0,0,.15.14.36.36,0,0,0,.22.06.8.8,0,0,0,.4-.12,1.52,1.52,0,0,0,.38-.31,2.11,2.11,0,0,0,.31-.45,2.07,2.07,0,0,0,.2-.56Z"/><path class="cls-3" d="M22.74,27.88a.12.12,0,0,1,0,.08l-.1.05a.42.42,0,0,1-.18,0h-.54a.35.35,0,0,1-.16,0,.16.16,0,0,1-.08-.05.19.19,0,0,1,0-.08l1.16-5.63a.3.3,0,0,1,0-.08l.11-.06.17,0,.28,0,.26,0,.17,0a.22.22,0,0,1,.07.06.11.11,0,0,1,0,.08Z"/><path class="cls-3" d="M30,27.89a.2.2,0,0,1-.14.13,1.79,1.79,0,0,1-.39,0h-.23l-.14,0a.1.1,0,0,1-.06-.05.08.08,0,0,1,0-.08l.12-.62a1.32,1.32,0,0,1-.21.29,1.6,1.6,0,0,1-.35.28,1.74,1.74,0,0,1-.94.29,1.51,1.51,0,0,1-.44-.06,1.38,1.38,0,0,1-.32-.17,1.23,1.23,0,0,1-.36-.57,1.77,1.77,0,0,1-.08-.33c0-.12,0-.23,0-.34a4.28,4.28,0,0,1,.05-.6,3.68,3.68,0,0,1,.17-.63,3.37,3.37,0,0,1,.28-.61,2.33,2.33,0,0,1,.42-.51,1.87,1.87,0,0,1,.55-.36,1.75,1.75,0,0,1,.7-.13,1.84,1.84,0,0,1,.33,0l.29.1a1.14,1.14,0,0,1,.23.15,1.53,1.53,0,0,1,.18.18l.42-2a.16.16,0,0,1,0-.07.17.17,0,0,1,.1-.06l.18,0h.54a.53.53,0,0,1,.16,0,.09.09,0,0,1,.07.06.06.06,0,0,1,0,.07Zm-.56-2.68a1.08,1.08,0,0,0-.34-.36.77.77,0,0,0-.43-.12.67.67,0,0,0-.34.09.93.93,0,0,0-.27.22,1.33,1.33,0,0,0-.21.33,2.26,2.26,0,0,0-.15.39,3,3,0,0,0-.09.41,2.87,2.87,0,0,0,0,.39.82.82,0,0,0,.12.49.38.38,0,0,0,.34.17.77.77,0,0,0,.4-.12,1.52,1.52,0,0,0,.38-.3,2.11,2.11,0,0,0,.31-.45,2.2,2.2,0,0,0,.2-.56Z"/><path class="cls-3" d="M35.46,24.9a1.16,1.16,0,0,1-.14.56,1.31,1.31,0,0,1-.45.42,2.39,2.39,0,0,1-.77.27,5.13,5.13,0,0,1-1.11.1h-.41a3.76,3.76,0,0,0,0,.37.68.68,0,0,0,.18.52.86.86,0,0,0,.6.18,3.93,3.93,0,0,0,.52,0l.41-.09.29-.09a.49.49,0,0,1,.17,0,.08.08,0,0,1,.07,0,.12.12,0,0,1,0,.09,1.11,1.11,0,0,1,0,.17,1.16,1.16,0,0,1,0,.18.55.55,0,0,1-.06.18.36.36,0,0,1-.08.12.46.46,0,0,1-.2.1,2,2,0,0,1-.34.1l-.44.07a4.36,4.36,0,0,1-.51,0,2.73,2.73,0,0,1-.74-.09,1.46,1.46,0,0,1-.53-.26,1.1,1.1,0,0,1-.31-.45,1.56,1.56,0,0,1-.11-.64,4.69,4.69,0,0,1,0-.62,3.58,3.58,0,0,1,.18-.64,3.21,3.21,0,0,1,.32-.61,2.33,2.33,0,0,1,.47-.52A2.63,2.63,0,0,1,33.1,24a2.7,2.7,0,0,1,1.52,0,1.38,1.38,0,0,1,.47.24,1,1,0,0,1,.28.35A.93.93,0,0,1,35.46,24.9ZM34.37,25a.35.35,0,0,0-.14-.28.6.6,0,0,0-.4-.12,1,1,0,0,0-.4.08,1,1,0,0,0-.31.21,1.16,1.16,0,0,0-.22.31,1.61,1.61,0,0,0-.16.38h.37a3.28,3.28,0,0,0,.6,0,1.42,1.42,0,0,0,.38-.12.48.48,0,0,0,.21-.18A.39.39,0,0,0,34.37,25Z"/><path class="cls-3" d="M6.67,33.39a1,1,0,0,1,0,.15,1,1,0,0,1,0,.22L6.57,34a.85.85,0,0,1-.09.24.47.47,0,0,1-.12.18.17.17,0,0,1-.14.07H4.06L2.68,41.28a.29.29,0,0,1-.07.12.45.45,0,0,1-.17.08,1.37,1.37,0,0,1-.27.06l-.43,0-.42,0a1.12,1.12,0,0,1-.26-.06A.2.2,0,0,1,1,41.4a.16.16,0,0,1,0-.12l1.38-6.77H.17A.13.13,0,0,1,0,34.44a.34.34,0,0,1,0-.19.86.86,0,0,1,0-.15l0-.23.06-.26.09-.24a.7.7,0,0,1,.12-.18.19.19,0,0,1,.15-.07H6.51a.13.13,0,0,1,.12.07A.37.37,0,0,1,6.67,33.39Z"/><path class="cls-3" d="M10.78,35.42a1.18,1.18,0,0,1,0,.16c0,.08,0,.17,0,.27s0,.21-.07.32-.06.22-.09.31a.82.82,0,0,1-.11.23.17.17,0,0,1-.14.09.25.25,0,0,1-.12,0l-.13,0-.16-.05-.2,0a.83.83,0,0,0-.48.17,2.47,2.47,0,0,0-.49.44,3.69,3.69,0,0,0-.41.64,3.18,3.18,0,0,0-.26.77L7.54,41.3a.19.19,0,0,1-.07.11.35.35,0,0,1-.15.08,1.46,1.46,0,0,1-.27,0l-.4,0-.4,0a1.09,1.09,0,0,1-.25,0,.23.23,0,0,1-.12-.08.2.2,0,0,1,0-.11l1.18-5.8a.24.24,0,0,1,.06-.11.27.27,0,0,1,.14-.08,1,1,0,0,1,.23-.05h.68l.2.05c.05,0,.08,0,.09.08a.14.14,0,0,1,0,.11l-.18.92a3.17,3.17,0,0,1,.37-.51,2.82,2.82,0,0,1,.44-.41,2.62,2.62,0,0,1,.49-.27,1.47,1.47,0,0,1,.5-.09h.2l.19,0,.16,0,.11.06A.17.17,0,0,1,10.78,35.42Z"/><path class="cls-3" d="M16.49,41.3a.28.28,0,0,1-.21.2,2.12,2.12,0,0,1-.59.06l-.34,0a.88.88,0,0,1-.2,0,.2.2,0,0,1-.11-.08.23.23,0,0,1,0-.12l.19-.93a1.68,1.68,0,0,1-.32.44,2.39,2.39,0,0,1-.52.42,2.86,2.86,0,0,1-.66.31,2.35,2.35,0,0,1-.74.13,2,2,0,0,1-.89-.19,1.48,1.48,0,0,1-.56-.49,2,2,0,0,1-.3-.7,3.7,3.7,0,0,1-.09-.83,5.87,5.87,0,0,1,.08-.89,5.5,5.5,0,0,1,.24-1,5.14,5.14,0,0,1,.43-.92,3.44,3.44,0,0,1,.62-.79,2.93,2.93,0,0,1,.83-.55,2.71,2.71,0,0,1,1.06-.2,2,2,0,0,1,1,.22,2.27,2.27,0,0,1,.74.65l.11-.51a.26.26,0,0,1,.21-.19,2.07,2.07,0,0,1,.59-.06h.33a.81.81,0,0,1,.21.05.16.16,0,0,1,.1.08.14.14,0,0,1,0,.11Zm-.83-4.06a1.66,1.66,0,0,0-.51-.54,1.29,1.29,0,0,0-.65-.17,1,1,0,0,0-.52.13,1.46,1.46,0,0,0-.41.34,2.57,2.57,0,0,0-.31.51,3.8,3.8,0,0,0-.23.59,4.56,4.56,0,0,0-.13.62,4.14,4.14,0,0,0,0,.58,2.13,2.13,0,0,0,0,.37A.76.76,0,0,0,13,40a.5.5,0,0,0,.21.22.59.59,0,0,0,.34.08,1.13,1.13,0,0,0,.59-.17,1.93,1.93,0,0,0,.57-.47,2.83,2.83,0,0,0,.47-.68,3.25,3.25,0,0,0,.3-.84Z"/><path class="cls-3" d="M24.86,36.8a3.4,3.4,0,0,1,0,.45c0,.15,0,.31-.07.47L24,41.3a.24.24,0,0,1-.06.11.42.42,0,0,1-.15.08,1.46,1.46,0,0,1-.27,0l-.41,0-.4,0a1.11,1.11,0,0,1-.24,0,.23.23,0,0,1-.12-.08.14.14,0,0,1,0-.11l.71-3.48a1.67,1.67,0,0,0,.05-.31c0-.11,0-.21,0-.29a.82.82,0,0,0-.13-.48.45.45,0,0,0-.42-.19,1.2,1.2,0,0,0-.57.17,2.58,2.58,0,0,0-.56.46,3.3,3.3,0,0,0-.46.67,2.68,2.68,0,0,0-.29.82l-.54,2.63a.24.24,0,0,1-.06.11.48.48,0,0,1-.16.08,1.46,1.46,0,0,1-.27,0l-.4,0-.4,0a1.09,1.09,0,0,1-.25,0,.17.17,0,0,1-.11-.08.14.14,0,0,1,0-.11l1.19-5.8a.24.24,0,0,1,.06-.11.24.24,0,0,1,.13-.08l.23-.05h.68l.2.05a.16.16,0,0,1,.1.08.2.2,0,0,1,0,.11l-.2,1a3,3,0,0,1,.38-.46,2.45,2.45,0,0,1,.53-.42,2.86,2.86,0,0,1,.66-.31,2.25,2.25,0,0,1,.74-.12,2,2,0,0,1,.78.13,1.38,1.38,0,0,1,.51.36,1.42,1.42,0,0,1,.28.53A2.2,2.2,0,0,1,24.86,36.8Z"/><path class="cls-3" d="M30.88,35.76c0,.05,0,.13,0,.23s0,.2-.07.31a1.69,1.69,0,0,1-.11.27c0,.07-.09.11-.14.11a.48.48,0,0,1-.21-.06l-.28-.14a2.54,2.54,0,0,0-.39-.13,2,2,0,0,0-.52-.06,1.31,1.31,0,0,0-.41.06.86.86,0,0,0-.3.16.88.88,0,0,0-.19.24.68.68,0,0,0-.06.29.44.44,0,0,0,.17.34,2,2,0,0,0,.42.25c.17.08.35.17.55.25a3,3,0,0,1,.54.33,1.58,1.58,0,0,1,.42.47,1.37,1.37,0,0,1,.16.7,2.12,2.12,0,0,1-.19.91,2.07,2.07,0,0,1-.56.73,2.6,2.6,0,0,1-.89.47,3.74,3.74,0,0,1-1.2.18,3.83,3.83,0,0,1-.6-.05,5.2,5.2,0,0,1-.52-.11,1.76,1.76,0,0,1-.39-.15l-.24-.16a.26.26,0,0,1-.07-.11.26.26,0,0,1,0-.14s0-.09,0-.15,0-.13,0-.21a2.25,2.25,0,0,1,.05-.22,1.18,1.18,0,0,1,.07-.2A.56.56,0,0,1,26,40a.12.12,0,0,1,.1-.06.37.37,0,0,1,.2.08,3.22,3.22,0,0,0,.29.17,4,4,0,0,0,.44.18,2.48,2.48,0,0,0,.66.08,1.63,1.63,0,0,0,.47-.06.85.85,0,0,0,.34-.18A.58.58,0,0,0,28.7,40a.78.78,0,0,0,.07-.3.45.45,0,0,0-.17-.37,1.75,1.75,0,0,0-.4-.27l-.54-.25a3.11,3.11,0,0,1-.53-.32,1.55,1.55,0,0,1-.41-.47,1.34,1.34,0,0,1-.16-.7,2.07,2.07,0,0,1,.18-.86,2,2,0,0,1,.52-.69,2.6,2.6,0,0,1,.84-.46,3.42,3.42,0,0,1,1.11-.16,4.63,4.63,0,0,1,.54,0,4.24,4.24,0,0,1,.47.1,2.64,2.64,0,0,1,.37.13.64.64,0,0,1,.22.14A.28.28,0,0,1,30.88,35.76Z"/><path class="cls-3" d="M38.23,37.34a6,6,0,0,1-.08.91,6.58,6.58,0,0,1-.25,1,5.1,5.1,0,0,1-.42.92,3.73,3.73,0,0,1-.62.79,3,3,0,0,1-.83.53,2.56,2.56,0,0,1-1.05.21,2,2,0,0,1-.5-.06,1.81,1.81,0,0,1-.43-.14,2.33,2.33,0,0,1-.35-.22,2.42,2.42,0,0,1-.28-.27l-.53,2.61a.23.23,0,0,1-.06.12.49.49,0,0,1-.15.09,1.46,1.46,0,0,1-.27.05,2.49,2.49,0,0,1-.41,0,2.24,2.24,0,0,1-.4,0,1.11,1.11,0,0,1-.24-.05.31.31,0,0,1-.12-.09.16.16,0,0,1,0-.12l1.66-8.09a.23.23,0,0,1,.2-.19,2.07,2.07,0,0,1,.59-.06H34l.2.05a.19.19,0,0,1,.11.08.2.2,0,0,1,0,.11l-.19.94a1.68,1.68,0,0,1,.32-.44,2,2,0,0,1,.52-.42,2.88,2.88,0,0,1,.66-.32,2.36,2.36,0,0,1,.75-.12,1.82,1.82,0,0,1,.85.17,1.46,1.46,0,0,1,.57.47,1.94,1.94,0,0,1,.31.7A4,4,0,0,1,38.23,37.34Zm-1.72.15a1.78,1.78,0,0,0,0-.41.68.68,0,0,0-.12-.3.51.51,0,0,0-.21-.2.76.76,0,0,0-.32-.06,1.31,1.31,0,0,0-.6.17,2.22,2.22,0,0,0-.56.47,2.89,2.89,0,0,0-.47.69,3,3,0,0,0-.3.84l-.18.88a1.53,1.53,0,0,0,.51.53,1.21,1.21,0,0,0,.66.18,1,1,0,0,0,.5-.13,1.46,1.46,0,0,0,.41-.34,2.6,2.6,0,0,0,.32-.51,4.19,4.19,0,0,0,.22-.59,3.53,3.53,0,0,0,.13-.63A4.27,4.27,0,0,0,36.51,37.49Z"/><path class="cls-3" d="M44.7,41.3a.28.28,0,0,1-.21.2,2.07,2.07,0,0,1-.59.06l-.33,0a.87.87,0,0,1-.21,0,.17.17,0,0,1-.1-.08.16.16,0,0,1,0-.12l.18-.93a1.62,1.62,0,0,1-.31.44,2.39,2.39,0,0,1-.52.42,2.86,2.86,0,0,1-.66.31,2.36,2.36,0,0,1-.75.13,1.91,1.91,0,0,1-.88-.19,1.48,1.48,0,0,1-.56-.49,1.85,1.85,0,0,1-.31-.7,3.7,3.7,0,0,1-.09-.83,5.87,5.87,0,0,1,.08-.89,6.58,6.58,0,0,1,.25-1,5.1,5.1,0,0,1,.42-.92,3.73,3.73,0,0,1,.62-.79,3.08,3.08,0,0,1,.83-.55,2.78,2.78,0,0,1,1.06-.2,2.08,2.08,0,0,1,1,.22,2.27,2.27,0,0,1,.74.65l.11-.51a.23.23,0,0,1,.2-.19,2.12,2.12,0,0,1,.59-.06h.33a.81.81,0,0,1,.21.05s.09,0,.1.08a.14.14,0,0,1,0,.11Zm-.82-4.06a1.8,1.8,0,0,0-.52-.54,1.23,1.23,0,0,0-.65-.17,1,1,0,0,0-.51.13,1.46,1.46,0,0,0-.41.34,2.6,2.6,0,0,0-.32.51,3.77,3.77,0,0,0-.22.59,3.42,3.42,0,0,0-.13.62,4.26,4.26,0,0,0,0,.58,2.13,2.13,0,0,0,0,.37,1,1,0,0,0,.11.31.56.56,0,0,0,.21.22.61.61,0,0,0,.34.08,1.14,1.14,0,0,0,.6-.17,2.23,2.23,0,0,0,.57-.47A3.14,3.14,0,0,0,43.4,39a3.63,3.63,0,0,0,.29-.84Z"/><path class="cls-3" d="M51.63,35.42s0,.08,0,.16,0,.17,0,.27,0,.21-.06.32-.06.22-.09.31a1.24,1.24,0,0,1-.11.23c-.05.06-.09.09-.14.09a.25.25,0,0,1-.12,0l-.13,0-.16-.05-.2,0a.83.83,0,0,0-.48.17,2.47,2.47,0,0,0-.49.44,3.69,3.69,0,0,0-.41.64,3.21,3.21,0,0,0-.27.77l-.53,2.61a.24.24,0,0,1-.06.11.35.35,0,0,1-.15.08,1.46,1.46,0,0,1-.27,0l-.41,0-.4,0a1.11,1.11,0,0,1-.24,0,.23.23,0,0,1-.12-.08.14.14,0,0,1,0-.11l1.18-5.8a.24.24,0,0,1,.06-.11.29.29,0,0,1,.13-.08,1.11,1.11,0,0,1,.24-.05H49a.81.81,0,0,1,.21.05s.08,0,.09.08a.14.14,0,0,1,0,.11l-.18.92a3.11,3.11,0,0,1,.36-.51,2.88,2.88,0,0,1,.45-.41,2.62,2.62,0,0,1,.49-.27,1.41,1.41,0,0,1,.49-.09h.21l.19,0,.16,0,.11.06A.22.22,0,0,1,51.63,35.42Z"/><path class="cls-3" d="M58,36.78a1.69,1.69,0,0,1-.21.84,1.88,1.88,0,0,1-.67.64,3.66,3.66,0,0,1-1.16.41,8,8,0,0,1-1.67.15h-.61c0,.1,0,.19,0,.29s0,.19,0,.27a1,1,0,0,0,.28.79,1.26,1.26,0,0,0,.9.27,4.58,4.58,0,0,0,.78-.06,5.61,5.61,0,0,0,.61-.14,3.88,3.88,0,0,0,.44-.14.86.86,0,0,1,.25-.06.13.13,0,0,1,.11.05.26.26,0,0,1,0,.14,1.14,1.14,0,0,1,0,.25,2.93,2.93,0,0,1,0,.29l-.09.26a1,1,0,0,1-.13.19.91.91,0,0,1-.3.15,3.54,3.54,0,0,1-.51.15,5.62,5.62,0,0,1-.67.1,6.16,6.16,0,0,1-.75.05,4.45,4.45,0,0,1-1.11-.13,2.15,2.15,0,0,1-.8-.4,1.57,1.57,0,0,1-.47-.68,2.6,2.6,0,0,1-.16-1,5.26,5.26,0,0,1,.08-.94,4.48,4.48,0,0,1,.27-1,4.25,4.25,0,0,1,.48-.92,3.36,3.36,0,0,1,2.9-1.51,3.23,3.23,0,0,1,1,.14,1.91,1.91,0,0,1,.71.37A1.39,1.39,0,0,1,58,36.78Zm-1.64.12a.57.57,0,0,0-.2-.43,1,1,0,0,0-.61-.17,1.46,1.46,0,0,0-.6.12,1.55,1.55,0,0,0-.46.31,2.1,2.1,0,0,0-.34.47,3.57,3.57,0,0,0-.23.57h.56a4.52,4.52,0,0,0,.89-.07,1.89,1.89,0,0,0,.58-.18.78.78,0,0,0,.31-.28A.59.59,0,0,0,56.36,36.9Z"/><path class="cls-3" d="M65.21,36.8a3.4,3.4,0,0,1,0,.45c0,.15,0,.31-.07.47l-.74,3.58a.24.24,0,0,1-.06.11.42.42,0,0,1-.15.08,1.46,1.46,0,0,1-.27,0l-.41,0-.4,0a1.11,1.11,0,0,1-.24,0,.23.23,0,0,1-.12-.08.14.14,0,0,1,0-.11l.71-3.48a1.67,1.67,0,0,0,0-.31c0-.11,0-.21,0-.29a.82.82,0,0,0-.13-.48.45.45,0,0,0-.42-.19,1.2,1.2,0,0,0-.57.17,2.36,2.36,0,0,0-.56.46,3.3,3.3,0,0,0-.46.67,2.68,2.68,0,0,0-.29.82l-.54,2.63a.19.19,0,0,1-.07.11.35.35,0,0,1-.15.08,1.46,1.46,0,0,1-.27,0l-.4,0-.4,0a1.09,1.09,0,0,1-.25,0,.17.17,0,0,1-.11-.08.14.14,0,0,1,0-.11L60,35.5a.24.24,0,0,1,.06-.11.24.24,0,0,1,.13-.08l.23-.05h.68l.2.05a.16.16,0,0,1,.1.08.2.2,0,0,1,0,.11l-.2,1a3,3,0,0,1,.38-.46,2.45,2.45,0,0,1,.53-.42,2.86,2.86,0,0,1,.66-.31,2.25,2.25,0,0,1,.74-.12,2,2,0,0,1,.78.13,1.38,1.38,0,0,1,.51.36,1.42,1.42,0,0,1,.28.53A2.61,2.61,0,0,1,65.21,36.8Z"/><path class="cls-3" d="M71.78,35.89a2.24,2.24,0,0,1,0,.34,3.57,3.57,0,0,1-.1.35,1,1,0,0,1-.15.29.27.27,0,0,1-.2.11.31.31,0,0,1-.19-.08l-.23-.17a1.2,1.2,0,0,0-.34-.18,1.34,1.34,0,0,0-.53-.08,1.29,1.29,0,0,0-.62.15,1.57,1.57,0,0,0-.47.38,2.15,2.15,0,0,0-.34.54,5.45,5.45,0,0,0-.34,1.2,4.73,4.73,0,0,0,0,.49,1.23,1.23,0,0,0,.23.8,1,1,0,0,0,.74.27,2,2,0,0,0,.64-.09,1.89,1.89,0,0,0,.45-.21l.33-.2a.45.45,0,0,1,.25-.09.11.11,0,0,1,.09,0,.4.4,0,0,1,0,.17c0,.08,0,.17,0,.28s0,.22-.07.33-.07.22-.1.32a.66.66,0,0,1-.15.23,1.64,1.64,0,0,1-.28.19,3.21,3.21,0,0,1-.45.19,3.86,3.86,0,0,1-.54.14,4.1,4.1,0,0,1-.62,0,2.31,2.31,0,0,1-1.69-.56,2.24,2.24,0,0,1-.57-1.66,5.73,5.73,0,0,1,.08-.87,4.76,4.76,0,0,1,.25-1,4.93,4.93,0,0,1,.44-.93,3.65,3.65,0,0,1,.68-.79,3.12,3.12,0,0,1,.92-.55,3.23,3.23,0,0,1,1.21-.21,4.21,4.21,0,0,1,.51,0,3,3,0,0,1,.47.11,2.16,2.16,0,0,1,.37.16,1.57,1.57,0,0,1,.25.16.53.53,0,0,1,.1.14A.52.52,0,0,1,71.78,35.89Z"/><path class="cls-3" d="M74,41.3a.24.24,0,0,1-.06.11.35.35,0,0,1-.15.08,1.46,1.46,0,0,1-.27,0l-.41,0-.4,0a1.11,1.11,0,0,1-.24,0,.23.23,0,0,1-.12-.08.14.14,0,0,1,0-.11l1.17-5.78a.24.24,0,0,1,.06-.11.48.48,0,0,1,.16-.09,1.33,1.33,0,0,1,.26,0,2.49,2.49,0,0,1,.41,0,2.3,2.3,0,0,1,.4,0,1.09,1.09,0,0,1,.25,0c.06,0,.1,0,.11.09a.2.2,0,0,1,0,.11Zm1.71-7.74a1.83,1.83,0,0,1-.12.41.92.92,0,0,1-.21.26.71.71,0,0,1-.33.14,2.14,2.14,0,0,1-.48.05,1.87,1.87,0,0,1-.45-.05.44.44,0,0,1-.27-.14.43.43,0,0,1-.1-.26,1.26,1.26,0,0,1,0-.41,1.34,1.34,0,0,1,.13-.4.75.75,0,0,1,.21-.26.79.79,0,0,1,.32-.15,2.14,2.14,0,0,1,.48,0,1.89,1.89,0,0,1,.46,0,.51.51,0,0,1,.26.15.46.46,0,0,1,.1.26A1.54,1.54,0,0,1,75.66,33.56Z"/><path class="cls-3" d="M81.46,41.3a.28.28,0,0,1-.21.2,2.12,2.12,0,0,1-.59.06l-.34,0a.88.88,0,0,1-.2,0,.2.2,0,0,1-.11-.08.23.23,0,0,1,0-.12l.19-.93a1.68,1.68,0,0,1-.32.44,2.39,2.39,0,0,1-.52.42,2.86,2.86,0,0,1-.66.31,2.35,2.35,0,0,1-.74.13,2,2,0,0,1-.89-.19A1.48,1.48,0,0,1,76.5,41a2,2,0,0,1-.3-.7,3.7,3.7,0,0,1-.09-.83,5.87,5.87,0,0,1,.08-.89,5.5,5.5,0,0,1,.24-1,5.14,5.14,0,0,1,.43-.92,3.44,3.44,0,0,1,.62-.79,2.93,2.93,0,0,1,.83-.55,2.71,2.71,0,0,1,1.06-.2,2,2,0,0,1,1,.22,2.27,2.27,0,0,1,.74.65l.11-.51a.26.26,0,0,1,.21-.19,2.07,2.07,0,0,1,.59-.06h.33a.81.81,0,0,1,.21.05.16.16,0,0,1,.1.08.14.14,0,0,1,0,.11Zm-.83-4.06a1.66,1.66,0,0,0-.51-.54,1.29,1.29,0,0,0-.65-.17,1,1,0,0,0-.52.13,1.46,1.46,0,0,0-.41.34,2.57,2.57,0,0,0-.31.51,3.8,3.8,0,0,0-.23.59,4.56,4.56,0,0,0-.13.62,4.14,4.14,0,0,0,0,.58,2.13,2.13,0,0,0,0,.37A.76.76,0,0,0,78,40a.5.5,0,0,0,.21.22.59.59,0,0,0,.34.08,1.13,1.13,0,0,0,.59-.17,1.93,1.93,0,0,0,.57-.47,2.83,2.83,0,0,0,.47-.68,3.25,3.25,0,0,0,.3-.84Z"/><path class="cls-4" d="M75.91,11.72a11.73,11.73,0,0,1,2.77,1.57,8,8,0,0,0-4.35-2A6.93,6.93,0,0,1,75.91,11.72Z"/><path class="cls-5" d="M74.14,11.26l.11,0a3,3,0,0,0-.41,0l.28,0Z"/><path class="cls-5" d="M74.33,11.29h-.08l-.11,0Z"/><path class="cls-4" d="M73.3,11.22a8.69,8.69,0,0,0-.89,0,10.58,10.58,0,0,1,1.14,0Z"/><path class="cls-5" d="M73.69,11.23h0Z"/><path class="cls-6" d="M73.3,9.53a9.73,9.73,0,0,0-9.73,9.73,10.92,10.92,0,0,0,.07,1.15,8.87,8.87,0,0,1,.23-1.89,9.3,9.3,0,0,1,5-6.37,12.8,12.8,0,0,1,2.76-.79q.38-.06.78-.09a8.11,8.11,0,0,1,.86,0h.57a3,3,0,0,1,.41,0h.08a8,8,0,0,1,4.35,2,10.35,10.35,0,0,1,3.94,6.11A13.12,13.12,0,0,1,82.86,21,9.29,9.29,0,0,0,83,19.26,9.73,9.73,0,0,0,73.3,9.53Z"/><path class="cls-7" d="M81.18,20.92A8.05,8.05,0,1,1,75,11.4,8.06,8.06,0,0,1,81.18,20.92Zm6.47,5.62-3.11-2.05L82.28,23c.08-.2.16-.39.22-.59A8.1,8.1,0,0,0,82.86,21a13.12,13.12,0,0,0-.24-1.62,10.35,10.35,0,0,0-3.94-6.11,8,8,0,0,0-4.35-2h-.08a3,3,0,0,0-.41,0h-.29a10.58,10.58,0,0,0-1.14,0q-.41,0-.78.09a12.8,12.8,0,0,0-2.76.79,9.3,9.3,0,0,0-5,6.37,8.87,8.87,0,0,0-.23,1.89,9.72,9.72,0,0,0,16.6,5.66l2.25,1.48,3.15,2.08a2.64,2.64,0,0,0,2.07-2.57A2.24,2.24,0,0,0,87.65,26.54Z"/><path class="cls-7" d="M78.91,17.9c.12,1.08-1,1.33-1.47,1.41a12.74,12.74,0,0,1-1.34.11c-.06.68.28.81.72.81a1.89,1.89,0,0,0,.89-.24c.65-.39,1.06.35.61.7a2.67,2.67,0,0,1-1.63.48,1.55,1.55,0,0,1-1.61-1.84,2.77,2.77,0,0,1,.67-1.76,2.42,2.42,0,0,1,1.55-.7C77.91,16.82,78.82,17.09,78.91,17.9Zm-1.53-.12c-1.13,0-1.09.79-1.09.79a3.18,3.18,0,0,0,1.39-.23.33.33,0,0,0,.12-.41A.52.52,0,0,0,77.38,17.78Z"/><path class="cls-7" d="M74.57,17h-.26c.06-.36.1-.64.12-.76.06-.51-.94-.62-1.05.15,0,.13,0,.35-.1.61-.34,0-.62.11-.68.46a.39.39,0,0,0,.43.45h.1c-.13.71-.26,1.47-.33,1.89-.14.8.1,1.15.56,1.34s.94,0,1-.31a.43.43,0,0,0-.34-.59c-.26-.05-.28-.18-.26-.37l.35-2h.39a.49.49,0,0,0,.48-.49A.41.41,0,0,0,74.57,17Z"/><path class="cls-7" d="M69.5,17.26a1.86,1.86,0,0,1,1.29-.38,1.22,1.22,0,0,1,1.12.66,2.58,2.58,0,0,1,.16,1.2,2.3,2.3,0,0,1-2.26,2.44,2.35,2.35,0,0,1-.94-.31s-.22,1.26-.28,1.51a.59.59,0,0,1-.59.44c-.27,0-.47-.28-.41-.63.13-.7.78-4.41.84-4.75C68.53,16.91,69.32,16.63,69.5,17.26Zm.73.54a1.21,1.21,0,0,0-1.06,1.13c-.14.77,0,1.36.66,1.33s1-.4,1.12-1.15S71,17.72,70.23,17.8Z"/><polygon class="cls-8" points="101.05 39.85 101.05 48.2 105.16 44.03 101.05 39.85"/><polygon class="cls-8" points="115.48 48.15 115.48 39.91 111.36 44.03 115.48 48.15"/><path class="cls-8" d="M110.15,45.24a2.74,2.74,0,0,1-1.88.69,3.3,3.3,0,0,1-2.09-.88h0l-.17-.17-3.67,3.72h11.93l-3.72-3.73Z"/><path class="cls-8" d="M106,43.19l.83.84.17.17a2.19,2.19,0,0,0,1.28.56,1.58,1.58,0,0,0,1-.36l.38-.37.83-.83,4.56-4.56H101.5Z"/><path class="cls-8" d="M107.94,19.45a3.65,3.65,0,1,1,3.65-3.64A3.64,3.64,0,0,1,107.94,19.45Zm0-5.78a2.14,2.14,0,1,0,2.14,2.14A2.14,2.14,0,0,0,107.94,13.67Z"/><path class="cls-8" d="M115.6,25.84H100.28l.32-1a7.71,7.71,0,0,1,14.68,0Zm-13.14-1.52h11a6.21,6.21,0,0,0-11,0Z"/></g></g></svg>