<?xml version="1.0" encoding="utf-8"?>
<!-- Generator: Adobe Illustrator 25.0.0, SVG Export Plug-In . SVG Version: 6.00 Build 0)  -->
<svg version="1.1" id="Capa_1" xmlns="http://www.w3.org/2000/svg" xmlns:xlink="http://www.w3.org/1999/xlink" x="0px" y="0px"
	 viewBox="0 0 184 107.5" style="enable-background:new 0 0 184 107.5;" xml:space="preserve">
<style type="text/css">
	.st0{fill:#FFFFFF;}
	.st1{fill:#1D1E1B;}
	.st2{fill:#979397;}
	.st3{fill:#00953E;}
</style>
<g>
	<rect class="st0" width="184" height="107.5"/>
	<g>
		<g>
			<rect x="4" y="92.6" class="st0" width="55" height="11.6"/>
			<path class="st1" d="M59.3,104.4H3.7V92.3h55.6V104.4z M4.2,103.8h54.5v-11H4.2V103.8z"/>
		</g>
		<g>
			<rect x="125.1" y="92.6" class="st0" width="55" height="11.6"/>
			<path class="st1" d="M180.3,104.4h-55.6V92.3h55.6V104.4z M125.3,103.8h54.5v-11h-54.5V103.8z"/>
		</g>
		<g>
			<rect x="4" y="3.5" class="st2" width="55" height="89.2"/>
			<path class="st1" d="M59.3,92.8H3.7V3.1h55.6V92.8z M4.2,92.3h54.5V3.7H4.2V92.3z"/>
		</g>
		<g>
			<rect x="125.1" y="3.5" class="st2" width="55" height="89.2"/>
			<path class="st1" d="M180.3,92.8h-55.6V3.1h55.6V92.8z M125.3,92.3h54.5V3.7h-54.5V92.3z"/>
		</g>
		<g>
			<g>
				<rect x="64.8" y="92.6" class="st0" width="55" height="11.6"/>
				<path class="st3" d="M120,104.4H64.6V92.3H120V104.4z M64.9,104h54.5V93H64.9V104z"/>
			</g>
			<g>
				<rect x="64.8" y="3.5" class="st0" width="55" height="89.2"/>
				<path class="st3" d="M120,92.8H64.6V3.1H120V92.8z M64.9,92.5h54.5V3.7H64.9V92.5z"/>
			</g>
		</g>
		<path class="st1" d="M53.2,36.1c0-8.6-6.8-11.9-11.7-11.9c-4.2,0-24,0-30.1,0v5.9c5.9,0,25.5-0.2,28.1-0.2c3.1,0,5,1.5,5.9,3.3
			c1.3,2.8,0.2,6.2-3.7,7.9c-3.9,1.7-10.3,4-10.3,4l12.8,20.5h8.4L42,48.4C42,48.4,53.2,45.5,53.2,36.1z"/>
		<polygon class="st1" points="32.5,39.1 32.5,33.2 11.4,33.2 11.4,34.9 11.4,39.1 11.4,45.9 11.4,51.7 11.4,59.6 11.4,62.9 
			11.4,65.5 32.5,65.5 32.5,59.6 18.5,59.6 18.5,51.7 29.7,51.7 29.7,45.9 18.5,45.9 18.5,39.1 		"/>
		<path class="st1" d="M174.1,36.1c0-8.6-6.8-11.9-11.7-11.9c-4.2,0-24,0-30.1,0v5.9c5.9,0,25.5-0.2,28.1-0.2c3.1,0,5,1.5,5.9,3.3
			c1.3,2.8,0.2,6.2-3.7,7.9c-3.9,1.7-10.3,4-10.3,4l12.8,20.5h8.4l-10.6-17.2C162.9,48.4,174.1,45.5,174.1,36.1z"/>
		<polygon class="st1" points="153.4,39.1 153.4,33.2 132.5,33.2 132.5,34.9 132.5,39.1 132.5,45.9 132.5,51.7 132.5,59.6 
			132.5,62.9 132.5,65.5 153.4,65.5 153.4,59.6 139.4,59.6 139.4,51.7 150.8,51.7 150.8,45.9 139.4,45.9 139.4,39.1 		"/>
		<path class="st3" d="M93.6,24v4.8c8.4,0.6,15,7.5,15,16.1c0,7-4.4,12.8-10.5,15.2v-8.3h4.8l4.6-4.6H95.6c-1.1,0-2,0.9-2,2v11.7
			l0,0v4.8l0,0c1.7,0,3.1-0.4,4.6-0.7c8.8-2.4,15.2-10.6,15.2-20.2C113.4,33.8,104.6,24.6,93.6,24z"/>
		<path class="st3" d="M89.5,38H82l-4.6,4.6h9.4V60c-6.1-2.4-10.5-8.3-10.5-15.2c0-8.6,6.6-15.6,15-16.1v-4.8
			c-11,0.6-19.6,9.7-19.6,20.9c0,9.5,6.4,17.6,15.2,20.2c1.5,0.4,2.9,0.7,4.6,0.7v-4.8l0,0V39.8C91.4,38.9,90.4,38,89.5,38z"/>
		<g>
			<path class="st0" d="M14.9,9.7h1.3l2.9,7H20v0.7h-3.1v-0.7H18l-0.7-1.8h-3.5L13,16.7h1.1v0.7h-2.9v-0.7h0.9L14.9,9.7z M16.9,14.1
				l-1.5-3.7l-1.5,3.7H16.9z"/>
			<path class="st0" d="M20.2,17.4v-0.7h1.1v-6.2h-1.1V9.7h6.6v2.4h-0.9v-1.7h-3.5v2.8H24v-1.3h0.7V15H24v-1.1h-1.7v2.9h3.5V15h0.9
				v2.4H20.2z"/>
			<path class="st0" d="M27.9,17.4v-0.7H29v-6.2h-1.1V9.7h2.8l3.7,6.8v-6.1H33V9.7h3.3v0.7h-1.1v7h-1.5l-3.9-7v6.2h1.3v0.7H27.9z"/>
			<path class="st0" d="M37.1,13.8c0-1.1,0.2-2,0.9-2.9c0.7-0.7,1.8-1.1,2.9-1.1c1.1,0,2.2,0.4,2.9,1.3c0.7,0.7,0.9,1.8,0.9,2.8
				c0,0.6,0,0.9-0.2,1.5c-0.2,0.4-0.4,0.9-0.7,1.3c-0.7,0.7-1.8,1.1-2.9,1.1C38.3,17.6,37.1,16,37.1,13.8z M38.2,13.6
				c0,0.7,0.2,1.7,0.6,2.2c0.6,0.7,1.3,1.1,2.2,1.1c0.9,0,1.7-0.4,2.2-1.1c0.4-0.6,0.6-1.5,0.6-2.2c0-1.7-0.7-3.3-2.8-3.3
				C38.9,10.3,38.2,11.9,38.2,13.6z"/>
			<path class="st0" d="M45.5,17.4v-0.7h1.1v-6.2h-1.1V9.7H49c0.7,0,1.5,0,2,0.4c0.6,0.4,0.9,1.1,0.9,1.7c0,1.1-0.6,2-1.8,2
				c0.9,0.2,1.1,0.6,1.3,1.3l0.6,1.7h0.9v0.7h-1.7l-0.7-2.2c-0.2-0.4-0.4-0.7-0.7-0.9c-0.2-0.2-0.6-0.2-0.9-0.2h-1.1v2.8h1.1v0.7
				h-3.3V17.4z M47.7,10.5v2.9h1.1c0.6,0,1.1,0,1.5-0.4c0.4-0.2,0.6-0.7,0.6-1.3c0-0.4-0.2-0.9-0.6-1.1c-0.4-0.2-0.9-0.2-1.3-0.2
				C49,10.5,47.7,10.5,47.7,10.5z"/>
		</g>
		<g>
			<path class="st1" d="M75.4,9.7h1.3l2.9,7h0.9v0.7h-3.1v-0.7h1.1l-0.7-1.8h-3.5l-0.7,1.8h1.1v0.7h-3.1v-0.7h0.9L75.4,9.7z
				 M77.4,14.1l-1.5-3.7l-1.5,3.7H77.4z"/>
			<path class="st1" d="M80.7,17.4v-0.7h1.1v-6.2h-1.1V9.7h6.6v2.4h-1.1v-1.7h-3.5v2.8h1.7v-1.3h0.7V15h-0.7v-1.1h-1.7v2.9h3.5V15
				h0.9v2.4H80.7z"/>
			<path class="st1" d="M88.2,17.4v-0.7h1.1v-6.2h-1.1V9.7H91l3.7,6.8v-6.1h-1.1V9.7h3.3v0.7h-1.1v7h-1.5l-3.9-7v6.2h1.3v0.7H88.2z"
				/>
			<path class="st1" d="M97.4,13.8c0-1.1,0.2-2,0.9-2.9c0.7-0.7,1.8-1.1,2.9-1.1s2.2,0.4,2.9,1.3c0.7,0.7,0.9,1.8,0.9,2.8
				c0,0.6,0,0.9-0.2,1.5c-0.2,0.4-0.4,0.9-0.7,1.3c-0.7,0.7-1.8,1.1-2.9,1.1C98.9,17.6,97.4,16,97.4,13.8z M98.5,13.6
				c0,0.7,0.2,1.7,0.6,2.2c0.6,0.7,1.3,1.1,2.2,1.1s1.7-0.4,2.2-1.1c0.4-0.6,0.6-1.5,0.6-2.2c0-1.7-0.7-3.3-2.8-3.3
				C99.2,10.3,98.5,11.9,98.5,13.6z"/>
			<path class="st1" d="M106,17.4v-0.7h1.1v-6.2H106V9.7h3.5c0.7,0,1.5,0,2,0.4c0.6,0.4,0.9,1.1,0.9,1.7c0,1.1-0.6,2-1.8,2
				c0.9,0.2,1.1,0.6,1.3,1.3l0.6,1.7h0.9v0.7h-1.7l-0.7-2.2c-0.2-0.4-0.4-0.7-0.7-0.9c-0.2-0.2-0.6-0.2-0.9-0.2h-1.1v2.8h1.1v0.7
				H106V17.4z M108.2,10.5v2.9h1.1c0.6,0,1.1,0,1.5-0.4c0.4-0.2,0.6-0.7,0.6-1.3c0-0.4-0.2-0.9-0.6-1.1c-0.4-0.2-0.9-0.2-1.3-0.2
				C109.5,10.5,108.2,10.5,108.2,10.5z"/>
		</g>
		<g>
			<path class="st0" d="M136.1,9.7h1.3l2.9,7h0.9v0.7h-3.1v-0.7h1.1l-0.7-1.8H135l-0.7,1.8h1.1v0.7h-3.1v-0.7h0.9L136.1,9.7z
				 M138,14.1l-1.5-3.7l-1.5,3.7H138z"/>
			<path class="st0" d="M141.3,17.4v-0.7h1.1v-6.2h-1.1V9.7h6.6v2.4h-0.9v-1.7h-3.5v2.8h1.7v-1.3h0.7V15h-0.7v-1.1h-1.7v2.9h3.5V15
				h0.9v2.4H141.3z"/>
			<path class="st0" d="M149,17.4v-0.7h1.1v-6.2H149V9.7h2.8l3.7,6.8v-6.1h-1.3V9.7h3.3v0.7h-1.1v7h-1.5l-3.9-7v6.2h1.3v0.7H149z"/>
			<path class="st0" d="M158.1,13.8c0-1.1,0.2-2,0.9-2.9c0.7-0.7,1.8-1.1,2.9-1.1c1.1,0,2.2,0.4,2.9,1.3c0.7,0.7,0.9,1.8,0.9,2.8
				c0,0.6,0,0.9-0.2,1.5c-0.2,0.4-0.4,0.9-0.7,1.3c-0.7,0.7-1.8,1.1-2.9,1.1C159.6,17.6,158.1,16,158.1,13.8z M159.2,13.6
				c0,0.7,0.2,1.7,0.6,2.2c0.6,0.7,1.3,1.1,2.2,1.1c0.9,0,1.7-0.4,2.2-1.1c0.4-0.6,0.6-1.5,0.6-2.2c0-1.7-0.7-3.3-2.8-3.3
				C160,10.3,159.2,11.9,159.2,13.6z"/>
			<path class="st0" d="M166.6,17.4v-0.7h1.1v-6.2h-1.1V9.7h3.5c0.7,0,1.5,0,2,0.4c0.6,0.4,0.9,1.1,0.9,1.7c0,1.1-0.6,2-1.8,2
				c0.9,0.2,1.1,0.6,1.3,1.3l0.6,1.7h0.9v0.7h-1.7l-0.7-2.2c-0.2-0.4-0.4-0.7-0.7-0.9c-0.2-0.2-0.6-0.2-0.9-0.2h-1.1v2.8h1.1v0.7
				h-3.3V17.4z M168.8,10.5v2.9h1.1c0.6,0,1.1,0,1.5-0.4c0.4-0.2,0.6-0.7,0.6-1.3c0-0.4-0.2-0.9-0.6-1.1c-0.4-0.2-0.9-0.2-1.3-0.2
				C170.1,10.5,168.8,10.5,168.8,10.5z"/>
		</g>
		<path class="st1" d="M76.3,77.6h-0.6l-0.2-0.9c-0.4,0.6-1.1,0.9-1.8,0.9c-0.9,0-1.5-0.4-2-1.1C71.2,75.8,71,75,71,74.1
			c0-1.8,0.9-3.5,2.8-3.5c1.3,0,2,0.7,2.4,1.8l-0.7,0.2c-0.2-0.9-0.7-1.5-1.7-1.5c-1.5,0-1.8,1.5-1.8,2.8c0,0.6,0.2,1.3,0.4,1.8
			c0.4,0.6,0.9,0.9,1.5,0.9c0.9,0,1.7-0.7,1.7-1.7v-0.4h-1.7v-0.7h2.4v3.7H76.3z"/>
		<path class="st1" d="M81.3,76.1c-0.2,0.9-1.1,1.5-2,1.5c-1.5,0-2-1.1-2-2.6c0-1.3,0.7-2.6,2-2.6c1.5,0,2,1.3,2,2.8H78
			c0,0.4,0,0.7,0.2,1.1c0.2,0.6,0.7,0.7,1.1,0.7c0.6,0,1.1-0.4,1.3-0.9H81.3z M80.5,74.5c0-0.7-0.4-1.5-1.3-1.5
			c-0.7,0-1.3,0.7-1.3,1.5H80.5z"/>
		<path class="st1" d="M82.6,76.1c0.2,0.7,0.7,0.9,1.3,0.9s1.1-0.2,1.1-0.7c0-0.6-0.6-0.7-0.9-0.7l-0.6-0.4
			c-0.7-0.2-1.3-0.6-1.3-1.5c0-1.1,0.9-1.5,1.7-1.5c0.7,0,1.5,0.4,1.7,1.3l-0.6,0.2c-0.2-0.6-0.6-0.7-1.1-0.7
			c-0.4,0-0.9,0.2-0.9,0.7c0,0.6,0.4,0.7,0.7,0.7l0.6,0.2c0.4,0,0.7,0.2,0.9,0.4c0.4,0.2,0.6,0.7,0.6,1.1c0,1.1-0.9,1.5-1.8,1.5
			c-0.9,0-1.7-0.4-2-1.5H82.6z"/>
		<path class="st1" d="M88.8,77.6h-0.7c-0.9,0-1.3-0.6-1.3-1.7V73H86v-0.6h0.7v-1.3h0.7v1.3h1.1V73h-1.1v2.9c0,0.6,0.2,0.9,0.7,0.9
			h0.6V77.6z"/>
		<path class="st1" d="M90.6,71.7h-0.7v-0.9h0.7V71.7z M90.6,77.6h-0.7v-5h0.7V77.6z"/>
		<path class="st1" d="M93.9,72.5c1.3,0,2,1.3,2,2.6c0,1.5-0.7,2.6-2.2,2.6c-1.3,0-2-1.3-2-2.6C91.9,73.7,92.6,72.5,93.9,72.5z
			 M92.8,76.3c0.2,0.4,0.6,0.6,0.9,0.6c0.6,0,0.9-0.2,1.1-0.7c0.2-0.4,0.2-0.9,0.2-1.3c0-0.6,0-0.9-0.4-1.3
			c-0.2-0.4-0.6-0.6-0.9-0.6s-0.9,0.2-1.1,0.7c-0.2,0.4-0.2,0.9-0.2,1.3C92.6,75.4,92.6,75.9,92.8,76.3z M93.4,72.1l-0.2-0.4
			l1.8-1.1l0.4,0.6L93.4,72.1z"/>
		<path class="st1" d="M97.6,73.6L97.6,73.6c0.4-0.6,0.7-1.1,1.5-1.1c0.6,0,0.9,0.2,1.3,0.7c0.2,0.4,0.2,1.1,0.2,1.7v2.8h-0.7v-3.1
			c0-0.4,0-0.7-0.2-0.9c-0.2-0.4-0.6-0.4-0.7-0.4c-0.4,0-0.7,0.2-0.9,0.6c-0.4,0.4-0.4,0.9-0.4,1.3v2.6h-0.7v-5h0.7
			C97.6,72.6,97.6,73.6,97.6,73.6z"/>
		<path class="st1" d="M76.3,86.2h-0.9l-0.7-2h-2.4l-0.6,2H71l2.2-6.6h0.9L76.3,86.2z M73.6,80.4l-0.9,3.3h2L73.6,80.4z"/>
		<path class="st1" d="M77.8,81.3v0.9l0,0c0.2-0.6,0.7-1.1,1.5-1.1s1.1,0.6,1.3,1.1c0.2-0.7,0.7-1.1,1.5-1.1c0.6,0,0.9,0.4,1.1,0.7
			c0.2,0.4,0.2,0.9,0.2,1.5v2.9h-0.7v-2.9c0-0.4,0-0.7-0.2-0.9c-0.2-0.4-0.6-0.6-0.7-0.6c-0.4,0-0.7,0.2-0.9,0.6c0,0.4,0,0.7,0,1.1
			v2.8H80v-3.1c0-0.2,0-0.6-0.2-0.9c-0.2-0.4-0.6-0.6-0.7-0.6c-0.4,0-0.7,0.2-0.9,0.6c-0.2,0.4-0.4,0.7-0.4,1.1v2.9H77v-5H77.8z"/>
		<path class="st1" d="M85.3,86.2h-0.4v-6.6h0.7v2.6l0,0c0.4-0.6,0.7-0.9,1.5-0.9c0.6,0,1.1,0.4,1.5,0.7c0.4,0.6,0.4,1.1,0.4,1.7
			c0,1.3-0.6,2.6-2,2.6c-0.6,0-1.1-0.4-1.5-0.9L85.3,86.2z M87,81.6c-0.7,0-1.3,0.7-1.3,1.7v0.6c0,0.6,0,0.9,0.2,1.1
			c0.2,0.4,0.6,0.6,1.1,0.6c0.9,0,1.3-1.1,1.3-1.8S88.1,81.6,87,81.6z"/>
		<path class="st1" d="M91,80.4h-0.7v-0.9H91V80.4z M91,86.2h-0.7v-5H91V86.2z"/>
		<path class="st1" d="M96.5,84.8c-0.4,0.9-1.1,1.5-2,1.5c-1.5,0-2.2-1.1-2.2-2.6c0-1.3,0.7-2.6,2.2-2.6c1.5,0,2.2,1.3,2.2,2.8h-3.5
			c0,0.4,0,0.7,0.2,1.1c0.2,0.6,0.7,0.7,1.3,0.7c0.6,0,1.1-0.4,1.3-0.9L96.5,84.8z M95.8,83.3c0-0.7-0.4-1.5-1.3-1.5
			c-0.7,0-1.3,0.7-1.3,1.5H95.8z"/>
		<path class="st1" d="M98.1,82.2L98.1,82.2c0.4-0.6,0.7-1.1,1.5-1.1c0.6,0,0.9,0.2,1.3,0.7c0.2,0.4,0.2,1.1,0.2,1.7v2.8h-0.7v-3.1
			c0-0.4,0-0.7-0.2-0.9c-0.2-0.4-0.6-0.4-0.7-0.4c-0.4,0-0.7,0.2-0.9,0.6c-0.4,0.4-0.4,0.9-0.4,1.3v2.6h-0.7v-5h0.7
			C98.1,81.3,98.1,82.2,98.1,82.2z"/>
		<path class="st1" d="M104.7,86.2H104c-1.1,0-1.3-0.6-1.3-1.7v-2.9h-0.9v-0.6h0.9v-1.3h0.7v1.3h1.1v0.6h-1.1v2.9
			c0,0.6,0.2,0.9,0.7,0.9h0.6C104.7,85.5,104.7,86.2,104.7,86.2z"/>
		<path class="st1" d="M108.4,83.1v-0.2c0-0.9-0.4-1.3-1.1-1.3c-0.6,0-1.1,0.2-1.3,0.9h-0.7c0.2-1.1,1.1-1.3,1.8-1.3
			c0.6,0,1.1,0,1.3,0.6c0.4,0.4,0.4,1.1,0.4,1.7v1.8c0,0.4,0,0.7,0.2,1.1h-0.7v-0.9c-0.4,0.7-0.9,1.1-1.7,1.1
			c-0.9,0-1.5-0.6-1.5-1.5c0-0.6,0.4-1.1,0.9-1.3c0.6-0.2,1.1-0.4,1.7-0.4h0.7V83.1z M108.4,83.7h-0.6c-0.7,0-1.8,0.2-1.8,1.1
			c0,0.6,0.6,0.9,0.9,0.9c0.9,0,1.5-0.7,1.5-1.7V83.7z"/>
		<path class="st1" d="M110.4,86.2v-6.6h0.7v6.6H110.4z"/>
		<g>
			<path class="st1" d="M19.8,100.5L19.8,100.5L19.8,100.5L19.8,100.5c-0.2,0-0.2,0-0.2,0s0,0-0.2,0l0,0l0,0l0,0v-4.2l0,0l0,0l0,0
				c0,0,0,0,0.2,0c0,0,0,0,0.2,0l0,0l0,0l0,0V100.5z"/>
			<path class="st1" d="M23.3,99.4c0,0.2,0,0.4-0.2,0.6c0,0.2-0.2,0.4-0.4,0.4c-0.2,0.2-0.4,0.2-0.4,0.2c-0.2,0-0.4,0-0.6,0
				s-0.2,0-0.4,0c-0.2,0-0.2,0-0.4-0.2c-0.2,0-0.2,0-0.2-0.2c0,0-0.2,0-0.2-0.2c0,0,0,0,0-0.2c0,0,0,0,0-0.2c0,0,0,0,0-0.2l0,0l0,0
				l0,0c0,0,0,0,0.2,0c0.2,0,0.2,0,0.2,0.2c0,0,0.2,0,0.4,0.2c0.2,0,0.2,0,0.4,0c0.2,0,0.2,0,0.4,0s0.2,0,0.4-0.2l0.2-0.2
				c0-0.2,0-0.2,0-0.4c0-0.2,0-0.2,0-0.4c0-0.2-0.2-0.2-0.2-0.2c-0.2,0-0.2-0.2-0.4-0.2c-0.2,0-0.2-0.2-0.4-0.2
				c-0.2,0-0.2-0.2-0.4-0.2c-0.2,0-0.2-0.2-0.4-0.2c-0.2-0.2-0.2-0.2-0.2-0.4s0-0.4,0-0.4c0-0.2,0-0.4,0-0.6s0.2-0.2,0.2-0.4
				c0.2-0.2,0.2-0.2,0.4-0.2c0.2,0,0.4,0,0.6,0s0.2,0,0.4,0c0.2,0,0.2,0,0.2,0s0.2,0,0.2,0.2h0.2l0,0l0,0l0,0l0,0l0,0l0,0l0,0l0,0
				c0,0,0,0-0.2,0c0,0-0.2,0-0.2-0.2c0,0-0.2,0-0.2-0.2c-0.2,0-0.2,0-0.4,0c-0.2,0-0.2,0-0.4,0c-0.2,0-0.2,0-0.2,0.2l-0.2,0.2v0.2
				c0,0.2,0,0.2,0,0.4c0,0.2,0.2,0.2,0.2,0.2c0.2,0,0.2,0.2,0.4,0.2c0.2,0,0.2,0.2,0.4,0.2s0.2,0.2,0.4,0.2c0.2,0,0.2,0.2,0.4,0.2
				c0.2,0.2,0.2,0.2,0.2,0.4C23.3,99.1,23.3,99.2,23.3,99.4z"/>
			<path class="st1" d="M27.7,98.3c0,0.4,0,0.7-0.2,0.9c0,0.4-0.2,0.6-0.4,0.7c-0.2,0.2-0.4,0.4-0.6,0.6s-0.6,0.2-0.9,0.2
				c-0.4,0-0.6,0-0.9-0.2c-0.2-0.2-0.4-0.2-0.6-0.4s-0.2-0.4-0.4-0.7c0-0.4-0.2-0.6-0.2-0.9c0-0.4,0-0.7,0.2-0.9
				c0-0.4,0.2-0.6,0.4-0.7c0.2-0.2,0.4-0.4,0.6-0.6c0.2-0.2,0.6-0.2,0.9-0.2c0.4,0,0.6,0,0.7,0.2c0.2,0.2,0.4,0.2,0.6,0.4
				c0.2,0.2,0.2,0.4,0.4,0.7C27.7,97.6,27.7,98,27.7,98.3z M27.3,98.3c0-0.2,0-0.6,0-0.7s-0.2-0.4-0.2-0.6c-0.2-0.2-0.2-0.4-0.4-0.4
				c-0.2-0.2-0.4-0.2-0.7-0.2c-0.2,0-0.6,0-0.7,0.2c-0.2,0.2-0.4,0.2-0.4,0.4c-0.2,0.2-0.2,0.4-0.2,0.6s0,0.6,0,0.7
				c0,0.2,0,0.6,0,0.7s0.2,0.4,0.2,0.6c0.2,0.2,0.2,0.4,0.4,0.4c0.2,0.2,0.4,0.2,0.7,0.2c0.2,0,0.6,0,0.7-0.2
				c0.2-0.2,0.4-0.2,0.4-0.4c0.2-0.2,0.2-0.4,0.2-0.6C27.3,98.9,27.3,98.5,27.3,98.3z"/>
			<path class="st1" d="M32.8,98.1c0,0.2,0,0.4,0,0.6s0,0.4-0.2,0.6c0,0.2-0.2,0.4-0.2,0.6c-0.2,0.2-0.2,0.4-0.4,0.4
				c-0.2,0.2-0.4,0.2-0.6,0.2c-0.2,0-0.4,0.2-0.6,0.2c-0.2,0-0.2,0-0.4,0h-0.2h-0.2c0,0,0,0-0.2,0l0,0c0,0,0,0,0-0.2l0,0l0,0l0,0
				l0,0c0,0,0,0,0.2,0h0.2h0.2c0.2,0,0.2,0,0.4,0s0.4,0,0.6-0.2c0.2-0.2,0.4-0.2,0.4-0.4c0.2-0.2,0.2-0.4,0.2-0.6s0-0.4,0.2-0.7
				c-0.2,0-0.4,0.2-0.6,0.2c-0.2,0-0.4,0-0.6,0c-0.2,0-0.4,0-0.6-0.2c-0.2,0-0.4-0.2-0.4-0.4c-0.2-0.2-0.2-0.2-0.2-0.4s0-0.4,0-0.6
				c0-0.2,0-0.4,0-0.6c0-0.2,0.2-0.4,0.2-0.6c0.2-0.2,0.2-0.2,0.4-0.4c0.2,0,0.4-0.2,0.7-0.2c0.2,0,0.4,0,0.4,0
				c0.2,0,0.2,0.2,0.4,0.2c0.2,0,0.2,0.2,0.2,0.4c0,0.2,0.2,0.2,0.2,0.4c0,0.2,0,0.4,0.2,0.6C32.8,97.8,32.8,98,32.8,98.1z
				 M32.3,98.1c0-0.4,0-0.6,0-0.7c0-0.2-0.2-0.4-0.2-0.6s-0.2-0.2-0.4-0.4c-0.2,0-0.2-0.2-0.4-0.2s-0.4,0-0.4,0.2
				c-0.2,0-0.2,0.2-0.4,0.2c0,0.2-0.2,0.2-0.2,0.4c0,0.2,0,0.2,0,0.4c0,0.2,0,0.4,0,0.4c0,0.2,0,0.2,0.2,0.4c0,0,0.2,0.2,0.4,0.2
				c0.2,0,0.2,0,0.4,0s0.4,0,0.6,0C32.1,98.3,32.3,98.3,32.3,98.1z"/>
			<path class="st1" d="M36.3,98.3c0,0.4,0,0.6,0,0.9c0,0.4-0.2,0.6-0.2,0.7c-0.2,0.2-0.4,0.4-0.6,0.6s-0.4,0.2-0.7,0.2
				c-0.2,0-0.6,0-0.7-0.2c-0.2-0.2-0.4-0.2-0.4-0.4c-0.2-0.2-0.2-0.4-0.2-0.7s0-0.6,0-0.9c0-0.4,0-0.6,0-0.9c0-0.4,0.2-0.6,0.2-0.7
				c0.2-0.2,0.4-0.4,0.6-0.6c0.2-0.2,0.4-0.2,0.7-0.2c0.2,0,0.6,0,0.7,0.2c0.2,0.2,0.4,0.2,0.4,0.4c0.2,0.2,0.2,0.4,0.2,0.7
				C36.3,97.6,36.3,98,36.3,98.3z M36,98.3c0-0.2,0-0.4,0-0.6c0-0.2,0-0.4,0-0.6c0-0.2,0-0.2-0.2-0.4c0-0.2-0.2-0.2-0.2-0.2
				l-0.2-0.2c-0.2,0-0.2,0-0.4,0s-0.4,0-0.6,0.2c-0.2,0.2-0.2,0.2-0.4,0.4c0,0.2-0.2,0.4-0.2,0.6c0,0.2,0,0.6,0,0.7
				c0,0.4,0,0.6,0,0.9c0,0.2,0.2,0.4,0.2,0.6c0,0.2,0.2,0.4,0.4,0.4c0.2,0,0.4,0.2,0.6,0.2c0.2,0,0.4,0,0.4,0c0.2,0,0.2-0.2,0.4-0.2
				c0,0,0.2-0.2,0.2-0.4c0-0.2,0.2-0.2,0.2-0.4c0-0.2,0-0.4,0-0.4C36,98.7,36,98.5,36,98.3z"/>
			<path class="st1" d="M39.8,98.3c0,0.4,0,0.6,0,0.9c0,0.4-0.2,0.6-0.2,0.7c-0.2,0.2-0.4,0.4-0.6,0.6s-0.4,0.2-0.7,0.2
				c-0.2,0-0.6,0-0.7-0.2c-0.2-0.2-0.4-0.2-0.4-0.4c-0.2-0.2-0.2-0.4-0.2-0.7s0-0.6,0-0.9c0-0.4,0-0.6,0-0.9c0-0.4,0.2-0.6,0.2-0.7
				c0.2-0.2,0.4-0.4,0.6-0.6c0.2-0.2,0.4-0.2,0.7-0.2c0.2,0,0.6,0,0.7,0.2c0.2,0.2,0.4,0.2,0.4,0.4c0.2,0.2,0.2,0.4,0.2,0.7
				C39.8,97.6,39.8,98,39.8,98.3z M39.4,98.3c0-0.2,0-0.4,0-0.6c0-0.2,0-0.4,0-0.6c0-0.2,0-0.2-0.2-0.4c0-0.2-0.2-0.2-0.2-0.2
				l-0.2-0.2c-0.2,0-0.2,0-0.4,0c-0.2,0-0.4,0-0.6,0.2c-0.2,0.2-0.2,0.2-0.4,0.4c0,0.2-0.2,0.4-0.2,0.6c0,0.2,0,0.6,0,0.7
				c0,0.4,0,0.6,0,0.9c0,0.2,0.2,0.4,0.2,0.6c0,0.2,0.2,0.4,0.4,0.4c0.2,0,0.4,0.2,0.6,0.2c0.2,0,0.4,0,0.4,0c0.2,0,0.2-0.2,0.4-0.2
				c0,0,0.2-0.2,0.2-0.4c0-0.2,0.2-0.2,0.2-0.4c0-0.2,0-0.4,0-0.4C39.4,98.7,39.4,98.5,39.4,98.3z"/>
			<path class="st1" d="M43.3,100.3C43.3,100.3,43.3,100.5,43.3,100.3C43.3,100.5,43.3,100.5,43.3,100.3
				C43.3,100.5,43.1,100.5,43.3,100.3C43.1,100.5,43.1,100.5,43.3,100.3l-2.4,0.2l0,0l0,0l0,0l0,0l0,0l0,0l0,0l0,0h0.9v-3.7
				l-0.9,0.4l0,0l0,0l0,0c0,0,0,0,0-0.2l0,0l0,0l0,0l0,0l1.1-0.7l0,0l0,0l0,0l0,0c0,0,0,0,0.2,0l0,0l0,0l0,0v4H43.3
				C43.1,100.2,43.1,100.2,43.3,100.3C43.3,100.2,43.3,100.2,43.3,100.3L43.3,100.3L43.3,100.3z"/>
		</g>
		<g>
			<path class="st1" d="M70.4,98.9c0,0.2,0,0.6-0.2,0.7c0,0.2-0.2,0.4-0.4,0.6c-0.2,0.2-0.4,0.2-0.6,0.4c-0.2,0-0.4,0.2-0.7,0.2
				c-0.2,0-0.4,0-0.6-0.2c-0.2,0-0.4-0.2-0.6-0.4s-0.2-0.4-0.4-0.6c0-0.2-0.2-0.4-0.2-0.7v-2.8l0,0l0,0l0,0c0,0,0,0,0.2,0
				c0,0,0,0,0.2,0l0,0l0,0l0,0v2.8c0,0.2,0,0.4,0,0.6s0.2,0.4,0.2,0.4c0.2,0.2,0.2,0.2,0.4,0.2c0.2,0,0.4,0,0.6,0c0.2,0,0.4,0,0.6,0
				c0.2,0,0.2-0.2,0.4-0.2c0.2-0.2,0.2-0.2,0.2-0.4c0-0.2,0-0.4,0-0.6v-2.8l0,0l0,0l0,0c0,0,0,0,0.2,0c0,0,0,0,0.2,0l0,0l0,0l0,0
				v2.8H70.4z"/>
			<path class="st1" d="M74.7,100.3L74.7,100.3C74.7,100.5,74.7,100.5,74.7,100.3c0,0.2-0.2,0.2-0.2,0.2l0,0l0,0c0,0,0,0-0.2,0
				c0,0,0,0-0.2,0c-0.2,0,0,0-0.2-0.2c0,0,0-0.2-0.2-0.2l-1.5-2.8c0-0.2-0.2-0.2-0.2-0.4s-0.2-0.4-0.2-0.4l0,0c0,0.2,0,0.4,0,0.6
				c0,0.2,0,0.4,0,0.6v2.9l0,0l0,0l0,0c0,0,0,0-0.2,0c0,0,0,0-0.2,0l0,0l0,0l0,0v-4.2v-0.2c0,0,0,0,0.2,0h0.2h0.2c0,0,0,0,0.2,0
				c0,0,0,0,0,0.2c0,0,0,0,0,0.2l1.1,2.2c0,0.2,0.2,0.2,0.2,0.4s0.2,0.2,0.2,0.4c0,0.2,0.2,0.2,0.2,0.4c0,0.2,0.2,0.2,0.2,0.4l0,0
				c0-0.2,0-0.4,0-0.6c0-0.2,0-0.4,0-0.6v-2.6l0,0l0,0l0,0c0,0,0,0,0.2,0c0,0,0,0,0.2,0l0,0l0,0l0,0v3.7H74.7z"/>
			<path class="st1" d="M78.3,100.3L78.3,100.3C78.1,100.5,78.1,100.5,78.3,100.3C78.1,100.5,78.1,100.5,78.3,100.3
				c0,0.2,0,0.2-0.2,0.2h-2c0,0,0,0-0.2,0c-0.2,0,0,0,0-0.2v-4v-0.2c0,0,0,0,0.2,0h2l0,0l0,0l0,0l0,0l0,0l0,0l0,0l0,0h-1.8v1.5h1.5
				l0,0l0,0l0,0l0,0l0,0l0,0l0,0l0,0h-1.5v1.8h1.8C78.1,100.2,78.1,100.2,78.3,100.3C78.1,100.2,78.1,100.2,78.3,100.3
				C78.1,100.2,78.1,100.3,78.3,100.3L78.3,100.3z"/>
			<path class="st1" d="M80.4,98.9L80.4,98.9C80.4,99.1,80.4,99.1,80.4,98.9l-1.5,0.2l0,0c0,0,0,0,0-0.2v-0.2l0,0L80.4,98.9
				C80.4,98.7,80.4,98.7,80.4,98.9C80.4,98.7,80.4,98.7,80.4,98.9C80.4,98.7,80.4,98.7,80.4,98.9C80.4,98.7,80.4,98.9,80.4,98.9z"/>
			<path class="st1" d="M83.7,100.3L83.7,100.3C83.7,100.5,83.7,100.5,83.7,100.3C83.5,100.5,83.5,100.5,83.7,100.3
				c0,0.2,0,0.2-0.2,0.2h-2c0,0,0,0-0.2,0c-0.2,0,0,0,0-0.2v-4v-0.2c0,0,0,0,0.2,0h2l0,0l0,0l0,0l0,0l0,0l0,0l0,0l0,0h-1.8v1.5h1.5
				l0,0l0,0l0,0l0,0l0,0l0,0l0,0l0,0h-1.5v1.8h1.8C83.5,100.2,83.5,100.2,83.7,100.3C83.5,100.2,83.5,100.2,83.7,100.3
				C83.7,100.2,83.7,100.3,83.7,100.3L83.7,100.3z"/>
			<path class="st1" d="M87.7,100.3L87.7,100.3C87.7,100.5,87.7,100.5,87.7,100.3c0,0.2-0.2,0.2-0.2,0.2l0,0l0,0c0,0,0,0-0.2,0
				c0,0,0,0-0.2,0s0,0-0.2-0.2c0,0,0-0.2-0.2-0.2l-1.5-2.8c0-0.2-0.2-0.2-0.2-0.4s-0.2-0.4-0.2-0.4l0,0c0,0.2,0,0.4,0,0.6
				c0,0.2,0,0.4,0,0.6v2.9l0,0l0,0l0,0c0,0,0,0-0.2,0c0,0,0,0-0.2,0l0,0l0,0l0,0v-4.2v-0.2c0,0,0,0,0.2,0h0.2h0.2c0,0,0,0,0.2,0
				c0,0,0,0,0,0.2c0,0,0,0,0,0.2l1.1,2.2c0,0.2,0.2,0.2,0.2,0.4s0.2,0.2,0.2,0.4c0,0.2,0.2,0.2,0.2,0.4c0,0.2,0.2,0.2,0.2,0.4l0,0
				c0-0.2,0-0.4,0-0.6c0-0.2,0-0.4,0-0.6v-2.6l0,0l0,0l0,0c0,0,0,0,0.2,0c0,0,0,0,0.2,0l0,0l0,0l0,0v3.7H87.7z"/>
			<path class="st1" d="M90.8,100.5L90.8,100.5L90.8,100.5L90.8,100.5c-0.2,0-0.2,0-0.2,0s0,0-0.2,0l0,0l0,0l0,0v-4.2l0,0l0,0l0,0
				l0,0c0,0,0,0,0.2,0l0,0l0,0l0,0v4.2H90.8z"/>
			<path class="st1" d="M94.3,99.4c0,0.2,0,0.4-0.2,0.6s-0.2,0.4-0.4,0.4c-0.2,0.2-0.2,0.2-0.4,0.2c-0.2,0-0.4,0-0.6,0s-0.2,0-0.4,0
				s-0.2,0-0.4-0.2c-0.2,0-0.2,0-0.2-0.2c0,0-0.2,0-0.2-0.2c0,0,0,0,0-0.2c0,0,0,0,0-0.2c0,0,0,0,0-0.2c0-0.2,0,0,0,0l0,0l0,0
				c0,0,0,0,0.2,0c0,0,0.2,0,0.2,0.2c0,0,0.2,0,0.4,0.2c0.2,0,0.2,0,0.4,0s0.2,0,0.4,0c0.2,0,0.2,0,0.4-0.2l0.2-0.2
				c0-0.2,0-0.2,0-0.4c0-0.2,0-0.2,0-0.4c0-0.2-0.2-0.2-0.2-0.2c-0.2,0-0.2-0.2-0.4-0.2s-0.2-0.2-0.4-0.2c-0.2,0-0.2-0.2-0.4-0.2
				s-0.2-0.2-0.4-0.2c-0.2-0.2-0.2-0.2-0.2-0.4s0-0.4,0-0.4c0-0.2,0-0.4,0-0.6s0.2-0.2,0.2-0.4c0.2-0.2,0.2-0.2,0.4-0.2
				c0.2,0,0.4,0,0.6,0c0,0,0.2,0,0.4,0s0.2,0,0.2,0s0.2,0,0.2,0.2h0.2l0,0l0,0l0,0l0,0l0,0l0,0l0,0l0,0c0,0,0,0-0.2,0
				c0,0-0.2,0-0.2-0.2c0,0-0.2,0-0.2-0.2c-0.2,0-0.2,0-0.4,0c-0.2,0-0.2,0-0.4,0s-0.2,0-0.2,0.2s-0.2,0.2-0.2,0.2v0.2
				c0,0.2,0,0.2,0,0.4c0,0.2,0.2,0.2,0.2,0.2c0.2,0,0.2,0.2,0.4,0.2s0.2,0.2,0.4,0.2c0.2,0,0.2,0.2,0.4,0.2c0.2,0,0.2,0.2,0.4,0.2
				c0.2,0.2,0.2,0.2,0.2,0.4C94.3,99.1,94.3,99.2,94.3,99.4z"/>
			<path class="st1" d="M98.7,98.3c0,0.4,0,0.7-0.2,0.9c0,0.4-0.2,0.6-0.4,0.7c-0.2,0.2-0.4,0.4-0.6,0.6c-0.2,0.2-0.6,0.2-0.9,0.2
				c-0.4,0-0.6,0-0.7-0.2c-0.2-0.2-0.4-0.2-0.6-0.4s-0.2-0.4-0.4-0.7c0-0.4-0.2-0.6-0.2-0.9c0-0.4,0-0.7,0.2-0.9s0.2-0.6,0.4-0.7
				c0.2-0.2,0.4-0.4,0.6-0.6c0.2-0.2,0.6-0.2,0.9-0.2s0.6,0,0.7,0.2c0.2,0.2,0.4,0.2,0.6,0.4s0.2,0.4,0.4,0.7
				C98.7,97.6,98.7,98,98.7,98.3z M98.1,98.3c0-0.2,0-0.6,0-0.7S98,97.2,98,97c-0.2-0.2-0.2-0.4-0.4-0.4c-0.2-0.2-0.4-0.2-0.7-0.2
				c-0.2,0-0.6,0-0.7,0.2c-0.2,0.2-0.4,0.2-0.4,0.4c-0.2,0.2-0.2,0.4-0.2,0.6s0,0.6,0,0.7c0,0.2,0,0.6,0,0.7s0.2,0.4,0.2,0.6
				c0.2,0.2,0.2,0.4,0.4,0.4c0.2,0.2,0.4,0.2,0.7,0.2c0.2,0,0.6,0,0.7-0.2c0.2-0.2,0.4-0.2,0.4-0.4c0.2-0.2,0.2-0.4,0.2-0.6
				C98.1,98.9,98.1,98.5,98.1,98.3z"/>
			<path class="st1" d="M103.6,100.3C103.6,100.3,103.6,100.5,103.6,100.3C103.6,100.5,103.6,100.5,103.6,100.3
				C103.5,100.5,103.5,100.5,103.6,100.3C103.5,100.5,103.5,100.5,103.6,100.3l-2.2,0.2l0,0l0,0l0,0l0,0l0,0l0,0l0,0l0,0h0.9v-3.7
				l-1.1,0.4l0,0l0,0l0,0c0,0,0,0,0-0.2l0,0l0,0l0,0l0,0l1.1-0.7l0,0l0,0l0,0l0,0c0,0,0,0,0.2,0l0,0l0,0l0,0v4H103.6
				C103.5,100.2,103.5,100.2,103.6,100.3C103.5,100.2,103.5,100.2,103.6,100.3L103.6,100.3L103.6,100.3z"/>
			<path class="st1" d="M107.1,99.2C107.1,99.4,107.1,99.4,107.1,99.2C107.1,99.4,107.1,99.4,107.1,99.2l-0.7,0.2v0.9l0,0l0,0l0,0
				c0,0,0,0-0.2,0c0,0,0,0-0.2,0l0,0l0,0l0,0v-0.9h-1.8l0,0l0,0l0,0l0,0l0,0l0,0l0,0l0,0l1.7-2.8l0,0l0,0l0,0c0,0,0,0,0.2,0h0.2
				c0,0,0,0,0.2,0l0,0l0,0v2.4L107.1,99.2C107.1,99.1,107.1,99.1,107.1,99.2L107.1,99.2z M106.2,96.5L106.2,96.5l-1.7,2.6h1.5v-2.6
				H106.2z"/>
			<path class="st1" d="M110.6,98.3c0,0.4,0,0.6,0,0.9c0,0.4-0.2,0.6-0.2,0.7c-0.2,0.2-0.2,0.4-0.6,0.6c-0.4,0.2-0.4,0.2-0.7,0.2
				c-0.2,0-0.6,0-0.7-0.2s-0.4-0.2-0.4-0.4c-0.2-0.2-0.2-0.4-0.2-0.7s0-0.6,0-0.9c0-0.4,0-0.6,0-0.9c0-0.4,0.2-0.6,0.2-0.7
				c0.2-0.2,0.2-0.4,0.6-0.6c0.2-0.2,0.4-0.2,0.7-0.2c0.2,0,0.6,0,0.7,0.2c0.2,0.2,0.4,0.2,0.4,0.4c0.2,0.2,0.2,0.4,0.2,0.7
				C110.6,97.6,110.6,98,110.6,98.3z M110.3,98.3c0-0.2,0-0.4,0-0.6c0-0.2,0-0.4,0-0.6c0-0.2,0-0.2-0.2-0.4c0-0.2-0.2-0.2-0.2-0.2
				l-0.2-0.2c-0.2,0-0.2,0-0.4,0c-0.2,0-0.4,0-0.6,0.2s-0.2,0.2-0.4,0.4c0,0.2-0.2,0.4-0.2,0.6c0,0.2,0,0.6,0,0.7c0,0.4,0,0.6,0,0.9
				c0,0.2,0.2,0.4,0.2,0.6c0,0.2,0.2,0.4,0.4,0.4c0.2,0,0.4,0.2,0.6,0.2c0.2,0,0.2,0,0.4,0c0.2,0,0.2-0.2,0.4-0.2
				c0,0,0.2-0.2,0.2-0.4c0-0.2,0-0.2,0.2-0.4c0-0.2,0-0.4,0-0.4C110.3,98.7,110.3,98.5,110.3,98.3z"/>
			<path class="st1" d="M114.1,98.3c0,0.4,0,0.6,0,0.9c0,0.4-0.2,0.6-0.2,0.7c-0.2,0.2-0.2,0.4-0.6,0.6c-0.4,0.2-0.4,0.2-0.7,0.2
				c-0.2,0-0.6,0-0.7-0.2c-0.2-0.2-0.4-0.2-0.4-0.4c-0.2-0.2-0.2-0.4-0.2-0.7s0-0.6,0-0.9c0-0.4,0-0.6,0-0.9c0-0.4,0.2-0.6,0.2-0.7
				c0.2-0.2,0.2-0.4,0.6-0.6c0.2-0.2,0.4-0.2,0.7-0.2c0.2,0,0.6,0,0.7,0.2c0.2,0.2,0.4,0.2,0.4,0.4c0.2,0.2,0.2,0.4,0.2,0.7
				C114.1,97.6,114.1,98,114.1,98.3z M113.6,98.3c0-0.2,0-0.4,0-0.6c0-0.2,0-0.4,0-0.6c0-0.2,0-0.2-0.2-0.4c0-0.2-0.2-0.2-0.2-0.2
				l-0.2-0.2c-0.2,0-0.2,0-0.4,0c-0.2,0-0.4,0-0.6,0.2s-0.2,0.2-0.4,0.4c0,0.2-0.2,0.4-0.2,0.6c0,0.2,0,0.6,0,0.7c0,0.4,0,0.6,0,0.9
				c0,0.2,0.2,0.4,0.2,0.6c0,0.2,0.2,0.4,0.4,0.4s0.4,0.2,0.6,0.2s0.2,0,0.4,0c0.2,0,0.2-0.2,0.4-0.2c0,0,0.2-0.2,0.2-0.4
				c0-0.2,0-0.2,0.2-0.4c0-0.2,0-0.4,0-0.4C113.6,98.7,113.6,98.5,113.6,98.3z"/>
			<path class="st1" d="M117.4,100.3C117.4,100.3,117.4,100.5,117.4,100.3C117.4,100.5,117.4,100.5,117.4,100.3
				C117.4,100.5,117.2,100.5,117.4,100.3C117.2,100.5,117.2,100.5,117.4,100.3l-2.2,0.2l0,0l0,0l0,0l0,0l0,0l0,0l0,0l0,0h0.9v-3.7
				l-0.9,0.4l0,0l0,0l0,0c0,0,0,0,0-0.2l0,0l0,0l0,0l0,0l1.1-0.7l0,0l0,0l0,0l0,0c0,0,0,0,0.2,0l0,0l0,0l0,0v4H117.4
				C117.2,100.2,117.2,100.2,117.4,100.3C117.2,100.2,117.4,100.2,117.4,100.3L117.4,100.3L117.4,100.3z"/>
		</g>
		<g>
			<path class="st1" d="M137.6,98.3c0,0.4,0,0.7-0.2,0.9c0,0.4-0.2,0.6-0.4,0.7c-0.2,0.2-0.4,0.4-0.6,0.6s-0.6,0.2-0.9,0.2
				s-0.6,0-0.9-0.2c-0.2-0.2-0.4-0.2-0.6-0.4c-0.2-0.2-0.2-0.4-0.4-0.7c0-0.4-0.2-0.6-0.2-0.9c0-0.4,0-0.7,0.2-0.9
				c0-0.4,0.2-0.6,0.4-0.7c0.2-0.2,0.4-0.4,0.6-0.6s0.6-0.2,0.9-0.2s0.6,0,0.9,0.2c0.2,0.2,0.4,0.2,0.6,0.4c0.2,0.2,0.2,0.4,0.4,0.7
				C137.6,97.6,137.6,98,137.6,98.3z M137.2,98.3c0-0.2,0-0.6,0-0.7S137,97.2,137,97c-0.2-0.2-0.2-0.4-0.4-0.4
				c-0.2-0.2-0.4-0.2-0.7-0.2c-0.2,0-0.6,0-0.7,0.2c-0.2,0.2-0.4,0.2-0.4,0.4c-0.2,0.2-0.2,0.4-0.2,0.6s0,0.6,0,0.7
				c0,0.2,0,0.6,0,0.7s0.2,0.4,0.2,0.6c0.2,0.2,0.2,0.4,0.4,0.4c0.2,0.2,0.4,0.2,0.7,0.2c0.4,0,0.6,0,0.7-0.2s0.4-0.2,0.4-0.4
				c0.2-0.2,0.2-0.4,0.2-0.6C137,98.9,137.2,98.5,137.2,98.3z"/>
			<path class="st1" d="M141.6,100.5L141.6,100.5L141.6,100.5C141.6,100.5,141.4,100.5,141.6,100.5c-0.2,0-0.2,0-0.2,0s0,0-0.2,0
				l0,0l0,0l0,0v-2h-2.2v2l0,0l0,0l0,0c0,0,0,0-0.2,0c0,0,0,0-0.2,0l0,0l0,0l0,0v-4.2l0,0l0,0l0,0c0,0,0,0,0.2,0c0,0,0,0,0.2,0l0,0
				l0,0l0,0v1.8h2.2v-1.8l0,0l0,0l0,0c0,0,0,0,0.2,0c0,0,0,0,0.2,0l0,0l0,0l0,0V100.5z"/>
			<path class="st1" d="M145.1,99.4c0,0.2,0,0.4-0.2,0.6c-0.2,0.2-0.2,0.4-0.4,0.4c-0.2,0.2-0.4,0.2-0.4,0.2c-0.2,0-0.4,0-0.6,0
				s-0.2,0-0.4,0s-0.2,0-0.4-0.2c-0.2,0-0.2,0-0.2-0.2c0,0-0.2,0-0.2-0.2c0,0,0,0,0-0.2c0,0,0,0,0-0.2c0,0,0,0,0-0.2l0,0l0,0l0,0
				c0,0,0,0,0.2,0c0,0,0.2,0,0.2,0.2c0,0,0.2,0,0.4,0.2c0.2,0,0.4,0,0.4,0c0.2,0,0.2,0,0.4,0c0.2,0,0.2,0,0.4-0.2l0.2-0.2
				c0-0.2,0-0.2,0-0.4c0-0.2,0-0.2,0-0.4c0-0.2-0.2-0.2-0.2-0.2c-0.2,0-0.2-0.2-0.4-0.2c-0.2,0-0.2-0.2-0.4-0.2
				c-0.2,0-0.2-0.2-0.4-0.2s-0.2-0.2-0.4-0.2c-0.2-0.2-0.2-0.2-0.2-0.4s0-0.4,0-0.4c0-0.2,0-0.4,0-0.6s0.2-0.2,0.2-0.4
				c0.2-0.2,0.2-0.2,0.4-0.2s0.4,0,0.6,0c0.2,0,0.2,0,0.4,0c0.2,0,0.2,0,0.2,0s0.2,0,0.2,0.2h0.2l0,0l0,0l0,0l0,0l0,0l0,0l0,0l0,0
				c0,0,0,0-0.2,0c0,0-0.2,0-0.2-0.2c0,0-0.2,0-0.2-0.2c-0.2,0-0.2,0-0.4,0s-0.2,0-0.4,0c-0.2,0-0.2,0-0.2,0.2l-0.2,0.2v0.2
				c0,0.2,0,0.2,0,0.4s0.2,0.2,0.2,0.2c0.2,0,0.2,0.2,0.4,0.2c0.2,0,0.2,0.2,0.4,0.2c0.2,0,0.2,0.2,0.4,0.2s0.2,0.2,0.4,0.2
				c0.2,0.2,0.2,0.2,0.2,0.4C145.1,99.1,145.1,99.2,145.1,99.4z"/>
			<path class="st1" d="M149.1,100.3C149.1,100.5,149.1,100.5,149.1,100.3C149.1,100.5,149.1,100.5,149.1,100.3
				C149.1,100.5,149.1,100.5,149.1,100.3c-0.2,0.2-0.2,0.2-0.2,0.2s0,0-0.2,0l0,0l0,0l0,0l-0.4-1.1h-1.8l-0.4,1.1l0,0l0,0l0,0
				c0,0,0,0-0.2,0c0,0,0,0-0.2,0l0,0l0,0l0,0l1.5-4.2l0,0l0,0l0,0c0,0,0,0,0.2,0c0,0,0,0,0.2,0l0,0l0,0l0,0L149.1,100.3z
				 M147.3,96.5L147.3,96.5l-0.9,2.4h1.7L147.3,96.5z"/>
			<path class="st1" d="M152.1,99.4c0,0.2,0,0.4-0.2,0.6c-0.2,0.2-0.2,0.4-0.4,0.4c-0.2,0.2-0.4,0.2-0.4,0.2c-0.2,0-0.4,0-0.6,0
				c-0.2,0-0.2,0-0.4,0c-0.2,0-0.2,0-0.4-0.2c-0.2,0-0.2,0-0.2-0.2c0,0-0.2,0-0.2-0.2c0,0,0,0,0-0.2c0,0,0,0,0-0.2c0,0,0,0,0-0.2
				l0,0l0,0l0,0c0,0,0,0,0.2,0c0,0,0.2,0,0.2,0.2c0,0,0.2,0,0.4,0.2c0.2,0,0.4,0,0.4,0c0.2,0,0.2,0,0.4,0s0.2,0,0.4-0.2l0.2-0.2
				c0-0.2,0-0.2,0-0.4c0-0.2,0-0.2,0-0.4c0-0.2-0.2-0.2-0.2-0.2c-0.2,0-0.2-0.2-0.4-0.2s-0.2-0.2-0.4-0.2c-0.2,0-0.2-0.2-0.4-0.2
				c-0.2,0-0.2-0.2-0.4-0.2c-0.2-0.2-0.2-0.2-0.2-0.4s0-0.4,0-0.4c0-0.2,0-0.4,0-0.6s0.2-0.2,0.2-0.4c0.2-0.2,0.2-0.2,0.4-0.2
				c0.2,0,0.4,0,0.6,0s0.2,0,0.4,0c0.2,0,0.2,0,0.2,0s0.2,0,0.2,0.2h0.2l0,0l0,0l0,0l0,0l0,0l0,0l0,0l0,0c0,0,0,0-0.2,0
				c0,0-0.2,0-0.2-0.2c0,0-0.2,0-0.2-0.2c-0.2,0-0.2,0-0.4,0c-0.2,0-0.2,0-0.4,0c-0.2,0-0.2,0-0.2,0.2l-0.2,0.2v0.2
				c0,0.2,0,0.2,0,0.4s0.2,0.2,0.2,0.2c0.2,0,0.2,0.2,0.4,0.2s0.2,0.2,0.4,0.2c0.2,0,0.2,0.2,0.4,0.2c0.2,0,0.2,0.2,0.4,0.2
				c0.2,0.2,0.2,0.2,0.2,0.4C152.1,99.1,152.1,99.2,152.1,99.4z"/>
			<path class="st1" d="M157,100.3C157,100.3,157,100.5,157,100.3C157,100.5,157,100.5,157,100.3C157,100.5,157,100.5,157,100.3
				C157,100.5,157,100.5,157,100.3l-2.4,0.2l0,0l0,0l0,0l0,0l0,0l0,0l0,0l0,0h0.9v-3.7l-0.7,0.4l0,0l0,0l0,0c0,0,0,0,0-0.2l0,0l0,0
				l0,0l0,0l1.1-0.7l0,0l0,0l0,0l0,0c0,0,0,0,0.2,0l0,0l0,0l0,0v4H157C157,100.2,157,100.2,157,100.3C157,100.2,157,100.2,157,100.3
				L157,100.3L157,100.3z"/>
			<path class="st1" d="M160.7,99.4c0,0.2,0,0.4-0.2,0.6c0,0.2-0.2,0.2-0.4,0.4c-0.2,0.2-0.4,0.2-0.6,0.2s-0.4,0-0.6,0s-0.4,0-0.6,0
				c-0.2,0-0.4-0.2-0.4-0.2c-0.2,0-0.2-0.2-0.4-0.4c0-0.2-0.2-0.4-0.2-0.6s0-0.4,0-0.4c0-0.2,0.2-0.2,0.2-0.4c0-0.2,0.2-0.2,0.4-0.4
				c0.2,0,0.4-0.2,0.4-0.2c-0.2,0-0.4-0.2-0.4-0.2c-0.2,0-0.2-0.2-0.4-0.2c0-0.2-0.2-0.2-0.2-0.4c0-0.2,0-0.2,0-0.4s0-0.4,0-0.4
				c0-0.2,0.2-0.2,0.2-0.4c0.2-0.2,0.2-0.2,0.4-0.2s0.4,0,0.6,0c0.2,0,0.4,0,0.6,0c0.2,0,0.4,0.2,0.4,0.2c0.2,0,0.2,0.2,0.2,0.4
				s0,0.2,0,0.4c0,0.2,0,0.2,0,0.4c0,0.2-0.2,0.2-0.2,0.4s-0.2,0.2-0.4,0.4c-0.2,0-0.2,0.2-0.4,0.2c0.2,0,0.4,0.2,0.6,0.2
				s0.2,0.2,0.4,0.2c0,0.2,0.2,0.2,0.2,0.4C160.7,99.2,160.7,99.2,160.7,99.4z M160.3,99.4c0-0.2,0-0.2,0-0.4c0-0.2-0.2-0.2-0.2-0.2
				s-0.2-0.2-0.4-0.2s-0.4-0.2-0.4-0.2c-0.2,0-0.4,0.2-0.4,0.2c-0.2,0-0.2,0.2-0.4,0.2l-0.2,0.2c0,0,0,0.2,0,0.4
				c0,0.2,0,0.4,0.2,0.6c0.2,0.2,0.4,0.2,0.7,0.2c0.4,0,0.6,0,0.7-0.2C160.3,99.8,160.3,99.8,160.3,99.4z M160.2,97
				c0-0.2,0-0.2,0-0.4l-0.2-0.2l-0.2-0.2c-0.2,0-0.2,0-0.4,0c-0.2,0-0.6,0-0.6,0.2c-0.2,0.2-0.2,0.4-0.2,0.6c0,0.2,0,0.2,0,0.2
				s0,0.2,0.2,0.2l0.2,0.2c0.2,0,0.2,0.2,0.4,0.2c0.2-0.2,0.6-0.2,0.6-0.4C160,97.4,160.2,97.2,160.2,97z"/>
			<path class="st1" d="M164.2,98.3c0,0.4,0,0.6,0,0.9c0,0.4-0.2,0.6-0.2,0.7c-0.2,0.2-0.4,0.4-0.6,0.6c-0.2,0.2-0.4,0.2-0.7,0.2
				c-0.2,0-0.6,0-0.7-0.2c-0.2-0.2-0.4-0.2-0.4-0.4c-0.2-0.4-0.2-0.6-0.2-0.9c0-0.4,0-0.6,0-0.9c0-0.4,0-0.6,0-0.9s0.2-0.6,0.2-0.7
				c0.2-0.2,0.4-0.4,0.6-0.6c0.2-0.2,0.4-0.2,0.7-0.2c0.2,0,0.6,0,0.7,0.2c0.2,0.2,0.4,0.2,0.4,0.4c0.2,0.2,0.2,0.4,0.2,0.7
				C164.2,97.6,164.2,98,164.2,98.3z M163.8,98.3c0-0.2,0-0.4,0-0.6c0-0.2,0-0.4,0-0.6c0-0.2,0-0.2-0.2-0.4c0-0.2-0.2-0.2-0.2-0.2
				l-0.2-0.2c-0.2,0-0.2,0-0.4,0s-0.4,0-0.6,0.2c-0.2,0.2-0.2,0.2-0.4,0.4c0,0.2-0.2,0.4-0.2,0.6c0,0.2,0,0.6,0,0.7
				c0,0.4,0,0.6,0,0.9c0,0.2,0.2,0.4,0.2,0.6c0,0.2,0.2,0.4,0.4,0.4s0.4,0.2,0.6,0.2c0.2,0,0.4,0,0.4,0c0.2,0,0.2-0.2,0.4-0.2
				c0,0,0.2-0.2,0.2-0.4c0-0.2,0.2-0.2,0.2-0.4c0-0.2,0-0.4,0-0.4C163.8,98.7,163.8,98.5,163.8,98.3z"/>
			<path class="st1" d="M167.9,98.3c0,0.4,0,0.6,0,0.9c0,0.4-0.2,0.6-0.2,0.7c-0.2,0.2-0.4,0.4-0.6,0.6c-0.2,0.2-0.4,0.2-0.7,0.2
				c-0.2,0-0.6,0-0.7-0.2c-0.2-0.2-0.4-0.2-0.4-0.4c-0.2-0.2-0.2-0.4-0.2-0.7s0-0.6,0-0.9c0-0.4,0-0.6,0-0.9c0-0.4,0.2-0.6,0.2-0.7
				c0.2-0.2,0.4-0.4,0.6-0.6c0.2-0.2,0.4-0.2,0.7-0.2c0.2,0,0.6,0,0.7,0.2c0.2,0.2,0.4,0.2,0.4,0.4c0.2,0.2,0.2,0.4,0.2,0.7
				C167.7,97.6,167.9,98,167.9,98.3z M167.3,98.3c0-0.2,0-0.4,0-0.6c0-0.2,0-0.4,0-0.6c0-0.2,0-0.2-0.2-0.4c0-0.2-0.2-0.2-0.2-0.2
				l-0.2-0.2c-0.2,0-0.2,0-0.4,0c-0.2,0-0.4,0-0.6,0.2s-0.2,0.2-0.4,0.4c0,0.2-0.2,0.4-0.2,0.6c0,0.2,0,0.6,0,0.7c0,0.4,0,0.6,0,0.9
				c0,0.2,0.2,0.4,0.2,0.6c0,0.2,0.2,0.4,0.4,0.4c0.2,0,0.4,0.2,0.6,0.2c0.2,0,0.4,0,0.4,0c0.2,0,0.2-0.2,0.4-0.2
				c0,0,0.2-0.2,0.2-0.4c0-0.2,0.2-0.2,0.2-0.4c0-0.2,0-0.4,0-0.4C167.3,98.7,167.3,98.5,167.3,98.3z"/>
			<path class="st1" d="M171.2,100.3C171.2,100.3,171.2,100.5,171.2,100.3C171.2,100.5,171.2,100.5,171.2,100.3
				C171.2,100.5,171.2,100.5,171.2,100.3C171,100.5,171,100.5,171.2,100.3l-2.4,0.2l0,0l0,0l0,0l0,0l0,0l0,0l0,0l0,0h0.9v-3.7
				l-0.9,0.4l0,0l0,0l0,0c0,0,0,0,0-0.2l0,0l0,0l0,0l0,0l1.1-0.7l0,0l0,0l0,0l0,0c0,0,0,0,0.2,0l0,0l0,0l0,0v4H171.2
				C171,100.2,171.2,100.2,171.2,100.3C171.2,100.2,171.2,100.2,171.2,100.3L171.2,100.3L171.2,100.3z"/>
		</g>
		<g>
			<path class="st0" d="M135.6,73.2c-0.2-0.6-0.4-1.1-1.1-1.1c-0.7,0-0.9,0.6-0.9,0.9c0,0.6,0.6,0.7,1.3,1.1
				c0.7,0.2,1.7,0.6,1.7,1.7c0,0.7-0.6,1.7-1.8,1.7c-0.6,0-1.1-0.2-1.5-0.6c-0.4-0.4-0.6-0.9-0.6-1.1l0.6-0.2c0,0.4,0.4,1.3,1.3,1.3
				s1.1-0.6,1.1-0.9c0-0.7-0.6-0.9-1.1-1.1c-0.7-0.2-0.9-0.4-1.3-0.6c-0.4-0.2-0.6-0.7-0.6-1.1c0-0.7,0.6-1.5,1.7-1.5
				c1.3,0,1.7,1.1,1.7,1.5L135.6,73.2z"/>
			<path class="st0" d="M137.8,75.4c0,0.4,0,1.7,0.9,1.7c0.6,0,0.7-0.6,0.9-0.9l0.6,0.2c-0.2,0.9-0.9,1.3-1.5,1.3
				c-1.3,0-1.7-1.1-1.7-2.2c0-1.7,0.7-2.4,1.7-2.4s1.5,0.7,1.5,2.4H137.8z M139.6,74.8c0-0.6-0.2-1.3-0.9-1.3
				c-0.7,0-0.9,0.7-0.9,1.3H139.6z"/>
			<path class="st0" d="M144.2,73C144,73,144,73,144.2,73c-0.6,0-0.6,0.2-0.6,0.6c0.2,0.2,0.4,0.4,0.4,0.9s-0.4,1.5-1.5,1.5
				c-0.2,0-0.4,0-0.6,0s-0.4,0.2-0.4,0.4c0,0.4,0.2,0.4,1.1,0.4s1.7,0,1.7,1.1s-1.5,1.3-1.8,1.3c-0.6,0-1.7-0.2-1.7-1.1
				c0-0.6,0.4-0.7,0.6-0.9c-0.2-0.2-0.4-0.4-0.4-0.7c0-0.4,0.2-0.6,0.6-0.7c-0.2-0.2-0.6-0.6-0.6-1.1c0-0.9,0.7-1.5,1.5-1.5
				c0.4,0,0.6,0.2,0.7,0.2c0.2-0.7,0.6-0.7,0.9-0.7V73z M141.4,78c0,0.6,0.4,0.7,1.1,0.7c0.4,0,1.1,0,1.1-0.7c0-0.2,0-0.4-0.4-0.6
				c-0.2,0-0.4,0-1.5,0C141.6,77.4,141.4,77.6,141.4,78z M141.6,74.7c0,0.7,0.4,0.9,0.7,0.9s0.7-0.4,0.7-0.9c0-0.4-0.2-0.9-0.7-0.9
				C141.8,73.6,141.6,74.3,141.6,74.7z"/>
			<path class="st0" d="M145.5,73.2v2.8c0,0.7,0,1.1,0.7,1.1c0.9,0,0.9-1.3,0.9-1.8v-2h0.6v4.2h-0.6v-0.6c-0.2,0.4-0.4,0.7-1.1,0.7
				c-0.2,0-0.7,0-0.9-0.6c-0.2-0.4-0.2-0.9-0.2-1.1v-2.8C144.9,73.2,145.5,73.2,145.5,73.2z"/>
			<path class="st0" d="M149.3,73.2v0.9c0.2-0.4,0.4-1.1,1.3-0.9v0.7c-0.7,0-1.1,0.4-1.1,1.5v2.2H149v-4.2h0.4V73.2z"/>
			<path class="st0" d="M151,72.5v-0.7h0.7v0.7H151z M151.5,73.2v4.2H151v-4.2H151.5z"/>
			<path class="st0" d="M155.7,71.7v5.7h-0.6v-0.6c-0.2,0.2-0.4,0.7-1.1,0.7c-1.3,0-1.5-1.5-1.5-2.2c0-1.5,0.6-2.2,1.5-2.2
				c0.7,0,0.9,0.4,1.1,0.7v-2h0.6V71.7z M155,75c0-0.2,0-0.6-0.2-0.9c-0.2-0.4-0.6-0.4-0.7-0.4c-0.7,0-0.9,0.9-0.9,1.7
				c0,0.9,0.2,1.7,0.9,1.7c0.2,0,0.6-0.2,0.7-0.4c0.2-0.2,0.2-0.6,0.2-1.1V75z"/>
			<path class="st0" d="M156.8,74.1c0-0.2,0.2-0.6,0.7-0.9c0.2,0,0.4-0.2,0.7-0.2c0.6,0,0.9,0.2,1.1,0.4c0.2,0.4,0.2,0.9,0.2,1.3
				v1.3c0,0.9,0,1.1,0,1.3h-0.6c0-0.4,0-0.4,0-0.7c-0.2,0.4-0.4,0.9-1.3,0.9c-0.7,0-1.3-0.6-1.3-1.3c0-0.4,0.2-0.7,0.4-0.9
				c0.4-0.4,0.9-0.6,1.5-0.6c0.2,0,0.4,0,0.6,0v-0.2c0-0.4,0-1.1-0.7-1.1c-0.7,0-0.7,0.6-0.9,0.7L156.8,74.1z M158.5,75.4
				c-0.9,0-1.3,0.4-1.3,1.1c0,0.4,0.2,0.7,0.7,0.7c0.4,0,0.7-0.2,0.9-0.6c0.2-0.4,0.2-0.7,0.2-1.1C158.9,75.4,158.9,75.4,158.5,75.4
				z"/>
			<path class="st0" d="M163.8,71.7v5.7h-0.6v-0.6c-0.2,0.2-0.4,0.7-1.1,0.7c-1.3,0-1.5-1.5-1.5-2.2c0-1.5,0.6-2.2,1.5-2.2
				c0.7,0,0.9,0.4,1.1,0.7v-2h0.6V71.7z M163.3,75c0-0.2,0-0.6-0.2-0.9c-0.2-0.4-0.6-0.4-0.7-0.4c-0.7,0-0.9,0.9-0.9,1.7
				c0,0.9,0.2,1.7,0.9,1.7c0.2,0,0.6-0.2,0.7-0.4c0.2-0.2,0.2-0.6,0.2-1.1V75z"/>
			<path class="st0" d="M167.3,73.2l0.9,3.1l0.9-3.1h0.6l-1.5,4.8c-0.2,0.6-0.4,1.1-1.1,1.1c-0.2,0-0.4,0-0.4,0v-0.6
				c0.2,0,0.2,0,0.4,0c0.6,0,0.6-0.2,0.9-1.3l-1.3-4C166.8,73.2,167.3,73.2,167.3,73.2z"/>
			<path class="st0" d="M135.6,82.7c-0.2-0.6-0.4-1.1-1.1-1.1c-0.7,0-0.9,0.6-0.9,0.9c0,0.6,0.6,0.7,1.3,1.1
				c0.7,0.2,1.7,0.6,1.7,1.7c0,0.7-0.6,1.7-1.8,1.7c-0.6,0-1.1-0.2-1.5-0.6c-0.4-0.4-0.6-0.9-0.6-1.1l0.6-0.2c0,0.4,0.4,1.3,1.3,1.3
				s1.1-0.6,1.1-0.9c0-0.7-0.6-0.9-1.1-1.1c-0.7-0.2-0.9-0.4-1.3-0.6c-0.4-0.2-0.6-0.7-0.6-1.1c0-0.7,0.6-1.5,1.7-1.5
				c1.3,0,1.7,1.1,1.7,1.5L135.6,82.7z"/>
			<path class="st0" d="M137.2,83.8c0-0.2,0.2-0.6,0.7-0.9c0.2,0,0.4-0.2,0.7-0.2c0.6,0,0.9,0.2,1.1,0.4c0.2,0.4,0.2,0.9,0.2,1.3
				v1.3c0,0.9,0,1.1,0,1.3h-0.6c0-0.4,0-0.4,0-0.7c-0.2,0.4-0.4,0.9-1.3,0.9c-0.7,0-1.3-0.6-1.3-1.3c0-0.4,0.2-0.7,0.4-0.9
				c0.4-0.4,0.9-0.6,1.5-0.6c0.2,0,0.4,0,0.6,0v-0.2c0-0.4,0-1.1-0.7-1.1c-0.7,0-0.7,0.6-0.9,0.7L137.2,83.8z M139.1,84.9
				c-0.9,0-1.3,0.4-1.3,1.1c0,0.4,0.2,0.7,0.7,0.7c0.4,0,0.7-0.2,0.9-0.6c0.2-0.4,0.2-0.7,0.2-1.1C139.2,84.9,139.2,84.9,139.1,84.9
				z"/>
			<path class="st0" d="M142,81.3V87h-0.7v-5.7H142z"/>
			<path class="st0" d="M143.6,82.7v2.8c0,0.7,0,1.1,0.7,1.1c0.9,0,0.9-1.3,0.9-1.8v-2h0.6V87h-0.6v-0.6c-0.2,0.4-0.4,0.7-1.1,0.7
				c-0.2,0-0.7,0-0.9-0.6c-0.2-0.4-0.2-0.9-0.2-1.1v-2.8H143.6z"/>
			<path class="st0" d="M150.1,81.3V87h-0.6v-0.6c-0.2,0.2-0.4,0.7-1.1,0.7c-1.3,0-1.5-1.5-1.5-2.2c0-1.5,0.6-2.2,1.5-2.2
				c0.7,0,0.9,0.4,1.1,0.7v-2h0.6V81.3z M149.3,84.6c0-0.2,0-0.6-0.2-0.9c-0.2-0.4-0.6-0.4-0.7-0.4c-0.7,0-0.9,0.9-0.9,1.7
				c0,0.9,0.2,1.7,0.9,1.7c0.2,0,0.6-0.2,0.7-0.4c0.2-0.2,0.2-0.6,0.2-1.1V84.6z"/>
			<path class="st0" d="M154.1,81.3v5.1h2.2V87h-2.9v-5.7H154.1z"/>
			<path class="st0" d="M156.7,83.8c0-0.2,0.2-0.6,0.7-0.9c0.2,0,0.4-0.2,0.7-0.2c0.6,0,0.9,0.2,1.1,0.4c0.4,0.4,0.4,0.7,0.4,1.3
				v1.3c0,0.9,0,1.1,0,1.3h-0.6c0-0.4,0-0.4,0-0.7c-0.2,0.4-0.4,0.9-1.3,0.9c-0.7,0-1.3-0.6-1.3-1.3c0-0.4,0.2-0.7,0.4-0.9
				c0.4-0.4,0.9-0.6,1.5-0.6c0.2,0,0.4,0,0.6,0v-0.2c0-0.4,0-1.1-0.7-1.1c-0.7,0-0.7,0.6-0.9,0.7L156.7,83.8z M158.3,84.9
				c-0.9,0-1.3,0.4-1.3,1.1c0,0.4,0.2,0.7,0.7,0.7c0.4,0,0.7-0.2,0.9-0.6c0.2-0.4,0.2-0.7,0.2-1.1C158.7,84.9,158.7,84.9,158.3,84.9
				z"/>
			<path class="st0" d="M161.3,81.3v2c0.2-0.2,0.4-0.7,1.1-0.7c0.4,0,0.7,0.2,0.9,0.4c0.6,0.6,0.6,1.3,0.6,1.8
				c0,0.7-0.2,2.2-1.7,2.2c-0.7,0-0.9-0.4-1.1-0.7c0,0.2,0,0.2-0.2,0.6h-0.4v-5.7h0.7V81.3z M161.3,85.1c0,0.4,0,1.5,0.9,1.5
				c0.9,0,0.9-1.1,0.9-1.8c0-0.9-0.2-1.7-0.9-1.7c-0.6,0-0.9,0.6-0.9,1.3V85.1z"/>
			<path class="st0" d="M167.9,84.9c0,0.7-0.2,2.4-1.7,2.4c-1.3,0-1.7-1.3-1.7-2.2c0-0.9,0.2-2.2,1.7-2.2
				C167.5,82.7,167.9,84,167.9,84.9z M165.3,84.9c0,0.6,0,1.7,0.9,1.7c0.9,0,0.9-1.3,0.9-1.7c0-0.4,0-1.7-0.9-1.7
				C165.3,83.1,165.3,84.4,165.3,84.9z"/>
			<path class="st0" d="M169.3,82.7v0.9c0.2-0.4,0.4-1.1,1.3-0.9v0.7c-0.7,0-1.1,0.4-1.1,1.5v2.2h-0.7v-4.2h0.6V82.7z"/>
			<path class="st0" d="M171,83.8c0-0.2,0.2-0.6,0.7-0.9c0.2,0,0.4-0.2,0.7-0.2c0.6,0,0.9,0.2,1.1,0.4c0.2,0.4,0.2,0.9,0.2,1.3v1.3
				c0,0.9,0,1.1,0,1.3h-0.6c0-0.4,0-0.4,0-0.7c-0.2,0.4-0.4,0.9-1.3,0.9c-0.7,0-1.3-0.6-1.3-1.3c0-0.4,0.2-0.7,0.4-0.9
				c0.4-0.4,0.9-0.6,1.5-0.6c0.2,0,0.4,0,0.6,0v-0.2c0-0.4,0-1.1-0.7-1.1c-0.7,0-0.7,0.6-0.9,0.7L171,83.8z M172.6,84.9
				c-0.9,0-1.3,0.4-1.3,1.1c0,0.4,0.2,0.7,0.7,0.7c0.4,0,0.7-0.2,0.9-0.6c0.2-0.4,0.2-0.7,0.2-1.1C173,84.9,172.8,84.9,172.6,84.9z"
				/>
			<path class="st0" d="M175.6,81.3V87H175v-5.7H175.6z"/>
		</g>
		<g>
			<path class="st0" d="M15.2,71.7v0.9h-2.9v1.8h2.4v0.9h-2.4v2h2.9v0.9h-4v-6.6H15.2z"/>
			<path class="st0" d="M16,73.4h0.9v0.7c0.4-0.4,0.6-0.7,1.5-0.7s1.1,0.6,1.3,0.9c0.2-0.4,0.4-0.9,1.3-0.9c0.4,0,0.9,0,1.1,0.6
				c0.2,0.4,0.2,0.9,0.2,1.5v3.1h-1.1v-3.3c0-0.7,0-1.1-0.6-1.1c-0.6,0-0.9,0.6-0.9,1.3v2.9h-1.1v-2.9c0-0.7,0-0.7-0.2-0.9
				s-0.4-0.2-0.6-0.2c-0.9,0-0.9,0.9-0.9,1.3v2.8H16V73.4z"/>
			<path class="st0" d="M24.4,73.4v0.7c0.2-0.4,0.6-0.9,1.3-0.9c1.1,0,1.8,0.9,1.8,2.4c0,0.6,0,1.7-0.7,2.2
				c-0.4,0.4-0.7,0.4-1.1,0.4c-0.7,0-0.9-0.4-1.1-0.6v2.2h-1.1v-6.4H24.4z M24.6,76.3c0,0.4,0,0.7,0.2,0.9c0.2,0.2,0.4,0.4,0.7,0.4
				c0.7,0,0.9-0.7,0.9-1.8c0-0.9-0.2-1.7-0.9-1.7c-0.2,0-0.4,0-0.7,0.4c-0.4,0.4-0.4,0.7-0.4,1.1v0.7H24.6z"/>
			<path class="st0" d="M29.5,73.4v1.1c0.2-0.4,0.4-1.3,1.3-1.3H31v1.1c-1.1-0.2-1.5,0.7-1.5,1.5v2.6h-1.1v-5H29.5z"/>
			<path class="st0" d="M32.3,75.9c0,0.6,0,1.7,1.1,1.7c0.7,0,0.9-0.6,0.9-0.9l0.9,0.2c-0.2,0.4-0.4,1.5-2,1.5c-1.5,0-2-1.3-2-2.6
				c0-1.8,0.9-2.6,2-2.6c0.9,0,1.5,0.6,1.7,0.9c0.4,0.7,0.4,1.3,0.4,1.8C35.2,75.9,32.3,75.9,32.3,75.9z M34.1,75.4
				c0-0.2,0-0.4-0.2-0.7c-0.2-0.6-0.6-0.6-0.7-0.6c-0.7,0-0.9,0.6-0.9,1.3H34.1z"/>
			<path class="st0" d="M38.5,74.8c0-0.2-0.2-0.7-0.9-0.7c-0.4,0-0.7,0.4-0.7,0.6c0,0.4,0.4,0.6,1.1,0.7c0.6,0.2,1.5,0.6,1.5,1.5
				c0,0.7-0.6,1.5-2,1.5c-1.7,0-1.8-1.1-1.8-1.5l0.9-0.2c0,0.2,0.2,0.9,1.1,0.9c0.7,0,0.7-0.6,0.7-0.7c0-0.6-0.6-0.6-0.9-0.7
				c-0.7-0.2-1.7-0.6-1.7-1.5c0-0.7,0.6-1.5,1.8-1.5s1.7,0.9,1.7,1.3L38.5,74.8z"/>
			<path class="st0" d="M40.4,74.7c0.2-1.3,1.5-1.3,1.8-1.3c0.7,0,1.3,0.2,1.5,0.6c0.4,0.2,0.4,0.9,0.4,1.3v1.7c0,0.4,0,1.1,0,1.3
				h-1.1c0-0.2,0-0.4,0-0.7c-0.2,0.4-0.6,0.9-1.5,0.9S40,77.8,40,76.9c0-0.7,0.6-1.3,1.1-1.5c0.4-0.2,1.1-0.2,1.8-0.2V75
				c0-0.4,0-1.1-0.7-1.1c-0.7,0-0.7,0.6-0.9,0.7L40.4,74.7z M42.9,75.9c-0.2,0-0.2,0-0.4,0c-1.3,0-1.5,0.6-1.5,1.1s0.4,0.7,0.7,0.7
				c0.6,0,1.1-0.4,1.1-1.5V75.9z"/>
			<path class="st0" d="M13.2,80c0.7,0,1.1,0,1.5,0.4c0.4,0.2,0.7,0.7,0.7,1.5c0,1.3-0.7,1.7-1.1,1.7l1.3,2.9h-1.1l-1.1-2.8h-1.1
				v2.8h-1.1v-6.6h2V80z M12.3,80.9v2.2h0.9c0.9,0,1.1-0.6,1.1-1.1c0-1.1-0.9-1.1-1.1-1.1C13.2,80.9,12.3,80.9,12.3,80.9z"/>
			<path class="st0" d="M17.6,84.4c0,0.6,0,1.7,1.1,1.7c0.7,0,0.9-0.6,0.9-0.9l0.9,0.2c-0.2,0.4-0.4,1.5-2,1.5c-1.5,0-2-1.3-2-2.6
				c0-1.8,0.9-2.6,2-2.6c0.9,0,1.5,0.6,1.7,0.9c0.4,0.7,0.4,1.3,0.4,1.8C20.5,84.4,17.6,84.4,17.6,84.4z M19.4,83.7
				c0-0.2,0-0.4-0.2-0.7c-0.2-0.6-0.6-0.6-0.7-0.6c-0.7,0-0.9,0.6-0.9,1.3H19.4z"/>
			<path class="st0" d="M25.5,81.8c-0.2,0-0.2,0-0.2,0c-0.4,0-0.6,0.2-0.6,0.6c0.2,0.4,0.4,0.7,0.4,1.1c0,0.7-0.6,1.7-1.8,1.7
				c-0.4,0-0.6,0-0.7,0s-0.4,0.2-0.4,0.4c0,0.4,0.2,0.4,1.3,0.4s2,0.2,2,1.3c0,1.3-1.5,1.5-2.4,1.5c-0.7,0-2.2-0.2-2.2-1.3
				c0-0.7,0.6-0.9,0.7-0.9c-0.2-0.2-0.6-0.4-0.6-0.7c0-0.6,0.6-0.9,0.7-0.9c-0.2-0.2-0.7-0.4-0.7-1.3s0.7-1.7,1.8-1.7
				c0.6,0,0.7,0.2,0.9,0.2c0-0.4,0.2-0.9,0.9-0.9c0.2,0,0.2,0,0.4,0L25.5,81.8z M22,87.1c0,0.6,0.6,0.7,1.3,0.7c0.6,0,1.3,0,1.3-0.7
				c0-0.4-0.4-0.6-0.6-0.6s-1.3,0-1.5,0C22.4,86.6,22,86.6,22,87.1z M22.6,83.3c0,0.2,0,0.9,0.7,0.9c0.7,0,0.7-0.7,0.7-0.9
				s0-0.9-0.7-0.9C22.6,82.4,22.6,82.9,22.6,83.3z"/>
			<path class="st0" d="M26.2,81.1V80h1.1v1.1H26.2z M27.3,81.8v5h-1.1v-5H27.3z"/>
			<path class="st0" d="M30.8,83.1c0-0.2-0.2-0.7-0.9-0.7c-0.4,0-0.7,0.4-0.7,0.6c0,0.4,0.4,0.6,1.1,0.7c0.6,0.2,1.5,0.6,1.5,1.5
				c0,0.7-0.6,1.5-2,1.5c-1.7,0-1.8-1.1-1.8-1.5l0.9-0.2c0,0.2,0.2,0.9,1.1,0.9c0.7,0,0.7-0.6,0.7-0.7c0-0.6-0.6-0.6-0.9-0.7
				c-0.7-0.2-1.7-0.6-1.7-1.5c0-0.7,0.6-1.5,1.8-1.5c1.3,0,1.7,0.9,1.7,1.3L30.8,83.1z"/>
			<path class="st0" d="M34.9,82.6h-0.9v2.2c0,0.9,0,1.1,0.7,1.1c0.2,0,0.4,0,0.4,0v0.7c-0.2,0-0.6,0-0.7,0c-1.5,0-1.5-0.9-1.5-2v-2
				h-0.7v-0.7h0.7v-1.3h0.9v1.3h1.1V82.6z"/>
			<path class="st0" d="M36.7,81.8v1.1c0.2-0.4,0.4-1.3,1.3-1.3h0.2v1.1c-1.1-0.2-1.5,0.7-1.5,1.5v2.6h-1.1v-5
				C35.6,81.8,36.7,81.8,36.7,81.8z"/>
			<path class="st0" d="M38.5,83.1c0.2-1.3,1.5-1.3,2-1.3c0.7,0,1.3,0.2,1.5,0.6c0.2,0.2,0.2,0.7,0.2,1.3v1.7c0,0.4,0,1.1,0,1.3
				h-1.1c0-0.2,0-0.4,0-0.7c-0.2,0.4-0.6,0.9-1.5,0.9c-0.9,0-1.5-0.6-1.5-1.5c0-0.7,0.6-1.3,1.1-1.5c0.4-0.2,1.1-0.2,1.8-0.2v-0.2
				c0-0.4,0-1.1-0.7-1.1s-0.7,0.6-0.9,0.7L38.5,83.1z M41.1,84.2c-0.2,0-0.2,0-0.4,0c-1.3,0-1.5,0.6-1.5,1.1S39.6,86,40,86
				c0.6,0,1.1-0.4,1.1-1.5V84.2z"/>
			<path class="st0" d="M47.3,80v6.6h-0.9v-0.7c-0.2,0.4-0.4,0.9-1.3,0.9c-1.5,0-1.8-1.7-1.8-2.6c0-1.7,0.7-2.6,1.8-2.6
				c0.7,0,1.1,0.4,1.3,0.7v-2.2h0.9V80z M46.2,83.8c0-0.4,0-0.6-0.2-0.9c-0.2-0.2-0.4-0.4-0.7-0.4c-0.7,0-0.9,0.9-0.9,1.7
				c0,0.9,0.2,1.8,0.9,1.8c0.4,0,0.6-0.2,0.7-0.4c0.2-0.2,0.2-0.4,0.2-0.9V83.8z"/>
			<path class="st0" d="M48.4,83.1c0.2-1.3,1.5-1.3,2-1.3c0.7,0,1.3,0.2,1.5,0.6c0.4,0.4,0.4,0.9,0.4,1.5v1.7c0,0.4,0,1.1,0,1.3
				h-0.9c0-0.2,0-0.4,0-0.7c-0.2,0.4-0.6,0.9-1.5,0.9s-1.5-0.6-1.5-1.5c0-0.7,0.6-1.3,1.1-1.5c0.4-0.2,1.1-0.2,1.8-0.2v-0.2
				c0-0.4,0-1.1-0.7-1.1s-0.7,0.6-0.9,0.7L48.4,83.1z M51.2,84.2c-0.2,0-0.2,0-0.4,0c-1.3,0-1.5,0.6-1.5,1.1s0.4,0.7,0.7,0.7
				c0.6,0,1.1-0.4,1.1-1.5V84.2z"/>
		</g>
	</g>
</g>
</svg>
