<?xml version="1.0" encoding="utf-8"?>
<!-- Generator: Adobe Illustrator 25.0.0, SVG Export Plug-In . SVG Version: 6.00 Build 0)  -->
<svg version="1.1" id="Capa_1" xmlns="http://www.w3.org/2000/svg" xmlns:xlink="http://www.w3.org/1999/xlink" x="0px" y="0px"
	 viewBox="0 0 195.9 52.8" style="enable-background:new 0 0 195.9 52.8;" xml:space="preserve">
<style type="text/css">
	.st0{fill:#FFFFFF;}
</style>
<g>
	<g>
		<path class="st0" d="M195.6,25.8c-0.2-0.7-0.5-1.4-1.1-2c-0.6-0.7-1.4-1.1-2.4-1.3c-1-0.2-2.8-0.3-5.4-0.3c-0.6,0-1.1,0-1.6,0
			c-2.7,0-4.7,0.2-6,0.5c-1.5,0.4-2.6,1.1-3.3,2.2c-0.5,0.7-0.7,1.7-0.8,3h5.9c0.1-0.8,0.4-1.3,0.9-1.5c0.5-0.1,1.6-0.2,3.3-0.2
			c0.2,0,0.5,0,0.7,0c1.8,0,3,0.2,3.4,0.5c0.5,0.3,0.7,1.1,0.7,2.5V30h-0.2c-0.5-0.5-1-0.9-1.6-1c-0.6-0.2-1.6-0.3-3-0.3
			c-3.2,0-5.3,0.1-6.5,0.3c-1.2,0.2-2.2,0.7-2.9,1.4c-0.9,0.8-1.4,2.2-1.4,4.2c0,1.7,0.4,3,1.2,3.8c0.5,0.5,1.2,0.8,2.1,1.1
			c0.9,0.2,2.1,0.3,3.7,0.3c1.6,0,2.9-0.1,3.8-0.1c0.2,0,0.4,0,0.6-0.1c0.9,0,1.6-0.2,2.1-0.4c0.9-0.5,1.6-1.2,2.1-2.1h0.3v2.2h5.7
			v-9.9C195.9,27.8,195.8,26.6,195.6,25.8z M188.7,35.4c-0.7,0.2-1.9,0.3-3.6,0.4c-0.2,0-0.4,0-0.7,0c-1.6,0-2.7-0.2-3.2-0.4
			c-0.6-0.2-0.9-0.7-0.9-1.4c0-0.6,0.3-1,0.9-1.3c0.5-0.3,1.7-0.4,3.7-0.4c0.1,0,0.1,0,0.2,0c2.2,0,3.5,0.1,3.7,0.2
			c0.7,0.2,1,0.7,1,1.4C189.8,34.6,189.4,35.1,188.7,35.4z"/>
		<path class="st0" d="M149.7,24.4c-0.7-0.7-1.6-1.3-2.6-1.6c-1.1-0.3-2.4-0.5-4.1-0.5c-1.9,0-3.5,0.3-4.5,0.8
			c-1.1,0.5-1.9,1.4-2.4,2.7c-0.6-1.3-1.5-2.2-2.6-2.7c-1.2-0.5-2.7-0.8-4.6-0.8c-3.5,0-5.6,1-6.5,2.9h-0.3v-2.5h-5.6v16.6h5.9v-6.9
			c0-1.3,0.1-2.4,0.2-3c0.2-0.6,0.4-1.1,0.7-1.5c0.7-0.7,1.9-1,3.7-1c1.7,0,2.8,0.3,3.3,0.9c0.3,0.3,0.5,0.7,0.5,1.1
			c0.1,0.5,0.1,1.3,0.1,2.6v7.8h6v-6.9c0-1.3,0.1-2.3,0.2-2.9c0.1-0.7,0.4-1.2,0.7-1.5c0.6-0.8,1.8-1.1,3.6-1.1
			c1.6,0,2.7,0.3,3.3,0.9c0.3,0.3,0.5,0.7,0.6,1.2c0,0.4,0.1,1.3,0.1,2.5v7.8h6v-7.8c0-2.1-0.1-3.7-0.4-4.6
			C150.8,25.9,150.4,25.2,149.7,24.4z"/>
		<path class="st0" d="M172.6,29.9c-1-0.8-2.7-1.2-4.9-1.2c-4.7,0-7.4-0.1-8.2-0.1c-0.9-0.1-1.4-0.5-1.4-1.2c0-0.5,0.4-0.8,1-1
			c0.7-0.2,2-0.3,3.9-0.3c2,0,3.3,0.1,3.7,0.4c0.2,0.2,0.3,0.4,0.5,0.8h6c0-1-0.2-1.7-0.3-2.3c-0.2-0.5-0.5-0.9-0.9-1.3
			c-0.7-0.6-1.7-1-2.9-1.2c-1.2-0.2-3.2-0.3-5.9-0.3c-4.3,0-7.2,0.3-8.5,0.8c-1.7,0.8-2.6,2.4-2.6,4.8c0,1.3,0.3,2.4,0.8,3.1
			c0.6,1,1.9,1.7,3.8,1.9c0.6,0.1,2.4,0.2,5.3,0.2c3.1,0,4.8,0.1,5.1,0.2c0.7,0.2,1,0.6,1,1.1c0,0.6-0.4,1-1.1,1.3
			c-0.7,0.2-2,0.3-3.9,0.3s-3.2-0.1-3.9-0.4c-0.7-0.3-1-0.8-1.1-1.5h-6.1c0,1.8,0.5,3.2,1.4,4c0.7,0.7,1.7,1.2,3,1.4
			c1.3,0.3,3.4,0.4,6.3,0.4c4.5,0,7.5-0.4,8.8-1c0.9-0.4,1.5-1,1.9-1.8c0.4-0.8,0.6-1.8,0.6-3.1C174.1,32,173.6,30.6,172.6,29.9z"/>
		<path class="st0" d="M110.8,22.6c-1.1-0.2-3-0.3-5.6-0.3c-0.1,0-0.1,0-0.2,0c-2.9,0-5.1,0.2-6.5,0.5c-1.7,0.4-2.8,1.3-3.5,2.6
			c-0.3,0.7-0.5,1.4-0.6,2.2c-0.1,0.8-0.2,2-0.2,3.6c0,2.1,0.2,3.6,0.5,4.7c0.2,1,0.8,1.8,1.5,2.4c0.8,0.6,1.7,1,3,1.2
			c1.2,0.3,3,0.4,5.3,0.4c0.2,0,0.4,0,0.5,0c2.6,0,4.5-0.2,5.9-0.4c1.4-0.3,2.5-0.8,3.2-1.5c0.9-0.8,1.5-2.1,1.6-3.9h-5.9
			c-0.1,0.5-0.2,0.9-0.4,1.1c-0.3,0.2-0.7,0.4-1.4,0.5c-0.7,0.1-1.7,0.2-3,0.2c-2.1,0-3.4-0.3-4-0.7c-0.3-0.3-0.5-0.6-0.6-0.9
			c-0.1-0.4-0.2-1-0.2-1.9h4.8h10.7c0-0.8,0.1-1.4,0.1-1.7c0-2.7-0.4-4.7-1.1-5.9C113.9,23.7,112.7,22.9,110.8,22.6z M105,28.9h-4.8
			c0-1.2,0.4-1.9,1-2.3c0.7-0.3,1.9-0.5,3.8-0.5c0.1,0,0.2,0,0.2,0c2.3,0,3.7,0.2,4.2,0.8c0.1,0.2,0.3,0.4,0.3,0.7
			c0.1,0.2,0.1,0.7,0.2,1.3H105z"/>
		<path class="st0" d="M65.5,22.6c-1.1-0.2-3-0.3-5.6-0.3c-0.1,0-0.1,0-0.2,0c-2.9,0-5.1,0.2-6.5,0.5c-1.7,0.4-2.8,1.3-3.5,2.6
			c-0.3,0.7-0.5,1.4-0.6,2.2c-0.1,0.8-0.2,2-0.2,3.6c0,2.1,0.2,3.6,0.5,4.7c0.3,1,0.8,1.8,1.5,2.4c0.8,0.6,1.8,1,3,1.2
			c1.2,0.3,3,0.4,5.4,0.4c0.1,0,0.3,0,0.4,0c2.6,0,4.6-0.2,5.9-0.4c1.4-0.3,2.5-0.8,3.3-1.5c0.8-0.8,1.4-2.1,1.5-3.9h-5.9
			c-0.1,0.5-0.2,0.9-0.4,1.1c-0.3,0.2-0.7,0.4-1.4,0.5c-0.7,0.1-1.6,0.2-3,0.2c-2.1,0-3.4-0.3-4-0.7c-0.3-0.3-0.5-0.6-0.6-0.9
			c-0.1-0.4-0.2-1-0.2-1.9h4.8h10.7c0.1-0.8,0.1-1.4,0.1-1.7c0-2.7-0.4-4.7-1.1-5.9C68.8,23.7,67.4,22.9,65.5,22.6z M59.8,28.9H55
			c0.1-1.2,0.4-1.9,1-2.3c0.7-0.3,1.9-0.5,3.8-0.5c0.1,0,0.2,0,0.2,0c2.3,0,3.7,0.2,4.2,0.8c0.2,0.2,0.3,0.4,0.3,0.7
			c0.1,0.2,0.1,0.7,0.2,1.3H59.8z"/>
		<path class="st0" d="M87.8,24.9h-0.2c-0.7-1-1.5-1.7-2.4-2.1c-0.7-0.3-1.7-0.4-3-0.5c-0.5,0-0.9,0-1.5,0c-2.7,0-4.7,0.2-5.9,0.6
			c-1.3,0.4-2.3,1.1-2.9,2.2c-0.6,1-1,2.8-1,5.4c0,2.2,0.2,3.8,0.5,4.8c0.3,1.1,0.9,1.9,1.7,2.5c0.7,0.5,1.6,0.9,2.8,1.1
			c1.1,0.2,2.7,0.3,4.8,0.3c0.5,0,1,0,1.5,0c1.2-0.1,2.2-0.2,2.8-0.5c0.9-0.4,1.7-1,2.3-2.1h0.2V38c0,1.2,0,2-0.1,2.4
			c-0.1,0.4-0.3,0.8-0.6,1.1c-0.3,0.4-0.9,0.7-1.6,0.9c-0.6,0.1-1.6,0.2-3,0.2c-0.1,0-0.2,0-0.4,0c-1.5,0-2.6-0.1-3.2-0.3
			c-0.6-0.2-1-0.6-1.1-1.3l-0.1-0.1h-6.1c0.2,1.9,0.8,3.3,1.8,4.2c0.7,0.7,1.7,1.2,3,1.5c1.2,0.2,3.1,0.4,5.6,0.4c0.2,0,0.3,0,0.5,0
			c3.3-0.1,5.8-0.4,7.4-0.9c0.7-0.3,1.4-0.7,2.1-1.4c0.6-0.6,1-1.3,1.3-2.1c0.2-0.7,0.3-1.3,0.4-1.8c0-0.4,0.1-1.4,0.1-2.8V22.7
			h-5.7V24.9z M87.3,32.6c-0.1,0.5-0.4,0.8-0.7,1.1c-0.7,0.5-2.2,0.7-4.4,0.7h-0.1c-1.7,0-2.9-0.1-3.6-0.4c-0.6-0.2-1-0.5-1.3-1
			c-0.2-0.5-0.3-1.3-0.3-2.3c0-1,0.1-1.7,0.3-2.1c0.1-0.5,0.4-0.8,0.8-1.1c0.7-0.4,2.1-0.6,4.2-0.6c0.1,0,0.1,0,0.2,0
			c1.9,0,3.2,0.2,3.9,0.5c0.4,0.3,0.8,0.6,0.9,1.1c0.2,0.5,0.3,1.2,0.3,2.2C87.5,31.5,87.4,32.2,87.3,32.6z"/>
		<polygon class="st0" points="145.7,7.6 147,12.1 147.4,12.1 148.6,7.6 148.6,12.1 149,12.1 149,7.3 148.3,7.3 147.2,11.5 146,7.3 
			145.3,7.3 145.3,12.1 145.7,12.1 		"/>
		<path class="st0" d="M138.2,12.2c0.4,0,0.8-0.2,1-0.5c0.2-0.3,0.4-0.7,0.4-1.3h-0.4c0,0.5-0.1,0.8-0.3,1c-0.2,0.3-0.4,0.4-0.7,0.4
			c-0.3,0-0.6-0.2-0.7-0.5c-0.2-0.4-0.3-0.9-0.3-1.7c0-0.7,0.1-1.3,0.3-1.6c0.1-0.4,0.4-0.6,0.7-0.6c0.3,0,0.5,0.1,0.7,0.3
			c0.2,0.2,0.2,0.5,0.3,0.9h0.4c0-0.5-0.1-0.9-0.4-1.1c-0.2-0.3-0.6-0.4-1-0.4c-0.5,0-0.8,0.2-1.1,0.6c-0.2,0.4-0.3,1-0.3,1.9
			c0,0.9,0.1,1.5,0.3,2C137.4,12,137.7,12.2,138.2,12.2z"/>
		<path class="st0" d="M154.6,12.2c0.4,0,0.8-0.2,1-0.5c0.2-0.3,0.4-0.7,0.4-1.3h-0.4c0,0.5-0.1,0.8-0.3,1c-0.2,0.3-0.4,0.4-0.7,0.4
			c-0.3,0-0.6-0.2-0.8-0.5c-0.1-0.4-0.2-0.9-0.2-1.7c0-0.7,0.1-1.3,0.2-1.6c0.2-0.4,0.5-0.6,0.8-0.6c0.3,0,0.5,0.1,0.7,0.3
			c0.1,0.2,0.2,0.5,0.2,0.9h0.5c0-0.5-0.2-0.9-0.4-1.1c-0.3-0.3-0.6-0.4-1-0.4c-0.5,0-0.9,0.2-1.1,0.6c-0.2,0.4-0.3,1-0.3,1.9
			c0,0.9,0.1,1.5,0.3,2C153.7,12,154.1,12.2,154.6,12.2z"/>
		<rect x="194.4" y="11.5" class="st0" width="0.4" height="0.6"/>
		<polygon class="st0" points="130.2,12.1 130.5,12.1 130.5,7.7 131.6,7.7 131.6,7.3 129.1,7.3 129.1,7.7 130.2,7.7 		"/>
		<path class="st0" d="M140.9,10.5h0.7h0.8l0.4,1.6h0.4l-1.3-4.9h-0.3h-0.2l-1.3,4.9h0.4L140.9,10.5z M141.6,7.8l0.7,2.5h-0.7H141
			L141.6,7.8z"/>
		<path class="st0" d="M132.6,9.8h0.7c0.1,0,0.1,0,0.1,0c0.3,0,0.5,0.1,0.6,0.2c0.1,0.1,0.2,0.4,0.2,0.8c0,0.1,0,0.2,0,0.4
			c0,0.5,0.1,0.8,0.1,0.9h0.5c-0.1-0.2-0.2-0.5-0.2-1c0-0.2,0-0.3,0-0.4c-0.1-0.4-0.1-0.6-0.2-0.8c-0.1-0.1-0.3-0.2-0.5-0.3
			c0.3-0.1,0.4-0.3,0.6-0.5c0.1-0.1,0.2-0.4,0.2-0.7c0-0.4-0.2-0.7-0.4-0.9c-0.2-0.2-0.5-0.3-0.9-0.3c-0.1,0-0.2,0-0.3,0h-1v4.9h0.5
			V9.8z M132.6,7.6h0.5c0.1,0,0.2,0,0.3,0c0.2,0.1,0.4,0.1,0.6,0.2c0.2,0.2,0.2,0.4,0.2,0.7c0,0.4-0.1,0.6-0.2,0.8
			c-0.2,0.1-0.4,0.2-0.6,0.2c-0.1,0-0.3,0-0.4,0h-0.4V7.6z"/>
		<rect x="135.5" y="7.3" class="st0" width="0.4" height="4.9"/>
		<rect x="167.3" y="7.3" class="st0" width="0.4" height="4.9"/>
		<path class="st0" d="M180.8,12.2c0.5,0,0.8-0.1,1-0.4c0.2-0.2,0.4-0.6,0.4-1V7.3h-0.4v3.3v0.2c0,0.2-0.1,0.3-0.1,0.4
			c0,0.1,0,0.2-0.1,0.3c-0.1,0.1-0.2,0.2-0.3,0.3c-0.1,0.1-0.3,0.1-0.5,0.1c-0.2,0-0.3,0-0.5-0.1c-0.1-0.1-0.2-0.2-0.3-0.3
			c0-0.1-0.1-0.2-0.1-0.3c0-0.1,0-0.3,0-0.6V7.3h-0.4v3.6c0,0.4,0.1,0.8,0.3,1C180,12.1,180.4,12.2,180.8,12.2z"/>
		<polygon class="st0" points="157.2,9.6 159.2,9.6 159.2,12.1 159.6,12.1 159.6,7.3 159.2,7.3 159.2,9.2 157.2,9.2 157.2,7.3 
			156.8,7.3 156.8,12.1 157.2,12.1 		"/>
		<rect x="188" y="11.5" class="st0" width="0.4" height="0.6"/>
		<polygon class="st0" points="176.2,9.6 178.1,9.6 178.1,12.1 178.6,12.1 178.6,7.3 178.1,7.3 178.1,9.2 176.2,9.2 176.2,7.3 
			175.8,7.3 175.8,12.1 176.2,12.1 		"/>
		<path class="st0" d="M127.2,12.2c0.4,0,0.8-0.2,1-0.5c0.2-0.3,0.4-0.7,0.4-1.3h-0.4c0,0.5-0.1,0.8-0.3,1c-0.2,0.3-0.4,0.4-0.7,0.4
			c-0.3,0-0.6-0.2-0.8-0.5c-0.1-0.4-0.2-0.9-0.2-1.7c0-0.7,0.1-1.3,0.2-1.6c0.2-0.4,0.5-0.6,0.8-0.6c0.3,0,0.5,0.1,0.7,0.3
			c0.1,0.2,0.2,0.5,0.2,0.9h0.5c0-0.5-0.2-0.9-0.4-1.1c-0.2-0.3-0.6-0.4-1-0.4c-0.5,0-0.9,0.2-1.1,0.6c-0.2,0.4-0.3,1-0.3,1.9
			c0,0.9,0.1,1.5,0.3,2C126.3,12,126.7,12.2,127.2,12.2z"/>
		<path class="st0" d="M185.7,11.8c-0.3,0-0.5-0.1-0.7-0.3c-0.1-0.2-0.2-0.5-0.2-0.8h-0.4c0,0.5,0.1,0.8,0.3,1.1
			c0.3,0.2,0.6,0.4,1,0.4c0.5,0,0.8-0.1,1-0.4c0.3-0.2,0.4-0.6,0.4-1c0-0.3-0.1-0.6-0.2-0.8c-0.2-0.2-0.5-0.4-0.9-0.5
			c0-0.1-0.1-0.1-0.1-0.1c-0.4-0.2-0.7-0.3-0.8-0.4c-0.1-0.1-0.1-0.2-0.2-0.3c0-0.1,0-0.2,0-0.3c0-0.3,0.1-0.5,0.2-0.7
			c0.2-0.2,0.4-0.3,0.7-0.3c0.2,0,0.4,0.1,0.6,0.3c0.1,0.1,0.2,0.3,0.2,0.6h0.4c0-0.4-0.1-0.7-0.3-0.9c-0.3-0.2-0.6-0.3-0.9-0.3
			c-0.4,0-0.7,0.1-1,0.3c-0.2,0.3-0.3,0.6-0.3,0.9c0,0.4,0,0.6,0.2,0.9c0.2,0.2,0.4,0.4,0.8,0.5c0.1,0,0.2,0.1,0.3,0.1
			c0.3,0.1,0.5,0.2,0.6,0.3c0.1,0.1,0.2,0.2,0.2,0.3c0.1,0.1,0.1,0.3,0.1,0.4c0,0.3-0.1,0.5-0.3,0.7C186.3,11.7,186,11.8,185.7,11.8
			z"/>
		<path class="st0" d="M164.5,9.8h0.4c0.2,0,0.3,0,0.5,0c0.4,0,0.7-0.1,0.9-0.3c0.2-0.2,0.4-0.5,0.4-1c0-0.3-0.1-0.5-0.1-0.6
			c-0.1-0.2-0.2-0.4-0.3-0.5c-0.1-0.1-0.3-0.1-0.5-0.2c-0.1,0-0.2,0-0.4,0c-0.1,0-0.2,0-0.3,0h-1v4.9h0.4V9.8z M164.5,7.6h0.5
			c0.1,0,0.3,0,0.4,0c0.3,0.1,0.5,0.1,0.6,0.2c0.2,0.2,0.3,0.4,0.3,0.8c0,0.2-0.1,0.3-0.1,0.5c-0.1,0.1-0.2,0.2-0.3,0.3
			c-0.1,0-0.2,0.1-0.3,0.1c-0.1,0-0.1,0-0.2,0c-0.1,0.1-0.2,0.1-0.3,0.1h-0.6V7.6z"/>
		<path class="st0" d="M160.9,11.8c0.2,0.3,0.5,0.4,1,0.4c0.4,0,0.7-0.1,1-0.4c0.2-0.2,0.3-0.6,0.3-1V7.3h-0.4v3.3v0.2
			c0,0.2,0,0.3,0,0.4c-0.1,0.1-0.1,0.2-0.1,0.3c-0.1,0.1-0.2,0.2-0.4,0.3c-0.1,0.1-0.3,0.1-0.4,0.1c-0.2,0-0.4,0-0.5-0.1
			c-0.2-0.1-0.3-0.2-0.3-0.3c-0.1-0.1-0.1-0.2-0.1-0.3c-0.1-0.1-0.1-0.3-0.1-0.6V7.3h-0.4v3.6C160.5,11.2,160.6,11.6,160.9,11.8z"/>
		<path class="st0" d="M191.4,10.5h0.7h0.8l0.4,1.6h0.4l-1.3-4.9h-0.3h-0.2l-1.3,4.9h0.4L191.4,10.5z M192.1,7.8h0.1l0.6,2.5h-0.7
			h-0.6L192.1,7.8z"/>
		<path class="st0" d="M173.6,12.2c0.4,0,0.7-0.2,1-0.5c0.2-0.3,0.3-0.7,0.4-1.3h-0.5c0,0.5-0.1,0.8-0.3,1c-0.1,0.3-0.3,0.4-0.6,0.4
			c-0.4,0-0.6-0.2-0.8-0.5c-0.2-0.4-0.3-0.9-0.3-1.7c0-0.7,0.1-1.3,0.3-1.6c0.2-0.4,0.4-0.6,0.8-0.6c0.3,0,0.5,0.1,0.6,0.3
			c0.2,0.2,0.3,0.5,0.3,0.9h0.4c0-0.5-0.1-0.9-0.3-1.1c-0.3-0.3-0.6-0.4-1-0.4c-0.5,0-0.9,0.2-1.1,0.6c-0.3,0.4-0.4,1-0.4,1.9
			c0,0.9,0.1,1.5,0.4,2C172.7,12,173.1,12.2,173.6,12.2z"/>
		<path class="st0" d="M170,12.2c0.4,0,0.7-0.2,1-0.5c0.2-0.3,0.3-0.7,0.4-1.3H171c-0.1,0.5-0.2,0.8-0.3,1c-0.2,0.3-0.4,0.4-0.7,0.4
			c-0.4,0-0.6-0.2-0.8-0.5c-0.1-0.4-0.2-0.9-0.2-1.7c0-0.7,0.1-1.3,0.2-1.6c0.2-0.4,0.4-0.6,0.8-0.6c0.3,0,0.5,0.1,0.7,0.3
			c0.1,0.2,0.2,0.5,0.2,0.9h0.5c-0.1-0.5-0.2-0.9-0.4-1.1c-0.3-0.3-0.6-0.4-1-0.4c-0.5,0-0.9,0.2-1.1,0.6c-0.2,0.4-0.4,1-0.4,1.9
			c0,0.9,0.2,1.5,0.4,2C169.1,12,169.5,12.2,170,12.2z"/>
		<path class="st0" d="M69.2,11.5c-0.2,0.2-0.5,0.3-0.8,0.3c-0.3,0-0.5-0.1-0.6-0.3c-0.2-0.2-0.3-0.5-0.3-0.8h-0.4
			c0,0.5,0.1,0.8,0.4,1.1c0.2,0.2,0.5,0.4,1,0.4c0.4,0,0.7-0.1,1-0.4c0.2-0.2,0.3-0.6,0.3-1c0-0.3,0-0.6-0.2-0.8
			c-0.2-0.2-0.5-0.4-0.9-0.5c0-0.1,0-0.1-0.1-0.1c-0.4-0.2-0.7-0.3-0.8-0.4c-0.1-0.1-0.1-0.2-0.1-0.3c-0.1-0.1-0.1-0.2-0.1-0.3
			c0-0.3,0.1-0.5,0.3-0.7c0.1-0.2,0.4-0.3,0.6-0.3c0.3,0,0.5,0.1,0.6,0.3c0.1,0.1,0.2,0.3,0.2,0.6h0.4c0-0.4-0.1-0.7-0.3-0.9
			c-0.2-0.2-0.5-0.3-0.9-0.3c-0.4,0-0.7,0.1-0.9,0.3c-0.3,0.3-0.4,0.6-0.4,0.9c0,0.4,0.1,0.6,0.2,0.9c0.2,0.2,0.5,0.4,0.8,0.5
			c0.1,0,0.2,0.1,0.3,0.1c0.3,0.1,0.5,0.2,0.6,0.3c0.1,0.1,0.2,0.2,0.3,0.3c0,0.1,0,0.3,0,0.4C69.4,11.1,69.3,11.3,69.2,11.5z"/>
		<path class="st0" d="M58.2,9.8h0.3c0.2,0,0.4,0,0.5,0c0.4,0,0.7-0.1,0.9-0.3c0.3-0.2,0.4-0.5,0.4-1c0-0.3,0-0.5-0.1-0.6
			c-0.1-0.2-0.2-0.4-0.3-0.5c-0.1-0.1-0.3-0.1-0.4-0.2c-0.1,0-0.3,0-0.5,0c-0.1,0-0.2,0-0.3,0h-0.9v4.9h0.4V9.8z M58.2,7.6h0.4
			c0.2,0,0.3,0,0.4,0c0.3,0.1,0.5,0.1,0.6,0.2c0.2,0.2,0.3,0.4,0.3,0.8c0,0.2,0,0.3-0.1,0.5c-0.1,0.1-0.2,0.2-0.3,0.3
			c-0.1,0-0.2,0.1-0.3,0.1c0,0-0.1,0-0.2,0c-0.1,0.1-0.1,0.1-0.2,0.1h-0.6V7.6z"/>
		<polygon class="st0" points="66.5,11.7 64.7,11.7 64.7,9.7 66.3,9.7 66.3,9.3 64.7,9.3 64.7,7.6 66.5,7.6 66.5,7.3 64.3,7.3 
			64.3,12.1 66.5,12.1 		"/>
		<path class="st0" d="M61.4,9.8h0.8c0,0,0,0,0.1,0c0.2,0,0.4,0.1,0.5,0.2c0.1,0.1,0.2,0.4,0.2,0.8c0,0.1,0,0.2,0,0.4
			c0.1,0.5,0.1,0.8,0.2,0.9h0.5c-0.2-0.2-0.2-0.5-0.3-1c0-0.2,0-0.3,0-0.4c0-0.4-0.1-0.6-0.2-0.8c-0.1-0.1-0.2-0.2-0.4-0.3
			c0.2-0.1,0.4-0.3,0.5-0.5c0.1-0.1,0.2-0.4,0.2-0.7c0-0.4-0.1-0.7-0.4-0.9c-0.2-0.2-0.5-0.3-0.8-0.3c-0.1,0-0.2,0-0.3,0h-1v4.9h0.4
			V9.8z M61.4,7.6h0.5c0.2,0,0.3,0,0.4,0c0.2,0.1,0.4,0.1,0.5,0.2C62.9,8,63,8.2,63,8.5c0,0.4-0.1,0.6-0.3,0.8
			c-0.1,0.1-0.3,0.2-0.5,0.2c-0.2,0-0.3,0-0.5,0h-0.4V7.6z"/>
		<path class="st0" d="M76.9,12c0.4,0,0.8-0.2,1-0.5c0.3-0.3,0.4-1,0.4-1.9c0-0.9-0.1-1.5-0.4-1.9c-0.2-0.3-0.6-0.5-1-0.5
			c-0.1,0-0.3,0-0.4,0h-1v4.9h1C76.6,12.1,76.8,12.1,76.9,12z M75.9,7.6h0.6c0.1,0,0.3,0,0.4,0.1c0.3,0,0.5,0.1,0.7,0.4
			c0.2,0.2,0.3,0.8,0.3,1.6c0,0.8-0.1,1.4-0.3,1.7c-0.2,0.2-0.4,0.3-0.7,0.4c-0.1,0-0.3,0-0.4,0h-0.6V7.6z"/>
		<path class="st0" d="M84.9,12.2c0.2,0,0.4-0.1,0.6-0.2c0.1-0.1,0.3-0.2,0.4-0.4l0.1,0.5h0.3V9.6h-1.5V10h1.1c0,0.6-0.1,1-0.2,1.3
			c-0.2,0.3-0.5,0.5-0.8,0.5c-0.3,0-0.6-0.2-0.8-0.5c-0.1-0.4-0.2-0.9-0.2-1.7c0-0.7,0.1-1.3,0.2-1.6c0.2-0.4,0.5-0.6,0.8-0.6
			c0.3,0,0.5,0.1,0.6,0.3c0.2,0.2,0.3,0.5,0.3,0.8h0.5c-0.1-0.5-0.2-0.8-0.4-1.1c-0.3-0.2-0.6-0.3-1-0.3c-0.5,0-0.8,0.2-1.1,0.6
			c-0.2,0.4-0.3,1-0.3,1.9c0,0.9,0.1,1.5,0.3,1.9C84,12,84.4,12.2,84.9,12.2z"/>
		<polygon class="st0" points="81.3,11.7 79.5,11.7 79.5,9.7 81.1,9.7 81.1,9.3 79.5,9.3 79.5,7.6 81.3,7.6 81.3,7.3 79.1,7.3 
			79.1,12.1 81.3,12.1 		"/>
		<polygon class="st0" points="53.4,7.6 54.7,12.1 55.2,12.1 56.4,7.6 56.4,12.1 56.8,12.1 56.8,7.3 56.1,7.3 54.9,11.5 53.7,7.3 
			53,7.3 53,12.1 53.4,12.1 		"/>
		<polygon class="st0" points="96.1,11.7 94.3,11.7 94.3,9.7 95.9,9.7 95.9,9.3 94.3,9.3 94.3,7.6 96.1,7.6 96.1,7.3 93.8,7.3 
			93.8,12.1 96.1,12.1 		"/>
		<polygon class="st0" points="89.4,11.7 87.6,11.7 87.6,9.7 89.3,9.7 89.3,9.3 87.6,9.3 87.6,7.6 89.4,7.6 89.4,7.3 87.2,7.3 
			87.2,12.1 89.4,12.1 		"/>
		<path class="st0" d="M152.7,12.1l-1.3-4.9h-0.3h-0.2l-1.3,4.9h0.4l0.4-1.6h0.7h0.8l0.4,1.6H152.7z M151.1,10.2h-0.7l0.7-2.5
			l0.7,2.5H151.1z"/>
		<path class="st0" d="M71.8,10.5h0.7l0.5,1.6h0.4l-1.3-4.9h-0.3h-0.2l-1.3,4.9h0.3l0.5-1.6H71.8z M71.8,7.8l0.7,2.5h-0.7h-0.7
			L71.8,7.8z"/>
		<polygon class="st0" points="52.3,11.7 50.5,11.7 50.5,9.7 52.1,9.7 52.1,9.3 50.5,9.3 50.5,7.6 52.3,7.6 52.3,7.3 50.1,7.3 
			50.1,12.1 52.3,12.1 		"/>
		<path class="st0" d="M104.8,12.2c0.4,0,0.7-0.2,0.9-0.5c0.3-0.3,0.4-0.7,0.4-1.3h-0.4c0,0.5-0.1,0.8-0.3,1
			c-0.1,0.3-0.4,0.4-0.6,0.4c-0.4,0-0.7-0.2-0.8-0.5c-0.2-0.4-0.3-0.9-0.3-1.7c0-0.7,0.1-1.3,0.3-1.6c0.1-0.4,0.4-0.6,0.8-0.6
			c0.2,0,0.5,0.1,0.6,0.3c0.2,0.2,0.3,0.5,0.3,0.9h0.4c0-0.5-0.1-0.9-0.4-1.1c-0.2-0.3-0.5-0.4-0.9-0.4c-0.5,0-0.9,0.2-1.1,0.6
			c-0.3,0.4-0.4,1-0.4,1.9c0,0.9,0.1,1.5,0.4,2C103.9,12,104.3,12.2,104.8,12.2z"/>
		<polygon class="st0" points="109.7,6.8 110.4,6 109.9,6 109.7,6.3 109.3,6.9 109.6,6.9 		"/>
		<polygon class="st0" points="112.4,8 114.1,12.1 114.6,12.1 114.6,7.3 114.2,7.3 114.2,11.4 112.4,7.3 112,7.3 112,12.1 
			112.4,12.1 		"/>
		<polygon class="st0" points="119.3,11.7 117.5,11.7 117.5,9.7 119.1,9.7 119.1,9.3 117.5,9.3 117.5,7.6 119.3,7.6 119.3,7.3 
			117.1,7.3 117.1,12.1 119.3,12.1 		"/>
		<polygon class="st0" points="125.1,11.7 123.3,11.7 123.3,9.7 124.9,9.7 124.9,9.3 123.3,9.3 123.3,7.6 125.1,7.6 125.1,7.3 
			122.9,7.3 122.9,12.1 125.1,12.1 		"/>
		<polygon class="st0" points="122.3,11.7 120.4,11.7 120.4,7.3 120,7.3 120,12.1 122.3,12.1 		"/>
		<path class="st0" d="M109.7,12.2c0.5,0,0.9-0.2,1.1-0.6c0.2-0.5,0.3-1.1,0.3-2c0-0.9-0.1-1.5-0.3-1.9c-0.2-0.4-0.6-0.6-1.1-0.6
			c-0.5,0-0.9,0.2-1.1,0.6c-0.2,0.4-0.4,1-0.4,1.9c0,0.9,0.2,1.5,0.4,2C108.8,12,109.2,12.2,109.7,12.2z M108.9,8.1
			c0.2-0.4,0.4-0.6,0.8-0.6c0.3,0,0.6,0.2,0.8,0.6c0.1,0.3,0.2,0.9,0.2,1.6c0,0.8-0.1,1.3-0.2,1.7c-0.2,0.3-0.5,0.5-0.8,0.5
			c-0.4,0-0.6-0.2-0.8-0.5c-0.2-0.4-0.2-0.9-0.2-1.7C108.7,8.9,108.7,8.4,108.9,8.1z"/>
		<path class="st0" d="M100.5,10.5h0.8h0.7l0.4,1.6h0.4l-1.3-4.9h-0.2H101l-1.3,4.9h0.4L100.5,10.5z M101.3,7.8l0.6,2.5h-0.6h-0.7
			L101.3,7.8z"/>
		<polygon class="st0" points="90.6,8 92.4,12.1 92.9,12.1 92.9,7.3 92.5,7.3 92.5,11.4 90.6,7.3 90.2,7.3 90.2,12.1 90.6,12.1 		
			"/>
		<path class="st0" d="M97.1,9.8h0.8c0,0,0,0,0.1,0c0.2,0,0.4,0.1,0.5,0.2c0.1,0.1,0.2,0.4,0.2,0.8c0,0.1,0,0.2,0.1,0.4
			c0,0.5,0,0.8,0.1,0.9h0.5c-0.2-0.2-0.2-0.5-0.3-1c0-0.2,0-0.3,0-0.4c0-0.4-0.1-0.6-0.1-0.8c-0.1-0.1-0.3-0.2-0.5-0.3
			c0.2-0.1,0.4-0.3,0.5-0.5c0.1-0.1,0.2-0.4,0.2-0.7c0-0.4-0.1-0.7-0.4-0.9c-0.2-0.2-0.5-0.3-0.8-0.3c-0.1,0-0.2,0-0.3,0h-1v4.9h0.4
			V9.8z M97.1,7.6h0.6c0.1,0,0.2,0,0.3,0c0.2,0.1,0.4,0.1,0.5,0.2c0.2,0.2,0.3,0.4,0.3,0.7c0,0.4-0.1,0.6-0.3,0.8
			c-0.1,0.1-0.3,0.2-0.5,0.2c-0.2,0-0.3,0-0.5,0h-0.4V7.6z"/>
		<polygon class="st0" points="124.7,6 124.2,6 123.6,6.9 123.9,6.9 		"/>
		<rect x="107" y="7.3" class="st0" width="0.4" height="4.9"/>
	</g>
	<g>
		<path class="st0" d="M27.6,1.7c-0.9,0-1.9-0.1-2.9,0c-6.4,0.2-12,2.8-16.3,6.9c-4.6,4.2-7.6,9.8-8.2,16c-0.4,3.9,0.2,8.2,1.8,12.2
			c2.7,3.1,6.4,4.6,10,4.5C8.1,36.9,5.9,31,6.3,24.8c0.8-11.5,10-20.5,21.3-21.3c1,0,2,0,3,0c1.1,0.1,2.2,0.3,3.3,0.5
			c-0.5-0.1-0.9-0.1-1.4-0.2c-1.7-0.1-3.3,0-4.9,0.3c-9,1.6-16.3,9.2-16.9,18.9c-0.4,6.1,1.9,11.6,5.8,15.7l1.3,1.2
			c1.4-0.7,2.8-1.6,3.9-2.8l-1.5-1.3c-3.3-3.6-5.2-8.4-4.8-13.7C15.8,14.5,20.8,8.4,27.6,6c2.3-0.8,4.8-1.1,7.3-1
			c0.6,0.1,1.1,0.1,1.7,0.2l0.1-1C33.8,2.8,30.8,2,27.6,1.7z"/>
		<path class="st0" d="M27.6,7.1c-4.9,2.6-8.5,7.7-8.8,13.6c-0.3,4.7,1.5,9.1,4.5,12.3l0.8,0.8c0.6-1.3,1-3.1,1.1-4.3
			c-1.9-2.4-2.6-5.3-2.7-7.6c-0.2-4.8,1.9-9.1,5.2-12c2.4-2.1,5.4-3.5,8.7-3.9l0.1-0.8h-0.1C33.1,5.1,30.1,5.8,27.6,7.1z"/>
	</g>
	<path class="st0" d="M41.8,16.5l-0.9,3L38.2,0L38,1.5l-1.9,13.1l-0.8-0.7L35,16.1l-0.4-0.6l-0.7,0.6L33,13.7l-0.1-0.5l-1.2,1.1
		c0,2.9-1,8.3-3.1,12.6l0.3-0.2c0,0,0,0,0.1-0.1c1.6-2.7,2.9-6,3.9-9.8l0.1,0.6l1.3,6.9c0.6,0,1.3-0.1,2,0L38,7.4V7l0.8,17.3v0.3
		c1.1,0.3,2.1,0.7,3.2,1.3l0.7-7.5l152.8-1.8L41.8,16.5z"/>
	<g>
		<path class="st0" d="M43.5,28.7C41.7,27,39.8,26,38,25.6c-0.3-0.1-0.6-0.2-0.9-0.2c-1.4-0.3-2.8-0.2-4.1,0c-2.8,0.4-4.7,1.6-4,1.6
			c0.6,0,1.3,0.2,1.9,0.4c0.7,0.2,1.5,0.4,2.1,0.8c0.8,0.4,1.6,0.8,2.3,1.4c1,0.7,1.9,1.7,2.7,2.7c0.2,0.3,0.4,0.6,0.6,0.9
			c1.1,1.8,1.9,4,2.2,6.1c0.3,2.2,0,4.4-0.7,6.5c-0.5,1.3-1.2,2.6-2.1,3.7c0,0.1-0.1,0.1-0.1,0.1H38c3.9-2.1,8.3-5.2,9-10.6
			C47.4,34.8,46,31.1,43.5,28.7z"/>
		<path class="st0" d="M33,31.8c-2.6-2.3-5.4-3-4.9-2.4c0.4,0.4,0.8,1,1.1,1.6c0.9,1.4,1.4,3,1.6,4.6c0.2,1.6,0.1,3.3-0.3,4.9
			c-0.4,2.2-1.4,4.2-2.7,5.9c-1.3,1.7-2.9,3-4.8,4c-0.1,0-0.2,0.1-0.3,0.1c-1.3,0.6-2.7,1-4.3,1.2c1.5,0.4,3,0.8,4.6,1.1
			c3.2,0.4,6.6,0.1,9.4-2.2c0.2-0.2,0.4-0.3,0.5-0.5c2.9-2.5,4.3-5.9,4.2-9.2c0-2.8-1-5.1-2.2-6.8C34.4,33.1,33.7,32.4,33,31.8z"/>
		<path class="st0" d="M24.3,44.9c2-2.1,2.9-4.3,3.3-6.4c0.8-4.8-1.6-9.1-1.6-8.2c-0.1,0.7-0.2,1.4-0.4,2c-0.4,1.6-1.2,3.1-2.2,4.3
			c-0.1,0.2-0.2,0.3-0.3,0.4c-0.9,1.1-2,2.1-3.3,3c-1.9,1.1-4,1.9-6.1,2.2c-2.2,0.2-4.4,0-6.5-0.7c-1.4-0.5-2.7-1.2-3.9-2.2
			c2.1,3.9,5.2,8.5,10.7,9c3.5,0.4,6.7-0.6,8.9-2.5C23.6,45.6,23.9,45.3,24.3,44.9z"/>
	</g>
</g>
</svg>
